G04 #@! TF.GenerationSoftware,KiCad,Pcbnew,(5.1.5)-3*
G04 #@! TF.CreationDate,2020-05-28T15:20:15-05:00*
G04 #@! TF.ProjectId,37P_TFT_Breakout,3337505f-5446-4545-9f42-7265616b6f75,rev?*
G04 #@! TF.SameCoordinates,Original*
G04 #@! TF.FileFunction,Legend,Bot*
G04 #@! TF.FilePolarity,Positive*
%FSLAX46Y46*%
G04 Gerber Fmt 4.6, Leading zero omitted, Abs format (unit mm)*
G04 Created by KiCad (PCBNEW (5.1.5)-3) date 2020-05-28 15:20:15*
%MOMM*%
%LPD*%
G04 APERTURE LIST*
%ADD10C,0.300000*%
%ADD11C,0.500000*%
G04 #@! TA.AperFunction,Profile*
%ADD12C,0.120000*%
G04 #@! TD*
%ADD13C,0.010000*%
%ADD14C,0.120000*%
G04 APERTURE END LIST*
D10*
X172343909Y-126711342D02*
X172343909Y-123711342D01*
X171867719Y-123711342D01*
X171582004Y-123854200D01*
X171391528Y-124139914D01*
X171296290Y-124425628D01*
X171201052Y-124997057D01*
X171201052Y-125425628D01*
X171296290Y-125997057D01*
X171391528Y-126282771D01*
X171582004Y-126568485D01*
X171867719Y-126711342D01*
X172343909Y-126711342D01*
X169582004Y-126568485D02*
X169772480Y-126711342D01*
X170153433Y-126711342D01*
X170343909Y-126568485D01*
X170439147Y-126282771D01*
X170439147Y-125139914D01*
X170343909Y-124854200D01*
X170153433Y-124711342D01*
X169772480Y-124711342D01*
X169582004Y-124854200D01*
X169486766Y-125139914D01*
X169486766Y-125425628D01*
X170439147Y-125711342D01*
X168724861Y-126568485D02*
X168534385Y-126711342D01*
X168153433Y-126711342D01*
X167962957Y-126568485D01*
X167867719Y-126282771D01*
X167867719Y-126139914D01*
X167962957Y-125854200D01*
X168153433Y-125711342D01*
X168439147Y-125711342D01*
X168629623Y-125568485D01*
X168724861Y-125282771D01*
X168724861Y-125139914D01*
X168629623Y-124854200D01*
X168439147Y-124711342D01*
X168153433Y-124711342D01*
X167962957Y-124854200D01*
X167010576Y-126711342D02*
X167010576Y-124711342D01*
X167010576Y-123711342D02*
X167105814Y-123854200D01*
X167010576Y-123997057D01*
X166915338Y-123854200D01*
X167010576Y-123711342D01*
X167010576Y-123997057D01*
X165201052Y-124711342D02*
X165201052Y-127139914D01*
X165296290Y-127425628D01*
X165391528Y-127568485D01*
X165582004Y-127711342D01*
X165867719Y-127711342D01*
X166058195Y-127568485D01*
X165201052Y-126568485D02*
X165391528Y-126711342D01*
X165772480Y-126711342D01*
X165962957Y-126568485D01*
X166058195Y-126425628D01*
X166153433Y-126139914D01*
X166153433Y-125282771D01*
X166058195Y-124997057D01*
X165962957Y-124854200D01*
X165772480Y-124711342D01*
X165391528Y-124711342D01*
X165201052Y-124854200D01*
X164248671Y-124711342D02*
X164248671Y-126711342D01*
X164248671Y-124997057D02*
X164153433Y-124854200D01*
X163962957Y-124711342D01*
X163677242Y-124711342D01*
X163486766Y-124854200D01*
X163391528Y-125139914D01*
X163391528Y-126711342D01*
X161677242Y-126568485D02*
X161867719Y-126711342D01*
X162248671Y-126711342D01*
X162439147Y-126568485D01*
X162534385Y-126282771D01*
X162534385Y-125139914D01*
X162439147Y-124854200D01*
X162248671Y-124711342D01*
X161867719Y-124711342D01*
X161677242Y-124854200D01*
X161582004Y-125139914D01*
X161582004Y-125425628D01*
X162534385Y-125711342D01*
X159867719Y-126711342D02*
X159867719Y-123711342D01*
X159867719Y-126568485D02*
X160058195Y-126711342D01*
X160439147Y-126711342D01*
X160629623Y-126568485D01*
X160724861Y-126425628D01*
X160820100Y-126139914D01*
X160820100Y-125282771D01*
X160724861Y-124997057D01*
X160629623Y-124854200D01*
X160439147Y-124711342D01*
X160058195Y-124711342D01*
X159867719Y-124854200D01*
X157391528Y-126711342D02*
X157391528Y-123711342D01*
X157391528Y-124854200D02*
X157201052Y-124711342D01*
X156820100Y-124711342D01*
X156629623Y-124854200D01*
X156534385Y-124997057D01*
X156439147Y-125282771D01*
X156439147Y-126139914D01*
X156534385Y-126425628D01*
X156629623Y-126568485D01*
X156820100Y-126711342D01*
X157201052Y-126711342D01*
X157391528Y-126568485D01*
X155772480Y-124711342D02*
X155296290Y-126711342D01*
X154820100Y-124711342D02*
X155296290Y-126711342D01*
X155486766Y-127425628D01*
X155582004Y-127568485D01*
X155772480Y-127711342D01*
X154058195Y-126425628D02*
X153962957Y-126568485D01*
X154058195Y-126711342D01*
X154153433Y-126568485D01*
X154058195Y-126425628D01*
X154058195Y-126711342D01*
X154058195Y-124854200D02*
X153962957Y-124997057D01*
X154058195Y-125139914D01*
X154153433Y-124997057D01*
X154058195Y-124854200D01*
X154058195Y-125139914D01*
X151582004Y-126711342D02*
X151582004Y-123711342D01*
X150915338Y-125854200D01*
X150248671Y-123711342D01*
X150248671Y-126711342D01*
X149296290Y-126711342D02*
X149296290Y-124711342D01*
X149296290Y-123711342D02*
X149391528Y-123854200D01*
X149296290Y-123997057D01*
X149201052Y-123854200D01*
X149296290Y-123711342D01*
X149296290Y-123997057D01*
X148343909Y-126711342D02*
X148343909Y-123711342D01*
X148153433Y-125568485D02*
X147582004Y-126711342D01*
X147582004Y-124711342D02*
X148343909Y-125854200D01*
X145962957Y-126568485D02*
X146153433Y-126711342D01*
X146534385Y-126711342D01*
X146724861Y-126568485D01*
X146820100Y-126282771D01*
X146820100Y-125139914D01*
X146724861Y-124854200D01*
X146534385Y-124711342D01*
X146153433Y-124711342D01*
X145962957Y-124854200D01*
X145867719Y-125139914D01*
X145867719Y-125425628D01*
X146820100Y-125711342D01*
X143486766Y-126711342D02*
X143486766Y-123711342D01*
X142343909Y-126711342D02*
X143201052Y-124997057D01*
X142343909Y-123711342D02*
X143486766Y-125425628D01*
X140629623Y-124711342D02*
X140629623Y-126711342D01*
X141486766Y-124711342D02*
X141486766Y-126282771D01*
X141391528Y-126568485D01*
X141201052Y-126711342D01*
X140915338Y-126711342D01*
X140724861Y-126568485D01*
X140629623Y-126425628D01*
X139772480Y-126568485D02*
X139582004Y-126711342D01*
X139201052Y-126711342D01*
X139010576Y-126568485D01*
X138915338Y-126282771D01*
X138915338Y-126139914D01*
X139010576Y-125854200D01*
X139201052Y-125711342D01*
X139486766Y-125711342D01*
X139677242Y-125568485D01*
X139772480Y-125282771D01*
X139772480Y-125139914D01*
X139677242Y-124854200D01*
X139486766Y-124711342D01*
X139201052Y-124711342D01*
X139010576Y-124854200D01*
X138058195Y-126711342D02*
X138058195Y-123711342D01*
X137201052Y-126711342D02*
X137201052Y-125139914D01*
X137296290Y-124854200D01*
X137486766Y-124711342D01*
X137772480Y-124711342D01*
X137962957Y-124854200D01*
X138058195Y-124997057D01*
X136248671Y-124711342D02*
X136248671Y-126711342D01*
X136248671Y-124997057D02*
X136153433Y-124854200D01*
X135962957Y-124711342D01*
X135677242Y-124711342D01*
X135486766Y-124854200D01*
X135391528Y-125139914D01*
X135391528Y-126711342D01*
X133677242Y-126568485D02*
X133867719Y-126711342D01*
X134248671Y-126711342D01*
X134439147Y-126568485D01*
X134534385Y-126282771D01*
X134534385Y-125139914D01*
X134439147Y-124854200D01*
X134248671Y-124711342D01*
X133867719Y-124711342D01*
X133677242Y-124854200D01*
X133582004Y-125139914D01*
X133582004Y-125425628D01*
X134534385Y-125711342D01*
X132724861Y-126711342D02*
X132724861Y-124711342D01*
X132724861Y-125282771D02*
X132629623Y-124997057D01*
X132534385Y-124854200D01*
X132343909Y-124711342D01*
X132153433Y-124711342D01*
X131486766Y-126711342D02*
X131486766Y-124711342D01*
X131486766Y-123711342D02*
X131582004Y-123854200D01*
X131486766Y-123997057D01*
X131391528Y-123854200D01*
X131486766Y-123711342D01*
X131486766Y-123997057D01*
X130534385Y-126711342D02*
X130534385Y-123711342D01*
X130343909Y-125568485D02*
X129772480Y-126711342D01*
X129772480Y-124711342D02*
X130534385Y-125854200D01*
X171201052Y-121610761D02*
X171867719Y-120658380D01*
X172343909Y-121610761D02*
X172343909Y-119610761D01*
X171582004Y-119610761D01*
X171391528Y-119706000D01*
X171296290Y-119801238D01*
X171201052Y-119991714D01*
X171201052Y-120277428D01*
X171296290Y-120467904D01*
X171391528Y-120563142D01*
X171582004Y-120658380D01*
X172343909Y-120658380D01*
X170343909Y-120563142D02*
X169677242Y-120563142D01*
X169391528Y-121610761D02*
X170343909Y-121610761D01*
X170343909Y-119610761D01*
X169391528Y-119610761D01*
X168820100Y-119610761D02*
X168153433Y-121610761D01*
X167486766Y-119610761D01*
X167296290Y-121801238D02*
X165772480Y-121801238D01*
X164248671Y-121610761D02*
X165391528Y-121610761D01*
X164820100Y-121610761D02*
X164820100Y-119610761D01*
X165010576Y-119896476D01*
X165201052Y-120086952D01*
X165391528Y-120182190D01*
X163867719Y-121801238D02*
X162343909Y-121801238D01*
X161962957Y-121039333D02*
X161010576Y-121039333D01*
X162153433Y-121610761D02*
X161486766Y-119610761D01*
X160820100Y-121610761D01*
X157677242Y-119610761D02*
X158629623Y-119610761D01*
X158724861Y-120563142D01*
X158629623Y-120467904D01*
X158439147Y-120372666D01*
X157962957Y-120372666D01*
X157772480Y-120467904D01*
X157677242Y-120563142D01*
X157582004Y-120753619D01*
X157582004Y-121229809D01*
X157677242Y-121420285D01*
X157772480Y-121515523D01*
X157962957Y-121610761D01*
X158439147Y-121610761D01*
X158629623Y-121515523D01*
X158724861Y-121420285D01*
X155296290Y-119515523D02*
X157010576Y-122086952D01*
X154724861Y-119801238D02*
X154629623Y-119706000D01*
X154439147Y-119610761D01*
X153962957Y-119610761D01*
X153772480Y-119706000D01*
X153677242Y-119801238D01*
X153582004Y-119991714D01*
X153582004Y-120182190D01*
X153677242Y-120467904D01*
X154820100Y-121610761D01*
X153582004Y-121610761D01*
X152439147Y-120467904D02*
X152629623Y-120372666D01*
X152724861Y-120277428D01*
X152820100Y-120086952D01*
X152820100Y-119991714D01*
X152724861Y-119801238D01*
X152629623Y-119706000D01*
X152439147Y-119610761D01*
X152058195Y-119610761D01*
X151867719Y-119706000D01*
X151772480Y-119801238D01*
X151677242Y-119991714D01*
X151677242Y-120086952D01*
X151772480Y-120277428D01*
X151867719Y-120372666D01*
X152058195Y-120467904D01*
X152439147Y-120467904D01*
X152629623Y-120563142D01*
X152724861Y-120658380D01*
X152820100Y-120848857D01*
X152820100Y-121229809D01*
X152724861Y-121420285D01*
X152629623Y-121515523D01*
X152439147Y-121610761D01*
X152058195Y-121610761D01*
X151867719Y-121515523D01*
X151772480Y-121420285D01*
X151677242Y-121229809D01*
X151677242Y-120848857D01*
X151772480Y-120658380D01*
X151867719Y-120563142D01*
X152058195Y-120467904D01*
X149391528Y-119515523D02*
X151105814Y-122086952D01*
X148820100Y-119801238D02*
X148724861Y-119706000D01*
X148534385Y-119610761D01*
X148058195Y-119610761D01*
X147867719Y-119706000D01*
X147772480Y-119801238D01*
X147677242Y-119991714D01*
X147677242Y-120182190D01*
X147772480Y-120467904D01*
X148915338Y-121610761D01*
X147677242Y-121610761D01*
X146439147Y-119610761D02*
X146248671Y-119610761D01*
X146058195Y-119706000D01*
X145962957Y-119801238D01*
X145867719Y-119991714D01*
X145772480Y-120372666D01*
X145772480Y-120848857D01*
X145867719Y-121229809D01*
X145962957Y-121420285D01*
X146058195Y-121515523D01*
X146248671Y-121610761D01*
X146439147Y-121610761D01*
X146629623Y-121515523D01*
X146724861Y-121420285D01*
X146820100Y-121229809D01*
X146915338Y-120848857D01*
X146915338Y-120372666D01*
X146820100Y-119991714D01*
X146724861Y-119801238D01*
X146629623Y-119706000D01*
X146439147Y-119610761D01*
X145010576Y-119801238D02*
X144915338Y-119706000D01*
X144724861Y-119610761D01*
X144248671Y-119610761D01*
X144058195Y-119706000D01*
X143962957Y-119801238D01*
X143867719Y-119991714D01*
X143867719Y-120182190D01*
X143962957Y-120467904D01*
X145105814Y-121610761D01*
X143867719Y-121610761D01*
X142629623Y-119610761D02*
X142439147Y-119610761D01*
X142248671Y-119706000D01*
X142153433Y-119801238D01*
X142058195Y-119991714D01*
X141962957Y-120372666D01*
X141962957Y-120848857D01*
X142058195Y-121229809D01*
X142153433Y-121420285D01*
X142248671Y-121515523D01*
X142439147Y-121610761D01*
X142629623Y-121610761D01*
X142820100Y-121515523D01*
X142915338Y-121420285D01*
X143010576Y-121229809D01*
X143105814Y-120848857D01*
X143105814Y-120372666D01*
X143010576Y-119991714D01*
X142915338Y-119801238D01*
X142820100Y-119706000D01*
X142629623Y-119610761D01*
D11*
X172185328Y-113435523D02*
X170328186Y-113435523D01*
X171328186Y-114959333D01*
X170899614Y-114959333D01*
X170613900Y-115149809D01*
X170471043Y-115340285D01*
X170328186Y-115721238D01*
X170328186Y-116673619D01*
X170471043Y-117054571D01*
X170613900Y-117245047D01*
X170899614Y-117435523D01*
X171756757Y-117435523D01*
X172042471Y-117245047D01*
X172185328Y-117054571D01*
X169042472Y-117054571D02*
X168899615Y-117245047D01*
X169042472Y-117435523D01*
X169185329Y-117245047D01*
X169042472Y-117054571D01*
X169042472Y-117435523D01*
X166185330Y-113435523D02*
X167613901Y-113435523D01*
X167756758Y-115340285D01*
X167613901Y-115149809D01*
X167328187Y-114959333D01*
X166613902Y-114959333D01*
X166328187Y-115149809D01*
X166185330Y-115340285D01*
X166042473Y-115721238D01*
X166042473Y-116673619D01*
X166185330Y-117054571D01*
X166328187Y-117245047D01*
X166613902Y-117435523D01*
X167328187Y-117435523D01*
X167613901Y-117245047D01*
X167756758Y-117054571D01*
X164899616Y-113435523D02*
X164899616Y-114197428D01*
X163756760Y-113435523D02*
X163756760Y-114197428D01*
X160613904Y-113435523D02*
X158899618Y-113435523D01*
X159756761Y-117435523D02*
X159756761Y-113435523D01*
X156899619Y-115340285D02*
X157899619Y-115340285D01*
X157899619Y-117435523D02*
X157899619Y-113435523D01*
X156471048Y-113435523D01*
X155756762Y-113435523D02*
X154042477Y-113435523D01*
X154899620Y-117435523D02*
X154899620Y-113435523D01*
X149756764Y-115340285D02*
X149328193Y-115530761D01*
X149185336Y-115721238D01*
X149042479Y-116102190D01*
X149042479Y-116673619D01*
X149185336Y-117054571D01*
X149328193Y-117245047D01*
X149613907Y-117435523D01*
X150756764Y-117435523D01*
X150756764Y-113435523D01*
X149756764Y-113435523D01*
X149471050Y-113626000D01*
X149328193Y-113816476D01*
X149185336Y-114197428D01*
X149185336Y-114578380D01*
X149328193Y-114959333D01*
X149471050Y-115149809D01*
X149756764Y-115340285D01*
X150756764Y-115340285D01*
X147756765Y-117435523D02*
X147756765Y-114768857D01*
X147756765Y-115530761D02*
X147613908Y-115149809D01*
X147471051Y-114959333D01*
X147185337Y-114768857D01*
X146899622Y-114768857D01*
X144756766Y-117245047D02*
X145042480Y-117435523D01*
X145613909Y-117435523D01*
X145899623Y-117245047D01*
X146042480Y-116864095D01*
X146042480Y-115340285D01*
X145899623Y-114959333D01*
X145613909Y-114768857D01*
X145042480Y-114768857D01*
X144756766Y-114959333D01*
X144613909Y-115340285D01*
X144613909Y-115721238D01*
X146042480Y-116102190D01*
X142042481Y-117435523D02*
X142042481Y-115340285D01*
X142185338Y-114959333D01*
X142471052Y-114768857D01*
X143042481Y-114768857D01*
X143328195Y-114959333D01*
X142042481Y-117245047D02*
X142328195Y-117435523D01*
X143042481Y-117435523D01*
X143328195Y-117245047D01*
X143471052Y-116864095D01*
X143471052Y-116483142D01*
X143328195Y-116102190D01*
X143042481Y-115911714D01*
X142328195Y-115911714D01*
X142042481Y-115721238D01*
X140613910Y-117435523D02*
X140613910Y-113435523D01*
X140328196Y-115911714D02*
X139471053Y-117435523D01*
X139471053Y-114768857D02*
X140613910Y-116292666D01*
X137756768Y-117435523D02*
X138042482Y-117245047D01*
X138185340Y-117054571D01*
X138328197Y-116673619D01*
X138328197Y-115530761D01*
X138185340Y-115149809D01*
X138042482Y-114959333D01*
X137756768Y-114768857D01*
X137328197Y-114768857D01*
X137042483Y-114959333D01*
X136899626Y-115149809D01*
X136756769Y-115530761D01*
X136756769Y-116673619D01*
X136899626Y-117054571D01*
X137042483Y-117245047D01*
X137328197Y-117435523D01*
X137756768Y-117435523D01*
X134185341Y-114768857D02*
X134185341Y-117435523D01*
X135471055Y-114768857D02*
X135471055Y-116864095D01*
X135328198Y-117245047D01*
X135042483Y-117435523D01*
X134613912Y-117435523D01*
X134328198Y-117245047D01*
X134185341Y-117054571D01*
X133185341Y-114768857D02*
X132042484Y-114768857D01*
X132756770Y-113435523D02*
X132756770Y-116864095D01*
X132613913Y-117245047D01*
X132328199Y-117435523D01*
X132042484Y-117435523D01*
D12*
X197500000Y-70000000D02*
X197500000Y-133500000D01*
X102500000Y-70000000D02*
X197500000Y-70000000D01*
X102500000Y-133500000D02*
X102500000Y-70000000D01*
X102500000Y-133500000D02*
X197500000Y-133500000D01*
D13*
G04 #@! TO.C,G\002A\002A\002A*
G36*
X187712459Y-113045455D02*
G01*
X187563067Y-113080110D01*
X187346293Y-113193717D01*
X187171605Y-113353507D01*
X187043512Y-113549309D01*
X186966522Y-113770950D01*
X186945143Y-114008261D01*
X186983885Y-114251069D01*
X187009761Y-114328387D01*
X187046661Y-114435498D01*
X187056470Y-114501173D01*
X187041078Y-114545195D01*
X187031646Y-114557350D01*
X187001963Y-114592181D01*
X186932424Y-114673876D01*
X186827054Y-114797704D01*
X186689880Y-114958934D01*
X186524926Y-115152833D01*
X186336219Y-115374670D01*
X186127784Y-115619713D01*
X185903646Y-115883229D01*
X185704760Y-116117067D01*
X185444390Y-116423073D01*
X185175462Y-116738906D01*
X184905119Y-117056188D01*
X184640508Y-117366545D01*
X184388771Y-117661600D01*
X184157054Y-117932977D01*
X183952501Y-118172300D01*
X183782257Y-118371195D01*
X183733997Y-118427493D01*
X183045012Y-119230854D01*
X181078750Y-116937360D01*
X180787139Y-116597054D01*
X180507561Y-116270472D01*
X180243245Y-115961403D01*
X179997418Y-115673635D01*
X179773310Y-115410960D01*
X179574147Y-115177166D01*
X179403159Y-114976042D01*
X179263574Y-114811378D01*
X179158619Y-114686963D01*
X179091524Y-114606587D01*
X179065857Y-114574572D01*
X179041799Y-114525264D01*
X179041646Y-114467862D01*
X179067234Y-114380333D01*
X179086330Y-114328676D01*
X179145346Y-114086156D01*
X179143876Y-113947345D01*
X178548507Y-113947345D01*
X178538724Y-114078262D01*
X178473907Y-114193529D01*
X178398598Y-114255563D01*
X178260615Y-114313576D01*
X178129073Y-114309007D01*
X178040745Y-114273873D01*
X177940079Y-114188850D01*
X177883682Y-114072718D01*
X177870634Y-113942902D01*
X177900018Y-113816828D01*
X177970914Y-113711919D01*
X178073725Y-113648472D01*
X178196231Y-113616160D01*
X178288633Y-113624035D01*
X178378025Y-113676006D01*
X178402565Y-113695915D01*
X178503155Y-113815117D01*
X178548507Y-113947345D01*
X179143876Y-113947345D01*
X179142801Y-113845916D01*
X179083195Y-113618115D01*
X178971030Y-113412909D01*
X178810805Y-113240458D01*
X178607021Y-113110918D01*
X178533134Y-113080110D01*
X178361758Y-113042844D01*
X178162072Y-113038634D01*
X177964041Y-113066012D01*
X177814410Y-113115315D01*
X177624863Y-113237224D01*
X177464446Y-113405618D01*
X177343392Y-113604870D01*
X177271936Y-113819352D01*
X177256900Y-113966533D01*
X177287758Y-114183910D01*
X177373486Y-114400086D01*
X177503811Y-114595300D01*
X177661314Y-114744618D01*
X177729754Y-114800263D01*
X177763163Y-114853443D01*
X177772421Y-114930379D01*
X177770546Y-115007860D01*
X177760740Y-115232559D01*
X177748282Y-115496025D01*
X177733543Y-115791887D01*
X177716895Y-116113777D01*
X177698708Y-116455327D01*
X177679353Y-116810167D01*
X177659202Y-117171928D01*
X177638625Y-117534242D01*
X177617994Y-117890740D01*
X177597679Y-118235053D01*
X177578053Y-118560811D01*
X177559484Y-118861647D01*
X177542346Y-119131191D01*
X177527009Y-119363075D01*
X177513844Y-119550929D01*
X177503221Y-119688385D01*
X177495513Y-119769074D01*
X177492023Y-119788399D01*
X177452414Y-119785358D01*
X177359257Y-119756428D01*
X177220316Y-119704501D01*
X177043354Y-119632473D01*
X176845971Y-119547569D01*
X176228827Y-119276073D01*
X176222883Y-119254358D01*
X175597408Y-119254358D01*
X175576873Y-119378644D01*
X175507518Y-119491548D01*
X175411167Y-119566025D01*
X175277295Y-119603542D01*
X175136532Y-119582543D01*
X175025450Y-119518625D01*
X174930815Y-119400561D01*
X174896192Y-119263854D01*
X174924690Y-119122712D01*
X174934387Y-119102451D01*
X175007313Y-119000593D01*
X175105105Y-118945683D01*
X175245699Y-118928084D01*
X175259146Y-118928000D01*
X175399990Y-118955512D01*
X175505575Y-119028563D01*
X175572511Y-119132921D01*
X175597408Y-119254358D01*
X176222883Y-119254358D01*
X176172119Y-119068907D01*
X176074206Y-118820276D01*
X175933425Y-118617066D01*
X175757373Y-118462896D01*
X175553648Y-118361387D01*
X175329848Y-118316159D01*
X175093570Y-118330832D01*
X174852413Y-118409028D01*
X174819956Y-118424619D01*
X174610128Y-118561816D01*
X174456592Y-118736108D01*
X174358659Y-118948644D01*
X174315636Y-119200572D01*
X174313408Y-119266666D01*
X174342962Y-119509523D01*
X174431972Y-119730594D01*
X174573292Y-119920416D01*
X174759775Y-120069525D01*
X174984274Y-120168456D01*
X174997178Y-120172141D01*
X175111781Y-120208051D01*
X175182763Y-120247197D01*
X175232777Y-120306788D01*
X175273585Y-120382078D01*
X175299755Y-120440569D01*
X175348624Y-120556066D01*
X175417785Y-120722670D01*
X175504828Y-120934478D01*
X175607347Y-121185590D01*
X175722932Y-121470106D01*
X175849174Y-121782123D01*
X175983667Y-122115742D01*
X176124000Y-122465061D01*
X176138699Y-122501720D01*
X176926483Y-124466773D01*
X176822281Y-124631082D01*
X176713920Y-124858725D01*
X176667295Y-125092563D01*
X176678930Y-125323070D01*
X176745348Y-125540722D01*
X176863071Y-125735994D01*
X177028622Y-125899361D01*
X177238524Y-126021298D01*
X177343655Y-126059256D01*
X177590916Y-126101746D01*
X177826705Y-126077625D01*
X178049076Y-125987342D01*
X178231144Y-125854395D01*
X178390707Y-125680497D01*
X178490244Y-125493809D01*
X178535295Y-125280525D01*
X178536565Y-125093213D01*
X178536410Y-125091743D01*
X177947445Y-125091743D01*
X177946026Y-125221979D01*
X177932933Y-125264206D01*
X177850314Y-125388506D01*
X177733257Y-125468608D01*
X177598449Y-125498705D01*
X177462578Y-125472987D01*
X177411533Y-125445682D01*
X177319534Y-125349245D01*
X177272280Y-125222986D01*
X177270887Y-125087396D01*
X177316472Y-124962967D01*
X177381260Y-124890001D01*
X177491489Y-124838296D01*
X177627042Y-124821337D01*
X177757042Y-124840402D01*
X177822506Y-124871705D01*
X177903591Y-124965456D01*
X177947445Y-125091743D01*
X178536410Y-125091743D01*
X178521244Y-124948554D01*
X178495747Y-124818640D01*
X178465720Y-124730963D01*
X178387809Y-124614167D01*
X178277538Y-124487226D01*
X178159295Y-124376975D01*
X178110966Y-124340625D01*
X178033698Y-124287994D01*
X178102701Y-123041887D01*
X178118086Y-122758603D01*
X178131696Y-122497324D01*
X178143181Y-122265597D01*
X178152194Y-122070963D01*
X178158385Y-121920968D01*
X178161406Y-121823153D01*
X178160908Y-121785064D01*
X178160793Y-121784871D01*
X178124451Y-121765076D01*
X178042588Y-121727089D01*
X177930291Y-121677337D01*
X177802644Y-121622252D01*
X177674732Y-121568264D01*
X177561641Y-121521801D01*
X177478455Y-121489295D01*
X177440260Y-121477174D01*
X177439421Y-121477390D01*
X177434972Y-121512429D01*
X177427419Y-121606246D01*
X177417356Y-121749984D01*
X177405375Y-121934791D01*
X177392072Y-122151810D01*
X177378039Y-122392188D01*
X177377764Y-122397002D01*
X177363595Y-122637966D01*
X177349925Y-122855939D01*
X177337380Y-123042023D01*
X177326587Y-123187318D01*
X177318175Y-123282925D01*
X177312769Y-123319944D01*
X177312708Y-123320014D01*
X177295412Y-123294091D01*
X177254650Y-123207675D01*
X177191516Y-123063401D01*
X177107099Y-122863900D01*
X177002492Y-122611806D01*
X176878786Y-122309752D01*
X176737073Y-121960370D01*
X176578443Y-121566295D01*
X176403988Y-121130159D01*
X176378171Y-121065410D01*
X176279948Y-120817494D01*
X176191023Y-120590191D01*
X176114236Y-120390983D01*
X176052427Y-120227357D01*
X176008434Y-120106796D01*
X175985097Y-120036786D01*
X175982314Y-120021964D01*
X176014286Y-120032973D01*
X176101520Y-120068198D01*
X176237224Y-120124708D01*
X176414606Y-120199573D01*
X176626873Y-120289860D01*
X176867232Y-120392638D01*
X177128891Y-120504977D01*
X177405058Y-120623944D01*
X177688940Y-120746610D01*
X177973744Y-120870041D01*
X178252679Y-120991308D01*
X178518951Y-121107478D01*
X178765769Y-121215621D01*
X178986339Y-121312805D01*
X179173870Y-121396100D01*
X179321568Y-121462573D01*
X179339700Y-121470835D01*
X179407334Y-121501101D01*
X179529545Y-121555149D01*
X179698821Y-121629690D01*
X179907650Y-121721436D01*
X180148520Y-121827100D01*
X180413920Y-121943393D01*
X180696337Y-122067027D01*
X180988259Y-122194715D01*
X181282175Y-122323168D01*
X181570572Y-122449097D01*
X181845939Y-122569216D01*
X182100764Y-122680236D01*
X182327534Y-122778869D01*
X182396426Y-122808788D01*
X183048618Y-123091897D01*
X184174426Y-122597635D01*
X184459028Y-122472781D01*
X184746795Y-122346711D01*
X185026200Y-122224464D01*
X185285716Y-122111076D01*
X185513817Y-122011585D01*
X185698976Y-121931028D01*
X185791300Y-121891008D01*
X185919040Y-121835553D01*
X186100714Y-121756374D01*
X186328248Y-121657004D01*
X186593568Y-121540977D01*
X186888600Y-121411826D01*
X187205271Y-121273083D01*
X187535507Y-121128282D01*
X187871234Y-120980956D01*
X187958767Y-120942524D01*
X188377338Y-120758791D01*
X188738193Y-120600567D01*
X189045593Y-120466040D01*
X189303799Y-120353398D01*
X189517072Y-120260827D01*
X189689675Y-120186514D01*
X189825868Y-120128647D01*
X189929912Y-120085412D01*
X190006070Y-120054996D01*
X190058602Y-120035587D01*
X190091770Y-120025372D01*
X190109835Y-120022537D01*
X190116472Y-120024549D01*
X190106928Y-120057672D01*
X190074407Y-120147487D01*
X190021287Y-120287879D01*
X189949944Y-120472733D01*
X189862756Y-120695932D01*
X189762099Y-120951360D01*
X189650351Y-121232901D01*
X189529890Y-121534440D01*
X189520725Y-121557304D01*
X189368516Y-121936941D01*
X189239540Y-122258478D01*
X189131815Y-122526681D01*
X189043357Y-122746315D01*
X188972185Y-122922146D01*
X188916316Y-123058939D01*
X188873767Y-123161459D01*
X188842556Y-123234472D01*
X188820700Y-123282743D01*
X188806216Y-123311036D01*
X188797122Y-123324119D01*
X188791435Y-123326755D01*
X188787173Y-123323711D01*
X188786225Y-123322747D01*
X188780343Y-123286235D01*
X188771490Y-123191012D01*
X188760314Y-123046003D01*
X188747462Y-122860132D01*
X188733582Y-122642324D01*
X188719321Y-122401505D01*
X188719102Y-122397668D01*
X188705031Y-122156898D01*
X188691661Y-121939297D01*
X188679589Y-121753724D01*
X188669412Y-121609037D01*
X188661727Y-121514095D01*
X188657132Y-121477754D01*
X188657077Y-121477688D01*
X188625138Y-121486883D01*
X188546420Y-121517229D01*
X188436014Y-121562301D01*
X188309008Y-121615676D01*
X188180491Y-121670932D01*
X188065552Y-121721645D01*
X187979281Y-121761391D01*
X187936766Y-121783748D01*
X187935364Y-121784914D01*
X187933871Y-121817211D01*
X187935941Y-121908372D01*
X187941629Y-122059565D01*
X187950989Y-122271960D01*
X187964075Y-122546726D01*
X187980944Y-122885032D01*
X188001649Y-123288047D01*
X188026246Y-123756941D01*
X188039633Y-124009176D01*
X188055024Y-124298218D01*
X187940607Y-124376617D01*
X187765835Y-124534413D01*
X187642154Y-124726036D01*
X187570065Y-124940273D01*
X187550070Y-125165913D01*
X187582668Y-125391744D01*
X187668361Y-125606555D01*
X187807650Y-125799133D01*
X187874164Y-125863647D01*
X188083805Y-126007261D01*
X188310283Y-126085717D01*
X188549504Y-126098206D01*
X188792605Y-126045575D01*
X189015211Y-125935986D01*
X189193670Y-125782080D01*
X189324667Y-125593581D01*
X189404886Y-125380214D01*
X189431012Y-125151704D01*
X189429175Y-125137962D01*
X188832280Y-125137962D01*
X188810259Y-125279617D01*
X188723195Y-125408665D01*
X188671521Y-125454723D01*
X188584952Y-125488622D01*
X188466899Y-125494330D01*
X188347652Y-125471433D01*
X188317592Y-125459574D01*
X188246426Y-125403313D01*
X188183674Y-125316375D01*
X188177381Y-125303881D01*
X188139518Y-125163757D01*
X188156191Y-125038242D01*
X188215758Y-124933338D01*
X188306581Y-124855049D01*
X188417020Y-124809376D01*
X188535434Y-124802323D01*
X188650185Y-124839891D01*
X188749632Y-124928085D01*
X188787927Y-124989025D01*
X188832280Y-125137962D01*
X189429175Y-125137962D01*
X189399732Y-124917774D01*
X189307730Y-124688149D01*
X189274473Y-124631955D01*
X189170826Y-124468520D01*
X189515842Y-123603260D01*
X189755418Y-123003417D01*
X189971079Y-122465554D01*
X190163323Y-121988470D01*
X190332647Y-121570965D01*
X190479549Y-121211836D01*
X190604527Y-120909883D01*
X190708079Y-120663905D01*
X190790702Y-120472702D01*
X190852893Y-120335072D01*
X190895152Y-120249814D01*
X190917974Y-120215727D01*
X190920042Y-120214933D01*
X191045488Y-120193680D01*
X191195769Y-120137309D01*
X191346186Y-120056905D01*
X191403014Y-120015360D01*
X187823325Y-120015360D01*
X187823300Y-120171386D01*
X186172300Y-120893750D01*
X185828697Y-121044155D01*
X185480258Y-121196804D01*
X185136460Y-121347535D01*
X184806781Y-121492189D01*
X184500698Y-121626605D01*
X184227688Y-121746623D01*
X183997230Y-121848083D01*
X183818800Y-121926825D01*
X183810100Y-121930672D01*
X183604686Y-122020744D01*
X183418673Y-122100825D01*
X183261412Y-122167011D01*
X183142253Y-122215396D01*
X183070546Y-122242076D01*
X183054908Y-122246082D01*
X183016832Y-122232973D01*
X182922230Y-122194896D01*
X182776560Y-122134184D01*
X182585282Y-122053175D01*
X182353856Y-121954203D01*
X182087739Y-121839603D01*
X181792392Y-121711712D01*
X181473274Y-121572864D01*
X181135844Y-121425395D01*
X181107575Y-121413012D01*
X180625342Y-121201735D01*
X180201382Y-121016011D01*
X179831935Y-120854200D01*
X179513239Y-120714665D01*
X179241530Y-120595766D01*
X179013049Y-120495866D01*
X178824032Y-120413325D01*
X178670717Y-120346505D01*
X178549343Y-120293767D01*
X178456149Y-120253473D01*
X178387371Y-120223984D01*
X178339249Y-120203662D01*
X178308020Y-120190869D01*
X178289922Y-120183964D01*
X178281193Y-120181311D01*
X178279213Y-120181066D01*
X178275501Y-120149460D01*
X178275631Y-120063434D01*
X178279364Y-119936180D01*
X178286347Y-119783133D01*
X178291920Y-119676324D01*
X178300573Y-119509293D01*
X178311926Y-119289463D01*
X178325596Y-119024258D01*
X178341201Y-118721100D01*
X178358358Y-118387413D01*
X178376686Y-118030620D01*
X178395803Y-117658143D01*
X178412309Y-117336267D01*
X178431601Y-116969685D01*
X178450816Y-116623019D01*
X178469560Y-116302217D01*
X178487438Y-116013228D01*
X178504056Y-115761999D01*
X178519022Y-115554478D01*
X178531941Y-115396614D01*
X178542419Y-115294356D01*
X178550062Y-115253650D01*
X178550219Y-115253467D01*
X178555625Y-115246277D01*
X178560496Y-115239959D01*
X178567283Y-115237329D01*
X178578436Y-115241209D01*
X178596407Y-115254416D01*
X178623645Y-115279769D01*
X178662602Y-115320088D01*
X178715728Y-115378192D01*
X178785474Y-115456899D01*
X178874291Y-115559030D01*
X178984628Y-115687402D01*
X179118938Y-115844835D01*
X179279670Y-116034148D01*
X179469276Y-116258159D01*
X179690205Y-116519689D01*
X179944909Y-116821556D01*
X180235838Y-117166578D01*
X180565444Y-117557576D01*
X180936175Y-117997368D01*
X180955559Y-118020361D01*
X181252767Y-118372703D01*
X181537598Y-118709968D01*
X181807027Y-119028596D01*
X182058029Y-119325028D01*
X182287580Y-119595707D01*
X182492653Y-119837071D01*
X182670225Y-120045564D01*
X182817271Y-120217626D01*
X182930766Y-120349697D01*
X183007684Y-120438220D01*
X183045002Y-120479635D01*
X183048100Y-120482358D01*
X183071986Y-120457048D01*
X183136204Y-120383690D01*
X183237517Y-120266095D01*
X183372687Y-120108072D01*
X183538475Y-119913434D01*
X183731643Y-119685990D01*
X183948953Y-119429552D01*
X184187167Y-119147930D01*
X184443046Y-118844935D01*
X184713353Y-118524377D01*
X184876900Y-118330205D01*
X185273712Y-117858941D01*
X185629205Y-117436884D01*
X185945636Y-117061390D01*
X186225266Y-116729813D01*
X186470353Y-116439509D01*
X186683157Y-116187832D01*
X186865938Y-115972139D01*
X187020953Y-115789784D01*
X187150463Y-115638122D01*
X187256727Y-115514509D01*
X187342004Y-115416299D01*
X187408554Y-115340848D01*
X187458634Y-115285511D01*
X187494506Y-115247642D01*
X187518427Y-115224598D01*
X187532657Y-115213733D01*
X187539456Y-115212403D01*
X187539843Y-115212720D01*
X187548321Y-115250675D01*
X187559934Y-115342701D01*
X187573197Y-115475295D01*
X187586629Y-115634955D01*
X187587585Y-115647415D01*
X187595886Y-115766525D01*
X187606882Y-115939777D01*
X187620171Y-116159755D01*
X187635354Y-116419045D01*
X187652031Y-116710234D01*
X187669800Y-117025908D01*
X187688263Y-117358652D01*
X187707019Y-117701052D01*
X187725668Y-118045694D01*
X187743810Y-118385165D01*
X187761044Y-118712049D01*
X187776971Y-119018933D01*
X187791190Y-119298404D01*
X187803301Y-119543046D01*
X187812904Y-119745445D01*
X187819599Y-119898188D01*
X187822986Y-119993861D01*
X187823325Y-120015360D01*
X191403014Y-120015360D01*
X191463903Y-119970847D01*
X191632131Y-119784730D01*
X191737136Y-119576234D01*
X191781128Y-119340477D01*
X191782793Y-119266666D01*
X191778717Y-119192701D01*
X191184225Y-119192701D01*
X191182176Y-119329878D01*
X191175849Y-119352093D01*
X191100003Y-119489084D01*
X190985807Y-119574294D01*
X190843538Y-119603094D01*
X190687057Y-119572236D01*
X190591244Y-119503045D01*
X190531580Y-119394154D01*
X190510502Y-119264608D01*
X190530447Y-119133453D01*
X190593851Y-119019737D01*
X190613734Y-118999083D01*
X190717532Y-118941854D01*
X190849356Y-118921486D01*
X190978939Y-118940351D01*
X191034838Y-118966107D01*
X191132150Y-119063334D01*
X191184225Y-119192701D01*
X191778717Y-119192701D01*
X191775366Y-119131894D01*
X191758423Y-119008260D01*
X191740790Y-118938700D01*
X191627083Y-118721794D01*
X191466936Y-118546961D01*
X191270325Y-118418788D01*
X191047223Y-118341859D01*
X190807605Y-118320761D01*
X190561445Y-118360081D01*
X190514458Y-118374862D01*
X190343546Y-118462914D01*
X190182554Y-118598748D01*
X190050820Y-118763070D01*
X189975698Y-118912392D01*
X189933154Y-119030833D01*
X189893798Y-119139256D01*
X189879680Y-119177674D01*
X189861891Y-119214606D01*
X189832515Y-119249991D01*
X189784127Y-119287923D01*
X189709302Y-119332494D01*
X189600616Y-119387798D01*
X189450643Y-119457928D01*
X189251959Y-119546975D01*
X189042500Y-119639165D01*
X188870699Y-119714333D01*
X188751138Y-119764340D01*
X188673744Y-119790572D01*
X188628445Y-119794417D01*
X188605167Y-119777261D01*
X188593837Y-119740492D01*
X188587287Y-119701849D01*
X188581456Y-119644566D01*
X188572550Y-119526082D01*
X188560933Y-119352840D01*
X188546972Y-119131284D01*
X188531032Y-118867858D01*
X188513479Y-118569007D01*
X188494679Y-118241174D01*
X188474997Y-117890804D01*
X188454799Y-117524340D01*
X188434451Y-117148227D01*
X188414319Y-116768908D01*
X188394769Y-116392828D01*
X188376165Y-116026431D01*
X188359292Y-115684749D01*
X188317707Y-114829098D01*
X188400703Y-114771936D01*
X188586113Y-114607822D01*
X188718296Y-114414541D01*
X188797972Y-114202114D01*
X188825860Y-113980558D01*
X188825524Y-113977353D01*
X188229700Y-113977353D01*
X188220188Y-114071753D01*
X188181759Y-114144972D01*
X188105739Y-114220756D01*
X188019457Y-114288043D01*
X187947467Y-114315236D01*
X187859355Y-114313125D01*
X187849110Y-114311801D01*
X187745311Y-114285502D01*
X187662043Y-114243907D01*
X187652613Y-114236241D01*
X187566300Y-114118067D01*
X187536655Y-113983828D01*
X187561172Y-113850421D01*
X187637346Y-113734743D01*
X187737337Y-113664618D01*
X187873206Y-113624352D01*
X187994996Y-113644956D01*
X188115453Y-113729039D01*
X188132440Y-113745529D01*
X188204330Y-113840350D01*
X188229022Y-113948511D01*
X188229700Y-113977353D01*
X188825524Y-113977353D01*
X188802679Y-113759893D01*
X188729148Y-113550138D01*
X188605987Y-113361311D01*
X188433915Y-113203433D01*
X188281791Y-113115315D01*
X188110155Y-113061247D01*
X187910390Y-113037472D01*
X187712459Y-113045455D01*
G37*
X187712459Y-113045455D02*
X187563067Y-113080110D01*
X187346293Y-113193717D01*
X187171605Y-113353507D01*
X187043512Y-113549309D01*
X186966522Y-113770950D01*
X186945143Y-114008261D01*
X186983885Y-114251069D01*
X187009761Y-114328387D01*
X187046661Y-114435498D01*
X187056470Y-114501173D01*
X187041078Y-114545195D01*
X187031646Y-114557350D01*
X187001963Y-114592181D01*
X186932424Y-114673876D01*
X186827054Y-114797704D01*
X186689880Y-114958934D01*
X186524926Y-115152833D01*
X186336219Y-115374670D01*
X186127784Y-115619713D01*
X185903646Y-115883229D01*
X185704760Y-116117067D01*
X185444390Y-116423073D01*
X185175462Y-116738906D01*
X184905119Y-117056188D01*
X184640508Y-117366545D01*
X184388771Y-117661600D01*
X184157054Y-117932977D01*
X183952501Y-118172300D01*
X183782257Y-118371195D01*
X183733997Y-118427493D01*
X183045012Y-119230854D01*
X181078750Y-116937360D01*
X180787139Y-116597054D01*
X180507561Y-116270472D01*
X180243245Y-115961403D01*
X179997418Y-115673635D01*
X179773310Y-115410960D01*
X179574147Y-115177166D01*
X179403159Y-114976042D01*
X179263574Y-114811378D01*
X179158619Y-114686963D01*
X179091524Y-114606587D01*
X179065857Y-114574572D01*
X179041799Y-114525264D01*
X179041646Y-114467862D01*
X179067234Y-114380333D01*
X179086330Y-114328676D01*
X179145346Y-114086156D01*
X179143876Y-113947345D01*
X178548507Y-113947345D01*
X178538724Y-114078262D01*
X178473907Y-114193529D01*
X178398598Y-114255563D01*
X178260615Y-114313576D01*
X178129073Y-114309007D01*
X178040745Y-114273873D01*
X177940079Y-114188850D01*
X177883682Y-114072718D01*
X177870634Y-113942902D01*
X177900018Y-113816828D01*
X177970914Y-113711919D01*
X178073725Y-113648472D01*
X178196231Y-113616160D01*
X178288633Y-113624035D01*
X178378025Y-113676006D01*
X178402565Y-113695915D01*
X178503155Y-113815117D01*
X178548507Y-113947345D01*
X179143876Y-113947345D01*
X179142801Y-113845916D01*
X179083195Y-113618115D01*
X178971030Y-113412909D01*
X178810805Y-113240458D01*
X178607021Y-113110918D01*
X178533134Y-113080110D01*
X178361758Y-113042844D01*
X178162072Y-113038634D01*
X177964041Y-113066012D01*
X177814410Y-113115315D01*
X177624863Y-113237224D01*
X177464446Y-113405618D01*
X177343392Y-113604870D01*
X177271936Y-113819352D01*
X177256900Y-113966533D01*
X177287758Y-114183910D01*
X177373486Y-114400086D01*
X177503811Y-114595300D01*
X177661314Y-114744618D01*
X177729754Y-114800263D01*
X177763163Y-114853443D01*
X177772421Y-114930379D01*
X177770546Y-115007860D01*
X177760740Y-115232559D01*
X177748282Y-115496025D01*
X177733543Y-115791887D01*
X177716895Y-116113777D01*
X177698708Y-116455327D01*
X177679353Y-116810167D01*
X177659202Y-117171928D01*
X177638625Y-117534242D01*
X177617994Y-117890740D01*
X177597679Y-118235053D01*
X177578053Y-118560811D01*
X177559484Y-118861647D01*
X177542346Y-119131191D01*
X177527009Y-119363075D01*
X177513844Y-119550929D01*
X177503221Y-119688385D01*
X177495513Y-119769074D01*
X177492023Y-119788399D01*
X177452414Y-119785358D01*
X177359257Y-119756428D01*
X177220316Y-119704501D01*
X177043354Y-119632473D01*
X176845971Y-119547569D01*
X176228827Y-119276073D01*
X176222883Y-119254358D01*
X175597408Y-119254358D01*
X175576873Y-119378644D01*
X175507518Y-119491548D01*
X175411167Y-119566025D01*
X175277295Y-119603542D01*
X175136532Y-119582543D01*
X175025450Y-119518625D01*
X174930815Y-119400561D01*
X174896192Y-119263854D01*
X174924690Y-119122712D01*
X174934387Y-119102451D01*
X175007313Y-119000593D01*
X175105105Y-118945683D01*
X175245699Y-118928084D01*
X175259146Y-118928000D01*
X175399990Y-118955512D01*
X175505575Y-119028563D01*
X175572511Y-119132921D01*
X175597408Y-119254358D01*
X176222883Y-119254358D01*
X176172119Y-119068907D01*
X176074206Y-118820276D01*
X175933425Y-118617066D01*
X175757373Y-118462896D01*
X175553648Y-118361387D01*
X175329848Y-118316159D01*
X175093570Y-118330832D01*
X174852413Y-118409028D01*
X174819956Y-118424619D01*
X174610128Y-118561816D01*
X174456592Y-118736108D01*
X174358659Y-118948644D01*
X174315636Y-119200572D01*
X174313408Y-119266666D01*
X174342962Y-119509523D01*
X174431972Y-119730594D01*
X174573292Y-119920416D01*
X174759775Y-120069525D01*
X174984274Y-120168456D01*
X174997178Y-120172141D01*
X175111781Y-120208051D01*
X175182763Y-120247197D01*
X175232777Y-120306788D01*
X175273585Y-120382078D01*
X175299755Y-120440569D01*
X175348624Y-120556066D01*
X175417785Y-120722670D01*
X175504828Y-120934478D01*
X175607347Y-121185590D01*
X175722932Y-121470106D01*
X175849174Y-121782123D01*
X175983667Y-122115742D01*
X176124000Y-122465061D01*
X176138699Y-122501720D01*
X176926483Y-124466773D01*
X176822281Y-124631082D01*
X176713920Y-124858725D01*
X176667295Y-125092563D01*
X176678930Y-125323070D01*
X176745348Y-125540722D01*
X176863071Y-125735994D01*
X177028622Y-125899361D01*
X177238524Y-126021298D01*
X177343655Y-126059256D01*
X177590916Y-126101746D01*
X177826705Y-126077625D01*
X178049076Y-125987342D01*
X178231144Y-125854395D01*
X178390707Y-125680497D01*
X178490244Y-125493809D01*
X178535295Y-125280525D01*
X178536565Y-125093213D01*
X178536410Y-125091743D01*
X177947445Y-125091743D01*
X177946026Y-125221979D01*
X177932933Y-125264206D01*
X177850314Y-125388506D01*
X177733257Y-125468608D01*
X177598449Y-125498705D01*
X177462578Y-125472987D01*
X177411533Y-125445682D01*
X177319534Y-125349245D01*
X177272280Y-125222986D01*
X177270887Y-125087396D01*
X177316472Y-124962967D01*
X177381260Y-124890001D01*
X177491489Y-124838296D01*
X177627042Y-124821337D01*
X177757042Y-124840402D01*
X177822506Y-124871705D01*
X177903591Y-124965456D01*
X177947445Y-125091743D01*
X178536410Y-125091743D01*
X178521244Y-124948554D01*
X178495747Y-124818640D01*
X178465720Y-124730963D01*
X178387809Y-124614167D01*
X178277538Y-124487226D01*
X178159295Y-124376975D01*
X178110966Y-124340625D01*
X178033698Y-124287994D01*
X178102701Y-123041887D01*
X178118086Y-122758603D01*
X178131696Y-122497324D01*
X178143181Y-122265597D01*
X178152194Y-122070963D01*
X178158385Y-121920968D01*
X178161406Y-121823153D01*
X178160908Y-121785064D01*
X178160793Y-121784871D01*
X178124451Y-121765076D01*
X178042588Y-121727089D01*
X177930291Y-121677337D01*
X177802644Y-121622252D01*
X177674732Y-121568264D01*
X177561641Y-121521801D01*
X177478455Y-121489295D01*
X177440260Y-121477174D01*
X177439421Y-121477390D01*
X177434972Y-121512429D01*
X177427419Y-121606246D01*
X177417356Y-121749984D01*
X177405375Y-121934791D01*
X177392072Y-122151810D01*
X177378039Y-122392188D01*
X177377764Y-122397002D01*
X177363595Y-122637966D01*
X177349925Y-122855939D01*
X177337380Y-123042023D01*
X177326587Y-123187318D01*
X177318175Y-123282925D01*
X177312769Y-123319944D01*
X177312708Y-123320014D01*
X177295412Y-123294091D01*
X177254650Y-123207675D01*
X177191516Y-123063401D01*
X177107099Y-122863900D01*
X177002492Y-122611806D01*
X176878786Y-122309752D01*
X176737073Y-121960370D01*
X176578443Y-121566295D01*
X176403988Y-121130159D01*
X176378171Y-121065410D01*
X176279948Y-120817494D01*
X176191023Y-120590191D01*
X176114236Y-120390983D01*
X176052427Y-120227357D01*
X176008434Y-120106796D01*
X175985097Y-120036786D01*
X175982314Y-120021964D01*
X176014286Y-120032973D01*
X176101520Y-120068198D01*
X176237224Y-120124708D01*
X176414606Y-120199573D01*
X176626873Y-120289860D01*
X176867232Y-120392638D01*
X177128891Y-120504977D01*
X177405058Y-120623944D01*
X177688940Y-120746610D01*
X177973744Y-120870041D01*
X178252679Y-120991308D01*
X178518951Y-121107478D01*
X178765769Y-121215621D01*
X178986339Y-121312805D01*
X179173870Y-121396100D01*
X179321568Y-121462573D01*
X179339700Y-121470835D01*
X179407334Y-121501101D01*
X179529545Y-121555149D01*
X179698821Y-121629690D01*
X179907650Y-121721436D01*
X180148520Y-121827100D01*
X180413920Y-121943393D01*
X180696337Y-122067027D01*
X180988259Y-122194715D01*
X181282175Y-122323168D01*
X181570572Y-122449097D01*
X181845939Y-122569216D01*
X182100764Y-122680236D01*
X182327534Y-122778869D01*
X182396426Y-122808788D01*
X183048618Y-123091897D01*
X184174426Y-122597635D01*
X184459028Y-122472781D01*
X184746795Y-122346711D01*
X185026200Y-122224464D01*
X185285716Y-122111076D01*
X185513817Y-122011585D01*
X185698976Y-121931028D01*
X185791300Y-121891008D01*
X185919040Y-121835553D01*
X186100714Y-121756374D01*
X186328248Y-121657004D01*
X186593568Y-121540977D01*
X186888600Y-121411826D01*
X187205271Y-121273083D01*
X187535507Y-121128282D01*
X187871234Y-120980956D01*
X187958767Y-120942524D01*
X188377338Y-120758791D01*
X188738193Y-120600567D01*
X189045593Y-120466040D01*
X189303799Y-120353398D01*
X189517072Y-120260827D01*
X189689675Y-120186514D01*
X189825868Y-120128647D01*
X189929912Y-120085412D01*
X190006070Y-120054996D01*
X190058602Y-120035587D01*
X190091770Y-120025372D01*
X190109835Y-120022537D01*
X190116472Y-120024549D01*
X190106928Y-120057672D01*
X190074407Y-120147487D01*
X190021287Y-120287879D01*
X189949944Y-120472733D01*
X189862756Y-120695932D01*
X189762099Y-120951360D01*
X189650351Y-121232901D01*
X189529890Y-121534440D01*
X189520725Y-121557304D01*
X189368516Y-121936941D01*
X189239540Y-122258478D01*
X189131815Y-122526681D01*
X189043357Y-122746315D01*
X188972185Y-122922146D01*
X188916316Y-123058939D01*
X188873767Y-123161459D01*
X188842556Y-123234472D01*
X188820700Y-123282743D01*
X188806216Y-123311036D01*
X188797122Y-123324119D01*
X188791435Y-123326755D01*
X188787173Y-123323711D01*
X188786225Y-123322747D01*
X188780343Y-123286235D01*
X188771490Y-123191012D01*
X188760314Y-123046003D01*
X188747462Y-122860132D01*
X188733582Y-122642324D01*
X188719321Y-122401505D01*
X188719102Y-122397668D01*
X188705031Y-122156898D01*
X188691661Y-121939297D01*
X188679589Y-121753724D01*
X188669412Y-121609037D01*
X188661727Y-121514095D01*
X188657132Y-121477754D01*
X188657077Y-121477688D01*
X188625138Y-121486883D01*
X188546420Y-121517229D01*
X188436014Y-121562301D01*
X188309008Y-121615676D01*
X188180491Y-121670932D01*
X188065552Y-121721645D01*
X187979281Y-121761391D01*
X187936766Y-121783748D01*
X187935364Y-121784914D01*
X187933871Y-121817211D01*
X187935941Y-121908372D01*
X187941629Y-122059565D01*
X187950989Y-122271960D01*
X187964075Y-122546726D01*
X187980944Y-122885032D01*
X188001649Y-123288047D01*
X188026246Y-123756941D01*
X188039633Y-124009176D01*
X188055024Y-124298218D01*
X187940607Y-124376617D01*
X187765835Y-124534413D01*
X187642154Y-124726036D01*
X187570065Y-124940273D01*
X187550070Y-125165913D01*
X187582668Y-125391744D01*
X187668361Y-125606555D01*
X187807650Y-125799133D01*
X187874164Y-125863647D01*
X188083805Y-126007261D01*
X188310283Y-126085717D01*
X188549504Y-126098206D01*
X188792605Y-126045575D01*
X189015211Y-125935986D01*
X189193670Y-125782080D01*
X189324667Y-125593581D01*
X189404886Y-125380214D01*
X189431012Y-125151704D01*
X189429175Y-125137962D01*
X188832280Y-125137962D01*
X188810259Y-125279617D01*
X188723195Y-125408665D01*
X188671521Y-125454723D01*
X188584952Y-125488622D01*
X188466899Y-125494330D01*
X188347652Y-125471433D01*
X188317592Y-125459574D01*
X188246426Y-125403313D01*
X188183674Y-125316375D01*
X188177381Y-125303881D01*
X188139518Y-125163757D01*
X188156191Y-125038242D01*
X188215758Y-124933338D01*
X188306581Y-124855049D01*
X188417020Y-124809376D01*
X188535434Y-124802323D01*
X188650185Y-124839891D01*
X188749632Y-124928085D01*
X188787927Y-124989025D01*
X188832280Y-125137962D01*
X189429175Y-125137962D01*
X189399732Y-124917774D01*
X189307730Y-124688149D01*
X189274473Y-124631955D01*
X189170826Y-124468520D01*
X189515842Y-123603260D01*
X189755418Y-123003417D01*
X189971079Y-122465554D01*
X190163323Y-121988470D01*
X190332647Y-121570965D01*
X190479549Y-121211836D01*
X190604527Y-120909883D01*
X190708079Y-120663905D01*
X190790702Y-120472702D01*
X190852893Y-120335072D01*
X190895152Y-120249814D01*
X190917974Y-120215727D01*
X190920042Y-120214933D01*
X191045488Y-120193680D01*
X191195769Y-120137309D01*
X191346186Y-120056905D01*
X191403014Y-120015360D01*
X187823325Y-120015360D01*
X187823300Y-120171386D01*
X186172300Y-120893750D01*
X185828697Y-121044155D01*
X185480258Y-121196804D01*
X185136460Y-121347535D01*
X184806781Y-121492189D01*
X184500698Y-121626605D01*
X184227688Y-121746623D01*
X183997230Y-121848083D01*
X183818800Y-121926825D01*
X183810100Y-121930672D01*
X183604686Y-122020744D01*
X183418673Y-122100825D01*
X183261412Y-122167011D01*
X183142253Y-122215396D01*
X183070546Y-122242076D01*
X183054908Y-122246082D01*
X183016832Y-122232973D01*
X182922230Y-122194896D01*
X182776560Y-122134184D01*
X182585282Y-122053175D01*
X182353856Y-121954203D01*
X182087739Y-121839603D01*
X181792392Y-121711712D01*
X181473274Y-121572864D01*
X181135844Y-121425395D01*
X181107575Y-121413012D01*
X180625342Y-121201735D01*
X180201382Y-121016011D01*
X179831935Y-120854200D01*
X179513239Y-120714665D01*
X179241530Y-120595766D01*
X179013049Y-120495866D01*
X178824032Y-120413325D01*
X178670717Y-120346505D01*
X178549343Y-120293767D01*
X178456149Y-120253473D01*
X178387371Y-120223984D01*
X178339249Y-120203662D01*
X178308020Y-120190869D01*
X178289922Y-120183964D01*
X178281193Y-120181311D01*
X178279213Y-120181066D01*
X178275501Y-120149460D01*
X178275631Y-120063434D01*
X178279364Y-119936180D01*
X178286347Y-119783133D01*
X178291920Y-119676324D01*
X178300573Y-119509293D01*
X178311926Y-119289463D01*
X178325596Y-119024258D01*
X178341201Y-118721100D01*
X178358358Y-118387413D01*
X178376686Y-118030620D01*
X178395803Y-117658143D01*
X178412309Y-117336267D01*
X178431601Y-116969685D01*
X178450816Y-116623019D01*
X178469560Y-116302217D01*
X178487438Y-116013228D01*
X178504056Y-115761999D01*
X178519022Y-115554478D01*
X178531941Y-115396614D01*
X178542419Y-115294356D01*
X178550062Y-115253650D01*
X178550219Y-115253467D01*
X178555625Y-115246277D01*
X178560496Y-115239959D01*
X178567283Y-115237329D01*
X178578436Y-115241209D01*
X178596407Y-115254416D01*
X178623645Y-115279769D01*
X178662602Y-115320088D01*
X178715728Y-115378192D01*
X178785474Y-115456899D01*
X178874291Y-115559030D01*
X178984628Y-115687402D01*
X179118938Y-115844835D01*
X179279670Y-116034148D01*
X179469276Y-116258159D01*
X179690205Y-116519689D01*
X179944909Y-116821556D01*
X180235838Y-117166578D01*
X180565444Y-117557576D01*
X180936175Y-117997368D01*
X180955559Y-118020361D01*
X181252767Y-118372703D01*
X181537598Y-118709968D01*
X181807027Y-119028596D01*
X182058029Y-119325028D01*
X182287580Y-119595707D01*
X182492653Y-119837071D01*
X182670225Y-120045564D01*
X182817271Y-120217626D01*
X182930766Y-120349697D01*
X183007684Y-120438220D01*
X183045002Y-120479635D01*
X183048100Y-120482358D01*
X183071986Y-120457048D01*
X183136204Y-120383690D01*
X183237517Y-120266095D01*
X183372687Y-120108072D01*
X183538475Y-119913434D01*
X183731643Y-119685990D01*
X183948953Y-119429552D01*
X184187167Y-119147930D01*
X184443046Y-118844935D01*
X184713353Y-118524377D01*
X184876900Y-118330205D01*
X185273712Y-117858941D01*
X185629205Y-117436884D01*
X185945636Y-117061390D01*
X186225266Y-116729813D01*
X186470353Y-116439509D01*
X186683157Y-116187832D01*
X186865938Y-115972139D01*
X187020953Y-115789784D01*
X187150463Y-115638122D01*
X187256727Y-115514509D01*
X187342004Y-115416299D01*
X187408554Y-115340848D01*
X187458634Y-115285511D01*
X187494506Y-115247642D01*
X187518427Y-115224598D01*
X187532657Y-115213733D01*
X187539456Y-115212403D01*
X187539843Y-115212720D01*
X187548321Y-115250675D01*
X187559934Y-115342701D01*
X187573197Y-115475295D01*
X187586629Y-115634955D01*
X187587585Y-115647415D01*
X187595886Y-115766525D01*
X187606882Y-115939777D01*
X187620171Y-116159755D01*
X187635354Y-116419045D01*
X187652031Y-116710234D01*
X187669800Y-117025908D01*
X187688263Y-117358652D01*
X187707019Y-117701052D01*
X187725668Y-118045694D01*
X187743810Y-118385165D01*
X187761044Y-118712049D01*
X187776971Y-119018933D01*
X187791190Y-119298404D01*
X187803301Y-119543046D01*
X187812904Y-119745445D01*
X187819599Y-119898188D01*
X187822986Y-119993861D01*
X187823325Y-120015360D01*
X191403014Y-120015360D01*
X191463903Y-119970847D01*
X191632131Y-119784730D01*
X191737136Y-119576234D01*
X191781128Y-119340477D01*
X191782793Y-119266666D01*
X191778717Y-119192701D01*
X191184225Y-119192701D01*
X191182176Y-119329878D01*
X191175849Y-119352093D01*
X191100003Y-119489084D01*
X190985807Y-119574294D01*
X190843538Y-119603094D01*
X190687057Y-119572236D01*
X190591244Y-119503045D01*
X190531580Y-119394154D01*
X190510502Y-119264608D01*
X190530447Y-119133453D01*
X190593851Y-119019737D01*
X190613734Y-118999083D01*
X190717532Y-118941854D01*
X190849356Y-118921486D01*
X190978939Y-118940351D01*
X191034838Y-118966107D01*
X191132150Y-119063334D01*
X191184225Y-119192701D01*
X191778717Y-119192701D01*
X191775366Y-119131894D01*
X191758423Y-119008260D01*
X191740790Y-118938700D01*
X191627083Y-118721794D01*
X191466936Y-118546961D01*
X191270325Y-118418788D01*
X191047223Y-118341859D01*
X190807605Y-118320761D01*
X190561445Y-118360081D01*
X190514458Y-118374862D01*
X190343546Y-118462914D01*
X190182554Y-118598748D01*
X190050820Y-118763070D01*
X189975698Y-118912392D01*
X189933154Y-119030833D01*
X189893798Y-119139256D01*
X189879680Y-119177674D01*
X189861891Y-119214606D01*
X189832515Y-119249991D01*
X189784127Y-119287923D01*
X189709302Y-119332494D01*
X189600616Y-119387798D01*
X189450643Y-119457928D01*
X189251959Y-119546975D01*
X189042500Y-119639165D01*
X188870699Y-119714333D01*
X188751138Y-119764340D01*
X188673744Y-119790572D01*
X188628445Y-119794417D01*
X188605167Y-119777261D01*
X188593837Y-119740492D01*
X188587287Y-119701849D01*
X188581456Y-119644566D01*
X188572550Y-119526082D01*
X188560933Y-119352840D01*
X188546972Y-119131284D01*
X188531032Y-118867858D01*
X188513479Y-118569007D01*
X188494679Y-118241174D01*
X188474997Y-117890804D01*
X188454799Y-117524340D01*
X188434451Y-117148227D01*
X188414319Y-116768908D01*
X188394769Y-116392828D01*
X188376165Y-116026431D01*
X188359292Y-115684749D01*
X188317707Y-114829098D01*
X188400703Y-114771936D01*
X188586113Y-114607822D01*
X188718296Y-114414541D01*
X188797972Y-114202114D01*
X188825860Y-113980558D01*
X188825524Y-113977353D01*
X188229700Y-113977353D01*
X188220188Y-114071753D01*
X188181759Y-114144972D01*
X188105739Y-114220756D01*
X188019457Y-114288043D01*
X187947467Y-114315236D01*
X187859355Y-114313125D01*
X187849110Y-114311801D01*
X187745311Y-114285502D01*
X187662043Y-114243907D01*
X187652613Y-114236241D01*
X187566300Y-114118067D01*
X187536655Y-113983828D01*
X187561172Y-113850421D01*
X187637346Y-113734743D01*
X187737337Y-113664618D01*
X187873206Y-113624352D01*
X187994996Y-113644956D01*
X188115453Y-113729039D01*
X188132440Y-113745529D01*
X188204330Y-113840350D01*
X188229022Y-113948511D01*
X188229700Y-113977353D01*
X188825524Y-113977353D01*
X188802679Y-113759893D01*
X188729148Y-113550138D01*
X188605987Y-113361311D01*
X188433915Y-113203433D01*
X188281791Y-113115315D01*
X188110155Y-113061247D01*
X187910390Y-113037472D01*
X187712459Y-113045455D01*
G36*
X180157243Y-123636011D02*
G01*
X179988833Y-123638215D01*
X179868752Y-123642939D01*
X179787302Y-123651039D01*
X179734784Y-123663373D01*
X179701497Y-123680801D01*
X179683616Y-123697400D01*
X179634543Y-123797116D01*
X179638883Y-123909847D01*
X179695300Y-124008000D01*
X179728230Y-124035126D01*
X179771435Y-124053913D01*
X179836930Y-124065863D01*
X179936727Y-124072478D01*
X180082838Y-124075259D01*
X180237167Y-124075733D01*
X180711300Y-124075733D01*
X180711300Y-124546243D01*
X180710241Y-124737561D01*
X180706309Y-124871542D01*
X180698372Y-124958559D01*
X180685300Y-125008987D01*
X180665959Y-125033198D01*
X180657730Y-125037310D01*
X180602148Y-125046139D01*
X180496528Y-125053069D01*
X180358559Y-125057162D01*
X180270184Y-125057867D01*
X180115263Y-125059094D01*
X180013503Y-125064666D01*
X179950351Y-125077415D01*
X179911252Y-125100173D01*
X179883487Y-125133135D01*
X179835860Y-125238342D01*
X179852543Y-125335072D01*
X179913894Y-125415006D01*
X179955784Y-125452291D01*
X180001871Y-125476390D01*
X180067269Y-125490156D01*
X180167094Y-125496443D01*
X180316461Y-125498105D01*
X180354161Y-125498133D01*
X180711300Y-125498133D01*
X180711300Y-126441280D01*
X180240613Y-126452307D01*
X180047686Y-126457945D01*
X179910488Y-126465443D01*
X179817018Y-126476473D01*
X179755272Y-126492711D01*
X179713247Y-126515828D01*
X179698747Y-126527849D01*
X179645256Y-126606806D01*
X179628085Y-126680249D01*
X179635193Y-126758426D01*
X179660771Y-126817813D01*
X179712764Y-126860883D01*
X179799117Y-126890115D01*
X179927776Y-126907983D01*
X180106687Y-126916964D01*
X180343796Y-126919535D01*
X180395807Y-126919503D01*
X180634998Y-126916639D01*
X180823961Y-126909226D01*
X180957110Y-126897611D01*
X181028861Y-126882137D01*
X181033033Y-126880064D01*
X181098073Y-126833823D01*
X181125648Y-126804894D01*
X181130822Y-126764358D01*
X181135654Y-126663100D01*
X181140030Y-126508133D01*
X181143835Y-126306467D01*
X181146953Y-126065116D01*
X181149270Y-125791090D01*
X181150670Y-125491401D01*
X181151048Y-125257849D01*
X181151038Y-124897709D01*
X181150579Y-124599247D01*
X181149434Y-124356404D01*
X181147366Y-124163127D01*
X181144136Y-124013357D01*
X181139508Y-123901039D01*
X181133244Y-123820116D01*
X181125106Y-123764533D01*
X181114858Y-123728232D01*
X181102262Y-123705159D01*
X181089633Y-123691515D01*
X181059230Y-123671594D01*
X181012024Y-123656923D01*
X180938441Y-123646741D01*
X180828906Y-123640289D01*
X180673844Y-123636806D01*
X180463682Y-123635532D01*
X180383682Y-123635467D01*
X180157243Y-123636011D01*
G37*
X180157243Y-123636011D02*
X179988833Y-123638215D01*
X179868752Y-123642939D01*
X179787302Y-123651039D01*
X179734784Y-123663373D01*
X179701497Y-123680801D01*
X179683616Y-123697400D01*
X179634543Y-123797116D01*
X179638883Y-123909847D01*
X179695300Y-124008000D01*
X179728230Y-124035126D01*
X179771435Y-124053913D01*
X179836930Y-124065863D01*
X179936727Y-124072478D01*
X180082838Y-124075259D01*
X180237167Y-124075733D01*
X180711300Y-124075733D01*
X180711300Y-124546243D01*
X180710241Y-124737561D01*
X180706309Y-124871542D01*
X180698372Y-124958559D01*
X180685300Y-125008987D01*
X180665959Y-125033198D01*
X180657730Y-125037310D01*
X180602148Y-125046139D01*
X180496528Y-125053069D01*
X180358559Y-125057162D01*
X180270184Y-125057867D01*
X180115263Y-125059094D01*
X180013503Y-125064666D01*
X179950351Y-125077415D01*
X179911252Y-125100173D01*
X179883487Y-125133135D01*
X179835860Y-125238342D01*
X179852543Y-125335072D01*
X179913894Y-125415006D01*
X179955784Y-125452291D01*
X180001871Y-125476390D01*
X180067269Y-125490156D01*
X180167094Y-125496443D01*
X180316461Y-125498105D01*
X180354161Y-125498133D01*
X180711300Y-125498133D01*
X180711300Y-126441280D01*
X180240613Y-126452307D01*
X180047686Y-126457945D01*
X179910488Y-126465443D01*
X179817018Y-126476473D01*
X179755272Y-126492711D01*
X179713247Y-126515828D01*
X179698747Y-126527849D01*
X179645256Y-126606806D01*
X179628085Y-126680249D01*
X179635193Y-126758426D01*
X179660771Y-126817813D01*
X179712764Y-126860883D01*
X179799117Y-126890115D01*
X179927776Y-126907983D01*
X180106687Y-126916964D01*
X180343796Y-126919535D01*
X180395807Y-126919503D01*
X180634998Y-126916639D01*
X180823961Y-126909226D01*
X180957110Y-126897611D01*
X181028861Y-126882137D01*
X181033033Y-126880064D01*
X181098073Y-126833823D01*
X181125648Y-126804894D01*
X181130822Y-126764358D01*
X181135654Y-126663100D01*
X181140030Y-126508133D01*
X181143835Y-126306467D01*
X181146953Y-126065116D01*
X181149270Y-125791090D01*
X181150670Y-125491401D01*
X181151048Y-125257849D01*
X181151038Y-124897709D01*
X181150579Y-124599247D01*
X181149434Y-124356404D01*
X181147366Y-124163127D01*
X181144136Y-124013357D01*
X181139508Y-123901039D01*
X181133244Y-123820116D01*
X181125106Y-123764533D01*
X181114858Y-123728232D01*
X181102262Y-123705159D01*
X181089633Y-123691515D01*
X181059230Y-123671594D01*
X181012024Y-123656923D01*
X180938441Y-123646741D01*
X180828906Y-123640289D01*
X180673844Y-123636806D01*
X180463682Y-123635532D01*
X180383682Y-123635467D01*
X180157243Y-123636011D01*
G36*
X182924993Y-123675047D02*
G01*
X182900949Y-123697400D01*
X182880231Y-123729213D01*
X182865210Y-123778628D01*
X182855027Y-123855682D01*
X182848821Y-123970410D01*
X182845732Y-124132852D01*
X182844900Y-124351327D01*
X182843428Y-124591743D01*
X182837732Y-124772334D01*
X182825890Y-124900967D01*
X182805981Y-124985510D01*
X182776084Y-125033833D01*
X182734279Y-125053803D01*
X182678642Y-125053288D01*
X182673669Y-125052616D01*
X182643141Y-125041966D01*
X182610932Y-125013787D01*
X182572781Y-124960563D01*
X182524428Y-124874778D01*
X182461615Y-124748917D01*
X182380080Y-124575462D01*
X182283150Y-124363600D01*
X182178667Y-124135745D01*
X182096582Y-123962567D01*
X182032645Y-123836472D01*
X181982609Y-123749863D01*
X181942222Y-123695148D01*
X181907237Y-123664730D01*
X181886581Y-123654809D01*
X181774178Y-123644389D01*
X181675478Y-123685640D01*
X181612053Y-123768252D01*
X181605410Y-123789182D01*
X181604361Y-123834648D01*
X181620416Y-123906285D01*
X181656214Y-124011193D01*
X181714396Y-124156473D01*
X181797602Y-124349226D01*
X181892343Y-124560937D01*
X181982135Y-124760568D01*
X182061672Y-124939469D01*
X182126944Y-125088449D01*
X182173941Y-125198317D01*
X182198652Y-125259880D01*
X182201433Y-125269373D01*
X182188089Y-125306265D01*
X182150739Y-125395564D01*
X182093407Y-125528018D01*
X182020114Y-125694372D01*
X181934886Y-125885373D01*
X181896633Y-125970419D01*
X181807114Y-126171941D01*
X181727990Y-126355725D01*
X181663354Y-126511795D01*
X181617300Y-126630171D01*
X181593921Y-126700878D01*
X181591833Y-126713324D01*
X181618649Y-126779283D01*
X181682932Y-126850606D01*
X181760434Y-126904743D01*
X181814646Y-126920533D01*
X181869470Y-126903425D01*
X181930171Y-126848538D01*
X182000124Y-126750528D01*
X182082708Y-126604048D01*
X182181299Y-126403755D01*
X182285440Y-126175467D01*
X182396670Y-125928784D01*
X182486239Y-125739806D01*
X182558121Y-125603546D01*
X182616292Y-125515013D01*
X182664727Y-125469219D01*
X182707402Y-125461176D01*
X182748292Y-125485894D01*
X182791372Y-125538384D01*
X182792180Y-125539535D01*
X182812285Y-125580486D01*
X182826773Y-125643817D01*
X182836451Y-125739536D01*
X182842127Y-125877651D01*
X182844606Y-126068172D01*
X182844900Y-126193462D01*
X182845993Y-126423220D01*
X182850812Y-126594599D01*
X182861669Y-126716938D01*
X182880876Y-126799578D01*
X182910744Y-126851858D01*
X182953584Y-126883118D01*
X183011708Y-126902698D01*
X183020996Y-126904990D01*
X183101058Y-126907566D01*
X183174688Y-126863474D01*
X183198796Y-126840650D01*
X183285167Y-126754279D01*
X183285167Y-125284106D01*
X183285080Y-124930044D01*
X183284631Y-124637411D01*
X183283535Y-124399903D01*
X183281510Y-124211216D01*
X183278270Y-124065047D01*
X183273533Y-123955091D01*
X183267014Y-123875044D01*
X183258431Y-123818602D01*
X183247499Y-123779461D01*
X183233934Y-123751317D01*
X183217452Y-123727867D01*
X183214975Y-123724700D01*
X183124962Y-123654195D01*
X183021137Y-123637021D01*
X182924993Y-123675047D01*
G37*
X182924993Y-123675047D02*
X182900949Y-123697400D01*
X182880231Y-123729213D01*
X182865210Y-123778628D01*
X182855027Y-123855682D01*
X182848821Y-123970410D01*
X182845732Y-124132852D01*
X182844900Y-124351327D01*
X182843428Y-124591743D01*
X182837732Y-124772334D01*
X182825890Y-124900967D01*
X182805981Y-124985510D01*
X182776084Y-125033833D01*
X182734279Y-125053803D01*
X182678642Y-125053288D01*
X182673669Y-125052616D01*
X182643141Y-125041966D01*
X182610932Y-125013787D01*
X182572781Y-124960563D01*
X182524428Y-124874778D01*
X182461615Y-124748917D01*
X182380080Y-124575462D01*
X182283150Y-124363600D01*
X182178667Y-124135745D01*
X182096582Y-123962567D01*
X182032645Y-123836472D01*
X181982609Y-123749863D01*
X181942222Y-123695148D01*
X181907237Y-123664730D01*
X181886581Y-123654809D01*
X181774178Y-123644389D01*
X181675478Y-123685640D01*
X181612053Y-123768252D01*
X181605410Y-123789182D01*
X181604361Y-123834648D01*
X181620416Y-123906285D01*
X181656214Y-124011193D01*
X181714396Y-124156473D01*
X181797602Y-124349226D01*
X181892343Y-124560937D01*
X181982135Y-124760568D01*
X182061672Y-124939469D01*
X182126944Y-125088449D01*
X182173941Y-125198317D01*
X182198652Y-125259880D01*
X182201433Y-125269373D01*
X182188089Y-125306265D01*
X182150739Y-125395564D01*
X182093407Y-125528018D01*
X182020114Y-125694372D01*
X181934886Y-125885373D01*
X181896633Y-125970419D01*
X181807114Y-126171941D01*
X181727990Y-126355725D01*
X181663354Y-126511795D01*
X181617300Y-126630171D01*
X181593921Y-126700878D01*
X181591833Y-126713324D01*
X181618649Y-126779283D01*
X181682932Y-126850606D01*
X181760434Y-126904743D01*
X181814646Y-126920533D01*
X181869470Y-126903425D01*
X181930171Y-126848538D01*
X182000124Y-126750528D01*
X182082708Y-126604048D01*
X182181299Y-126403755D01*
X182285440Y-126175467D01*
X182396670Y-125928784D01*
X182486239Y-125739806D01*
X182558121Y-125603546D01*
X182616292Y-125515013D01*
X182664727Y-125469219D01*
X182707402Y-125461176D01*
X182748292Y-125485894D01*
X182791372Y-125538384D01*
X182792180Y-125539535D01*
X182812285Y-125580486D01*
X182826773Y-125643817D01*
X182836451Y-125739536D01*
X182842127Y-125877651D01*
X182844606Y-126068172D01*
X182844900Y-126193462D01*
X182845993Y-126423220D01*
X182850812Y-126594599D01*
X182861669Y-126716938D01*
X182880876Y-126799578D01*
X182910744Y-126851858D01*
X182953584Y-126883118D01*
X183011708Y-126902698D01*
X183020996Y-126904990D01*
X183101058Y-126907566D01*
X183174688Y-126863474D01*
X183198796Y-126840650D01*
X183285167Y-126754279D01*
X183285167Y-125284106D01*
X183285080Y-124930044D01*
X183284631Y-124637411D01*
X183283535Y-124399903D01*
X183281510Y-124211216D01*
X183278270Y-124065047D01*
X183273533Y-123955091D01*
X183267014Y-123875044D01*
X183258431Y-123818602D01*
X183247499Y-123779461D01*
X183233934Y-123751317D01*
X183217452Y-123727867D01*
X183214975Y-123724700D01*
X183124962Y-123654195D01*
X183021137Y-123637021D01*
X182924993Y-123675047D01*
G36*
X185460678Y-123660378D02*
G01*
X185258031Y-123748226D01*
X185193582Y-123791662D01*
X185119628Y-123839878D01*
X185075304Y-123846092D01*
X185048582Y-123824564D01*
X184997285Y-123785949D01*
X184906407Y-123736069D01*
X184834744Y-123702863D01*
X184619975Y-123644197D01*
X184406744Y-123646901D01*
X184205863Y-123705512D01*
X184028144Y-123814566D01*
X183884398Y-123968598D01*
X183785438Y-124162147D01*
X183761791Y-124245067D01*
X183752536Y-124319659D01*
X183744666Y-124449593D01*
X183738192Y-124625105D01*
X183733126Y-124836430D01*
X183729482Y-125073804D01*
X183727271Y-125327462D01*
X183726506Y-125587639D01*
X183727199Y-125844571D01*
X183729362Y-126088493D01*
X183733007Y-126309641D01*
X183738147Y-126498249D01*
X183744795Y-126644555D01*
X183752961Y-126738792D01*
X183758620Y-126766345D01*
X183826009Y-126862821D01*
X183925313Y-126904853D01*
X184041018Y-126886347D01*
X184051796Y-126881461D01*
X184148767Y-126835014D01*
X184165700Y-125554157D01*
X184182634Y-124273301D01*
X184293234Y-124174517D01*
X184422399Y-124096600D01*
X184558060Y-124077062D01*
X184685062Y-124113369D01*
X184788249Y-124202986D01*
X184824468Y-124263344D01*
X184838672Y-124302139D01*
X184850136Y-124357100D01*
X184859137Y-124435120D01*
X184865950Y-124543095D01*
X184870849Y-124687918D01*
X184874109Y-124876485D01*
X184876007Y-125115689D01*
X184876817Y-125412426D01*
X184876900Y-125576993D01*
X184876900Y-126780150D01*
X184966134Y-126850342D01*
X185039329Y-126898799D01*
X185094957Y-126920455D01*
X185097034Y-126920533D01*
X185150623Y-126901006D01*
X185223653Y-126853671D01*
X185227933Y-126850342D01*
X185317167Y-126780150D01*
X185317167Y-125561727D01*
X185317449Y-125222110D01*
X185318857Y-124943665D01*
X185322231Y-124719832D01*
X185328412Y-124544049D01*
X185338242Y-124409755D01*
X185352562Y-124310390D01*
X185372212Y-124239393D01*
X185398035Y-124190203D01*
X185430870Y-124156260D01*
X185471560Y-124131002D01*
X185502487Y-124116193D01*
X185654932Y-124077937D01*
X185796457Y-124103356D01*
X185882545Y-124157421D01*
X185977567Y-124239109D01*
X185994500Y-125515121D01*
X186011434Y-126791133D01*
X186091385Y-126855833D01*
X186194950Y-126912712D01*
X186293484Y-126904418D01*
X186371748Y-126855761D01*
X186451700Y-126790988D01*
X186451700Y-125509561D01*
X186451588Y-125180802D01*
X186451008Y-124912725D01*
X186449597Y-124698277D01*
X186446989Y-124530407D01*
X186442820Y-124402063D01*
X186436726Y-124306194D01*
X186428342Y-124235746D01*
X186417304Y-124183669D01*
X186403248Y-124142910D01*
X186385808Y-124106419D01*
X186378468Y-124092667D01*
X186240394Y-123898327D01*
X186069750Y-123755432D01*
X185876365Y-123666478D01*
X185670066Y-123633961D01*
X185460678Y-123660378D01*
G37*
X185460678Y-123660378D02*
X185258031Y-123748226D01*
X185193582Y-123791662D01*
X185119628Y-123839878D01*
X185075304Y-123846092D01*
X185048582Y-123824564D01*
X184997285Y-123785949D01*
X184906407Y-123736069D01*
X184834744Y-123702863D01*
X184619975Y-123644197D01*
X184406744Y-123646901D01*
X184205863Y-123705512D01*
X184028144Y-123814566D01*
X183884398Y-123968598D01*
X183785438Y-124162147D01*
X183761791Y-124245067D01*
X183752536Y-124319659D01*
X183744666Y-124449593D01*
X183738192Y-124625105D01*
X183733126Y-124836430D01*
X183729482Y-125073804D01*
X183727271Y-125327462D01*
X183726506Y-125587639D01*
X183727199Y-125844571D01*
X183729362Y-126088493D01*
X183733007Y-126309641D01*
X183738147Y-126498249D01*
X183744795Y-126644555D01*
X183752961Y-126738792D01*
X183758620Y-126766345D01*
X183826009Y-126862821D01*
X183925313Y-126904853D01*
X184041018Y-126886347D01*
X184051796Y-126881461D01*
X184148767Y-126835014D01*
X184165700Y-125554157D01*
X184182634Y-124273301D01*
X184293234Y-124174517D01*
X184422399Y-124096600D01*
X184558060Y-124077062D01*
X184685062Y-124113369D01*
X184788249Y-124202986D01*
X184824468Y-124263344D01*
X184838672Y-124302139D01*
X184850136Y-124357100D01*
X184859137Y-124435120D01*
X184865950Y-124543095D01*
X184870849Y-124687918D01*
X184874109Y-124876485D01*
X184876007Y-125115689D01*
X184876817Y-125412426D01*
X184876900Y-125576993D01*
X184876900Y-126780150D01*
X184966134Y-126850342D01*
X185039329Y-126898799D01*
X185094957Y-126920455D01*
X185097034Y-126920533D01*
X185150623Y-126901006D01*
X185223653Y-126853671D01*
X185227933Y-126850342D01*
X185317167Y-126780150D01*
X185317167Y-125561727D01*
X185317449Y-125222110D01*
X185318857Y-124943665D01*
X185322231Y-124719832D01*
X185328412Y-124544049D01*
X185338242Y-124409755D01*
X185352562Y-124310390D01*
X185372212Y-124239393D01*
X185398035Y-124190203D01*
X185430870Y-124156260D01*
X185471560Y-124131002D01*
X185502487Y-124116193D01*
X185654932Y-124077937D01*
X185796457Y-124103356D01*
X185882545Y-124157421D01*
X185977567Y-124239109D01*
X185994500Y-125515121D01*
X186011434Y-126791133D01*
X186091385Y-126855833D01*
X186194950Y-126912712D01*
X186293484Y-126904418D01*
X186371748Y-126855761D01*
X186451700Y-126790988D01*
X186451700Y-125509561D01*
X186451588Y-125180802D01*
X186451008Y-124912725D01*
X186449597Y-124698277D01*
X186446989Y-124530407D01*
X186442820Y-124402063D01*
X186436726Y-124306194D01*
X186428342Y-124235746D01*
X186417304Y-124183669D01*
X186403248Y-124142910D01*
X186385808Y-124106419D01*
X186378468Y-124092667D01*
X186240394Y-123898327D01*
X186069750Y-123755432D01*
X185876365Y-123666478D01*
X185670066Y-123633961D01*
X185460678Y-123660378D01*
D14*
G04 #@! TO.C,J1*
X102950000Y-133330000D02*
X102950000Y-130670000D01*
X194450000Y-133330000D02*
X102950000Y-133330000D01*
X194450000Y-130670000D02*
X102950000Y-130670000D01*
X194450000Y-133330000D02*
X194450000Y-130670000D01*
X195720000Y-133330000D02*
X197050000Y-133330000D01*
X197050000Y-133330000D02*
X197050000Y-132000000D01*
G04 #@! TD*
M02*
