G04 #@! TF.GenerationSoftware,KiCad,Pcbnew,(5.1.5)-3*
G04 #@! TF.CreationDate,2020-05-28T15:20:15-05:00*
G04 #@! TF.ProjectId,37P_TFT_Breakout,3337505f-5446-4545-9f42-7265616b6f75,rev?*
G04 #@! TF.SameCoordinates,Original*
G04 #@! TF.FileFunction,Paste,Top*
G04 #@! TF.FilePolarity,Positive*
%FSLAX46Y46*%
G04 Gerber Fmt 4.6, Leading zero omitted, Abs format (unit mm)*
G04 Created by KiCad (PCBNEW (5.1.5)-3) date 2020-05-28 15:20:15*
%MOMM*%
%LPD*%
G04 APERTURE LIST*
G04 #@! TA.AperFunction,Profile*
%ADD10C,0.120000*%
G04 #@! TD*
%ADD11R,4.000000X0.600000*%
G04 APERTURE END LIST*
D10*
X197500000Y-70000000D02*
X197500000Y-133500000D01*
X102500000Y-70000000D02*
X197500000Y-70000000D01*
X102500000Y-133500000D02*
X102500000Y-70000000D01*
X102500000Y-133500000D02*
X197500000Y-133500000D01*
D11*
G04 #@! TO.C,DS1*
X122650000Y-117000000D03*
X122650000Y-116000000D03*
X122650000Y-115000000D03*
X122650000Y-114000000D03*
X122650000Y-113000000D03*
X122650000Y-112000000D03*
X122650000Y-111000000D03*
X122650000Y-110000000D03*
X122650000Y-109000000D03*
X122650000Y-108000000D03*
X122650000Y-107000000D03*
X122650000Y-106000000D03*
X122650000Y-105000000D03*
X122650000Y-104000000D03*
X122650000Y-103000000D03*
X122650000Y-102000000D03*
X122650000Y-101000000D03*
X122650000Y-100000000D03*
X122650000Y-99000000D03*
X122650000Y-98000000D03*
X122650000Y-97000000D03*
X122650000Y-96000000D03*
X122650000Y-95000000D03*
X122650000Y-94000000D03*
X122650000Y-93000000D03*
X122650000Y-92000000D03*
X122650000Y-91000000D03*
X122650000Y-90000000D03*
X122650000Y-89000000D03*
X122650000Y-88000000D03*
X122650000Y-87000000D03*
X122650000Y-86000000D03*
X122650000Y-85000000D03*
X122650000Y-84000000D03*
X122650000Y-83000000D03*
X122650000Y-82000000D03*
X122650000Y-81000000D03*
G04 #@! TD*
M02*
