M48
; DRILL file {KiCad (5.1.5)-3} date 5/28/2020 3:20:35 PM
; FORMAT={-:-/ absolute / inch / decimal}
; #@! TF.CreationDate,2020-05-28T15:20:35-05:00
; #@! TF.GenerationSoftware,Kicad,Pcbnew,(5.1.5)-3
FMAT,2
INCH
T1C0.0394
%
G90
G05
T1
X4.1055Y-5.1969
X4.2055Y-5.1969
X4.3055Y-5.1969
X4.4055Y-5.1969
X4.5055Y-5.1969
X4.6055Y-5.1969
X4.7055Y-5.1969
X4.8055Y-5.1969
X4.9055Y-5.1969
X5.0055Y-5.1969
X5.1055Y-5.1969
X5.2055Y-5.1969
X5.3055Y-5.1969
X5.4055Y-5.1969
X5.5055Y-5.1969
X5.6055Y-5.1969
X5.7055Y-5.1969
X5.8055Y-5.1969
X5.9055Y-5.1969
X6.0055Y-5.1969
X6.1055Y-5.1969
X6.2055Y-5.1969
X6.3055Y-5.1969
X6.4055Y-5.1969
X6.5055Y-5.1969
X6.6055Y-5.1969
X6.7055Y-5.1969
X6.8055Y-5.1969
X6.9055Y-5.1969
X7.0055Y-5.1969
X7.1055Y-5.1969
X7.2055Y-5.1969
X7.3055Y-5.1969
X7.4055Y-5.1969
X7.5055Y-5.1969
X7.6055Y-5.1969
X7.7055Y-5.1969
T0
M30
