G04 #@! TF.GenerationSoftware,KiCad,Pcbnew,(5.1.5)-3*
G04 #@! TF.CreationDate,2020-05-28T15:20:15-05:00*
G04 #@! TF.ProjectId,37P_TFT_Breakout,3337505f-5446-4545-9f42-7265616b6f75,rev?*
G04 #@! TF.SameCoordinates,Original*
G04 #@! TF.FileFunction,Soldermask,Bot*
G04 #@! TF.FilePolarity,Negative*
%FSLAX46Y46*%
G04 Gerber Fmt 4.6, Leading zero omitted, Abs format (unit mm)*
G04 Created by KiCad (PCBNEW (5.1.5)-3) date 2020-05-28 15:20:15*
%MOMM*%
%LPD*%
G04 APERTURE LIST*
G04 #@! TA.AperFunction,Profile*
%ADD10C,0.120000*%
G04 #@! TD*
%ADD11C,0.150000*%
G04 APERTURE END LIST*
D10*
X197500000Y-70000000D02*
X197500000Y-133500000D01*
X102500000Y-70000000D02*
X197500000Y-70000000D01*
X102500000Y-133500000D02*
X102500000Y-70000000D01*
X102500000Y-133500000D02*
X197500000Y-133500000D01*
D11*
G36*
X195833512Y-131103927D02*
G01*
X195982812Y-131133624D01*
X196146784Y-131201544D01*
X196294354Y-131300147D01*
X196419853Y-131425646D01*
X196518456Y-131573216D01*
X196586376Y-131737188D01*
X196621000Y-131911259D01*
X196621000Y-132088741D01*
X196586376Y-132262812D01*
X196518456Y-132426784D01*
X196419853Y-132574354D01*
X196294354Y-132699853D01*
X196146784Y-132798456D01*
X195982812Y-132866376D01*
X195833512Y-132896073D01*
X195808742Y-132901000D01*
X195631258Y-132901000D01*
X195606488Y-132896073D01*
X195457188Y-132866376D01*
X195293216Y-132798456D01*
X195145646Y-132699853D01*
X195020147Y-132574354D01*
X194921544Y-132426784D01*
X194853624Y-132262812D01*
X194819000Y-132088741D01*
X194819000Y-131911259D01*
X194853624Y-131737188D01*
X194921544Y-131573216D01*
X195020147Y-131425646D01*
X195145646Y-131300147D01*
X195293216Y-131201544D01*
X195457188Y-131133624D01*
X195606488Y-131103927D01*
X195631258Y-131099000D01*
X195808742Y-131099000D01*
X195833512Y-131103927D01*
G37*
G36*
X124713512Y-131103927D02*
G01*
X124862812Y-131133624D01*
X125026784Y-131201544D01*
X125174354Y-131300147D01*
X125299853Y-131425646D01*
X125398456Y-131573216D01*
X125466376Y-131737188D01*
X125501000Y-131911259D01*
X125501000Y-132088741D01*
X125466376Y-132262812D01*
X125398456Y-132426784D01*
X125299853Y-132574354D01*
X125174354Y-132699853D01*
X125026784Y-132798456D01*
X124862812Y-132866376D01*
X124713512Y-132896073D01*
X124688742Y-132901000D01*
X124511258Y-132901000D01*
X124486488Y-132896073D01*
X124337188Y-132866376D01*
X124173216Y-132798456D01*
X124025646Y-132699853D01*
X123900147Y-132574354D01*
X123801544Y-132426784D01*
X123733624Y-132262812D01*
X123699000Y-132088741D01*
X123699000Y-131911259D01*
X123733624Y-131737188D01*
X123801544Y-131573216D01*
X123900147Y-131425646D01*
X124025646Y-131300147D01*
X124173216Y-131201544D01*
X124337188Y-131133624D01*
X124486488Y-131103927D01*
X124511258Y-131099000D01*
X124688742Y-131099000D01*
X124713512Y-131103927D01*
G37*
G36*
X104393512Y-131103927D02*
G01*
X104542812Y-131133624D01*
X104706784Y-131201544D01*
X104854354Y-131300147D01*
X104979853Y-131425646D01*
X105078456Y-131573216D01*
X105146376Y-131737188D01*
X105181000Y-131911259D01*
X105181000Y-132088741D01*
X105146376Y-132262812D01*
X105078456Y-132426784D01*
X104979853Y-132574354D01*
X104854354Y-132699853D01*
X104706784Y-132798456D01*
X104542812Y-132866376D01*
X104393512Y-132896073D01*
X104368742Y-132901000D01*
X104191258Y-132901000D01*
X104166488Y-132896073D01*
X104017188Y-132866376D01*
X103853216Y-132798456D01*
X103705646Y-132699853D01*
X103580147Y-132574354D01*
X103481544Y-132426784D01*
X103413624Y-132262812D01*
X103379000Y-132088741D01*
X103379000Y-131911259D01*
X103413624Y-131737188D01*
X103481544Y-131573216D01*
X103580147Y-131425646D01*
X103705646Y-131300147D01*
X103853216Y-131201544D01*
X104017188Y-131133624D01*
X104166488Y-131103927D01*
X104191258Y-131099000D01*
X104368742Y-131099000D01*
X104393512Y-131103927D01*
G37*
G36*
X106933512Y-131103927D02*
G01*
X107082812Y-131133624D01*
X107246784Y-131201544D01*
X107394354Y-131300147D01*
X107519853Y-131425646D01*
X107618456Y-131573216D01*
X107686376Y-131737188D01*
X107721000Y-131911259D01*
X107721000Y-132088741D01*
X107686376Y-132262812D01*
X107618456Y-132426784D01*
X107519853Y-132574354D01*
X107394354Y-132699853D01*
X107246784Y-132798456D01*
X107082812Y-132866376D01*
X106933512Y-132896073D01*
X106908742Y-132901000D01*
X106731258Y-132901000D01*
X106706488Y-132896073D01*
X106557188Y-132866376D01*
X106393216Y-132798456D01*
X106245646Y-132699853D01*
X106120147Y-132574354D01*
X106021544Y-132426784D01*
X105953624Y-132262812D01*
X105919000Y-132088741D01*
X105919000Y-131911259D01*
X105953624Y-131737188D01*
X106021544Y-131573216D01*
X106120147Y-131425646D01*
X106245646Y-131300147D01*
X106393216Y-131201544D01*
X106557188Y-131133624D01*
X106706488Y-131103927D01*
X106731258Y-131099000D01*
X106908742Y-131099000D01*
X106933512Y-131103927D01*
G37*
G36*
X109473512Y-131103927D02*
G01*
X109622812Y-131133624D01*
X109786784Y-131201544D01*
X109934354Y-131300147D01*
X110059853Y-131425646D01*
X110158456Y-131573216D01*
X110226376Y-131737188D01*
X110261000Y-131911259D01*
X110261000Y-132088741D01*
X110226376Y-132262812D01*
X110158456Y-132426784D01*
X110059853Y-132574354D01*
X109934354Y-132699853D01*
X109786784Y-132798456D01*
X109622812Y-132866376D01*
X109473512Y-132896073D01*
X109448742Y-132901000D01*
X109271258Y-132901000D01*
X109246488Y-132896073D01*
X109097188Y-132866376D01*
X108933216Y-132798456D01*
X108785646Y-132699853D01*
X108660147Y-132574354D01*
X108561544Y-132426784D01*
X108493624Y-132262812D01*
X108459000Y-132088741D01*
X108459000Y-131911259D01*
X108493624Y-131737188D01*
X108561544Y-131573216D01*
X108660147Y-131425646D01*
X108785646Y-131300147D01*
X108933216Y-131201544D01*
X109097188Y-131133624D01*
X109246488Y-131103927D01*
X109271258Y-131099000D01*
X109448742Y-131099000D01*
X109473512Y-131103927D01*
G37*
G36*
X112013512Y-131103927D02*
G01*
X112162812Y-131133624D01*
X112326784Y-131201544D01*
X112474354Y-131300147D01*
X112599853Y-131425646D01*
X112698456Y-131573216D01*
X112766376Y-131737188D01*
X112801000Y-131911259D01*
X112801000Y-132088741D01*
X112766376Y-132262812D01*
X112698456Y-132426784D01*
X112599853Y-132574354D01*
X112474354Y-132699853D01*
X112326784Y-132798456D01*
X112162812Y-132866376D01*
X112013512Y-132896073D01*
X111988742Y-132901000D01*
X111811258Y-132901000D01*
X111786488Y-132896073D01*
X111637188Y-132866376D01*
X111473216Y-132798456D01*
X111325646Y-132699853D01*
X111200147Y-132574354D01*
X111101544Y-132426784D01*
X111033624Y-132262812D01*
X110999000Y-132088741D01*
X110999000Y-131911259D01*
X111033624Y-131737188D01*
X111101544Y-131573216D01*
X111200147Y-131425646D01*
X111325646Y-131300147D01*
X111473216Y-131201544D01*
X111637188Y-131133624D01*
X111786488Y-131103927D01*
X111811258Y-131099000D01*
X111988742Y-131099000D01*
X112013512Y-131103927D01*
G37*
G36*
X114553512Y-131103927D02*
G01*
X114702812Y-131133624D01*
X114866784Y-131201544D01*
X115014354Y-131300147D01*
X115139853Y-131425646D01*
X115238456Y-131573216D01*
X115306376Y-131737188D01*
X115341000Y-131911259D01*
X115341000Y-132088741D01*
X115306376Y-132262812D01*
X115238456Y-132426784D01*
X115139853Y-132574354D01*
X115014354Y-132699853D01*
X114866784Y-132798456D01*
X114702812Y-132866376D01*
X114553512Y-132896073D01*
X114528742Y-132901000D01*
X114351258Y-132901000D01*
X114326488Y-132896073D01*
X114177188Y-132866376D01*
X114013216Y-132798456D01*
X113865646Y-132699853D01*
X113740147Y-132574354D01*
X113641544Y-132426784D01*
X113573624Y-132262812D01*
X113539000Y-132088741D01*
X113539000Y-131911259D01*
X113573624Y-131737188D01*
X113641544Y-131573216D01*
X113740147Y-131425646D01*
X113865646Y-131300147D01*
X114013216Y-131201544D01*
X114177188Y-131133624D01*
X114326488Y-131103927D01*
X114351258Y-131099000D01*
X114528742Y-131099000D01*
X114553512Y-131103927D01*
G37*
G36*
X117093512Y-131103927D02*
G01*
X117242812Y-131133624D01*
X117406784Y-131201544D01*
X117554354Y-131300147D01*
X117679853Y-131425646D01*
X117778456Y-131573216D01*
X117846376Y-131737188D01*
X117881000Y-131911259D01*
X117881000Y-132088741D01*
X117846376Y-132262812D01*
X117778456Y-132426784D01*
X117679853Y-132574354D01*
X117554354Y-132699853D01*
X117406784Y-132798456D01*
X117242812Y-132866376D01*
X117093512Y-132896073D01*
X117068742Y-132901000D01*
X116891258Y-132901000D01*
X116866488Y-132896073D01*
X116717188Y-132866376D01*
X116553216Y-132798456D01*
X116405646Y-132699853D01*
X116280147Y-132574354D01*
X116181544Y-132426784D01*
X116113624Y-132262812D01*
X116079000Y-132088741D01*
X116079000Y-131911259D01*
X116113624Y-131737188D01*
X116181544Y-131573216D01*
X116280147Y-131425646D01*
X116405646Y-131300147D01*
X116553216Y-131201544D01*
X116717188Y-131133624D01*
X116866488Y-131103927D01*
X116891258Y-131099000D01*
X117068742Y-131099000D01*
X117093512Y-131103927D01*
G37*
G36*
X119633512Y-131103927D02*
G01*
X119782812Y-131133624D01*
X119946784Y-131201544D01*
X120094354Y-131300147D01*
X120219853Y-131425646D01*
X120318456Y-131573216D01*
X120386376Y-131737188D01*
X120421000Y-131911259D01*
X120421000Y-132088741D01*
X120386376Y-132262812D01*
X120318456Y-132426784D01*
X120219853Y-132574354D01*
X120094354Y-132699853D01*
X119946784Y-132798456D01*
X119782812Y-132866376D01*
X119633512Y-132896073D01*
X119608742Y-132901000D01*
X119431258Y-132901000D01*
X119406488Y-132896073D01*
X119257188Y-132866376D01*
X119093216Y-132798456D01*
X118945646Y-132699853D01*
X118820147Y-132574354D01*
X118721544Y-132426784D01*
X118653624Y-132262812D01*
X118619000Y-132088741D01*
X118619000Y-131911259D01*
X118653624Y-131737188D01*
X118721544Y-131573216D01*
X118820147Y-131425646D01*
X118945646Y-131300147D01*
X119093216Y-131201544D01*
X119257188Y-131133624D01*
X119406488Y-131103927D01*
X119431258Y-131099000D01*
X119608742Y-131099000D01*
X119633512Y-131103927D01*
G37*
G36*
X122173512Y-131103927D02*
G01*
X122322812Y-131133624D01*
X122486784Y-131201544D01*
X122634354Y-131300147D01*
X122759853Y-131425646D01*
X122858456Y-131573216D01*
X122926376Y-131737188D01*
X122961000Y-131911259D01*
X122961000Y-132088741D01*
X122926376Y-132262812D01*
X122858456Y-132426784D01*
X122759853Y-132574354D01*
X122634354Y-132699853D01*
X122486784Y-132798456D01*
X122322812Y-132866376D01*
X122173512Y-132896073D01*
X122148742Y-132901000D01*
X121971258Y-132901000D01*
X121946488Y-132896073D01*
X121797188Y-132866376D01*
X121633216Y-132798456D01*
X121485646Y-132699853D01*
X121360147Y-132574354D01*
X121261544Y-132426784D01*
X121193624Y-132262812D01*
X121159000Y-132088741D01*
X121159000Y-131911259D01*
X121193624Y-131737188D01*
X121261544Y-131573216D01*
X121360147Y-131425646D01*
X121485646Y-131300147D01*
X121633216Y-131201544D01*
X121797188Y-131133624D01*
X121946488Y-131103927D01*
X121971258Y-131099000D01*
X122148742Y-131099000D01*
X122173512Y-131103927D01*
G37*
G36*
X193293512Y-131103927D02*
G01*
X193442812Y-131133624D01*
X193606784Y-131201544D01*
X193754354Y-131300147D01*
X193879853Y-131425646D01*
X193978456Y-131573216D01*
X194046376Y-131737188D01*
X194081000Y-131911259D01*
X194081000Y-132088741D01*
X194046376Y-132262812D01*
X193978456Y-132426784D01*
X193879853Y-132574354D01*
X193754354Y-132699853D01*
X193606784Y-132798456D01*
X193442812Y-132866376D01*
X193293512Y-132896073D01*
X193268742Y-132901000D01*
X193091258Y-132901000D01*
X193066488Y-132896073D01*
X192917188Y-132866376D01*
X192753216Y-132798456D01*
X192605646Y-132699853D01*
X192480147Y-132574354D01*
X192381544Y-132426784D01*
X192313624Y-132262812D01*
X192279000Y-132088741D01*
X192279000Y-131911259D01*
X192313624Y-131737188D01*
X192381544Y-131573216D01*
X192480147Y-131425646D01*
X192605646Y-131300147D01*
X192753216Y-131201544D01*
X192917188Y-131133624D01*
X193066488Y-131103927D01*
X193091258Y-131099000D01*
X193268742Y-131099000D01*
X193293512Y-131103927D01*
G37*
G36*
X127253512Y-131103927D02*
G01*
X127402812Y-131133624D01*
X127566784Y-131201544D01*
X127714354Y-131300147D01*
X127839853Y-131425646D01*
X127938456Y-131573216D01*
X128006376Y-131737188D01*
X128041000Y-131911259D01*
X128041000Y-132088741D01*
X128006376Y-132262812D01*
X127938456Y-132426784D01*
X127839853Y-132574354D01*
X127714354Y-132699853D01*
X127566784Y-132798456D01*
X127402812Y-132866376D01*
X127253512Y-132896073D01*
X127228742Y-132901000D01*
X127051258Y-132901000D01*
X127026488Y-132896073D01*
X126877188Y-132866376D01*
X126713216Y-132798456D01*
X126565646Y-132699853D01*
X126440147Y-132574354D01*
X126341544Y-132426784D01*
X126273624Y-132262812D01*
X126239000Y-132088741D01*
X126239000Y-131911259D01*
X126273624Y-131737188D01*
X126341544Y-131573216D01*
X126440147Y-131425646D01*
X126565646Y-131300147D01*
X126713216Y-131201544D01*
X126877188Y-131133624D01*
X127026488Y-131103927D01*
X127051258Y-131099000D01*
X127228742Y-131099000D01*
X127253512Y-131103927D01*
G37*
G36*
X129793512Y-131103927D02*
G01*
X129942812Y-131133624D01*
X130106784Y-131201544D01*
X130254354Y-131300147D01*
X130379853Y-131425646D01*
X130478456Y-131573216D01*
X130546376Y-131737188D01*
X130581000Y-131911259D01*
X130581000Y-132088741D01*
X130546376Y-132262812D01*
X130478456Y-132426784D01*
X130379853Y-132574354D01*
X130254354Y-132699853D01*
X130106784Y-132798456D01*
X129942812Y-132866376D01*
X129793512Y-132896073D01*
X129768742Y-132901000D01*
X129591258Y-132901000D01*
X129566488Y-132896073D01*
X129417188Y-132866376D01*
X129253216Y-132798456D01*
X129105646Y-132699853D01*
X128980147Y-132574354D01*
X128881544Y-132426784D01*
X128813624Y-132262812D01*
X128779000Y-132088741D01*
X128779000Y-131911259D01*
X128813624Y-131737188D01*
X128881544Y-131573216D01*
X128980147Y-131425646D01*
X129105646Y-131300147D01*
X129253216Y-131201544D01*
X129417188Y-131133624D01*
X129566488Y-131103927D01*
X129591258Y-131099000D01*
X129768742Y-131099000D01*
X129793512Y-131103927D01*
G37*
G36*
X132333512Y-131103927D02*
G01*
X132482812Y-131133624D01*
X132646784Y-131201544D01*
X132794354Y-131300147D01*
X132919853Y-131425646D01*
X133018456Y-131573216D01*
X133086376Y-131737188D01*
X133121000Y-131911259D01*
X133121000Y-132088741D01*
X133086376Y-132262812D01*
X133018456Y-132426784D01*
X132919853Y-132574354D01*
X132794354Y-132699853D01*
X132646784Y-132798456D01*
X132482812Y-132866376D01*
X132333512Y-132896073D01*
X132308742Y-132901000D01*
X132131258Y-132901000D01*
X132106488Y-132896073D01*
X131957188Y-132866376D01*
X131793216Y-132798456D01*
X131645646Y-132699853D01*
X131520147Y-132574354D01*
X131421544Y-132426784D01*
X131353624Y-132262812D01*
X131319000Y-132088741D01*
X131319000Y-131911259D01*
X131353624Y-131737188D01*
X131421544Y-131573216D01*
X131520147Y-131425646D01*
X131645646Y-131300147D01*
X131793216Y-131201544D01*
X131957188Y-131133624D01*
X132106488Y-131103927D01*
X132131258Y-131099000D01*
X132308742Y-131099000D01*
X132333512Y-131103927D01*
G37*
G36*
X134873512Y-131103927D02*
G01*
X135022812Y-131133624D01*
X135186784Y-131201544D01*
X135334354Y-131300147D01*
X135459853Y-131425646D01*
X135558456Y-131573216D01*
X135626376Y-131737188D01*
X135661000Y-131911259D01*
X135661000Y-132088741D01*
X135626376Y-132262812D01*
X135558456Y-132426784D01*
X135459853Y-132574354D01*
X135334354Y-132699853D01*
X135186784Y-132798456D01*
X135022812Y-132866376D01*
X134873512Y-132896073D01*
X134848742Y-132901000D01*
X134671258Y-132901000D01*
X134646488Y-132896073D01*
X134497188Y-132866376D01*
X134333216Y-132798456D01*
X134185646Y-132699853D01*
X134060147Y-132574354D01*
X133961544Y-132426784D01*
X133893624Y-132262812D01*
X133859000Y-132088741D01*
X133859000Y-131911259D01*
X133893624Y-131737188D01*
X133961544Y-131573216D01*
X134060147Y-131425646D01*
X134185646Y-131300147D01*
X134333216Y-131201544D01*
X134497188Y-131133624D01*
X134646488Y-131103927D01*
X134671258Y-131099000D01*
X134848742Y-131099000D01*
X134873512Y-131103927D01*
G37*
G36*
X137413512Y-131103927D02*
G01*
X137562812Y-131133624D01*
X137726784Y-131201544D01*
X137874354Y-131300147D01*
X137999853Y-131425646D01*
X138098456Y-131573216D01*
X138166376Y-131737188D01*
X138201000Y-131911259D01*
X138201000Y-132088741D01*
X138166376Y-132262812D01*
X138098456Y-132426784D01*
X137999853Y-132574354D01*
X137874354Y-132699853D01*
X137726784Y-132798456D01*
X137562812Y-132866376D01*
X137413512Y-132896073D01*
X137388742Y-132901000D01*
X137211258Y-132901000D01*
X137186488Y-132896073D01*
X137037188Y-132866376D01*
X136873216Y-132798456D01*
X136725646Y-132699853D01*
X136600147Y-132574354D01*
X136501544Y-132426784D01*
X136433624Y-132262812D01*
X136399000Y-132088741D01*
X136399000Y-131911259D01*
X136433624Y-131737188D01*
X136501544Y-131573216D01*
X136600147Y-131425646D01*
X136725646Y-131300147D01*
X136873216Y-131201544D01*
X137037188Y-131133624D01*
X137186488Y-131103927D01*
X137211258Y-131099000D01*
X137388742Y-131099000D01*
X137413512Y-131103927D01*
G37*
G36*
X139953512Y-131103927D02*
G01*
X140102812Y-131133624D01*
X140266784Y-131201544D01*
X140414354Y-131300147D01*
X140539853Y-131425646D01*
X140638456Y-131573216D01*
X140706376Y-131737188D01*
X140741000Y-131911259D01*
X140741000Y-132088741D01*
X140706376Y-132262812D01*
X140638456Y-132426784D01*
X140539853Y-132574354D01*
X140414354Y-132699853D01*
X140266784Y-132798456D01*
X140102812Y-132866376D01*
X139953512Y-132896073D01*
X139928742Y-132901000D01*
X139751258Y-132901000D01*
X139726488Y-132896073D01*
X139577188Y-132866376D01*
X139413216Y-132798456D01*
X139265646Y-132699853D01*
X139140147Y-132574354D01*
X139041544Y-132426784D01*
X138973624Y-132262812D01*
X138939000Y-132088741D01*
X138939000Y-131911259D01*
X138973624Y-131737188D01*
X139041544Y-131573216D01*
X139140147Y-131425646D01*
X139265646Y-131300147D01*
X139413216Y-131201544D01*
X139577188Y-131133624D01*
X139726488Y-131103927D01*
X139751258Y-131099000D01*
X139928742Y-131099000D01*
X139953512Y-131103927D01*
G37*
G36*
X142493512Y-131103927D02*
G01*
X142642812Y-131133624D01*
X142806784Y-131201544D01*
X142954354Y-131300147D01*
X143079853Y-131425646D01*
X143178456Y-131573216D01*
X143246376Y-131737188D01*
X143281000Y-131911259D01*
X143281000Y-132088741D01*
X143246376Y-132262812D01*
X143178456Y-132426784D01*
X143079853Y-132574354D01*
X142954354Y-132699853D01*
X142806784Y-132798456D01*
X142642812Y-132866376D01*
X142493512Y-132896073D01*
X142468742Y-132901000D01*
X142291258Y-132901000D01*
X142266488Y-132896073D01*
X142117188Y-132866376D01*
X141953216Y-132798456D01*
X141805646Y-132699853D01*
X141680147Y-132574354D01*
X141581544Y-132426784D01*
X141513624Y-132262812D01*
X141479000Y-132088741D01*
X141479000Y-131911259D01*
X141513624Y-131737188D01*
X141581544Y-131573216D01*
X141680147Y-131425646D01*
X141805646Y-131300147D01*
X141953216Y-131201544D01*
X142117188Y-131133624D01*
X142266488Y-131103927D01*
X142291258Y-131099000D01*
X142468742Y-131099000D01*
X142493512Y-131103927D01*
G37*
G36*
X145033512Y-131103927D02*
G01*
X145182812Y-131133624D01*
X145346784Y-131201544D01*
X145494354Y-131300147D01*
X145619853Y-131425646D01*
X145718456Y-131573216D01*
X145786376Y-131737188D01*
X145821000Y-131911259D01*
X145821000Y-132088741D01*
X145786376Y-132262812D01*
X145718456Y-132426784D01*
X145619853Y-132574354D01*
X145494354Y-132699853D01*
X145346784Y-132798456D01*
X145182812Y-132866376D01*
X145033512Y-132896073D01*
X145008742Y-132901000D01*
X144831258Y-132901000D01*
X144806488Y-132896073D01*
X144657188Y-132866376D01*
X144493216Y-132798456D01*
X144345646Y-132699853D01*
X144220147Y-132574354D01*
X144121544Y-132426784D01*
X144053624Y-132262812D01*
X144019000Y-132088741D01*
X144019000Y-131911259D01*
X144053624Y-131737188D01*
X144121544Y-131573216D01*
X144220147Y-131425646D01*
X144345646Y-131300147D01*
X144493216Y-131201544D01*
X144657188Y-131133624D01*
X144806488Y-131103927D01*
X144831258Y-131099000D01*
X145008742Y-131099000D01*
X145033512Y-131103927D01*
G37*
G36*
X170433512Y-131103927D02*
G01*
X170582812Y-131133624D01*
X170746784Y-131201544D01*
X170894354Y-131300147D01*
X171019853Y-131425646D01*
X171118456Y-131573216D01*
X171186376Y-131737188D01*
X171221000Y-131911259D01*
X171221000Y-132088741D01*
X171186376Y-132262812D01*
X171118456Y-132426784D01*
X171019853Y-132574354D01*
X170894354Y-132699853D01*
X170746784Y-132798456D01*
X170582812Y-132866376D01*
X170433512Y-132896073D01*
X170408742Y-132901000D01*
X170231258Y-132901000D01*
X170206488Y-132896073D01*
X170057188Y-132866376D01*
X169893216Y-132798456D01*
X169745646Y-132699853D01*
X169620147Y-132574354D01*
X169521544Y-132426784D01*
X169453624Y-132262812D01*
X169419000Y-132088741D01*
X169419000Y-131911259D01*
X169453624Y-131737188D01*
X169521544Y-131573216D01*
X169620147Y-131425646D01*
X169745646Y-131300147D01*
X169893216Y-131201544D01*
X170057188Y-131133624D01*
X170206488Y-131103927D01*
X170231258Y-131099000D01*
X170408742Y-131099000D01*
X170433512Y-131103927D01*
G37*
G36*
X150113512Y-131103927D02*
G01*
X150262812Y-131133624D01*
X150426784Y-131201544D01*
X150574354Y-131300147D01*
X150699853Y-131425646D01*
X150798456Y-131573216D01*
X150866376Y-131737188D01*
X150901000Y-131911259D01*
X150901000Y-132088741D01*
X150866376Y-132262812D01*
X150798456Y-132426784D01*
X150699853Y-132574354D01*
X150574354Y-132699853D01*
X150426784Y-132798456D01*
X150262812Y-132866376D01*
X150113512Y-132896073D01*
X150088742Y-132901000D01*
X149911258Y-132901000D01*
X149886488Y-132896073D01*
X149737188Y-132866376D01*
X149573216Y-132798456D01*
X149425646Y-132699853D01*
X149300147Y-132574354D01*
X149201544Y-132426784D01*
X149133624Y-132262812D01*
X149099000Y-132088741D01*
X149099000Y-131911259D01*
X149133624Y-131737188D01*
X149201544Y-131573216D01*
X149300147Y-131425646D01*
X149425646Y-131300147D01*
X149573216Y-131201544D01*
X149737188Y-131133624D01*
X149886488Y-131103927D01*
X149911258Y-131099000D01*
X150088742Y-131099000D01*
X150113512Y-131103927D01*
G37*
G36*
X152653512Y-131103927D02*
G01*
X152802812Y-131133624D01*
X152966784Y-131201544D01*
X153114354Y-131300147D01*
X153239853Y-131425646D01*
X153338456Y-131573216D01*
X153406376Y-131737188D01*
X153441000Y-131911259D01*
X153441000Y-132088741D01*
X153406376Y-132262812D01*
X153338456Y-132426784D01*
X153239853Y-132574354D01*
X153114354Y-132699853D01*
X152966784Y-132798456D01*
X152802812Y-132866376D01*
X152653512Y-132896073D01*
X152628742Y-132901000D01*
X152451258Y-132901000D01*
X152426488Y-132896073D01*
X152277188Y-132866376D01*
X152113216Y-132798456D01*
X151965646Y-132699853D01*
X151840147Y-132574354D01*
X151741544Y-132426784D01*
X151673624Y-132262812D01*
X151639000Y-132088741D01*
X151639000Y-131911259D01*
X151673624Y-131737188D01*
X151741544Y-131573216D01*
X151840147Y-131425646D01*
X151965646Y-131300147D01*
X152113216Y-131201544D01*
X152277188Y-131133624D01*
X152426488Y-131103927D01*
X152451258Y-131099000D01*
X152628742Y-131099000D01*
X152653512Y-131103927D01*
G37*
G36*
X155193512Y-131103927D02*
G01*
X155342812Y-131133624D01*
X155506784Y-131201544D01*
X155654354Y-131300147D01*
X155779853Y-131425646D01*
X155878456Y-131573216D01*
X155946376Y-131737188D01*
X155981000Y-131911259D01*
X155981000Y-132088741D01*
X155946376Y-132262812D01*
X155878456Y-132426784D01*
X155779853Y-132574354D01*
X155654354Y-132699853D01*
X155506784Y-132798456D01*
X155342812Y-132866376D01*
X155193512Y-132896073D01*
X155168742Y-132901000D01*
X154991258Y-132901000D01*
X154966488Y-132896073D01*
X154817188Y-132866376D01*
X154653216Y-132798456D01*
X154505646Y-132699853D01*
X154380147Y-132574354D01*
X154281544Y-132426784D01*
X154213624Y-132262812D01*
X154179000Y-132088741D01*
X154179000Y-131911259D01*
X154213624Y-131737188D01*
X154281544Y-131573216D01*
X154380147Y-131425646D01*
X154505646Y-131300147D01*
X154653216Y-131201544D01*
X154817188Y-131133624D01*
X154966488Y-131103927D01*
X154991258Y-131099000D01*
X155168742Y-131099000D01*
X155193512Y-131103927D01*
G37*
G36*
X157733512Y-131103927D02*
G01*
X157882812Y-131133624D01*
X158046784Y-131201544D01*
X158194354Y-131300147D01*
X158319853Y-131425646D01*
X158418456Y-131573216D01*
X158486376Y-131737188D01*
X158521000Y-131911259D01*
X158521000Y-132088741D01*
X158486376Y-132262812D01*
X158418456Y-132426784D01*
X158319853Y-132574354D01*
X158194354Y-132699853D01*
X158046784Y-132798456D01*
X157882812Y-132866376D01*
X157733512Y-132896073D01*
X157708742Y-132901000D01*
X157531258Y-132901000D01*
X157506488Y-132896073D01*
X157357188Y-132866376D01*
X157193216Y-132798456D01*
X157045646Y-132699853D01*
X156920147Y-132574354D01*
X156821544Y-132426784D01*
X156753624Y-132262812D01*
X156719000Y-132088741D01*
X156719000Y-131911259D01*
X156753624Y-131737188D01*
X156821544Y-131573216D01*
X156920147Y-131425646D01*
X157045646Y-131300147D01*
X157193216Y-131201544D01*
X157357188Y-131133624D01*
X157506488Y-131103927D01*
X157531258Y-131099000D01*
X157708742Y-131099000D01*
X157733512Y-131103927D01*
G37*
G36*
X160273512Y-131103927D02*
G01*
X160422812Y-131133624D01*
X160586784Y-131201544D01*
X160734354Y-131300147D01*
X160859853Y-131425646D01*
X160958456Y-131573216D01*
X161026376Y-131737188D01*
X161061000Y-131911259D01*
X161061000Y-132088741D01*
X161026376Y-132262812D01*
X160958456Y-132426784D01*
X160859853Y-132574354D01*
X160734354Y-132699853D01*
X160586784Y-132798456D01*
X160422812Y-132866376D01*
X160273512Y-132896073D01*
X160248742Y-132901000D01*
X160071258Y-132901000D01*
X160046488Y-132896073D01*
X159897188Y-132866376D01*
X159733216Y-132798456D01*
X159585646Y-132699853D01*
X159460147Y-132574354D01*
X159361544Y-132426784D01*
X159293624Y-132262812D01*
X159259000Y-132088741D01*
X159259000Y-131911259D01*
X159293624Y-131737188D01*
X159361544Y-131573216D01*
X159460147Y-131425646D01*
X159585646Y-131300147D01*
X159733216Y-131201544D01*
X159897188Y-131133624D01*
X160046488Y-131103927D01*
X160071258Y-131099000D01*
X160248742Y-131099000D01*
X160273512Y-131103927D01*
G37*
G36*
X162813512Y-131103927D02*
G01*
X162962812Y-131133624D01*
X163126784Y-131201544D01*
X163274354Y-131300147D01*
X163399853Y-131425646D01*
X163498456Y-131573216D01*
X163566376Y-131737188D01*
X163601000Y-131911259D01*
X163601000Y-132088741D01*
X163566376Y-132262812D01*
X163498456Y-132426784D01*
X163399853Y-132574354D01*
X163274354Y-132699853D01*
X163126784Y-132798456D01*
X162962812Y-132866376D01*
X162813512Y-132896073D01*
X162788742Y-132901000D01*
X162611258Y-132901000D01*
X162586488Y-132896073D01*
X162437188Y-132866376D01*
X162273216Y-132798456D01*
X162125646Y-132699853D01*
X162000147Y-132574354D01*
X161901544Y-132426784D01*
X161833624Y-132262812D01*
X161799000Y-132088741D01*
X161799000Y-131911259D01*
X161833624Y-131737188D01*
X161901544Y-131573216D01*
X162000147Y-131425646D01*
X162125646Y-131300147D01*
X162273216Y-131201544D01*
X162437188Y-131133624D01*
X162586488Y-131103927D01*
X162611258Y-131099000D01*
X162788742Y-131099000D01*
X162813512Y-131103927D01*
G37*
G36*
X165353512Y-131103927D02*
G01*
X165502812Y-131133624D01*
X165666784Y-131201544D01*
X165814354Y-131300147D01*
X165939853Y-131425646D01*
X166038456Y-131573216D01*
X166106376Y-131737188D01*
X166141000Y-131911259D01*
X166141000Y-132088741D01*
X166106376Y-132262812D01*
X166038456Y-132426784D01*
X165939853Y-132574354D01*
X165814354Y-132699853D01*
X165666784Y-132798456D01*
X165502812Y-132866376D01*
X165353512Y-132896073D01*
X165328742Y-132901000D01*
X165151258Y-132901000D01*
X165126488Y-132896073D01*
X164977188Y-132866376D01*
X164813216Y-132798456D01*
X164665646Y-132699853D01*
X164540147Y-132574354D01*
X164441544Y-132426784D01*
X164373624Y-132262812D01*
X164339000Y-132088741D01*
X164339000Y-131911259D01*
X164373624Y-131737188D01*
X164441544Y-131573216D01*
X164540147Y-131425646D01*
X164665646Y-131300147D01*
X164813216Y-131201544D01*
X164977188Y-131133624D01*
X165126488Y-131103927D01*
X165151258Y-131099000D01*
X165328742Y-131099000D01*
X165353512Y-131103927D01*
G37*
G36*
X167893512Y-131103927D02*
G01*
X168042812Y-131133624D01*
X168206784Y-131201544D01*
X168354354Y-131300147D01*
X168479853Y-131425646D01*
X168578456Y-131573216D01*
X168646376Y-131737188D01*
X168681000Y-131911259D01*
X168681000Y-132088741D01*
X168646376Y-132262812D01*
X168578456Y-132426784D01*
X168479853Y-132574354D01*
X168354354Y-132699853D01*
X168206784Y-132798456D01*
X168042812Y-132866376D01*
X167893512Y-132896073D01*
X167868742Y-132901000D01*
X167691258Y-132901000D01*
X167666488Y-132896073D01*
X167517188Y-132866376D01*
X167353216Y-132798456D01*
X167205646Y-132699853D01*
X167080147Y-132574354D01*
X166981544Y-132426784D01*
X166913624Y-132262812D01*
X166879000Y-132088741D01*
X166879000Y-131911259D01*
X166913624Y-131737188D01*
X166981544Y-131573216D01*
X167080147Y-131425646D01*
X167205646Y-131300147D01*
X167353216Y-131201544D01*
X167517188Y-131133624D01*
X167666488Y-131103927D01*
X167691258Y-131099000D01*
X167868742Y-131099000D01*
X167893512Y-131103927D01*
G37*
G36*
X172973512Y-131103927D02*
G01*
X173122812Y-131133624D01*
X173286784Y-131201544D01*
X173434354Y-131300147D01*
X173559853Y-131425646D01*
X173658456Y-131573216D01*
X173726376Y-131737188D01*
X173761000Y-131911259D01*
X173761000Y-132088741D01*
X173726376Y-132262812D01*
X173658456Y-132426784D01*
X173559853Y-132574354D01*
X173434354Y-132699853D01*
X173286784Y-132798456D01*
X173122812Y-132866376D01*
X172973512Y-132896073D01*
X172948742Y-132901000D01*
X172771258Y-132901000D01*
X172746488Y-132896073D01*
X172597188Y-132866376D01*
X172433216Y-132798456D01*
X172285646Y-132699853D01*
X172160147Y-132574354D01*
X172061544Y-132426784D01*
X171993624Y-132262812D01*
X171959000Y-132088741D01*
X171959000Y-131911259D01*
X171993624Y-131737188D01*
X172061544Y-131573216D01*
X172160147Y-131425646D01*
X172285646Y-131300147D01*
X172433216Y-131201544D01*
X172597188Y-131133624D01*
X172746488Y-131103927D01*
X172771258Y-131099000D01*
X172948742Y-131099000D01*
X172973512Y-131103927D01*
G37*
G36*
X147573512Y-131103927D02*
G01*
X147722812Y-131133624D01*
X147886784Y-131201544D01*
X148034354Y-131300147D01*
X148159853Y-131425646D01*
X148258456Y-131573216D01*
X148326376Y-131737188D01*
X148361000Y-131911259D01*
X148361000Y-132088741D01*
X148326376Y-132262812D01*
X148258456Y-132426784D01*
X148159853Y-132574354D01*
X148034354Y-132699853D01*
X147886784Y-132798456D01*
X147722812Y-132866376D01*
X147573512Y-132896073D01*
X147548742Y-132901000D01*
X147371258Y-132901000D01*
X147346488Y-132896073D01*
X147197188Y-132866376D01*
X147033216Y-132798456D01*
X146885646Y-132699853D01*
X146760147Y-132574354D01*
X146661544Y-132426784D01*
X146593624Y-132262812D01*
X146559000Y-132088741D01*
X146559000Y-131911259D01*
X146593624Y-131737188D01*
X146661544Y-131573216D01*
X146760147Y-131425646D01*
X146885646Y-131300147D01*
X147033216Y-131201544D01*
X147197188Y-131133624D01*
X147346488Y-131103927D01*
X147371258Y-131099000D01*
X147548742Y-131099000D01*
X147573512Y-131103927D01*
G37*
G36*
X175513512Y-131103927D02*
G01*
X175662812Y-131133624D01*
X175826784Y-131201544D01*
X175974354Y-131300147D01*
X176099853Y-131425646D01*
X176198456Y-131573216D01*
X176266376Y-131737188D01*
X176301000Y-131911259D01*
X176301000Y-132088741D01*
X176266376Y-132262812D01*
X176198456Y-132426784D01*
X176099853Y-132574354D01*
X175974354Y-132699853D01*
X175826784Y-132798456D01*
X175662812Y-132866376D01*
X175513512Y-132896073D01*
X175488742Y-132901000D01*
X175311258Y-132901000D01*
X175286488Y-132896073D01*
X175137188Y-132866376D01*
X174973216Y-132798456D01*
X174825646Y-132699853D01*
X174700147Y-132574354D01*
X174601544Y-132426784D01*
X174533624Y-132262812D01*
X174499000Y-132088741D01*
X174499000Y-131911259D01*
X174533624Y-131737188D01*
X174601544Y-131573216D01*
X174700147Y-131425646D01*
X174825646Y-131300147D01*
X174973216Y-131201544D01*
X175137188Y-131133624D01*
X175286488Y-131103927D01*
X175311258Y-131099000D01*
X175488742Y-131099000D01*
X175513512Y-131103927D01*
G37*
G36*
X178053512Y-131103927D02*
G01*
X178202812Y-131133624D01*
X178366784Y-131201544D01*
X178514354Y-131300147D01*
X178639853Y-131425646D01*
X178738456Y-131573216D01*
X178806376Y-131737188D01*
X178841000Y-131911259D01*
X178841000Y-132088741D01*
X178806376Y-132262812D01*
X178738456Y-132426784D01*
X178639853Y-132574354D01*
X178514354Y-132699853D01*
X178366784Y-132798456D01*
X178202812Y-132866376D01*
X178053512Y-132896073D01*
X178028742Y-132901000D01*
X177851258Y-132901000D01*
X177826488Y-132896073D01*
X177677188Y-132866376D01*
X177513216Y-132798456D01*
X177365646Y-132699853D01*
X177240147Y-132574354D01*
X177141544Y-132426784D01*
X177073624Y-132262812D01*
X177039000Y-132088741D01*
X177039000Y-131911259D01*
X177073624Y-131737188D01*
X177141544Y-131573216D01*
X177240147Y-131425646D01*
X177365646Y-131300147D01*
X177513216Y-131201544D01*
X177677188Y-131133624D01*
X177826488Y-131103927D01*
X177851258Y-131099000D01*
X178028742Y-131099000D01*
X178053512Y-131103927D01*
G37*
G36*
X180593512Y-131103927D02*
G01*
X180742812Y-131133624D01*
X180906784Y-131201544D01*
X181054354Y-131300147D01*
X181179853Y-131425646D01*
X181278456Y-131573216D01*
X181346376Y-131737188D01*
X181381000Y-131911259D01*
X181381000Y-132088741D01*
X181346376Y-132262812D01*
X181278456Y-132426784D01*
X181179853Y-132574354D01*
X181054354Y-132699853D01*
X180906784Y-132798456D01*
X180742812Y-132866376D01*
X180593512Y-132896073D01*
X180568742Y-132901000D01*
X180391258Y-132901000D01*
X180366488Y-132896073D01*
X180217188Y-132866376D01*
X180053216Y-132798456D01*
X179905646Y-132699853D01*
X179780147Y-132574354D01*
X179681544Y-132426784D01*
X179613624Y-132262812D01*
X179579000Y-132088741D01*
X179579000Y-131911259D01*
X179613624Y-131737188D01*
X179681544Y-131573216D01*
X179780147Y-131425646D01*
X179905646Y-131300147D01*
X180053216Y-131201544D01*
X180217188Y-131133624D01*
X180366488Y-131103927D01*
X180391258Y-131099000D01*
X180568742Y-131099000D01*
X180593512Y-131103927D01*
G37*
G36*
X183133512Y-131103927D02*
G01*
X183282812Y-131133624D01*
X183446784Y-131201544D01*
X183594354Y-131300147D01*
X183719853Y-131425646D01*
X183818456Y-131573216D01*
X183886376Y-131737188D01*
X183921000Y-131911259D01*
X183921000Y-132088741D01*
X183886376Y-132262812D01*
X183818456Y-132426784D01*
X183719853Y-132574354D01*
X183594354Y-132699853D01*
X183446784Y-132798456D01*
X183282812Y-132866376D01*
X183133512Y-132896073D01*
X183108742Y-132901000D01*
X182931258Y-132901000D01*
X182906488Y-132896073D01*
X182757188Y-132866376D01*
X182593216Y-132798456D01*
X182445646Y-132699853D01*
X182320147Y-132574354D01*
X182221544Y-132426784D01*
X182153624Y-132262812D01*
X182119000Y-132088741D01*
X182119000Y-131911259D01*
X182153624Y-131737188D01*
X182221544Y-131573216D01*
X182320147Y-131425646D01*
X182445646Y-131300147D01*
X182593216Y-131201544D01*
X182757188Y-131133624D01*
X182906488Y-131103927D01*
X182931258Y-131099000D01*
X183108742Y-131099000D01*
X183133512Y-131103927D01*
G37*
G36*
X185673512Y-131103927D02*
G01*
X185822812Y-131133624D01*
X185986784Y-131201544D01*
X186134354Y-131300147D01*
X186259853Y-131425646D01*
X186358456Y-131573216D01*
X186426376Y-131737188D01*
X186461000Y-131911259D01*
X186461000Y-132088741D01*
X186426376Y-132262812D01*
X186358456Y-132426784D01*
X186259853Y-132574354D01*
X186134354Y-132699853D01*
X185986784Y-132798456D01*
X185822812Y-132866376D01*
X185673512Y-132896073D01*
X185648742Y-132901000D01*
X185471258Y-132901000D01*
X185446488Y-132896073D01*
X185297188Y-132866376D01*
X185133216Y-132798456D01*
X184985646Y-132699853D01*
X184860147Y-132574354D01*
X184761544Y-132426784D01*
X184693624Y-132262812D01*
X184659000Y-132088741D01*
X184659000Y-131911259D01*
X184693624Y-131737188D01*
X184761544Y-131573216D01*
X184860147Y-131425646D01*
X184985646Y-131300147D01*
X185133216Y-131201544D01*
X185297188Y-131133624D01*
X185446488Y-131103927D01*
X185471258Y-131099000D01*
X185648742Y-131099000D01*
X185673512Y-131103927D01*
G37*
G36*
X188213512Y-131103927D02*
G01*
X188362812Y-131133624D01*
X188526784Y-131201544D01*
X188674354Y-131300147D01*
X188799853Y-131425646D01*
X188898456Y-131573216D01*
X188966376Y-131737188D01*
X189001000Y-131911259D01*
X189001000Y-132088741D01*
X188966376Y-132262812D01*
X188898456Y-132426784D01*
X188799853Y-132574354D01*
X188674354Y-132699853D01*
X188526784Y-132798456D01*
X188362812Y-132866376D01*
X188213512Y-132896073D01*
X188188742Y-132901000D01*
X188011258Y-132901000D01*
X187986488Y-132896073D01*
X187837188Y-132866376D01*
X187673216Y-132798456D01*
X187525646Y-132699853D01*
X187400147Y-132574354D01*
X187301544Y-132426784D01*
X187233624Y-132262812D01*
X187199000Y-132088741D01*
X187199000Y-131911259D01*
X187233624Y-131737188D01*
X187301544Y-131573216D01*
X187400147Y-131425646D01*
X187525646Y-131300147D01*
X187673216Y-131201544D01*
X187837188Y-131133624D01*
X187986488Y-131103927D01*
X188011258Y-131099000D01*
X188188742Y-131099000D01*
X188213512Y-131103927D01*
G37*
G36*
X190753512Y-131103927D02*
G01*
X190902812Y-131133624D01*
X191066784Y-131201544D01*
X191214354Y-131300147D01*
X191339853Y-131425646D01*
X191438456Y-131573216D01*
X191506376Y-131737188D01*
X191541000Y-131911259D01*
X191541000Y-132088741D01*
X191506376Y-132262812D01*
X191438456Y-132426784D01*
X191339853Y-132574354D01*
X191214354Y-132699853D01*
X191066784Y-132798456D01*
X190902812Y-132866376D01*
X190753512Y-132896073D01*
X190728742Y-132901000D01*
X190551258Y-132901000D01*
X190526488Y-132896073D01*
X190377188Y-132866376D01*
X190213216Y-132798456D01*
X190065646Y-132699853D01*
X189940147Y-132574354D01*
X189841544Y-132426784D01*
X189773624Y-132262812D01*
X189739000Y-132088741D01*
X189739000Y-131911259D01*
X189773624Y-131737188D01*
X189841544Y-131573216D01*
X189940147Y-131425646D01*
X190065646Y-131300147D01*
X190213216Y-131201544D01*
X190377188Y-131133624D01*
X190526488Y-131103927D01*
X190551258Y-131099000D01*
X190728742Y-131099000D01*
X190753512Y-131103927D01*
G37*
M02*
