G04 #@! TF.GenerationSoftware,KiCad,Pcbnew,(5.1.5)-3*
G04 #@! TF.CreationDate,2020-05-28T15:20:15-05:00*
G04 #@! TF.ProjectId,37P_TFT_Breakout,3337505f-5446-4545-9f42-7265616b6f75,rev?*
G04 #@! TF.SameCoordinates,Original*
G04 #@! TF.FileFunction,Legend,Top*
G04 #@! TF.FilePolarity,Positive*
%FSLAX46Y46*%
G04 Gerber Fmt 4.6, Leading zero omitted, Abs format (unit mm)*
G04 Created by KiCad (PCBNEW (5.1.5)-3) date 2020-05-28 15:20:15*
%MOMM*%
%LPD*%
G04 APERTURE LIST*
%ADD10C,0.150000*%
G04 #@! TA.AperFunction,Profile*
%ADD11C,0.120000*%
G04 #@! TD*
%ADD12C,0.120000*%
%ADD13C,0.152400*%
G04 APERTURE END LIST*
D10*
X104193971Y-130352380D02*
X104241590Y-130209523D01*
X104289209Y-130161904D01*
X104384447Y-130114285D01*
X104527304Y-130114285D01*
X104622542Y-130161904D01*
X104670161Y-130209523D01*
X104717780Y-130304761D01*
X104717780Y-130685714D01*
X103717780Y-130685714D01*
X103717780Y-130352380D01*
X103765400Y-130257142D01*
X103813019Y-130209523D01*
X103908257Y-130161904D01*
X104003495Y-130161904D01*
X104098733Y-130209523D01*
X104146352Y-130257142D01*
X104193971Y-130352380D01*
X104193971Y-130685714D01*
X104717780Y-129209523D02*
X104717780Y-129685714D01*
X103717780Y-129685714D01*
X104336828Y-128876190D02*
X104336828Y-128114285D01*
X121558100Y-130187304D02*
X121510480Y-130282542D01*
X121510480Y-130425400D01*
X121558100Y-130568257D01*
X121653338Y-130663495D01*
X121748576Y-130711114D01*
X121939052Y-130758733D01*
X122081909Y-130758733D01*
X122272385Y-130711114D01*
X122367623Y-130663495D01*
X122462861Y-130568257D01*
X122510480Y-130425400D01*
X122510480Y-130330161D01*
X122462861Y-130187304D01*
X122415242Y-130139685D01*
X122081909Y-130139685D01*
X122081909Y-130330161D01*
X122510480Y-129711114D02*
X121510480Y-129711114D01*
X122510480Y-129139685D01*
X121510480Y-129139685D01*
X122510480Y-128663495D02*
X121510480Y-128663495D01*
X121510480Y-128425400D01*
X121558100Y-128282542D01*
X121653338Y-128187304D01*
X121748576Y-128139685D01*
X121939052Y-128092066D01*
X122081909Y-128092066D01*
X122272385Y-128139685D01*
X122367623Y-128187304D01*
X122462861Y-128282542D01*
X122510480Y-128425400D01*
X122510480Y-128663495D01*
X158032380Y-130588095D02*
X157032380Y-130588095D01*
X157032380Y-130350000D01*
X157080000Y-130207142D01*
X157175238Y-130111904D01*
X157270476Y-130064285D01*
X157460952Y-130016666D01*
X157603809Y-130016666D01*
X157794285Y-130064285D01*
X157889523Y-130111904D01*
X157984761Y-130207142D01*
X158032380Y-130350000D01*
X158032380Y-130588095D01*
X157032380Y-129683333D02*
X157032380Y-129016666D01*
X158032380Y-129445238D01*
X155492380Y-130588095D02*
X154492380Y-130588095D01*
X154492380Y-130350000D01*
X154540000Y-130207142D01*
X154635238Y-130111904D01*
X154730476Y-130064285D01*
X154920952Y-130016666D01*
X155063809Y-130016666D01*
X155254285Y-130064285D01*
X155349523Y-130111904D01*
X155444761Y-130207142D01*
X155492380Y-130350000D01*
X155492380Y-130588095D01*
X154920952Y-129445238D02*
X154873333Y-129540476D01*
X154825714Y-129588095D01*
X154730476Y-129635714D01*
X154682857Y-129635714D01*
X154587619Y-129588095D01*
X154540000Y-129540476D01*
X154492380Y-129445238D01*
X154492380Y-129254761D01*
X154540000Y-129159523D01*
X154587619Y-129111904D01*
X154682857Y-129064285D01*
X154730476Y-129064285D01*
X154825714Y-129111904D01*
X154873333Y-129159523D01*
X154920952Y-129254761D01*
X154920952Y-129445238D01*
X154968571Y-129540476D01*
X155016190Y-129588095D01*
X155111428Y-129635714D01*
X155301904Y-129635714D01*
X155397142Y-129588095D01*
X155444761Y-129540476D01*
X155492380Y-129445238D01*
X155492380Y-129254761D01*
X155444761Y-129159523D01*
X155397142Y-129111904D01*
X155301904Y-129064285D01*
X155111428Y-129064285D01*
X155016190Y-129111904D01*
X154968571Y-129159523D01*
X154920952Y-129254761D01*
X127076190Y-130469047D02*
X127552380Y-130469047D01*
X126552380Y-130802380D02*
X127076190Y-130469047D01*
X126552380Y-130135714D01*
X127171428Y-129802380D02*
X127171428Y-129040476D01*
X127552380Y-129421428D02*
X126790476Y-129421428D01*
X106708571Y-130352380D02*
X106756190Y-130209523D01*
X106803809Y-130161904D01*
X106899047Y-130114285D01*
X107041904Y-130114285D01*
X107137142Y-130161904D01*
X107184761Y-130209523D01*
X107232380Y-130304761D01*
X107232380Y-130685714D01*
X106232380Y-130685714D01*
X106232380Y-130352380D01*
X106280000Y-130257142D01*
X106327619Y-130209523D01*
X106422857Y-130161904D01*
X106518095Y-130161904D01*
X106613333Y-130209523D01*
X106660952Y-130257142D01*
X106708571Y-130352380D01*
X106708571Y-130685714D01*
X107232380Y-129209523D02*
X107232380Y-129685714D01*
X106232380Y-129685714D01*
X106851428Y-128876190D02*
X106851428Y-128114285D01*
X114328571Y-130352380D02*
X114376190Y-130209523D01*
X114423809Y-130161904D01*
X114519047Y-130114285D01*
X114661904Y-130114285D01*
X114757142Y-130161904D01*
X114804761Y-130209523D01*
X114852380Y-130304761D01*
X114852380Y-130685714D01*
X113852380Y-130685714D01*
X113852380Y-130352380D01*
X113900000Y-130257142D01*
X113947619Y-130209523D01*
X114042857Y-130161904D01*
X114138095Y-130161904D01*
X114233333Y-130209523D01*
X114280952Y-130257142D01*
X114328571Y-130352380D01*
X114328571Y-130685714D01*
X114852380Y-129209523D02*
X114852380Y-129685714D01*
X113852380Y-129685714D01*
X114471428Y-128876190D02*
X114471428Y-128114285D01*
X173272380Y-130588095D02*
X172272380Y-130588095D01*
X172272380Y-130350000D01*
X172320000Y-130207142D01*
X172415238Y-130111904D01*
X172510476Y-130064285D01*
X172700952Y-130016666D01*
X172843809Y-130016666D01*
X173034285Y-130064285D01*
X173129523Y-130111904D01*
X173224761Y-130207142D01*
X173272380Y-130350000D01*
X173272380Y-130588095D01*
X173272380Y-129064285D02*
X173272380Y-129635714D01*
X173272380Y-129350000D02*
X172272380Y-129350000D01*
X172415238Y-129445238D01*
X172510476Y-129540476D01*
X172558095Y-129635714D01*
X175812380Y-130588095D02*
X174812380Y-130588095D01*
X174812380Y-130350000D01*
X174860000Y-130207142D01*
X174955238Y-130111904D01*
X175050476Y-130064285D01*
X175240952Y-130016666D01*
X175383809Y-130016666D01*
X175574285Y-130064285D01*
X175669523Y-130111904D01*
X175764761Y-130207142D01*
X175812380Y-130350000D01*
X175812380Y-130588095D01*
X174812380Y-129397619D02*
X174812380Y-129302380D01*
X174860000Y-129207142D01*
X174907619Y-129159523D01*
X175002857Y-129111904D01*
X175193333Y-129064285D01*
X175431428Y-129064285D01*
X175621904Y-129111904D01*
X175717142Y-129159523D01*
X175764761Y-129207142D01*
X175812380Y-129302380D01*
X175812380Y-129397619D01*
X175764761Y-129492857D01*
X175717142Y-129540476D01*
X175621904Y-129588095D01*
X175431428Y-129635714D01*
X175193333Y-129635714D01*
X175002857Y-129588095D01*
X174907619Y-129540476D01*
X174860000Y-129492857D01*
X174812380Y-129397619D01*
X119408571Y-130352380D02*
X119456190Y-130209523D01*
X119503809Y-130161904D01*
X119599047Y-130114285D01*
X119741904Y-130114285D01*
X119837142Y-130161904D01*
X119884761Y-130209523D01*
X119932380Y-130304761D01*
X119932380Y-130685714D01*
X118932380Y-130685714D01*
X118932380Y-130352380D01*
X118980000Y-130257142D01*
X119027619Y-130209523D01*
X119122857Y-130161904D01*
X119218095Y-130161904D01*
X119313333Y-130209523D01*
X119360952Y-130257142D01*
X119408571Y-130352380D01*
X119408571Y-130685714D01*
X119932380Y-129209523D02*
X119932380Y-129685714D01*
X118932380Y-129685714D01*
X119551428Y-128876190D02*
X119551428Y-128114285D01*
X119932380Y-128495238D02*
X119170476Y-128495238D01*
X190052380Y-130733333D02*
X191052380Y-130400000D01*
X190052380Y-130066666D01*
X190957142Y-129161904D02*
X191004761Y-129209523D01*
X191052380Y-129352380D01*
X191052380Y-129447619D01*
X191004761Y-129590476D01*
X190909523Y-129685714D01*
X190814285Y-129733333D01*
X190623809Y-129780952D01*
X190480952Y-129780952D01*
X190290476Y-129733333D01*
X190195238Y-129685714D01*
X190100000Y-129590476D01*
X190052380Y-129447619D01*
X190052380Y-129352380D01*
X190100000Y-129209523D01*
X190147619Y-129161904D01*
X190957142Y-128161904D02*
X191004761Y-128209523D01*
X191052380Y-128352380D01*
X191052380Y-128447619D01*
X191004761Y-128590476D01*
X190909523Y-128685714D01*
X190814285Y-128733333D01*
X190623809Y-128780952D01*
X190480952Y-128780952D01*
X190290476Y-128733333D01*
X190195238Y-128685714D01*
X190100000Y-128590476D01*
X190052380Y-128447619D01*
X190052380Y-128352380D01*
X190100000Y-128209523D01*
X190147619Y-128161904D01*
X163112380Y-130588095D02*
X162112380Y-130588095D01*
X162112380Y-130350000D01*
X162160000Y-130207142D01*
X162255238Y-130111904D01*
X162350476Y-130064285D01*
X162540952Y-130016666D01*
X162683809Y-130016666D01*
X162874285Y-130064285D01*
X162969523Y-130111904D01*
X163064761Y-130207142D01*
X163112380Y-130350000D01*
X163112380Y-130588095D01*
X162112380Y-129111904D02*
X162112380Y-129588095D01*
X162588571Y-129635714D01*
X162540952Y-129588095D01*
X162493333Y-129492857D01*
X162493333Y-129254761D01*
X162540952Y-129159523D01*
X162588571Y-129111904D01*
X162683809Y-129064285D01*
X162921904Y-129064285D01*
X163017142Y-129111904D01*
X163064761Y-129159523D01*
X163112380Y-129254761D01*
X163112380Y-129492857D01*
X163064761Y-129588095D01*
X163017142Y-129635714D01*
X187145000Y-130826190D02*
X187145000Y-129826190D01*
X188417142Y-130016666D02*
X188464761Y-130064285D01*
X188512380Y-130207142D01*
X188512380Y-130302380D01*
X188464761Y-130445238D01*
X188369523Y-130540476D01*
X188274285Y-130588095D01*
X188083809Y-130635714D01*
X187940952Y-130635714D01*
X187750476Y-130588095D01*
X187655238Y-130540476D01*
X187560000Y-130445238D01*
X187512380Y-130302380D01*
X187512380Y-130207142D01*
X187560000Y-130064285D01*
X187607619Y-130016666D01*
X187145000Y-129826190D02*
X187145000Y-128873809D01*
X188464761Y-129635714D02*
X188512380Y-129492857D01*
X188512380Y-129254761D01*
X188464761Y-129159523D01*
X188417142Y-129111904D01*
X188321904Y-129064285D01*
X188226666Y-129064285D01*
X188131428Y-129111904D01*
X188083809Y-129159523D01*
X188036190Y-129254761D01*
X187988571Y-129445238D01*
X187940952Y-129540476D01*
X187893333Y-129588095D01*
X187798095Y-129635714D01*
X187702857Y-129635714D01*
X187607619Y-129588095D01*
X187560000Y-129540476D01*
X187512380Y-129445238D01*
X187512380Y-129207142D01*
X187560000Y-129064285D01*
X132156190Y-130469047D02*
X132632380Y-130469047D01*
X131632380Y-130802380D02*
X132156190Y-130469047D01*
X131632380Y-130135714D01*
X132251428Y-129802380D02*
X132251428Y-129040476D01*
X116868571Y-130352380D02*
X116916190Y-130209523D01*
X116963809Y-130161904D01*
X117059047Y-130114285D01*
X117201904Y-130114285D01*
X117297142Y-130161904D01*
X117344761Y-130209523D01*
X117392380Y-130304761D01*
X117392380Y-130685714D01*
X116392380Y-130685714D01*
X116392380Y-130352380D01*
X116440000Y-130257142D01*
X116487619Y-130209523D01*
X116582857Y-130161904D01*
X116678095Y-130161904D01*
X116773333Y-130209523D01*
X116820952Y-130257142D01*
X116868571Y-130352380D01*
X116868571Y-130685714D01*
X117392380Y-129209523D02*
X117392380Y-129685714D01*
X116392380Y-129685714D01*
X117011428Y-128876190D02*
X117011428Y-128114285D01*
X185972380Y-130611904D02*
X184972380Y-130611904D01*
X184972380Y-130373809D01*
X185020000Y-130230952D01*
X185115238Y-130135714D01*
X185210476Y-130088095D01*
X185400952Y-130040476D01*
X185543809Y-130040476D01*
X185734285Y-130088095D01*
X185829523Y-130135714D01*
X185924761Y-130230952D01*
X185972380Y-130373809D01*
X185972380Y-130611904D01*
X185877142Y-129040476D02*
X185924761Y-129088095D01*
X185972380Y-129230952D01*
X185972380Y-129326190D01*
X185924761Y-129469047D01*
X185829523Y-129564285D01*
X185734285Y-129611904D01*
X185543809Y-129659523D01*
X185400952Y-129659523D01*
X185210476Y-129611904D01*
X185115238Y-129564285D01*
X185020000Y-129469047D01*
X184972380Y-129326190D01*
X184972380Y-129230952D01*
X185020000Y-129088095D01*
X185067619Y-129040476D01*
X182432380Y-130778571D02*
X183432380Y-130540476D01*
X182718095Y-130350000D01*
X183432380Y-130159523D01*
X182432380Y-129921428D01*
X183432380Y-128969047D02*
X182956190Y-129302380D01*
X183432380Y-129540476D02*
X182432380Y-129540476D01*
X182432380Y-129159523D01*
X182480000Y-129064285D01*
X182527619Y-129016666D01*
X182622857Y-128969047D01*
X182765714Y-128969047D01*
X182860952Y-129016666D01*
X182908571Y-129064285D01*
X182956190Y-129159523D01*
X182956190Y-129540476D01*
X147872380Y-130614285D02*
X146872380Y-130614285D01*
X146872380Y-130376190D01*
X146920000Y-130233333D01*
X147015238Y-130138095D01*
X147110476Y-130090476D01*
X147300952Y-130042857D01*
X147443809Y-130042857D01*
X147634285Y-130090476D01*
X147729523Y-130138095D01*
X147824761Y-130233333D01*
X147872380Y-130376190D01*
X147872380Y-130614285D01*
X147872380Y-129090476D02*
X147872380Y-129661904D01*
X147872380Y-129376190D02*
X146872380Y-129376190D01*
X147015238Y-129471428D01*
X147110476Y-129566666D01*
X147158095Y-129661904D01*
X147872380Y-128138095D02*
X147872380Y-128709523D01*
X147872380Y-128423809D02*
X146872380Y-128423809D01*
X147015238Y-128519047D01*
X147110476Y-128614285D01*
X147158095Y-128709523D01*
X111788571Y-130352380D02*
X111836190Y-130209523D01*
X111883809Y-130161904D01*
X111979047Y-130114285D01*
X112121904Y-130114285D01*
X112217142Y-130161904D01*
X112264761Y-130209523D01*
X112312380Y-130304761D01*
X112312380Y-130685714D01*
X111312380Y-130685714D01*
X111312380Y-130352380D01*
X111360000Y-130257142D01*
X111407619Y-130209523D01*
X111502857Y-130161904D01*
X111598095Y-130161904D01*
X111693333Y-130209523D01*
X111740952Y-130257142D01*
X111788571Y-130352380D01*
X111788571Y-130685714D01*
X112312380Y-129209523D02*
X112312380Y-129685714D01*
X111312380Y-129685714D01*
X111931428Y-128876190D02*
X111931428Y-128114285D01*
X137712380Y-130614285D02*
X136712380Y-130614285D01*
X136712380Y-130376190D01*
X136760000Y-130233333D01*
X136855238Y-130138095D01*
X136950476Y-130090476D01*
X137140952Y-130042857D01*
X137283809Y-130042857D01*
X137474285Y-130090476D01*
X137569523Y-130138095D01*
X137664761Y-130233333D01*
X137712380Y-130376190D01*
X137712380Y-130614285D01*
X137712380Y-129090476D02*
X137712380Y-129661904D01*
X137712380Y-129376190D02*
X136712380Y-129376190D01*
X136855238Y-129471428D01*
X136950476Y-129566666D01*
X136998095Y-129661904D01*
X136712380Y-128185714D02*
X136712380Y-128661904D01*
X137188571Y-128709523D01*
X137140952Y-128661904D01*
X137093333Y-128566666D01*
X137093333Y-128328571D01*
X137140952Y-128233333D01*
X137188571Y-128185714D01*
X137283809Y-128138095D01*
X137521904Y-128138095D01*
X137617142Y-128185714D01*
X137664761Y-128233333D01*
X137712380Y-128328571D01*
X137712380Y-128566666D01*
X137664761Y-128661904D01*
X137617142Y-128709523D01*
X142792380Y-130614285D02*
X141792380Y-130614285D01*
X141792380Y-130376190D01*
X141840000Y-130233333D01*
X141935238Y-130138095D01*
X142030476Y-130090476D01*
X142220952Y-130042857D01*
X142363809Y-130042857D01*
X142554285Y-130090476D01*
X142649523Y-130138095D01*
X142744761Y-130233333D01*
X142792380Y-130376190D01*
X142792380Y-130614285D01*
X142792380Y-129090476D02*
X142792380Y-129661904D01*
X142792380Y-129376190D02*
X141792380Y-129376190D01*
X141935238Y-129471428D01*
X142030476Y-129566666D01*
X142078095Y-129661904D01*
X141792380Y-128757142D02*
X141792380Y-128138095D01*
X142173333Y-128471428D01*
X142173333Y-128328571D01*
X142220952Y-128233333D01*
X142268571Y-128185714D01*
X142363809Y-128138095D01*
X142601904Y-128138095D01*
X142697142Y-128185714D01*
X142744761Y-128233333D01*
X142792380Y-128328571D01*
X142792380Y-128614285D01*
X142744761Y-128709523D01*
X142697142Y-128757142D01*
X165652380Y-130588095D02*
X164652380Y-130588095D01*
X164652380Y-130350000D01*
X164700000Y-130207142D01*
X164795238Y-130111904D01*
X164890476Y-130064285D01*
X165080952Y-130016666D01*
X165223809Y-130016666D01*
X165414285Y-130064285D01*
X165509523Y-130111904D01*
X165604761Y-130207142D01*
X165652380Y-130350000D01*
X165652380Y-130588095D01*
X164985714Y-129159523D02*
X165652380Y-129159523D01*
X164604761Y-129397619D02*
X165319047Y-129635714D01*
X165319047Y-129016666D01*
X192592380Y-130733333D02*
X193592380Y-130400000D01*
X192592380Y-130066666D01*
X193497142Y-129161904D02*
X193544761Y-129209523D01*
X193592380Y-129352380D01*
X193592380Y-129447619D01*
X193544761Y-129590476D01*
X193449523Y-129685714D01*
X193354285Y-129733333D01*
X193163809Y-129780952D01*
X193020952Y-129780952D01*
X192830476Y-129733333D01*
X192735238Y-129685714D01*
X192640000Y-129590476D01*
X192592380Y-129447619D01*
X192592380Y-129352380D01*
X192640000Y-129209523D01*
X192687619Y-129161904D01*
X193497142Y-128161904D02*
X193544761Y-128209523D01*
X193592380Y-128352380D01*
X193592380Y-128447619D01*
X193544761Y-128590476D01*
X193449523Y-128685714D01*
X193354285Y-128733333D01*
X193163809Y-128780952D01*
X193020952Y-128780952D01*
X192830476Y-128733333D01*
X192735238Y-128685714D01*
X192640000Y-128590476D01*
X192592380Y-128447619D01*
X192592380Y-128352380D01*
X192640000Y-128209523D01*
X192687619Y-128161904D01*
X168192380Y-130588095D02*
X167192380Y-130588095D01*
X167192380Y-130350000D01*
X167240000Y-130207142D01*
X167335238Y-130111904D01*
X167430476Y-130064285D01*
X167620952Y-130016666D01*
X167763809Y-130016666D01*
X167954285Y-130064285D01*
X168049523Y-130111904D01*
X168144761Y-130207142D01*
X168192380Y-130350000D01*
X168192380Y-130588095D01*
X167192380Y-129683333D02*
X167192380Y-129064285D01*
X167573333Y-129397619D01*
X167573333Y-129254761D01*
X167620952Y-129159523D01*
X167668571Y-129111904D01*
X167763809Y-129064285D01*
X168001904Y-129064285D01*
X168097142Y-129111904D01*
X168144761Y-129159523D01*
X168192380Y-129254761D01*
X168192380Y-129540476D01*
X168144761Y-129635714D01*
X168097142Y-129683333D01*
X129092380Y-130802380D02*
X130092380Y-130135714D01*
X129092380Y-130135714D02*
X130092380Y-130802380D01*
X129711428Y-129754761D02*
X129711428Y-128992857D01*
X152952380Y-130588095D02*
X151952380Y-130588095D01*
X151952380Y-130350000D01*
X152000000Y-130207142D01*
X152095238Y-130111904D01*
X152190476Y-130064285D01*
X152380952Y-130016666D01*
X152523809Y-130016666D01*
X152714285Y-130064285D01*
X152809523Y-130111904D01*
X152904761Y-130207142D01*
X152952380Y-130350000D01*
X152952380Y-130588095D01*
X152952380Y-129540476D02*
X152952380Y-129350000D01*
X152904761Y-129254761D01*
X152857142Y-129207142D01*
X152714285Y-129111904D01*
X152523809Y-129064285D01*
X152142857Y-129064285D01*
X152047619Y-129111904D01*
X152000000Y-129159523D01*
X151952380Y-129254761D01*
X151952380Y-129445238D01*
X152000000Y-129540476D01*
X152047619Y-129588095D01*
X152142857Y-129635714D01*
X152380952Y-129635714D01*
X152476190Y-129588095D01*
X152523809Y-129540476D01*
X152571428Y-129445238D01*
X152571428Y-129254761D01*
X152523809Y-129159523D01*
X152476190Y-129111904D01*
X152380952Y-129064285D01*
X140252380Y-130614285D02*
X139252380Y-130614285D01*
X139252380Y-130376190D01*
X139300000Y-130233333D01*
X139395238Y-130138095D01*
X139490476Y-130090476D01*
X139680952Y-130042857D01*
X139823809Y-130042857D01*
X140014285Y-130090476D01*
X140109523Y-130138095D01*
X140204761Y-130233333D01*
X140252380Y-130376190D01*
X140252380Y-130614285D01*
X140252380Y-129090476D02*
X140252380Y-129661904D01*
X140252380Y-129376190D02*
X139252380Y-129376190D01*
X139395238Y-129471428D01*
X139490476Y-129566666D01*
X139538095Y-129661904D01*
X139585714Y-128233333D02*
X140252380Y-128233333D01*
X139204761Y-128471428D02*
X139919047Y-128709523D01*
X139919047Y-128090476D01*
X170732380Y-130588095D02*
X169732380Y-130588095D01*
X169732380Y-130350000D01*
X169780000Y-130207142D01*
X169875238Y-130111904D01*
X169970476Y-130064285D01*
X170160952Y-130016666D01*
X170303809Y-130016666D01*
X170494285Y-130064285D01*
X170589523Y-130111904D01*
X170684761Y-130207142D01*
X170732380Y-130350000D01*
X170732380Y-130588095D01*
X169827619Y-129635714D02*
X169780000Y-129588095D01*
X169732380Y-129492857D01*
X169732380Y-129254761D01*
X169780000Y-129159523D01*
X169827619Y-129111904D01*
X169922857Y-129064285D01*
X170018095Y-129064285D01*
X170160952Y-129111904D01*
X170732380Y-129683333D01*
X170732380Y-129064285D01*
X134220000Y-130161904D02*
X134172380Y-130257142D01*
X134172380Y-130400000D01*
X134220000Y-130542857D01*
X134315238Y-130638095D01*
X134410476Y-130685714D01*
X134600952Y-130733333D01*
X134743809Y-130733333D01*
X134934285Y-130685714D01*
X135029523Y-130638095D01*
X135124761Y-130542857D01*
X135172380Y-130400000D01*
X135172380Y-130304761D01*
X135124761Y-130161904D01*
X135077142Y-130114285D01*
X134743809Y-130114285D01*
X134743809Y-130304761D01*
X135172380Y-129685714D02*
X134172380Y-129685714D01*
X135172380Y-129114285D01*
X134172380Y-129114285D01*
X135172380Y-128638095D02*
X134172380Y-128638095D01*
X134172380Y-128400000D01*
X134220000Y-128257142D01*
X134315238Y-128161904D01*
X134410476Y-128114285D01*
X134600952Y-128066666D01*
X134743809Y-128066666D01*
X134934285Y-128114285D01*
X135029523Y-128161904D01*
X135124761Y-128257142D01*
X135172380Y-128400000D01*
X135172380Y-128638095D01*
X160572380Y-130588095D02*
X159572380Y-130588095D01*
X159572380Y-130350000D01*
X159620000Y-130207142D01*
X159715238Y-130111904D01*
X159810476Y-130064285D01*
X160000952Y-130016666D01*
X160143809Y-130016666D01*
X160334285Y-130064285D01*
X160429523Y-130111904D01*
X160524761Y-130207142D01*
X160572380Y-130350000D01*
X160572380Y-130588095D01*
X159572380Y-129159523D02*
X159572380Y-129350000D01*
X159620000Y-129445238D01*
X159667619Y-129492857D01*
X159810476Y-129588095D01*
X160000952Y-129635714D01*
X160381904Y-129635714D01*
X160477142Y-129588095D01*
X160524761Y-129540476D01*
X160572380Y-129445238D01*
X160572380Y-129254761D01*
X160524761Y-129159523D01*
X160477142Y-129111904D01*
X160381904Y-129064285D01*
X160143809Y-129064285D01*
X160048571Y-129111904D01*
X160000952Y-129159523D01*
X159953333Y-129254761D01*
X159953333Y-129445238D01*
X160000952Y-129540476D01*
X160048571Y-129588095D01*
X160143809Y-129635714D01*
X195180000Y-130161904D02*
X195132380Y-130257142D01*
X195132380Y-130400000D01*
X195180000Y-130542857D01*
X195275238Y-130638095D01*
X195370476Y-130685714D01*
X195560952Y-130733333D01*
X195703809Y-130733333D01*
X195894285Y-130685714D01*
X195989523Y-130638095D01*
X196084761Y-130542857D01*
X196132380Y-130400000D01*
X196132380Y-130304761D01*
X196084761Y-130161904D01*
X196037142Y-130114285D01*
X195703809Y-130114285D01*
X195703809Y-130304761D01*
X196132380Y-129685714D02*
X195132380Y-129685714D01*
X196132380Y-129114285D01*
X195132380Y-129114285D01*
X196132380Y-128638095D02*
X195132380Y-128638095D01*
X195132380Y-128400000D01*
X195180000Y-128257142D01*
X195275238Y-128161904D01*
X195370476Y-128114285D01*
X195560952Y-128066666D01*
X195703809Y-128066666D01*
X195894285Y-128114285D01*
X195989523Y-128161904D01*
X196084761Y-128257142D01*
X196132380Y-128400000D01*
X196132380Y-128638095D01*
X124012380Y-130802380D02*
X125012380Y-130135714D01*
X124012380Y-130135714D02*
X125012380Y-130802380D01*
X124631428Y-129754761D02*
X124631428Y-128992857D01*
X125012380Y-129373809D02*
X124250476Y-129373809D01*
X180892380Y-130040476D02*
X180416190Y-130373809D01*
X180892380Y-130611904D02*
X179892380Y-130611904D01*
X179892380Y-130230952D01*
X179940000Y-130135714D01*
X179987619Y-130088095D01*
X180082857Y-130040476D01*
X180225714Y-130040476D01*
X180320952Y-130088095D01*
X180368571Y-130135714D01*
X180416190Y-130230952D01*
X180416190Y-130611904D01*
X180892380Y-129611904D02*
X179892380Y-129611904D01*
X179892380Y-129373809D01*
X179940000Y-129230952D01*
X180035238Y-129135714D01*
X180130476Y-129088095D01*
X180320952Y-129040476D01*
X180463809Y-129040476D01*
X180654285Y-129088095D01*
X180749523Y-129135714D01*
X180844761Y-129230952D01*
X180892380Y-129373809D01*
X180892380Y-129611904D01*
X176985000Y-130757142D02*
X176985000Y-129757142D01*
X178352380Y-129947619D02*
X177876190Y-130280952D01*
X178352380Y-130519047D02*
X177352380Y-130519047D01*
X177352380Y-130138095D01*
X177400000Y-130042857D01*
X177447619Y-129995238D01*
X177542857Y-129947619D01*
X177685714Y-129947619D01*
X177780952Y-129995238D01*
X177828571Y-130042857D01*
X177876190Y-130138095D01*
X177876190Y-130519047D01*
X176985000Y-129757142D02*
X176985000Y-128804761D01*
X178304761Y-129566666D02*
X178352380Y-129423809D01*
X178352380Y-129185714D01*
X178304761Y-129090476D01*
X178257142Y-129042857D01*
X178161904Y-128995238D01*
X178066666Y-128995238D01*
X177971428Y-129042857D01*
X177923809Y-129090476D01*
X177876190Y-129185714D01*
X177828571Y-129376190D01*
X177780952Y-129471428D01*
X177733333Y-129519047D01*
X177638095Y-129566666D01*
X177542857Y-129566666D01*
X177447619Y-129519047D01*
X177400000Y-129471428D01*
X177352380Y-129376190D01*
X177352380Y-129138095D01*
X177400000Y-128995238D01*
X176985000Y-128804761D02*
X176985000Y-128042857D01*
X177352380Y-128709523D02*
X177352380Y-128138095D01*
X178352380Y-128423809D02*
X177352380Y-128423809D01*
X145332380Y-130614285D02*
X144332380Y-130614285D01*
X144332380Y-130376190D01*
X144380000Y-130233333D01*
X144475238Y-130138095D01*
X144570476Y-130090476D01*
X144760952Y-130042857D01*
X144903809Y-130042857D01*
X145094285Y-130090476D01*
X145189523Y-130138095D01*
X145284761Y-130233333D01*
X145332380Y-130376190D01*
X145332380Y-130614285D01*
X145332380Y-129090476D02*
X145332380Y-129661904D01*
X145332380Y-129376190D02*
X144332380Y-129376190D01*
X144475238Y-129471428D01*
X144570476Y-129566666D01*
X144618095Y-129661904D01*
X144427619Y-128709523D02*
X144380000Y-128661904D01*
X144332380Y-128566666D01*
X144332380Y-128328571D01*
X144380000Y-128233333D01*
X144427619Y-128185714D01*
X144522857Y-128138095D01*
X144618095Y-128138095D01*
X144760952Y-128185714D01*
X145332380Y-128757142D01*
X145332380Y-128138095D01*
X109248571Y-130352380D02*
X109296190Y-130209523D01*
X109343809Y-130161904D01*
X109439047Y-130114285D01*
X109581904Y-130114285D01*
X109677142Y-130161904D01*
X109724761Y-130209523D01*
X109772380Y-130304761D01*
X109772380Y-130685714D01*
X108772380Y-130685714D01*
X108772380Y-130352380D01*
X108820000Y-130257142D01*
X108867619Y-130209523D01*
X108962857Y-130161904D01*
X109058095Y-130161904D01*
X109153333Y-130209523D01*
X109200952Y-130257142D01*
X109248571Y-130352380D01*
X109248571Y-130685714D01*
X109772380Y-129209523D02*
X109772380Y-129685714D01*
X108772380Y-129685714D01*
X109391428Y-128876190D02*
X109391428Y-128114285D01*
X150412380Y-130614285D02*
X149412380Y-130614285D01*
X149412380Y-130376190D01*
X149460000Y-130233333D01*
X149555238Y-130138095D01*
X149650476Y-130090476D01*
X149840952Y-130042857D01*
X149983809Y-130042857D01*
X150174285Y-130090476D01*
X150269523Y-130138095D01*
X150364761Y-130233333D01*
X150412380Y-130376190D01*
X150412380Y-130614285D01*
X150412380Y-129090476D02*
X150412380Y-129661904D01*
X150412380Y-129376190D02*
X149412380Y-129376190D01*
X149555238Y-129471428D01*
X149650476Y-129566666D01*
X149698095Y-129661904D01*
X149412380Y-128471428D02*
X149412380Y-128376190D01*
X149460000Y-128280952D01*
X149507619Y-128233333D01*
X149602857Y-128185714D01*
X149793333Y-128138095D01*
X150031428Y-128138095D01*
X150221904Y-128185714D01*
X150317142Y-128233333D01*
X150364761Y-128280952D01*
X150412380Y-128376190D01*
X150412380Y-128471428D01*
X150364761Y-128566666D01*
X150317142Y-128614285D01*
X150221904Y-128661904D01*
X150031428Y-128709523D01*
X149793333Y-128709523D01*
X149602857Y-128661904D01*
X149507619Y-128614285D01*
X149460000Y-128566666D01*
X149412380Y-128471428D01*
X151082952Y-95591380D02*
X151082952Y-96305666D01*
X151035333Y-96448523D01*
X150940095Y-96543761D01*
X150797238Y-96591380D01*
X150702000Y-96591380D01*
X152035333Y-96591380D02*
X151559142Y-96591380D01*
X151559142Y-95591380D01*
X152940095Y-96496142D02*
X152892476Y-96543761D01*
X152749619Y-96591380D01*
X152654380Y-96591380D01*
X152511523Y-96543761D01*
X152416285Y-96448523D01*
X152368666Y-96353285D01*
X152321047Y-96162809D01*
X152321047Y-96019952D01*
X152368666Y-95829476D01*
X152416285Y-95734238D01*
X152511523Y-95639000D01*
X152654380Y-95591380D01*
X152749619Y-95591380D01*
X152892476Y-95639000D01*
X152940095Y-95686619D01*
X153654380Y-95591380D02*
X153654380Y-96305666D01*
X153606761Y-96448523D01*
X153511523Y-96543761D01*
X153368666Y-96591380D01*
X153273428Y-96591380D01*
X154606761Y-96591380D02*
X154130571Y-96591380D01*
X154130571Y-95591380D01*
X155511523Y-96496142D02*
X155463904Y-96543761D01*
X155321047Y-96591380D01*
X155225809Y-96591380D01*
X155082952Y-96543761D01*
X154987714Y-96448523D01*
X154940095Y-96353285D01*
X154892476Y-96162809D01*
X154892476Y-96019952D01*
X154940095Y-95829476D01*
X154987714Y-95734238D01*
X155082952Y-95639000D01*
X155225809Y-95591380D01*
X155321047Y-95591380D01*
X155463904Y-95639000D01*
X155511523Y-95686619D01*
X156225809Y-95591380D02*
X156225809Y-96305666D01*
X156178190Y-96448523D01*
X156082952Y-96543761D01*
X155940095Y-96591380D01*
X155844857Y-96591380D01*
X157178190Y-96591380D02*
X156702000Y-96591380D01*
X156702000Y-95591380D01*
X158082952Y-96496142D02*
X158035333Y-96543761D01*
X157892476Y-96591380D01*
X157797238Y-96591380D01*
X157654380Y-96543761D01*
X157559142Y-96448523D01*
X157511523Y-96353285D01*
X157463904Y-96162809D01*
X157463904Y-96019952D01*
X157511523Y-95829476D01*
X157559142Y-95734238D01*
X157654380Y-95639000D01*
X157797238Y-95591380D01*
X157892476Y-95591380D01*
X158035333Y-95639000D01*
X158082952Y-95686619D01*
X158797238Y-95591380D02*
X158797238Y-96305666D01*
X158749619Y-96448523D01*
X158654380Y-96543761D01*
X158511523Y-96591380D01*
X158416285Y-96591380D01*
X159749619Y-96591380D02*
X159273428Y-96591380D01*
X159273428Y-95591380D01*
X160654380Y-96496142D02*
X160606761Y-96543761D01*
X160463904Y-96591380D01*
X160368666Y-96591380D01*
X160225809Y-96543761D01*
X160130571Y-96448523D01*
X160082952Y-96353285D01*
X160035333Y-96162809D01*
X160035333Y-96019952D01*
X160082952Y-95829476D01*
X160130571Y-95734238D01*
X160225809Y-95639000D01*
X160368666Y-95591380D01*
X160463904Y-95591380D01*
X160606761Y-95639000D01*
X160654380Y-95686619D01*
D11*
X197500000Y-70000000D02*
X197500000Y-133500000D01*
X102500000Y-70000000D02*
X197500000Y-70000000D01*
X102500000Y-133500000D02*
X102500000Y-70000000D01*
X102500000Y-133500000D02*
X197500000Y-133500000D01*
D12*
G04 #@! TO.C,DS1*
X122350000Y-119840000D02*
X122350000Y-117500000D01*
X122350000Y-78160000D02*
X122350000Y-80500000D01*
X108400000Y-120340000D02*
G75*
G02X107900000Y-119840000I0J500000D01*
G01*
X121850000Y-77660000D02*
X108400000Y-77660000D01*
X121850000Y-120340000D02*
X108400000Y-120340000D01*
X192420000Y-126630000D02*
X192420000Y-71370000D01*
X107900000Y-71370000D02*
X107900000Y-126630000D01*
X192420000Y-126630000D02*
X107900000Y-126630000D01*
X192420000Y-71370000D02*
X107900000Y-71370000D01*
X122350000Y-119840000D02*
G75*
G02X121850000Y-120340000I-500000J0D01*
G01*
X122350000Y-78160000D02*
G75*
G03X121850000Y-77660000I-500000J0D01*
G01*
X107900000Y-78160000D02*
G75*
G02X108400000Y-77660000I500000J0D01*
G01*
G04 #@! TD*
G04 #@! TO.C,DS1*
D10*
X108545714Y-77332380D02*
X108545714Y-76332380D01*
X108783809Y-76332380D01*
X108926666Y-76380000D01*
X109021904Y-76475238D01*
X109069523Y-76570476D01*
X109117142Y-76760952D01*
X109117142Y-76903809D01*
X109069523Y-77094285D01*
X109021904Y-77189523D01*
X108926666Y-77284761D01*
X108783809Y-77332380D01*
X108545714Y-77332380D01*
X109498095Y-77284761D02*
X109640952Y-77332380D01*
X109879047Y-77332380D01*
X109974285Y-77284761D01*
X110021904Y-77237142D01*
X110069523Y-77141904D01*
X110069523Y-77046666D01*
X110021904Y-76951428D01*
X109974285Y-76903809D01*
X109879047Y-76856190D01*
X109688571Y-76808571D01*
X109593333Y-76760952D01*
X109545714Y-76713333D01*
X109498095Y-76618095D01*
X109498095Y-76522857D01*
X109545714Y-76427619D01*
X109593333Y-76380000D01*
X109688571Y-76332380D01*
X109926666Y-76332380D01*
X110069523Y-76380000D01*
X111021904Y-77332380D02*
X110450476Y-77332380D01*
X110736190Y-77332380D02*
X110736190Y-76332380D01*
X110640952Y-76475238D01*
X110545714Y-76570476D01*
X110450476Y-76618095D01*
D13*
X124122380Y-79194285D02*
X124122380Y-79765714D01*
X124122380Y-79480000D02*
X123122380Y-79480000D01*
X123265238Y-79575238D01*
X123360476Y-79670476D01*
X123408095Y-79765714D01*
X123122380Y-119589523D02*
X123122380Y-118970476D01*
X123503333Y-119303809D01*
X123503333Y-119160952D01*
X123550952Y-119065714D01*
X123598571Y-119018095D01*
X123693809Y-118970476D01*
X123931904Y-118970476D01*
X124027142Y-119018095D01*
X124074761Y-119065714D01*
X124122380Y-119160952D01*
X124122380Y-119446666D01*
X124074761Y-119541904D01*
X124027142Y-119589523D01*
X123122380Y-118637142D02*
X123122380Y-117970476D01*
X124122380Y-118399047D01*
X111678571Y-104714285D02*
X111678571Y-103714285D01*
X113178571Y-104714285D01*
X113178571Y-103714285D01*
X111678571Y-103285714D02*
X111678571Y-102357142D01*
X112250000Y-102857142D01*
X112250000Y-102642857D01*
X112321428Y-102500000D01*
X112392857Y-102428571D01*
X112535714Y-102357142D01*
X112892857Y-102357142D01*
X113035714Y-102428571D01*
X113107142Y-102500000D01*
X113178571Y-102642857D01*
X113178571Y-103071428D01*
X113107142Y-103214285D01*
X113035714Y-103285714D01*
X111678571Y-101000000D02*
X111678571Y-101714285D01*
X112392857Y-101785714D01*
X112321428Y-101714285D01*
X112250000Y-101571428D01*
X112250000Y-101214285D01*
X112321428Y-101071428D01*
X112392857Y-101000000D01*
X112535714Y-100928571D01*
X112892857Y-100928571D01*
X113035714Y-101000000D01*
X113107142Y-101071428D01*
X113178571Y-101214285D01*
X113178571Y-101571428D01*
X113107142Y-101714285D01*
X113035714Y-101785714D01*
X111678571Y-100000000D02*
X111678571Y-99857142D01*
X111750000Y-99714285D01*
X111821428Y-99642857D01*
X111964285Y-99571428D01*
X112250000Y-99500000D01*
X112607142Y-99500000D01*
X112892857Y-99571428D01*
X113035714Y-99642857D01*
X113107142Y-99714285D01*
X113178571Y-99857142D01*
X113178571Y-100000000D01*
X113107142Y-100142857D01*
X113035714Y-100214285D01*
X112892857Y-100285714D01*
X112607142Y-100357142D01*
X112250000Y-100357142D01*
X111964285Y-100285714D01*
X111821428Y-100214285D01*
X111750000Y-100142857D01*
X111678571Y-100000000D01*
X113178571Y-98857142D02*
X111678571Y-98857142D01*
X111678571Y-98357142D02*
X111678571Y-97500000D01*
X113178571Y-97928571D02*
X111678571Y-97928571D01*
X111678571Y-96714285D02*
X111678571Y-96571428D01*
X111750000Y-96428571D01*
X111821428Y-96357142D01*
X111964285Y-96285714D01*
X112250000Y-96214285D01*
X112607142Y-96214285D01*
X112892857Y-96285714D01*
X113035714Y-96357142D01*
X113107142Y-96428571D01*
X113178571Y-96571428D01*
X113178571Y-96714285D01*
X113107142Y-96857142D01*
X113035714Y-96928571D01*
X112892857Y-97000000D01*
X112607142Y-97071428D01*
X112250000Y-97071428D01*
X111964285Y-97000000D01*
X111821428Y-96928571D01*
X111750000Y-96857142D01*
X111678571Y-96714285D01*
X111678571Y-95285714D02*
X111678571Y-95142857D01*
X111750000Y-95000000D01*
X111821428Y-94928571D01*
X111964285Y-94857142D01*
X112250000Y-94785714D01*
X112607142Y-94785714D01*
X112892857Y-94857142D01*
X113035714Y-94928571D01*
X113107142Y-95000000D01*
X113178571Y-95142857D01*
X113178571Y-95285714D01*
X113107142Y-95428571D01*
X113035714Y-95500000D01*
X112892857Y-95571428D01*
X112607142Y-95642857D01*
X112250000Y-95642857D01*
X111964285Y-95571428D01*
X111821428Y-95500000D01*
X111750000Y-95428571D01*
X111678571Y-95285714D01*
X111821428Y-94214285D02*
X111750000Y-94142857D01*
X111678571Y-94000000D01*
X111678571Y-93642857D01*
X111750000Y-93500000D01*
X111821428Y-93428571D01*
X111964285Y-93357142D01*
X112107142Y-93357142D01*
X112321428Y-93428571D01*
X113178571Y-94285714D01*
X113178571Y-93357142D01*
X114678571Y-110107142D02*
X114678571Y-109178571D01*
X115250000Y-109678571D01*
X115250000Y-109464285D01*
X115321428Y-109321428D01*
X115392857Y-109250000D01*
X115535714Y-109178571D01*
X115892857Y-109178571D01*
X116035714Y-109250000D01*
X116107142Y-109321428D01*
X116178571Y-109464285D01*
X116178571Y-109892857D01*
X116107142Y-110035714D01*
X116035714Y-110107142D01*
X116035714Y-108535714D02*
X116107142Y-108464285D01*
X116178571Y-108535714D01*
X116107142Y-108607142D01*
X116035714Y-108535714D01*
X116178571Y-108535714D01*
X114678571Y-107107142D02*
X114678571Y-107821428D01*
X115392857Y-107892857D01*
X115321428Y-107821428D01*
X115250000Y-107678571D01*
X115250000Y-107321428D01*
X115321428Y-107178571D01*
X115392857Y-107107142D01*
X115535714Y-107035714D01*
X115892857Y-107035714D01*
X116035714Y-107107142D01*
X116107142Y-107178571D01*
X116178571Y-107321428D01*
X116178571Y-107678571D01*
X116107142Y-107821428D01*
X116035714Y-107892857D01*
X114678571Y-106464285D02*
X114964285Y-106464285D01*
X114678571Y-105892857D02*
X114964285Y-105892857D01*
X115178571Y-103464285D02*
X116178571Y-103464285D01*
X114607142Y-103821428D02*
X115678571Y-104178571D01*
X115678571Y-103250000D01*
X115321428Y-102464285D02*
X115250000Y-102607142D01*
X115178571Y-102678571D01*
X115035714Y-102750000D01*
X114964285Y-102750000D01*
X114821428Y-102678571D01*
X114750000Y-102607142D01*
X114678571Y-102464285D01*
X114678571Y-102178571D01*
X114750000Y-102035714D01*
X114821428Y-101964285D01*
X114964285Y-101892857D01*
X115035714Y-101892857D01*
X115178571Y-101964285D01*
X115250000Y-102035714D01*
X115321428Y-102178571D01*
X115321428Y-102464285D01*
X115392857Y-102607142D01*
X115464285Y-102678571D01*
X115607142Y-102750000D01*
X115892857Y-102750000D01*
X116035714Y-102678571D01*
X116107142Y-102607142D01*
X116178571Y-102464285D01*
X116178571Y-102178571D01*
X116107142Y-102035714D01*
X116035714Y-101964285D01*
X115892857Y-101892857D01*
X115607142Y-101892857D01*
X115464285Y-101964285D01*
X115392857Y-102035714D01*
X115321428Y-102178571D01*
X114678571Y-100964285D02*
X114678571Y-100821428D01*
X114750000Y-100678571D01*
X114821428Y-100607142D01*
X114964285Y-100535714D01*
X115250000Y-100464285D01*
X115607142Y-100464285D01*
X115892857Y-100535714D01*
X116035714Y-100607142D01*
X116107142Y-100678571D01*
X116178571Y-100821428D01*
X116178571Y-100964285D01*
X116107142Y-101107142D01*
X116035714Y-101178571D01*
X115892857Y-101250000D01*
X115607142Y-101321428D01*
X115250000Y-101321428D01*
X114964285Y-101250000D01*
X114821428Y-101178571D01*
X114750000Y-101107142D01*
X114678571Y-100964285D01*
X116178571Y-98821428D02*
X115178571Y-98035714D01*
X115178571Y-98821428D02*
X116178571Y-98035714D01*
X114678571Y-96464285D02*
X114678571Y-95535714D01*
X115250000Y-96035714D01*
X115250000Y-95821428D01*
X115321428Y-95678571D01*
X115392857Y-95607142D01*
X115535714Y-95535714D01*
X115892857Y-95535714D01*
X116035714Y-95607142D01*
X116107142Y-95678571D01*
X116178571Y-95821428D01*
X116178571Y-96250000D01*
X116107142Y-96392857D01*
X116035714Y-96464285D01*
X114821428Y-94964285D02*
X114750000Y-94892857D01*
X114678571Y-94750000D01*
X114678571Y-94392857D01*
X114750000Y-94250000D01*
X114821428Y-94178571D01*
X114964285Y-94107142D01*
X115107142Y-94107142D01*
X115321428Y-94178571D01*
X116178571Y-95035714D01*
X116178571Y-94107142D01*
X114678571Y-93178571D02*
X114678571Y-93035714D01*
X114750000Y-92892857D01*
X114821428Y-92821428D01*
X114964285Y-92750000D01*
X115250000Y-92678571D01*
X115607142Y-92678571D01*
X115892857Y-92750000D01*
X116035714Y-92821428D01*
X116107142Y-92892857D01*
X116178571Y-93035714D01*
X116178571Y-93178571D01*
X116107142Y-93321428D01*
X116035714Y-93392857D01*
X115892857Y-93464285D01*
X115607142Y-93535714D01*
X115250000Y-93535714D01*
X114964285Y-93464285D01*
X114821428Y-93392857D01*
X114750000Y-93321428D01*
X114678571Y-93178571D01*
X114678571Y-91107142D02*
X114678571Y-90250000D01*
X116178571Y-90678571D02*
X114678571Y-90678571D01*
X115392857Y-89250000D02*
X115392857Y-89750000D01*
X116178571Y-89750000D02*
X114678571Y-89750000D01*
X114678571Y-89035714D01*
X114678571Y-88678571D02*
X114678571Y-87821428D01*
X116178571Y-88250000D02*
X114678571Y-88250000D01*
G04 #@! TD*
M02*
