G04 #@! TF.GenerationSoftware,KiCad,Pcbnew,(5.1.5)-3*
G04 #@! TF.CreationDate,2020-05-28T15:24:43-05:00*
G04 #@! TF.ProjectId,TFT Breakout 39P,54465420-4272-4656-916b-6f7574203339,rev?*
G04 #@! TF.SameCoordinates,Original*
G04 #@! TF.FileFunction,Legend,Top*
G04 #@! TF.FilePolarity,Positive*
%FSLAX46Y46*%
G04 Gerber Fmt 4.6, Leading zero omitted, Abs format (unit mm)*
G04 Created by KiCad (PCBNEW (5.1.5)-3) date 2020-05-28 15:24:43*
%MOMM*%
%LPD*%
G04 APERTURE LIST*
%ADD10C,0.150000*%
G04 #@! TA.AperFunction,Profile*
%ADD11C,0.050000*%
G04 #@! TD*
%ADD12C,0.120000*%
%ADD13C,0.127000*%
%ADD14C,0.152400*%
G04 APERTURE END LIST*
D10*
X106761271Y-126652380D02*
X106808890Y-126509523D01*
X106856509Y-126461904D01*
X106951747Y-126414285D01*
X107094604Y-126414285D01*
X107189842Y-126461904D01*
X107237461Y-126509523D01*
X107285080Y-126604761D01*
X107285080Y-126985714D01*
X106285080Y-126985714D01*
X106285080Y-126652380D01*
X106332700Y-126557142D01*
X106380319Y-126509523D01*
X106475557Y-126461904D01*
X106570795Y-126461904D01*
X106666033Y-126509523D01*
X106713652Y-126557142D01*
X106761271Y-126652380D01*
X106761271Y-126985714D01*
X107285080Y-125509523D02*
X107285080Y-125985714D01*
X106285080Y-125985714D01*
X106904128Y-125176190D02*
X106904128Y-124414285D01*
X116411760Y-127025815D02*
X116411760Y-126454386D01*
X117411760Y-126740100D02*
X116411760Y-126740100D01*
X116887951Y-126121053D02*
X116887951Y-125787720D01*
X117411760Y-125644862D02*
X117411760Y-126121053D01*
X116411760Y-126121053D01*
X116411760Y-125644862D01*
X197714620Y-127057220D02*
X198714620Y-126390554D01*
X197714620Y-126390554D02*
X198714620Y-127057220D01*
X198333668Y-126009601D02*
X198333668Y-125247697D01*
X198714620Y-125628649D02*
X197952716Y-125628649D01*
X195698430Y-126723887D02*
X196174620Y-126723887D01*
X195174620Y-127057220D02*
X195698430Y-126723887D01*
X195174620Y-126390554D01*
X195793668Y-126057220D02*
X195793668Y-125295316D01*
X196174620Y-125676268D02*
X195412716Y-125676268D01*
X192634620Y-127062300D02*
X193634620Y-126395634D01*
X192634620Y-126395634D02*
X193634620Y-127062300D01*
X193253668Y-126014681D02*
X193253668Y-125252777D01*
X190618430Y-126723887D02*
X191094620Y-126723887D01*
X190094620Y-127057220D02*
X190618430Y-126723887D01*
X190094620Y-126390554D01*
X190713668Y-126057220D02*
X190713668Y-125295316D01*
X187600000Y-126461904D02*
X187552380Y-126557142D01*
X187552380Y-126700000D01*
X187600000Y-126842857D01*
X187695238Y-126938095D01*
X187790476Y-126985714D01*
X187980952Y-127033333D01*
X188123809Y-127033333D01*
X188314285Y-126985714D01*
X188409523Y-126938095D01*
X188504761Y-126842857D01*
X188552380Y-126700000D01*
X188552380Y-126604761D01*
X188504761Y-126461904D01*
X188457142Y-126414285D01*
X188123809Y-126414285D01*
X188123809Y-126604761D01*
X188552380Y-125985714D02*
X187552380Y-125985714D01*
X188552380Y-125414285D01*
X187552380Y-125414285D01*
X188552380Y-124938095D02*
X187552380Y-124938095D01*
X187552380Y-124700000D01*
X187600000Y-124557142D01*
X187695238Y-124461904D01*
X187790476Y-124414285D01*
X187980952Y-124366666D01*
X188123809Y-124366666D01*
X188314285Y-124414285D01*
X188409523Y-124461904D01*
X188504761Y-124557142D01*
X188552380Y-124700000D01*
X188552380Y-124938095D01*
X185999380Y-127103914D02*
X184999380Y-127103914D01*
X185999380Y-126532485D01*
X184999380Y-126532485D01*
X185904142Y-125484866D02*
X185951761Y-125532485D01*
X185999380Y-125675342D01*
X185999380Y-125770580D01*
X185951761Y-125913438D01*
X185856523Y-126008676D01*
X185761285Y-126056295D01*
X185570809Y-126103914D01*
X185427952Y-126103914D01*
X185237476Y-126056295D01*
X185142238Y-126008676D01*
X185047000Y-125913438D01*
X184999380Y-125770580D01*
X184999380Y-125675342D01*
X185047000Y-125532485D01*
X185094619Y-125484866D01*
X168219380Y-127056295D02*
X167219380Y-127056295D01*
X167219380Y-126818200D01*
X167267000Y-126675342D01*
X167362238Y-126580104D01*
X167457476Y-126532485D01*
X167647952Y-126484866D01*
X167790809Y-126484866D01*
X167981285Y-126532485D01*
X168076523Y-126580104D01*
X168171761Y-126675342D01*
X168219380Y-126818200D01*
X168219380Y-127056295D01*
X168219380Y-126008676D02*
X168219380Y-125818200D01*
X168171761Y-125722961D01*
X168124142Y-125675342D01*
X167981285Y-125580104D01*
X167790809Y-125532485D01*
X167409857Y-125532485D01*
X167314619Y-125580104D01*
X167267000Y-125627723D01*
X167219380Y-125722961D01*
X167219380Y-125913438D01*
X167267000Y-126008676D01*
X167314619Y-126056295D01*
X167409857Y-126103914D01*
X167647952Y-126103914D01*
X167743190Y-126056295D01*
X167790809Y-126008676D01*
X167838428Y-125913438D01*
X167838428Y-125722961D01*
X167790809Y-125627723D01*
X167743190Y-125580104D01*
X167647952Y-125532485D01*
X165679380Y-127056295D02*
X164679380Y-127056295D01*
X164679380Y-126818200D01*
X164727000Y-126675342D01*
X164822238Y-126580104D01*
X164917476Y-126532485D01*
X165107952Y-126484866D01*
X165250809Y-126484866D01*
X165441285Y-126532485D01*
X165536523Y-126580104D01*
X165631761Y-126675342D01*
X165679380Y-126818200D01*
X165679380Y-127056295D01*
X165107952Y-125913438D02*
X165060333Y-126008676D01*
X165012714Y-126056295D01*
X164917476Y-126103914D01*
X164869857Y-126103914D01*
X164774619Y-126056295D01*
X164727000Y-126008676D01*
X164679380Y-125913438D01*
X164679380Y-125722961D01*
X164727000Y-125627723D01*
X164774619Y-125580104D01*
X164869857Y-125532485D01*
X164917476Y-125532485D01*
X165012714Y-125580104D01*
X165060333Y-125627723D01*
X165107952Y-125722961D01*
X165107952Y-125913438D01*
X165155571Y-126008676D01*
X165203190Y-126056295D01*
X165298428Y-126103914D01*
X165488904Y-126103914D01*
X165584142Y-126056295D01*
X165631761Y-126008676D01*
X165679380Y-125913438D01*
X165679380Y-125722961D01*
X165631761Y-125627723D01*
X165584142Y-125580104D01*
X165488904Y-125532485D01*
X165298428Y-125532485D01*
X165203190Y-125580104D01*
X165155571Y-125627723D01*
X165107952Y-125722961D01*
X163139380Y-127051215D02*
X162139380Y-127051215D01*
X162139380Y-126813120D01*
X162187000Y-126670262D01*
X162282238Y-126575024D01*
X162377476Y-126527405D01*
X162567952Y-126479786D01*
X162710809Y-126479786D01*
X162901285Y-126527405D01*
X162996523Y-126575024D01*
X163091761Y-126670262D01*
X163139380Y-126813120D01*
X163139380Y-127051215D01*
X162139380Y-126146453D02*
X162139380Y-125479786D01*
X163139380Y-125908358D01*
X160599380Y-127051215D02*
X159599380Y-127051215D01*
X159599380Y-126813120D01*
X159647000Y-126670262D01*
X159742238Y-126575024D01*
X159837476Y-126527405D01*
X160027952Y-126479786D01*
X160170809Y-126479786D01*
X160361285Y-126527405D01*
X160456523Y-126575024D01*
X160551761Y-126670262D01*
X160599380Y-126813120D01*
X160599380Y-127051215D01*
X159599380Y-125622643D02*
X159599380Y-125813120D01*
X159647000Y-125908358D01*
X159694619Y-125955977D01*
X159837476Y-126051215D01*
X160027952Y-126098834D01*
X160408904Y-126098834D01*
X160504142Y-126051215D01*
X160551761Y-126003596D01*
X160599380Y-125908358D01*
X160599380Y-125717881D01*
X160551761Y-125622643D01*
X160504142Y-125575024D01*
X160408904Y-125527405D01*
X160170809Y-125527405D01*
X160075571Y-125575024D01*
X160027952Y-125622643D01*
X159980333Y-125717881D01*
X159980333Y-125908358D01*
X160027952Y-126003596D01*
X160075571Y-126051215D01*
X160170809Y-126098834D01*
X158059380Y-127051215D02*
X157059380Y-127051215D01*
X157059380Y-126813120D01*
X157107000Y-126670262D01*
X157202238Y-126575024D01*
X157297476Y-126527405D01*
X157487952Y-126479786D01*
X157630809Y-126479786D01*
X157821285Y-126527405D01*
X157916523Y-126575024D01*
X158011761Y-126670262D01*
X158059380Y-126813120D01*
X158059380Y-127051215D01*
X157059380Y-125575024D02*
X157059380Y-126051215D01*
X157535571Y-126098834D01*
X157487952Y-126051215D01*
X157440333Y-125955977D01*
X157440333Y-125717881D01*
X157487952Y-125622643D01*
X157535571Y-125575024D01*
X157630809Y-125527405D01*
X157868904Y-125527405D01*
X157964142Y-125575024D01*
X158011761Y-125622643D01*
X158059380Y-125717881D01*
X158059380Y-125955977D01*
X158011761Y-126051215D01*
X157964142Y-126098834D01*
X155519380Y-127056295D02*
X154519380Y-127056295D01*
X154519380Y-126818200D01*
X154567000Y-126675342D01*
X154662238Y-126580104D01*
X154757476Y-126532485D01*
X154947952Y-126484866D01*
X155090809Y-126484866D01*
X155281285Y-126532485D01*
X155376523Y-126580104D01*
X155471761Y-126675342D01*
X155519380Y-126818200D01*
X155519380Y-127056295D01*
X154852714Y-125627723D02*
X155519380Y-125627723D01*
X154471761Y-125865819D02*
X155186047Y-126103914D01*
X155186047Y-125484866D01*
X152979380Y-127051215D02*
X151979380Y-127051215D01*
X151979380Y-126813120D01*
X152027000Y-126670262D01*
X152122238Y-126575024D01*
X152217476Y-126527405D01*
X152407952Y-126479786D01*
X152550809Y-126479786D01*
X152741285Y-126527405D01*
X152836523Y-126575024D01*
X152931761Y-126670262D01*
X152979380Y-126813120D01*
X152979380Y-127051215D01*
X151979380Y-126146453D02*
X151979380Y-125527405D01*
X152360333Y-125860739D01*
X152360333Y-125717881D01*
X152407952Y-125622643D01*
X152455571Y-125575024D01*
X152550809Y-125527405D01*
X152788904Y-125527405D01*
X152884142Y-125575024D01*
X152931761Y-125622643D01*
X152979380Y-125717881D01*
X152979380Y-126003596D01*
X152931761Y-126098834D01*
X152884142Y-126146453D01*
X150439380Y-127051215D02*
X149439380Y-127051215D01*
X149439380Y-126813120D01*
X149487000Y-126670262D01*
X149582238Y-126575024D01*
X149677476Y-126527405D01*
X149867952Y-126479786D01*
X150010809Y-126479786D01*
X150201285Y-126527405D01*
X150296523Y-126575024D01*
X150391761Y-126670262D01*
X150439380Y-126813120D01*
X150439380Y-127051215D01*
X149534619Y-126098834D02*
X149487000Y-126051215D01*
X149439380Y-125955977D01*
X149439380Y-125717881D01*
X149487000Y-125622643D01*
X149534619Y-125575024D01*
X149629857Y-125527405D01*
X149725095Y-125527405D01*
X149867952Y-125575024D01*
X150439380Y-126146453D01*
X150439380Y-125527405D01*
X147899380Y-127056295D02*
X146899380Y-127056295D01*
X146899380Y-126818200D01*
X146947000Y-126675342D01*
X147042238Y-126580104D01*
X147137476Y-126532485D01*
X147327952Y-126484866D01*
X147470809Y-126484866D01*
X147661285Y-126532485D01*
X147756523Y-126580104D01*
X147851761Y-126675342D01*
X147899380Y-126818200D01*
X147899380Y-127056295D01*
X147899380Y-125532485D02*
X147899380Y-126103914D01*
X147899380Y-125818200D02*
X146899380Y-125818200D01*
X147042238Y-125913438D01*
X147137476Y-126008676D01*
X147185095Y-126103914D01*
X145359380Y-127051215D02*
X144359380Y-127051215D01*
X144359380Y-126813120D01*
X144407000Y-126670262D01*
X144502238Y-126575024D01*
X144597476Y-126527405D01*
X144787952Y-126479786D01*
X144930809Y-126479786D01*
X145121285Y-126527405D01*
X145216523Y-126575024D01*
X145311761Y-126670262D01*
X145359380Y-126813120D01*
X145359380Y-127051215D01*
X144359380Y-125860739D02*
X144359380Y-125765500D01*
X144407000Y-125670262D01*
X144454619Y-125622643D01*
X144549857Y-125575024D01*
X144740333Y-125527405D01*
X144978428Y-125527405D01*
X145168904Y-125575024D01*
X145264142Y-125622643D01*
X145311761Y-125670262D01*
X145359380Y-125765500D01*
X145359380Y-125860739D01*
X145311761Y-125955977D01*
X145264142Y-126003596D01*
X145168904Y-126051215D01*
X144978428Y-126098834D01*
X144740333Y-126098834D01*
X144549857Y-126051215D01*
X144454619Y-126003596D01*
X144407000Y-125955977D01*
X144359380Y-125860739D01*
X142819380Y-126508676D02*
X142343190Y-126842009D01*
X142819380Y-127080104D02*
X141819380Y-127080104D01*
X141819380Y-126699152D01*
X141867000Y-126603914D01*
X141914619Y-126556295D01*
X142009857Y-126508676D01*
X142152714Y-126508676D01*
X142247952Y-126556295D01*
X142295571Y-126603914D01*
X142343190Y-126699152D01*
X142343190Y-127080104D01*
X142819380Y-126080104D02*
X141819380Y-126080104D01*
X141819380Y-125842009D01*
X141867000Y-125699152D01*
X141962238Y-125603914D01*
X142057476Y-125556295D01*
X142247952Y-125508676D01*
X142390809Y-125508676D01*
X142581285Y-125556295D01*
X142676523Y-125603914D01*
X142771761Y-125699152D01*
X142819380Y-125842009D01*
X142819380Y-126080104D01*
X139279380Y-127241691D02*
X140279380Y-127003596D01*
X139565095Y-126813120D01*
X140279380Y-126622643D01*
X139279380Y-126384548D01*
X140279380Y-125432167D02*
X139803190Y-125765500D01*
X140279380Y-126003596D02*
X139279380Y-126003596D01*
X139279380Y-125622643D01*
X139327000Y-125527405D01*
X139374619Y-125479786D01*
X139469857Y-125432167D01*
X139612714Y-125432167D01*
X139707952Y-125479786D01*
X139755571Y-125527405D01*
X139803190Y-125622643D01*
X139803190Y-126003596D01*
X137739380Y-127080104D02*
X136739380Y-127080104D01*
X136739380Y-126842009D01*
X136787000Y-126699152D01*
X136882238Y-126603914D01*
X136977476Y-126556295D01*
X137167952Y-126508676D01*
X137310809Y-126508676D01*
X137501285Y-126556295D01*
X137596523Y-126603914D01*
X137691761Y-126699152D01*
X137739380Y-126842009D01*
X137739380Y-127080104D01*
X137644142Y-125508676D02*
X137691761Y-125556295D01*
X137739380Y-125699152D01*
X137739380Y-125794390D01*
X137691761Y-125937247D01*
X137596523Y-126032485D01*
X137501285Y-126080104D01*
X137310809Y-126127723D01*
X137167952Y-126127723D01*
X136977476Y-126080104D01*
X136882238Y-126032485D01*
X136787000Y-125937247D01*
X136739380Y-125794390D01*
X136739380Y-125699152D01*
X136787000Y-125556295D01*
X136834619Y-125508676D01*
X133826920Y-127294390D02*
X133826920Y-126294390D01*
X135099062Y-126484866D02*
X135146681Y-126532485D01*
X135194300Y-126675342D01*
X135194300Y-126770580D01*
X135146681Y-126913438D01*
X135051443Y-127008676D01*
X134956205Y-127056295D01*
X134765729Y-127103914D01*
X134622872Y-127103914D01*
X134432396Y-127056295D01*
X134337158Y-127008676D01*
X134241920Y-126913438D01*
X134194300Y-126770580D01*
X134194300Y-126675342D01*
X134241920Y-126532485D01*
X134289539Y-126484866D01*
X133826920Y-126294390D02*
X133826920Y-125342009D01*
X135146681Y-126103914D02*
X135194300Y-125961057D01*
X135194300Y-125722961D01*
X135146681Y-125627723D01*
X135099062Y-125580104D01*
X135003824Y-125532485D01*
X134908586Y-125532485D01*
X134813348Y-125580104D01*
X134765729Y-125627723D01*
X134718110Y-125722961D01*
X134670491Y-125913438D01*
X134622872Y-126008676D01*
X134575253Y-126056295D01*
X134480015Y-126103914D01*
X134384777Y-126103914D01*
X134289539Y-126056295D01*
X134241920Y-126008676D01*
X134194300Y-125913438D01*
X134194300Y-125675342D01*
X134241920Y-125532485D01*
X170772380Y-126914285D02*
X169772380Y-126914285D01*
X169772380Y-126676190D01*
X169820000Y-126533333D01*
X169915238Y-126438095D01*
X170010476Y-126390476D01*
X170200952Y-126342857D01*
X170343809Y-126342857D01*
X170534285Y-126390476D01*
X170629523Y-126438095D01*
X170724761Y-126533333D01*
X170772380Y-126676190D01*
X170772380Y-126914285D01*
X170772380Y-125390476D02*
X170772380Y-125961904D01*
X170772380Y-125676190D02*
X169772380Y-125676190D01*
X169915238Y-125771428D01*
X170010476Y-125866666D01*
X170058095Y-125961904D01*
X169772380Y-124771428D02*
X169772380Y-124676190D01*
X169820000Y-124580952D01*
X169867619Y-124533333D01*
X169962857Y-124485714D01*
X170153333Y-124438095D01*
X170391428Y-124438095D01*
X170581904Y-124485714D01*
X170677142Y-124533333D01*
X170724761Y-124580952D01*
X170772380Y-124676190D01*
X170772380Y-124771428D01*
X170724761Y-124866666D01*
X170677142Y-124914285D01*
X170581904Y-124961904D01*
X170391428Y-125009523D01*
X170153333Y-125009523D01*
X169962857Y-124961904D01*
X169867619Y-124914285D01*
X169820000Y-124866666D01*
X169772380Y-124771428D01*
X173312380Y-126914285D02*
X172312380Y-126914285D01*
X172312380Y-126676190D01*
X172360000Y-126533333D01*
X172455238Y-126438095D01*
X172550476Y-126390476D01*
X172740952Y-126342857D01*
X172883809Y-126342857D01*
X173074285Y-126390476D01*
X173169523Y-126438095D01*
X173264761Y-126533333D01*
X173312380Y-126676190D01*
X173312380Y-126914285D01*
X173312380Y-125390476D02*
X173312380Y-125961904D01*
X173312380Y-125676190D02*
X172312380Y-125676190D01*
X172455238Y-125771428D01*
X172550476Y-125866666D01*
X172598095Y-125961904D01*
X173312380Y-124438095D02*
X173312380Y-125009523D01*
X173312380Y-124723809D02*
X172312380Y-124723809D01*
X172455238Y-124819047D01*
X172550476Y-124914285D01*
X172598095Y-125009523D01*
X175852380Y-126914285D02*
X174852380Y-126914285D01*
X174852380Y-126676190D01*
X174900000Y-126533333D01*
X174995238Y-126438095D01*
X175090476Y-126390476D01*
X175280952Y-126342857D01*
X175423809Y-126342857D01*
X175614285Y-126390476D01*
X175709523Y-126438095D01*
X175804761Y-126533333D01*
X175852380Y-126676190D01*
X175852380Y-126914285D01*
X175852380Y-125390476D02*
X175852380Y-125961904D01*
X175852380Y-125676190D02*
X174852380Y-125676190D01*
X174995238Y-125771428D01*
X175090476Y-125866666D01*
X175138095Y-125961904D01*
X174947619Y-125009523D02*
X174900000Y-124961904D01*
X174852380Y-124866666D01*
X174852380Y-124628571D01*
X174900000Y-124533333D01*
X174947619Y-124485714D01*
X175042857Y-124438095D01*
X175138095Y-124438095D01*
X175280952Y-124485714D01*
X175852380Y-125057142D01*
X175852380Y-124438095D01*
X178392380Y-126914285D02*
X177392380Y-126914285D01*
X177392380Y-126676190D01*
X177440000Y-126533333D01*
X177535238Y-126438095D01*
X177630476Y-126390476D01*
X177820952Y-126342857D01*
X177963809Y-126342857D01*
X178154285Y-126390476D01*
X178249523Y-126438095D01*
X178344761Y-126533333D01*
X178392380Y-126676190D01*
X178392380Y-126914285D01*
X178392380Y-125390476D02*
X178392380Y-125961904D01*
X178392380Y-125676190D02*
X177392380Y-125676190D01*
X177535238Y-125771428D01*
X177630476Y-125866666D01*
X177678095Y-125961904D01*
X177392380Y-125057142D02*
X177392380Y-124438095D01*
X177773333Y-124771428D01*
X177773333Y-124628571D01*
X177820952Y-124533333D01*
X177868571Y-124485714D01*
X177963809Y-124438095D01*
X178201904Y-124438095D01*
X178297142Y-124485714D01*
X178344761Y-124533333D01*
X178392380Y-124628571D01*
X178392380Y-124914285D01*
X178344761Y-125009523D01*
X178297142Y-125057142D01*
X180932380Y-126914285D02*
X179932380Y-126914285D01*
X179932380Y-126676190D01*
X179980000Y-126533333D01*
X180075238Y-126438095D01*
X180170476Y-126390476D01*
X180360952Y-126342857D01*
X180503809Y-126342857D01*
X180694285Y-126390476D01*
X180789523Y-126438095D01*
X180884761Y-126533333D01*
X180932380Y-126676190D01*
X180932380Y-126914285D01*
X180932380Y-125390476D02*
X180932380Y-125961904D01*
X180932380Y-125676190D02*
X179932380Y-125676190D01*
X180075238Y-125771428D01*
X180170476Y-125866666D01*
X180218095Y-125961904D01*
X180265714Y-124533333D02*
X180932380Y-124533333D01*
X179884761Y-124771428D02*
X180599047Y-125009523D01*
X180599047Y-124390476D01*
X183472380Y-126914285D02*
X182472380Y-126914285D01*
X182472380Y-126676190D01*
X182520000Y-126533333D01*
X182615238Y-126438095D01*
X182710476Y-126390476D01*
X182900952Y-126342857D01*
X183043809Y-126342857D01*
X183234285Y-126390476D01*
X183329523Y-126438095D01*
X183424761Y-126533333D01*
X183472380Y-126676190D01*
X183472380Y-126914285D01*
X183472380Y-125390476D02*
X183472380Y-125961904D01*
X183472380Y-125676190D02*
X182472380Y-125676190D01*
X182615238Y-125771428D01*
X182710476Y-125866666D01*
X182758095Y-125961904D01*
X182472380Y-124485714D02*
X182472380Y-124961904D01*
X182948571Y-125009523D01*
X182900952Y-124961904D01*
X182853333Y-124866666D01*
X182853333Y-124628571D01*
X182900952Y-124533333D01*
X182948571Y-124485714D01*
X183043809Y-124438095D01*
X183281904Y-124438095D01*
X183377142Y-124485714D01*
X183424761Y-124533333D01*
X183472380Y-124628571D01*
X183472380Y-124866666D01*
X183424761Y-124961904D01*
X183377142Y-125009523D01*
X131672380Y-127033333D02*
X132672380Y-126700000D01*
X131672380Y-126366666D01*
X132577142Y-125461904D02*
X132624761Y-125509523D01*
X132672380Y-125652380D01*
X132672380Y-125747619D01*
X132624761Y-125890476D01*
X132529523Y-125985714D01*
X132434285Y-126033333D01*
X132243809Y-126080952D01*
X132100952Y-126080952D01*
X131910476Y-126033333D01*
X131815238Y-125985714D01*
X131720000Y-125890476D01*
X131672380Y-125747619D01*
X131672380Y-125652380D01*
X131720000Y-125509523D01*
X131767619Y-125461904D01*
X132577142Y-124461904D02*
X132624761Y-124509523D01*
X132672380Y-124652380D01*
X132672380Y-124747619D01*
X132624761Y-124890476D01*
X132529523Y-124985714D01*
X132434285Y-125033333D01*
X132243809Y-125080952D01*
X132100952Y-125080952D01*
X131910476Y-125033333D01*
X131815238Y-124985714D01*
X131720000Y-124890476D01*
X131672380Y-124747619D01*
X131672380Y-124652380D01*
X131720000Y-124509523D01*
X131767619Y-124461904D01*
X128765000Y-127057142D02*
X128765000Y-126057142D01*
X130132380Y-126247619D02*
X129656190Y-126580952D01*
X130132380Y-126819047D02*
X129132380Y-126819047D01*
X129132380Y-126438095D01*
X129180000Y-126342857D01*
X129227619Y-126295238D01*
X129322857Y-126247619D01*
X129465714Y-126247619D01*
X129560952Y-126295238D01*
X129608571Y-126342857D01*
X129656190Y-126438095D01*
X129656190Y-126819047D01*
X128765000Y-126057142D02*
X128765000Y-125104761D01*
X130084761Y-125866666D02*
X130132380Y-125723809D01*
X130132380Y-125485714D01*
X130084761Y-125390476D01*
X130037142Y-125342857D01*
X129941904Y-125295238D01*
X129846666Y-125295238D01*
X129751428Y-125342857D01*
X129703809Y-125390476D01*
X129656190Y-125485714D01*
X129608571Y-125676190D01*
X129560952Y-125771428D01*
X129513333Y-125819047D01*
X129418095Y-125866666D01*
X129322857Y-125866666D01*
X129227619Y-125819047D01*
X129180000Y-125771428D01*
X129132380Y-125676190D01*
X129132380Y-125438095D01*
X129180000Y-125295238D01*
X128765000Y-125104761D02*
X128765000Y-124342857D01*
X129132380Y-125009523D02*
X129132380Y-124438095D01*
X130132380Y-124723809D02*
X129132380Y-124723809D01*
X126640000Y-126461904D02*
X126592380Y-126557142D01*
X126592380Y-126700000D01*
X126640000Y-126842857D01*
X126735238Y-126938095D01*
X126830476Y-126985714D01*
X127020952Y-127033333D01*
X127163809Y-127033333D01*
X127354285Y-126985714D01*
X127449523Y-126938095D01*
X127544761Y-126842857D01*
X127592380Y-126700000D01*
X127592380Y-126604761D01*
X127544761Y-126461904D01*
X127497142Y-126414285D01*
X127163809Y-126414285D01*
X127163809Y-126604761D01*
X127592380Y-125985714D02*
X126592380Y-125985714D01*
X127592380Y-125414285D01*
X126592380Y-125414285D01*
X127592380Y-124938095D02*
X126592380Y-124938095D01*
X126592380Y-124700000D01*
X126640000Y-124557142D01*
X126735238Y-124461904D01*
X126830476Y-124414285D01*
X127020952Y-124366666D01*
X127163809Y-124366666D01*
X127354285Y-124414285D01*
X127449523Y-124461904D01*
X127544761Y-124557142D01*
X127592380Y-124700000D01*
X127592380Y-124938095D01*
X124528571Y-126652380D02*
X124576190Y-126509523D01*
X124623809Y-126461904D01*
X124719047Y-126414285D01*
X124861904Y-126414285D01*
X124957142Y-126461904D01*
X125004761Y-126509523D01*
X125052380Y-126604761D01*
X125052380Y-126985714D01*
X124052380Y-126985714D01*
X124052380Y-126652380D01*
X124100000Y-126557142D01*
X124147619Y-126509523D01*
X124242857Y-126461904D01*
X124338095Y-126461904D01*
X124433333Y-126509523D01*
X124480952Y-126557142D01*
X124528571Y-126652380D01*
X124528571Y-126985714D01*
X125052380Y-125509523D02*
X125052380Y-125985714D01*
X124052380Y-125985714D01*
X124671428Y-125176190D02*
X124671428Y-124414285D01*
X125052380Y-124795238D02*
X124290476Y-124795238D01*
X121988571Y-126652380D02*
X122036190Y-126509523D01*
X122083809Y-126461904D01*
X122179047Y-126414285D01*
X122321904Y-126414285D01*
X122417142Y-126461904D01*
X122464761Y-126509523D01*
X122512380Y-126604761D01*
X122512380Y-126985714D01*
X121512380Y-126985714D01*
X121512380Y-126652380D01*
X121560000Y-126557142D01*
X121607619Y-126509523D01*
X121702857Y-126461904D01*
X121798095Y-126461904D01*
X121893333Y-126509523D01*
X121940952Y-126557142D01*
X121988571Y-126652380D01*
X121988571Y-126985714D01*
X122512380Y-125509523D02*
X122512380Y-125985714D01*
X121512380Y-125985714D01*
X122131428Y-125176190D02*
X122131428Y-124414285D01*
X119448571Y-126652380D02*
X119496190Y-126509523D01*
X119543809Y-126461904D01*
X119639047Y-126414285D01*
X119781904Y-126414285D01*
X119877142Y-126461904D01*
X119924761Y-126509523D01*
X119972380Y-126604761D01*
X119972380Y-126985714D01*
X118972380Y-126985714D01*
X118972380Y-126652380D01*
X119020000Y-126557142D01*
X119067619Y-126509523D01*
X119162857Y-126461904D01*
X119258095Y-126461904D01*
X119353333Y-126509523D01*
X119400952Y-126557142D01*
X119448571Y-126652380D01*
X119448571Y-126985714D01*
X119972380Y-125509523D02*
X119972380Y-125985714D01*
X118972380Y-125985714D01*
X119591428Y-125176190D02*
X119591428Y-124414285D01*
X114368571Y-126652380D02*
X114416190Y-126509523D01*
X114463809Y-126461904D01*
X114559047Y-126414285D01*
X114701904Y-126414285D01*
X114797142Y-126461904D01*
X114844761Y-126509523D01*
X114892380Y-126604761D01*
X114892380Y-126985714D01*
X113892380Y-126985714D01*
X113892380Y-126652380D01*
X113940000Y-126557142D01*
X113987619Y-126509523D01*
X114082857Y-126461904D01*
X114178095Y-126461904D01*
X114273333Y-126509523D01*
X114320952Y-126557142D01*
X114368571Y-126652380D01*
X114368571Y-126985714D01*
X114892380Y-125509523D02*
X114892380Y-125985714D01*
X113892380Y-125985714D01*
X114511428Y-125176190D02*
X114511428Y-124414285D01*
X111828571Y-126652380D02*
X111876190Y-126509523D01*
X111923809Y-126461904D01*
X112019047Y-126414285D01*
X112161904Y-126414285D01*
X112257142Y-126461904D01*
X112304761Y-126509523D01*
X112352380Y-126604761D01*
X112352380Y-126985714D01*
X111352380Y-126985714D01*
X111352380Y-126652380D01*
X111400000Y-126557142D01*
X111447619Y-126509523D01*
X111542857Y-126461904D01*
X111638095Y-126461904D01*
X111733333Y-126509523D01*
X111780952Y-126557142D01*
X111828571Y-126652380D01*
X111828571Y-126985714D01*
X112352380Y-125509523D02*
X112352380Y-125985714D01*
X111352380Y-125985714D01*
X111971428Y-125176190D02*
X111971428Y-124414285D01*
X109288571Y-126652380D02*
X109336190Y-126509523D01*
X109383809Y-126461904D01*
X109479047Y-126414285D01*
X109621904Y-126414285D01*
X109717142Y-126461904D01*
X109764761Y-126509523D01*
X109812380Y-126604761D01*
X109812380Y-126985714D01*
X108812380Y-126985714D01*
X108812380Y-126652380D01*
X108860000Y-126557142D01*
X108907619Y-126509523D01*
X109002857Y-126461904D01*
X109098095Y-126461904D01*
X109193333Y-126509523D01*
X109240952Y-126557142D01*
X109288571Y-126652380D01*
X109288571Y-126985714D01*
X109812380Y-125509523D02*
X109812380Y-125985714D01*
X108812380Y-125985714D01*
X109431428Y-125176190D02*
X109431428Y-124414285D01*
X104208571Y-126652380D02*
X104256190Y-126509523D01*
X104303809Y-126461904D01*
X104399047Y-126414285D01*
X104541904Y-126414285D01*
X104637142Y-126461904D01*
X104684761Y-126509523D01*
X104732380Y-126604761D01*
X104732380Y-126985714D01*
X103732380Y-126985714D01*
X103732380Y-126652380D01*
X103780000Y-126557142D01*
X103827619Y-126509523D01*
X103922857Y-126461904D01*
X104018095Y-126461904D01*
X104113333Y-126509523D01*
X104160952Y-126557142D01*
X104208571Y-126652380D01*
X104208571Y-126985714D01*
X104732380Y-125509523D02*
X104732380Y-125985714D01*
X103732380Y-125985714D01*
X104351428Y-125176190D02*
X104351428Y-124414285D01*
X101668571Y-126652380D02*
X101716190Y-126509523D01*
X101763809Y-126461904D01*
X101859047Y-126414285D01*
X102001904Y-126414285D01*
X102097142Y-126461904D01*
X102144761Y-126509523D01*
X102192380Y-126604761D01*
X102192380Y-126985714D01*
X101192380Y-126985714D01*
X101192380Y-126652380D01*
X101240000Y-126557142D01*
X101287619Y-126509523D01*
X101382857Y-126461904D01*
X101478095Y-126461904D01*
X101573333Y-126509523D01*
X101620952Y-126557142D01*
X101668571Y-126652380D01*
X101668571Y-126985714D01*
X102192380Y-125509523D02*
X102192380Y-125985714D01*
X101192380Y-125985714D01*
X101811428Y-125176190D02*
X101811428Y-124414285D01*
D11*
X200000000Y-60000000D02*
X100000000Y-60000000D01*
X200000000Y-130000000D02*
X200000000Y-60000000D01*
X100000000Y-130000000D02*
X100000000Y-60000000D01*
X100000000Y-130000000D02*
X200000000Y-130000000D01*
D12*
G04 #@! TO.C,DS1*
X117740000Y-74750000D02*
X118790000Y-75800000D01*
X116790000Y-74800000D02*
X118790000Y-76800000D01*
X116790000Y-75800000D02*
X118790000Y-77800000D01*
X116790000Y-76800000D02*
X118790000Y-78800000D01*
X116790000Y-77800000D02*
X118790000Y-79800000D01*
X116790000Y-78800000D02*
X118790000Y-80800000D01*
X116790000Y-79800000D02*
X118790000Y-81800000D01*
X116790000Y-80800000D02*
X118790000Y-82800000D01*
X116790000Y-81800000D02*
X118790000Y-83800000D01*
X116790000Y-82800000D02*
X118790000Y-84800000D01*
X116790000Y-83800000D02*
X118790000Y-85800000D01*
X116790000Y-84800000D02*
X118790000Y-86800000D01*
X116790000Y-85800000D02*
X118790000Y-87800000D01*
X116790000Y-86800000D02*
X118790000Y-88800000D01*
X116790000Y-87800000D02*
X118790000Y-89800000D01*
X116790000Y-88800000D02*
X118790000Y-90800000D01*
X116790000Y-89800000D02*
X118790000Y-91800000D01*
X116790000Y-90800000D02*
X118790000Y-92800000D01*
X116790000Y-91800000D02*
X118790000Y-93800000D01*
X116790000Y-92800000D02*
X118790000Y-94800000D01*
X116790000Y-93800000D02*
X118790000Y-95800000D01*
X116790000Y-94800000D02*
X118790000Y-96800000D01*
X116790000Y-95800000D02*
X118790000Y-97800000D01*
X116790000Y-96800000D02*
X118790000Y-98800000D01*
X116790000Y-97800000D02*
X118790000Y-99800000D01*
X116790000Y-98800000D02*
X118790000Y-100800000D01*
X116790000Y-99800000D02*
X118790000Y-101800000D01*
X116790000Y-100800000D02*
X118790000Y-102800000D01*
X116790000Y-101800000D02*
X118790000Y-103800000D01*
X116790000Y-102800000D02*
X118790000Y-104800000D01*
X116790000Y-103800000D02*
X118790000Y-105800000D01*
X116790000Y-104800000D02*
X118790000Y-106800000D01*
X116790000Y-105800000D02*
X118790000Y-107800000D01*
X116790000Y-106800000D02*
X118790000Y-108800000D01*
X116790000Y-107800000D02*
X118790000Y-109800000D01*
X116790000Y-108800000D02*
X118790000Y-110800000D01*
X116790000Y-115800000D02*
X117790000Y-116800000D01*
X116790000Y-109800000D02*
X118790000Y-111800000D01*
X116790000Y-111800000D02*
X118790000Y-113800000D01*
X116790000Y-112800000D02*
X118790000Y-114800000D01*
X116790000Y-110800000D02*
X118790000Y-112800000D01*
X116790000Y-113800000D02*
X118790000Y-115800000D01*
X116790000Y-114800000D02*
X118790000Y-116800000D01*
D13*
X103500000Y-74720000D02*
G75*
G03X103000000Y-75220000I0J-500000D01*
G01*
X103000000Y-116300000D02*
G75*
G03X103500000Y-116800000I500000J0D01*
G01*
X103000000Y-62560000D02*
X197360000Y-62560000D01*
X103000000Y-123440000D02*
X197360000Y-123440000D01*
X103000000Y-62560000D02*
X103000000Y-123440000D01*
X197360000Y-62560000D02*
X197360000Y-123440000D01*
X103500000Y-74720000D02*
X121490000Y-74720000D01*
X121990000Y-75220000D02*
G75*
G03X121490000Y-74720000I-500000J0D01*
G01*
X121990000Y-75220000D02*
X121990000Y-80060000D01*
X103500000Y-116800000D02*
X121490000Y-116800000D01*
X121490000Y-116800000D02*
G75*
G03X121990000Y-116300000I0J500000D01*
G01*
X121990000Y-116300000D02*
X121990000Y-111460000D01*
X118790000Y-74720000D02*
X118790000Y-116800000D01*
X116790000Y-74720000D02*
X116790000Y-116800000D01*
G04 #@! TD*
G04 #@! TO.C,DS1*
D10*
X123357900Y-77282205D02*
X122357900Y-77282205D01*
X122357900Y-77044110D01*
X122405520Y-76901253D01*
X122500758Y-76806015D01*
X122595996Y-76758396D01*
X122786472Y-76710777D01*
X122929329Y-76710777D01*
X123119805Y-76758396D01*
X123215043Y-76806015D01*
X123310281Y-76901253D01*
X123357900Y-77044110D01*
X123357900Y-77282205D01*
X123310281Y-76329824D02*
X123357900Y-76186967D01*
X123357900Y-75948872D01*
X123310281Y-75853634D01*
X123262662Y-75806015D01*
X123167424Y-75758396D01*
X123072186Y-75758396D01*
X122976948Y-75806015D01*
X122929329Y-75853634D01*
X122881710Y-75948872D01*
X122834091Y-76139348D01*
X122786472Y-76234586D01*
X122738853Y-76282205D01*
X122643615Y-76329824D01*
X122548377Y-76329824D01*
X122453139Y-76282205D01*
X122405520Y-76234586D01*
X122357900Y-76139348D01*
X122357900Y-75901253D01*
X122405520Y-75758396D01*
X123357900Y-74806015D02*
X123357900Y-75377443D01*
X123357900Y-75091729D02*
X122357900Y-75091729D01*
X122500758Y-75186967D01*
X122595996Y-75282205D01*
X122643615Y-75377443D01*
D14*
X110678571Y-106081428D02*
X111678571Y-106081428D01*
X110107142Y-106438571D02*
X111178571Y-106795714D01*
X111178571Y-105867142D01*
X111535714Y-105295714D02*
X111607142Y-105224285D01*
X111678571Y-105295714D01*
X111607142Y-105367142D01*
X111535714Y-105295714D01*
X111678571Y-105295714D01*
X110178571Y-104295714D02*
X110178571Y-104152857D01*
X110250000Y-104010000D01*
X110321428Y-103938571D01*
X110464285Y-103867142D01*
X110750000Y-103795714D01*
X111107142Y-103795714D01*
X111392857Y-103867142D01*
X111535714Y-103938571D01*
X111607142Y-104010000D01*
X111678571Y-104152857D01*
X111678571Y-104295714D01*
X111607142Y-104438571D01*
X111535714Y-104510000D01*
X111392857Y-104581428D01*
X111107142Y-104652857D01*
X110750000Y-104652857D01*
X110464285Y-104581428D01*
X110321428Y-104510000D01*
X110250000Y-104438571D01*
X110178571Y-104295714D01*
X110178571Y-103224285D02*
X110464285Y-103224285D01*
X110178571Y-102652857D02*
X110464285Y-102652857D01*
X110678571Y-100224285D02*
X111678571Y-100224285D01*
X110107142Y-100581428D02*
X111178571Y-100938571D01*
X111178571Y-100010000D01*
X110821428Y-99224285D02*
X110750000Y-99367142D01*
X110678571Y-99438571D01*
X110535714Y-99510000D01*
X110464285Y-99510000D01*
X110321428Y-99438571D01*
X110250000Y-99367142D01*
X110178571Y-99224285D01*
X110178571Y-98938571D01*
X110250000Y-98795714D01*
X110321428Y-98724285D01*
X110464285Y-98652857D01*
X110535714Y-98652857D01*
X110678571Y-98724285D01*
X110750000Y-98795714D01*
X110821428Y-98938571D01*
X110821428Y-99224285D01*
X110892857Y-99367142D01*
X110964285Y-99438571D01*
X111107142Y-99510000D01*
X111392857Y-99510000D01*
X111535714Y-99438571D01*
X111607142Y-99367142D01*
X111678571Y-99224285D01*
X111678571Y-98938571D01*
X111607142Y-98795714D01*
X111535714Y-98724285D01*
X111392857Y-98652857D01*
X111107142Y-98652857D01*
X110964285Y-98724285D01*
X110892857Y-98795714D01*
X110821428Y-98938571D01*
X110178571Y-97724285D02*
X110178571Y-97581428D01*
X110250000Y-97438571D01*
X110321428Y-97367142D01*
X110464285Y-97295714D01*
X110750000Y-97224285D01*
X111107142Y-97224285D01*
X111392857Y-97295714D01*
X111535714Y-97367142D01*
X111607142Y-97438571D01*
X111678571Y-97581428D01*
X111678571Y-97724285D01*
X111607142Y-97867142D01*
X111535714Y-97938571D01*
X111392857Y-98010000D01*
X111107142Y-98081428D01*
X110750000Y-98081428D01*
X110464285Y-98010000D01*
X110321428Y-97938571D01*
X110250000Y-97867142D01*
X110178571Y-97724285D01*
X111678571Y-95581428D02*
X110678571Y-94795714D01*
X110678571Y-95581428D02*
X111678571Y-94795714D01*
X110178571Y-93224285D02*
X110178571Y-92295714D01*
X110750000Y-92795714D01*
X110750000Y-92581428D01*
X110821428Y-92438571D01*
X110892857Y-92367142D01*
X111035714Y-92295714D01*
X111392857Y-92295714D01*
X111535714Y-92367142D01*
X111607142Y-92438571D01*
X111678571Y-92581428D01*
X111678571Y-93010000D01*
X111607142Y-93152857D01*
X111535714Y-93224285D01*
X110321428Y-91724285D02*
X110250000Y-91652857D01*
X110178571Y-91510000D01*
X110178571Y-91152857D01*
X110250000Y-91010000D01*
X110321428Y-90938571D01*
X110464285Y-90867142D01*
X110607142Y-90867142D01*
X110821428Y-90938571D01*
X111678571Y-91795714D01*
X111678571Y-90867142D01*
X110178571Y-89938571D02*
X110178571Y-89795714D01*
X110250000Y-89652857D01*
X110321428Y-89581428D01*
X110464285Y-89510000D01*
X110750000Y-89438571D01*
X111107142Y-89438571D01*
X111392857Y-89510000D01*
X111535714Y-89581428D01*
X111607142Y-89652857D01*
X111678571Y-89795714D01*
X111678571Y-89938571D01*
X111607142Y-90081428D01*
X111535714Y-90152857D01*
X111392857Y-90224285D01*
X111107142Y-90295714D01*
X110750000Y-90295714D01*
X110464285Y-90224285D01*
X110321428Y-90152857D01*
X110250000Y-90081428D01*
X110178571Y-89938571D01*
X110178571Y-87867142D02*
X110178571Y-87010000D01*
X111678571Y-87438571D02*
X110178571Y-87438571D01*
X110892857Y-86010000D02*
X110892857Y-86510000D01*
X111678571Y-86510000D02*
X110178571Y-86510000D01*
X110178571Y-85795714D01*
X110178571Y-85438571D02*
X110178571Y-84581428D01*
X111678571Y-85010000D02*
X110178571Y-85010000D01*
X107178571Y-101474285D02*
X107178571Y-100474285D01*
X108678571Y-101474285D01*
X108678571Y-100474285D01*
X107678571Y-99260000D02*
X108678571Y-99260000D01*
X107107142Y-99617142D02*
X108178571Y-99974285D01*
X108178571Y-99045714D01*
X107178571Y-98188571D02*
X107178571Y-98045714D01*
X107250000Y-97902857D01*
X107321428Y-97831428D01*
X107464285Y-97760000D01*
X107750000Y-97688571D01*
X108107142Y-97688571D01*
X108392857Y-97760000D01*
X108535714Y-97831428D01*
X108607142Y-97902857D01*
X108678571Y-98045714D01*
X108678571Y-98188571D01*
X108607142Y-98331428D01*
X108535714Y-98402857D01*
X108392857Y-98474285D01*
X108107142Y-98545714D01*
X107750000Y-98545714D01*
X107464285Y-98474285D01*
X107321428Y-98402857D01*
X107250000Y-98331428D01*
X107178571Y-98188571D01*
X107178571Y-96760000D02*
X107178571Y-96617142D01*
X107250000Y-96474285D01*
X107321428Y-96402857D01*
X107464285Y-96331428D01*
X107750000Y-96260000D01*
X108107142Y-96260000D01*
X108392857Y-96331428D01*
X108535714Y-96402857D01*
X108607142Y-96474285D01*
X108678571Y-96617142D01*
X108678571Y-96760000D01*
X108607142Y-96902857D01*
X108535714Y-96974285D01*
X108392857Y-97045714D01*
X108107142Y-97117142D01*
X107750000Y-97117142D01*
X107464285Y-97045714D01*
X107321428Y-96974285D01*
X107250000Y-96902857D01*
X107178571Y-96760000D01*
X108678571Y-95617142D02*
X107178571Y-95617142D01*
X107178571Y-95117142D02*
X107178571Y-94260000D01*
X108678571Y-94688571D02*
X107178571Y-94688571D01*
X107178571Y-93474285D02*
X107178571Y-93331428D01*
X107250000Y-93188571D01*
X107321428Y-93117142D01*
X107464285Y-93045714D01*
X107750000Y-92974285D01*
X108107142Y-92974285D01*
X108392857Y-93045714D01*
X108535714Y-93117142D01*
X108607142Y-93188571D01*
X108678571Y-93331428D01*
X108678571Y-93474285D01*
X108607142Y-93617142D01*
X108535714Y-93688571D01*
X108392857Y-93760000D01*
X108107142Y-93831428D01*
X107750000Y-93831428D01*
X107464285Y-93760000D01*
X107321428Y-93688571D01*
X107250000Y-93617142D01*
X107178571Y-93474285D01*
X107178571Y-92045714D02*
X107178571Y-91902857D01*
X107250000Y-91760000D01*
X107321428Y-91688571D01*
X107464285Y-91617142D01*
X107750000Y-91545714D01*
X108107142Y-91545714D01*
X108392857Y-91617142D01*
X108535714Y-91688571D01*
X108607142Y-91760000D01*
X108678571Y-91902857D01*
X108678571Y-92045714D01*
X108607142Y-92188571D01*
X108535714Y-92260000D01*
X108392857Y-92331428D01*
X108107142Y-92402857D01*
X107750000Y-92402857D01*
X107464285Y-92331428D01*
X107321428Y-92260000D01*
X107250000Y-92188571D01*
X107178571Y-92045714D01*
X108678571Y-90117142D02*
X108678571Y-90974285D01*
X108678571Y-90545714D02*
X107178571Y-90545714D01*
X107392857Y-90688571D01*
X107535714Y-90831428D01*
X107607142Y-90974285D01*
X123952380Y-78774285D02*
X123952380Y-79345714D01*
X123952380Y-79060000D02*
X122952380Y-79060000D01*
X123095238Y-79155238D01*
X123190476Y-79250476D01*
X123238095Y-79345714D01*
X122952380Y-113569523D02*
X122952380Y-112950476D01*
X123333333Y-113283809D01*
X123333333Y-113140952D01*
X123380952Y-113045714D01*
X123428571Y-112998095D01*
X123523809Y-112950476D01*
X123761904Y-112950476D01*
X123857142Y-112998095D01*
X123904761Y-113045714D01*
X123952380Y-113140952D01*
X123952380Y-113426666D01*
X123904761Y-113521904D01*
X123857142Y-113569523D01*
X123952380Y-112474285D02*
X123952380Y-112283809D01*
X123904761Y-112188571D01*
X123857142Y-112140952D01*
X123714285Y-112045714D01*
X123523809Y-111998095D01*
X123142857Y-111998095D01*
X123047619Y-112045714D01*
X123000000Y-112093333D01*
X122952380Y-112188571D01*
X122952380Y-112379047D01*
X123000000Y-112474285D01*
X123047619Y-112521904D01*
X123142857Y-112569523D01*
X123380952Y-112569523D01*
X123476190Y-112521904D01*
X123523809Y-112474285D01*
X123571428Y-112379047D01*
X123571428Y-112188571D01*
X123523809Y-112093333D01*
X123476190Y-112045714D01*
X123380952Y-111998095D01*
G04 #@! TD*
M02*
