G04 #@! TF.GenerationSoftware,KiCad,Pcbnew,(5.1.5)-3*
G04 #@! TF.CreationDate,2020-05-28T15:24:43-05:00*
G04 #@! TF.ProjectId,TFT Breakout 39P,54465420-4272-4656-916b-6f7574203339,rev?*
G04 #@! TF.SameCoordinates,Original*
G04 #@! TF.FileFunction,Legend,Bot*
G04 #@! TF.FilePolarity,Positive*
%FSLAX46Y46*%
G04 Gerber Fmt 4.6, Leading zero omitted, Abs format (unit mm)*
G04 Created by KiCad (PCBNEW (5.1.5)-3) date 2020-05-28 15:24:43*
%MOMM*%
%LPD*%
G04 APERTURE LIST*
%ADD10C,0.500000*%
%ADD11C,0.300000*%
G04 #@! TA.AperFunction,Profile*
%ADD12C,0.050000*%
G04 #@! TD*
%ADD13C,0.010000*%
%ADD14C,0.120000*%
G04 APERTURE END LIST*
D10*
X173166600Y-111289057D02*
X173166600Y-113955723D01*
X173880886Y-109765247D02*
X174595171Y-112622390D01*
X172738029Y-112622390D01*
X171595172Y-113574771D02*
X171452315Y-113765247D01*
X171595172Y-113955723D01*
X171738029Y-113765247D01*
X171595172Y-113574771D01*
X171595172Y-113955723D01*
X169595173Y-109955723D02*
X169309459Y-109955723D01*
X169023744Y-110146200D01*
X168880887Y-110336676D01*
X168738030Y-110717628D01*
X168595173Y-111479533D01*
X168595173Y-112431914D01*
X168738030Y-113193819D01*
X168880887Y-113574771D01*
X169023744Y-113765247D01*
X169309459Y-113955723D01*
X169595173Y-113955723D01*
X169880887Y-113765247D01*
X170023744Y-113574771D01*
X170166601Y-113193819D01*
X170309458Y-112431914D01*
X170309458Y-111479533D01*
X170166601Y-110717628D01*
X170023744Y-110336676D01*
X169880887Y-110146200D01*
X169595173Y-109955723D01*
X167452316Y-109955723D02*
X167452316Y-110717628D01*
X166309460Y-109955723D02*
X166309460Y-110717628D01*
X163166604Y-109955723D02*
X161452318Y-109955723D01*
X162309461Y-113955723D02*
X162309461Y-109955723D01*
X159452319Y-111860485D02*
X160452319Y-111860485D01*
X160452319Y-113955723D02*
X160452319Y-109955723D01*
X159023748Y-109955723D01*
X158309462Y-109955723D02*
X156595177Y-109955723D01*
X157452320Y-113955723D02*
X157452320Y-109955723D01*
X152309464Y-111860485D02*
X151880893Y-112050961D01*
X151738036Y-112241438D01*
X151595179Y-112622390D01*
X151595179Y-113193819D01*
X151738036Y-113574771D01*
X151880893Y-113765247D01*
X152166607Y-113955723D01*
X153309464Y-113955723D01*
X153309464Y-109955723D01*
X152309464Y-109955723D01*
X152023750Y-110146200D01*
X151880893Y-110336676D01*
X151738036Y-110717628D01*
X151738036Y-111098580D01*
X151880893Y-111479533D01*
X152023750Y-111670009D01*
X152309464Y-111860485D01*
X153309464Y-111860485D01*
X150309465Y-113955723D02*
X150309465Y-111289057D01*
X150309465Y-112050961D02*
X150166608Y-111670009D01*
X150023751Y-111479533D01*
X149738037Y-111289057D01*
X149452322Y-111289057D01*
X147309466Y-113765247D02*
X147595180Y-113955723D01*
X148166609Y-113955723D01*
X148452323Y-113765247D01*
X148595180Y-113384295D01*
X148595180Y-111860485D01*
X148452323Y-111479533D01*
X148166609Y-111289057D01*
X147595180Y-111289057D01*
X147309466Y-111479533D01*
X147166609Y-111860485D01*
X147166609Y-112241438D01*
X148595180Y-112622390D01*
X144595181Y-113955723D02*
X144595181Y-111860485D01*
X144738038Y-111479533D01*
X145023752Y-111289057D01*
X145595181Y-111289057D01*
X145880895Y-111479533D01*
X144595181Y-113765247D02*
X144880895Y-113955723D01*
X145595181Y-113955723D01*
X145880895Y-113765247D01*
X146023752Y-113384295D01*
X146023752Y-113003342D01*
X145880895Y-112622390D01*
X145595181Y-112431914D01*
X144880895Y-112431914D01*
X144595181Y-112241438D01*
X143166610Y-113955723D02*
X143166610Y-109955723D01*
X142880896Y-112431914D02*
X142023753Y-113955723D01*
X142023753Y-111289057D02*
X143166610Y-112812866D01*
X140309468Y-113955723D02*
X140595182Y-113765247D01*
X140738040Y-113574771D01*
X140880897Y-113193819D01*
X140880897Y-112050961D01*
X140738040Y-111670009D01*
X140595182Y-111479533D01*
X140309468Y-111289057D01*
X139880897Y-111289057D01*
X139595183Y-111479533D01*
X139452326Y-111670009D01*
X139309469Y-112050961D01*
X139309469Y-113193819D01*
X139452326Y-113574771D01*
X139595183Y-113765247D01*
X139880897Y-113955723D01*
X140309468Y-113955723D01*
X136738041Y-111289057D02*
X136738041Y-113955723D01*
X138023755Y-111289057D02*
X138023755Y-113384295D01*
X137880898Y-113765247D01*
X137595183Y-113955723D01*
X137166612Y-113955723D01*
X136880898Y-113765247D01*
X136738041Y-113574771D01*
X135738041Y-111289057D02*
X134595184Y-111289057D01*
X135309470Y-109955723D02*
X135309470Y-113384295D01*
X135166613Y-113765247D01*
X134880899Y-113955723D01*
X134595184Y-113955723D01*
D11*
X174896609Y-123231542D02*
X174896609Y-120231542D01*
X174420419Y-120231542D01*
X174134704Y-120374400D01*
X173944228Y-120660114D01*
X173848990Y-120945828D01*
X173753752Y-121517257D01*
X173753752Y-121945828D01*
X173848990Y-122517257D01*
X173944228Y-122802971D01*
X174134704Y-123088685D01*
X174420419Y-123231542D01*
X174896609Y-123231542D01*
X172134704Y-123088685D02*
X172325180Y-123231542D01*
X172706133Y-123231542D01*
X172896609Y-123088685D01*
X172991847Y-122802971D01*
X172991847Y-121660114D01*
X172896609Y-121374400D01*
X172706133Y-121231542D01*
X172325180Y-121231542D01*
X172134704Y-121374400D01*
X172039466Y-121660114D01*
X172039466Y-121945828D01*
X172991847Y-122231542D01*
X171277561Y-123088685D02*
X171087085Y-123231542D01*
X170706133Y-123231542D01*
X170515657Y-123088685D01*
X170420419Y-122802971D01*
X170420419Y-122660114D01*
X170515657Y-122374400D01*
X170706133Y-122231542D01*
X170991847Y-122231542D01*
X171182323Y-122088685D01*
X171277561Y-121802971D01*
X171277561Y-121660114D01*
X171182323Y-121374400D01*
X170991847Y-121231542D01*
X170706133Y-121231542D01*
X170515657Y-121374400D01*
X169563276Y-123231542D02*
X169563276Y-121231542D01*
X169563276Y-120231542D02*
X169658514Y-120374400D01*
X169563276Y-120517257D01*
X169468038Y-120374400D01*
X169563276Y-120231542D01*
X169563276Y-120517257D01*
X167753752Y-121231542D02*
X167753752Y-123660114D01*
X167848990Y-123945828D01*
X167944228Y-124088685D01*
X168134704Y-124231542D01*
X168420419Y-124231542D01*
X168610895Y-124088685D01*
X167753752Y-123088685D02*
X167944228Y-123231542D01*
X168325180Y-123231542D01*
X168515657Y-123088685D01*
X168610895Y-122945828D01*
X168706133Y-122660114D01*
X168706133Y-121802971D01*
X168610895Y-121517257D01*
X168515657Y-121374400D01*
X168325180Y-121231542D01*
X167944228Y-121231542D01*
X167753752Y-121374400D01*
X166801371Y-121231542D02*
X166801371Y-123231542D01*
X166801371Y-121517257D02*
X166706133Y-121374400D01*
X166515657Y-121231542D01*
X166229942Y-121231542D01*
X166039466Y-121374400D01*
X165944228Y-121660114D01*
X165944228Y-123231542D01*
X164229942Y-123088685D02*
X164420419Y-123231542D01*
X164801371Y-123231542D01*
X164991847Y-123088685D01*
X165087085Y-122802971D01*
X165087085Y-121660114D01*
X164991847Y-121374400D01*
X164801371Y-121231542D01*
X164420419Y-121231542D01*
X164229942Y-121374400D01*
X164134704Y-121660114D01*
X164134704Y-121945828D01*
X165087085Y-122231542D01*
X162420419Y-123231542D02*
X162420419Y-120231542D01*
X162420419Y-123088685D02*
X162610895Y-123231542D01*
X162991847Y-123231542D01*
X163182323Y-123088685D01*
X163277561Y-122945828D01*
X163372800Y-122660114D01*
X163372800Y-121802971D01*
X163277561Y-121517257D01*
X163182323Y-121374400D01*
X162991847Y-121231542D01*
X162610895Y-121231542D01*
X162420419Y-121374400D01*
X159944228Y-123231542D02*
X159944228Y-120231542D01*
X159944228Y-121374400D02*
X159753752Y-121231542D01*
X159372800Y-121231542D01*
X159182323Y-121374400D01*
X159087085Y-121517257D01*
X158991847Y-121802971D01*
X158991847Y-122660114D01*
X159087085Y-122945828D01*
X159182323Y-123088685D01*
X159372800Y-123231542D01*
X159753752Y-123231542D01*
X159944228Y-123088685D01*
X158325180Y-121231542D02*
X157848990Y-123231542D01*
X157372800Y-121231542D02*
X157848990Y-123231542D01*
X158039466Y-123945828D01*
X158134704Y-124088685D01*
X158325180Y-124231542D01*
X156610895Y-122945828D02*
X156515657Y-123088685D01*
X156610895Y-123231542D01*
X156706133Y-123088685D01*
X156610895Y-122945828D01*
X156610895Y-123231542D01*
X156610895Y-121374400D02*
X156515657Y-121517257D01*
X156610895Y-121660114D01*
X156706133Y-121517257D01*
X156610895Y-121374400D01*
X156610895Y-121660114D01*
X154134704Y-123231542D02*
X154134704Y-120231542D01*
X153468038Y-122374400D01*
X152801371Y-120231542D01*
X152801371Y-123231542D01*
X151848990Y-123231542D02*
X151848990Y-121231542D01*
X151848990Y-120231542D02*
X151944228Y-120374400D01*
X151848990Y-120517257D01*
X151753752Y-120374400D01*
X151848990Y-120231542D01*
X151848990Y-120517257D01*
X150896609Y-123231542D02*
X150896609Y-120231542D01*
X150706133Y-122088685D02*
X150134704Y-123231542D01*
X150134704Y-121231542D02*
X150896609Y-122374400D01*
X148515657Y-123088685D02*
X148706133Y-123231542D01*
X149087085Y-123231542D01*
X149277561Y-123088685D01*
X149372800Y-122802971D01*
X149372800Y-121660114D01*
X149277561Y-121374400D01*
X149087085Y-121231542D01*
X148706133Y-121231542D01*
X148515657Y-121374400D01*
X148420419Y-121660114D01*
X148420419Y-121945828D01*
X149372800Y-122231542D01*
X146039466Y-123231542D02*
X146039466Y-120231542D01*
X144896609Y-123231542D02*
X145753752Y-121517257D01*
X144896609Y-120231542D02*
X146039466Y-121945828D01*
X143182323Y-121231542D02*
X143182323Y-123231542D01*
X144039466Y-121231542D02*
X144039466Y-122802971D01*
X143944228Y-123088685D01*
X143753752Y-123231542D01*
X143468038Y-123231542D01*
X143277561Y-123088685D01*
X143182323Y-122945828D01*
X142325180Y-123088685D02*
X142134704Y-123231542D01*
X141753752Y-123231542D01*
X141563276Y-123088685D01*
X141468038Y-122802971D01*
X141468038Y-122660114D01*
X141563276Y-122374400D01*
X141753752Y-122231542D01*
X142039466Y-122231542D01*
X142229942Y-122088685D01*
X142325180Y-121802971D01*
X142325180Y-121660114D01*
X142229942Y-121374400D01*
X142039466Y-121231542D01*
X141753752Y-121231542D01*
X141563276Y-121374400D01*
X140610895Y-123231542D02*
X140610895Y-120231542D01*
X139753752Y-123231542D02*
X139753752Y-121660114D01*
X139848990Y-121374400D01*
X140039466Y-121231542D01*
X140325180Y-121231542D01*
X140515657Y-121374400D01*
X140610895Y-121517257D01*
X138801371Y-121231542D02*
X138801371Y-123231542D01*
X138801371Y-121517257D02*
X138706133Y-121374400D01*
X138515657Y-121231542D01*
X138229942Y-121231542D01*
X138039466Y-121374400D01*
X137944228Y-121660114D01*
X137944228Y-123231542D01*
X136229942Y-123088685D02*
X136420419Y-123231542D01*
X136801371Y-123231542D01*
X136991847Y-123088685D01*
X137087085Y-122802971D01*
X137087085Y-121660114D01*
X136991847Y-121374400D01*
X136801371Y-121231542D01*
X136420419Y-121231542D01*
X136229942Y-121374400D01*
X136134704Y-121660114D01*
X136134704Y-121945828D01*
X137087085Y-122231542D01*
X135277561Y-123231542D02*
X135277561Y-121231542D01*
X135277561Y-121802971D02*
X135182323Y-121517257D01*
X135087085Y-121374400D01*
X134896609Y-121231542D01*
X134706133Y-121231542D01*
X134039466Y-123231542D02*
X134039466Y-121231542D01*
X134039466Y-120231542D02*
X134134704Y-120374400D01*
X134039466Y-120517257D01*
X133944228Y-120374400D01*
X134039466Y-120231542D01*
X134039466Y-120517257D01*
X133087085Y-123231542D02*
X133087085Y-120231542D01*
X132896609Y-122088685D02*
X132325180Y-123231542D01*
X132325180Y-121231542D02*
X133087085Y-122374400D01*
X173753752Y-118130961D02*
X174420419Y-117178580D01*
X174896609Y-118130961D02*
X174896609Y-116130961D01*
X174134704Y-116130961D01*
X173944228Y-116226200D01*
X173848990Y-116321438D01*
X173753752Y-116511914D01*
X173753752Y-116797628D01*
X173848990Y-116988104D01*
X173944228Y-117083342D01*
X174134704Y-117178580D01*
X174896609Y-117178580D01*
X172896609Y-117083342D02*
X172229942Y-117083342D01*
X171944228Y-118130961D02*
X172896609Y-118130961D01*
X172896609Y-116130961D01*
X171944228Y-116130961D01*
X171372800Y-116130961D02*
X170706133Y-118130961D01*
X170039466Y-116130961D01*
X169848990Y-118321438D02*
X168325180Y-118321438D01*
X166801371Y-118130961D02*
X167944228Y-118130961D01*
X167372800Y-118130961D02*
X167372800Y-116130961D01*
X167563276Y-116416676D01*
X167753752Y-116607152D01*
X167944228Y-116702390D01*
X166420419Y-118321438D02*
X164896609Y-118321438D01*
X164515657Y-117559533D02*
X163563276Y-117559533D01*
X164706133Y-118130961D02*
X164039466Y-116130961D01*
X163372800Y-118130961D01*
X160229942Y-116130961D02*
X161182323Y-116130961D01*
X161277561Y-117083342D01*
X161182323Y-116988104D01*
X160991847Y-116892866D01*
X160515657Y-116892866D01*
X160325180Y-116988104D01*
X160229942Y-117083342D01*
X160134704Y-117273819D01*
X160134704Y-117750009D01*
X160229942Y-117940485D01*
X160325180Y-118035723D01*
X160515657Y-118130961D01*
X160991847Y-118130961D01*
X161182323Y-118035723D01*
X161277561Y-117940485D01*
X157848990Y-116035723D02*
X159563276Y-118607152D01*
X157277561Y-116321438D02*
X157182323Y-116226200D01*
X156991847Y-116130961D01*
X156515657Y-116130961D01*
X156325180Y-116226200D01*
X156229942Y-116321438D01*
X156134704Y-116511914D01*
X156134704Y-116702390D01*
X156229942Y-116988104D01*
X157372800Y-118130961D01*
X156134704Y-118130961D01*
X154991847Y-116988104D02*
X155182323Y-116892866D01*
X155277561Y-116797628D01*
X155372800Y-116607152D01*
X155372800Y-116511914D01*
X155277561Y-116321438D01*
X155182323Y-116226200D01*
X154991847Y-116130961D01*
X154610895Y-116130961D01*
X154420419Y-116226200D01*
X154325180Y-116321438D01*
X154229942Y-116511914D01*
X154229942Y-116607152D01*
X154325180Y-116797628D01*
X154420419Y-116892866D01*
X154610895Y-116988104D01*
X154991847Y-116988104D01*
X155182323Y-117083342D01*
X155277561Y-117178580D01*
X155372800Y-117369057D01*
X155372800Y-117750009D01*
X155277561Y-117940485D01*
X155182323Y-118035723D01*
X154991847Y-118130961D01*
X154610895Y-118130961D01*
X154420419Y-118035723D01*
X154325180Y-117940485D01*
X154229942Y-117750009D01*
X154229942Y-117369057D01*
X154325180Y-117178580D01*
X154420419Y-117083342D01*
X154610895Y-116988104D01*
X151944228Y-116035723D02*
X153658514Y-118607152D01*
X151372800Y-116321438D02*
X151277561Y-116226200D01*
X151087085Y-116130961D01*
X150610895Y-116130961D01*
X150420419Y-116226200D01*
X150325180Y-116321438D01*
X150229942Y-116511914D01*
X150229942Y-116702390D01*
X150325180Y-116988104D01*
X151468038Y-118130961D01*
X150229942Y-118130961D01*
X148991847Y-116130961D02*
X148801371Y-116130961D01*
X148610895Y-116226200D01*
X148515657Y-116321438D01*
X148420419Y-116511914D01*
X148325180Y-116892866D01*
X148325180Y-117369057D01*
X148420419Y-117750009D01*
X148515657Y-117940485D01*
X148610895Y-118035723D01*
X148801371Y-118130961D01*
X148991847Y-118130961D01*
X149182323Y-118035723D01*
X149277561Y-117940485D01*
X149372800Y-117750009D01*
X149468038Y-117369057D01*
X149468038Y-116892866D01*
X149372800Y-116511914D01*
X149277561Y-116321438D01*
X149182323Y-116226200D01*
X148991847Y-116130961D01*
X147563276Y-116321438D02*
X147468038Y-116226200D01*
X147277561Y-116130961D01*
X146801371Y-116130961D01*
X146610895Y-116226200D01*
X146515657Y-116321438D01*
X146420419Y-116511914D01*
X146420419Y-116702390D01*
X146515657Y-116988104D01*
X147658514Y-118130961D01*
X146420419Y-118130961D01*
X145182323Y-116130961D02*
X144991847Y-116130961D01*
X144801371Y-116226200D01*
X144706133Y-116321438D01*
X144610895Y-116511914D01*
X144515657Y-116892866D01*
X144515657Y-117369057D01*
X144610895Y-117750009D01*
X144706133Y-117940485D01*
X144801371Y-118035723D01*
X144991847Y-118130961D01*
X145182323Y-118130961D01*
X145372800Y-118035723D01*
X145468038Y-117940485D01*
X145563276Y-117750009D01*
X145658514Y-117369057D01*
X145658514Y-116892866D01*
X145563276Y-116511914D01*
X145468038Y-116321438D01*
X145372800Y-116226200D01*
X145182323Y-116130961D01*
D12*
X200000000Y-60000000D02*
X100000000Y-60000000D01*
X200000000Y-130000000D02*
X200000000Y-60000000D01*
X100000000Y-130000000D02*
X100000000Y-60000000D01*
X100000000Y-130000000D02*
X200000000Y-130000000D01*
D13*
G04 #@! TO.C,G\002A\002A\002A*
G36*
X188013378Y-120180578D02*
G01*
X187810731Y-120268426D01*
X187746282Y-120311862D01*
X187672328Y-120360078D01*
X187628004Y-120366292D01*
X187601282Y-120344764D01*
X187549985Y-120306149D01*
X187459107Y-120256269D01*
X187387444Y-120223063D01*
X187172675Y-120164397D01*
X186959444Y-120167101D01*
X186758563Y-120225712D01*
X186580844Y-120334766D01*
X186437098Y-120488798D01*
X186338138Y-120682347D01*
X186314491Y-120765267D01*
X186305236Y-120839859D01*
X186297366Y-120969793D01*
X186290892Y-121145305D01*
X186285826Y-121356630D01*
X186282182Y-121594004D01*
X186279971Y-121847662D01*
X186279206Y-122107839D01*
X186279899Y-122364771D01*
X186282062Y-122608693D01*
X186285707Y-122829841D01*
X186290847Y-123018449D01*
X186297495Y-123164755D01*
X186305661Y-123258992D01*
X186311320Y-123286545D01*
X186378709Y-123383021D01*
X186478013Y-123425053D01*
X186593718Y-123406547D01*
X186604496Y-123401661D01*
X186701467Y-123355214D01*
X186718400Y-122074357D01*
X186735334Y-120793501D01*
X186845934Y-120694717D01*
X186975099Y-120616800D01*
X187110760Y-120597262D01*
X187237762Y-120633569D01*
X187340949Y-120723186D01*
X187377168Y-120783544D01*
X187391372Y-120822339D01*
X187402836Y-120877300D01*
X187411837Y-120955320D01*
X187418650Y-121063295D01*
X187423549Y-121208118D01*
X187426809Y-121396685D01*
X187428707Y-121635889D01*
X187429517Y-121932626D01*
X187429600Y-122097193D01*
X187429600Y-123300350D01*
X187518834Y-123370542D01*
X187592029Y-123418999D01*
X187647657Y-123440655D01*
X187649734Y-123440733D01*
X187703323Y-123421206D01*
X187776353Y-123373871D01*
X187780633Y-123370542D01*
X187869867Y-123300350D01*
X187869867Y-122081927D01*
X187870149Y-121742310D01*
X187871557Y-121463865D01*
X187874931Y-121240032D01*
X187881112Y-121064249D01*
X187890942Y-120929955D01*
X187905262Y-120830590D01*
X187924912Y-120759593D01*
X187950735Y-120710403D01*
X187983570Y-120676460D01*
X188024260Y-120651202D01*
X188055187Y-120636393D01*
X188207632Y-120598137D01*
X188349157Y-120623556D01*
X188435245Y-120677621D01*
X188530267Y-120759309D01*
X188547200Y-122035321D01*
X188564134Y-123311333D01*
X188644085Y-123376033D01*
X188747650Y-123432912D01*
X188846184Y-123424618D01*
X188924448Y-123375961D01*
X189004400Y-123311188D01*
X189004400Y-122029761D01*
X189004288Y-121701002D01*
X189003708Y-121432925D01*
X189002297Y-121218477D01*
X188999689Y-121050607D01*
X188995520Y-120922263D01*
X188989426Y-120826394D01*
X188981042Y-120755946D01*
X188970004Y-120703869D01*
X188955948Y-120663110D01*
X188938508Y-120626619D01*
X188931168Y-120612867D01*
X188793094Y-120418527D01*
X188622450Y-120275632D01*
X188429065Y-120186678D01*
X188222766Y-120154161D01*
X188013378Y-120180578D01*
G37*
X188013378Y-120180578D02*
X187810731Y-120268426D01*
X187746282Y-120311862D01*
X187672328Y-120360078D01*
X187628004Y-120366292D01*
X187601282Y-120344764D01*
X187549985Y-120306149D01*
X187459107Y-120256269D01*
X187387444Y-120223063D01*
X187172675Y-120164397D01*
X186959444Y-120167101D01*
X186758563Y-120225712D01*
X186580844Y-120334766D01*
X186437098Y-120488798D01*
X186338138Y-120682347D01*
X186314491Y-120765267D01*
X186305236Y-120839859D01*
X186297366Y-120969793D01*
X186290892Y-121145305D01*
X186285826Y-121356630D01*
X186282182Y-121594004D01*
X186279971Y-121847662D01*
X186279206Y-122107839D01*
X186279899Y-122364771D01*
X186282062Y-122608693D01*
X186285707Y-122829841D01*
X186290847Y-123018449D01*
X186297495Y-123164755D01*
X186305661Y-123258992D01*
X186311320Y-123286545D01*
X186378709Y-123383021D01*
X186478013Y-123425053D01*
X186593718Y-123406547D01*
X186604496Y-123401661D01*
X186701467Y-123355214D01*
X186718400Y-122074357D01*
X186735334Y-120793501D01*
X186845934Y-120694717D01*
X186975099Y-120616800D01*
X187110760Y-120597262D01*
X187237762Y-120633569D01*
X187340949Y-120723186D01*
X187377168Y-120783544D01*
X187391372Y-120822339D01*
X187402836Y-120877300D01*
X187411837Y-120955320D01*
X187418650Y-121063295D01*
X187423549Y-121208118D01*
X187426809Y-121396685D01*
X187428707Y-121635889D01*
X187429517Y-121932626D01*
X187429600Y-122097193D01*
X187429600Y-123300350D01*
X187518834Y-123370542D01*
X187592029Y-123418999D01*
X187647657Y-123440655D01*
X187649734Y-123440733D01*
X187703323Y-123421206D01*
X187776353Y-123373871D01*
X187780633Y-123370542D01*
X187869867Y-123300350D01*
X187869867Y-122081927D01*
X187870149Y-121742310D01*
X187871557Y-121463865D01*
X187874931Y-121240032D01*
X187881112Y-121064249D01*
X187890942Y-120929955D01*
X187905262Y-120830590D01*
X187924912Y-120759593D01*
X187950735Y-120710403D01*
X187983570Y-120676460D01*
X188024260Y-120651202D01*
X188055187Y-120636393D01*
X188207632Y-120598137D01*
X188349157Y-120623556D01*
X188435245Y-120677621D01*
X188530267Y-120759309D01*
X188547200Y-122035321D01*
X188564134Y-123311333D01*
X188644085Y-123376033D01*
X188747650Y-123432912D01*
X188846184Y-123424618D01*
X188924448Y-123375961D01*
X189004400Y-123311188D01*
X189004400Y-122029761D01*
X189004288Y-121701002D01*
X189003708Y-121432925D01*
X189002297Y-121218477D01*
X188999689Y-121050607D01*
X188995520Y-120922263D01*
X188989426Y-120826394D01*
X188981042Y-120755946D01*
X188970004Y-120703869D01*
X188955948Y-120663110D01*
X188938508Y-120626619D01*
X188931168Y-120612867D01*
X188793094Y-120418527D01*
X188622450Y-120275632D01*
X188429065Y-120186678D01*
X188222766Y-120154161D01*
X188013378Y-120180578D01*
G36*
X185477693Y-120195247D02*
G01*
X185453649Y-120217600D01*
X185432931Y-120249413D01*
X185417910Y-120298828D01*
X185407727Y-120375882D01*
X185401521Y-120490610D01*
X185398432Y-120653052D01*
X185397600Y-120871527D01*
X185396128Y-121111943D01*
X185390432Y-121292534D01*
X185378590Y-121421167D01*
X185358681Y-121505710D01*
X185328784Y-121554033D01*
X185286979Y-121574003D01*
X185231342Y-121573488D01*
X185226369Y-121572816D01*
X185195841Y-121562166D01*
X185163632Y-121533987D01*
X185125481Y-121480763D01*
X185077128Y-121394978D01*
X185014315Y-121269117D01*
X184932780Y-121095662D01*
X184835850Y-120883800D01*
X184731367Y-120655945D01*
X184649282Y-120482767D01*
X184585345Y-120356672D01*
X184535309Y-120270063D01*
X184494922Y-120215348D01*
X184459937Y-120184930D01*
X184439281Y-120175009D01*
X184326878Y-120164589D01*
X184228178Y-120205840D01*
X184164753Y-120288452D01*
X184158110Y-120309382D01*
X184157061Y-120354848D01*
X184173116Y-120426485D01*
X184208914Y-120531393D01*
X184267096Y-120676673D01*
X184350302Y-120869426D01*
X184445043Y-121081137D01*
X184534835Y-121280768D01*
X184614372Y-121459669D01*
X184679644Y-121608649D01*
X184726641Y-121718517D01*
X184751352Y-121780080D01*
X184754133Y-121789573D01*
X184740789Y-121826465D01*
X184703439Y-121915764D01*
X184646107Y-122048218D01*
X184572814Y-122214572D01*
X184487586Y-122405573D01*
X184449333Y-122490619D01*
X184359814Y-122692141D01*
X184280690Y-122875925D01*
X184216054Y-123031995D01*
X184170000Y-123150371D01*
X184146621Y-123221078D01*
X184144533Y-123233524D01*
X184171349Y-123299483D01*
X184235632Y-123370806D01*
X184313134Y-123424943D01*
X184367346Y-123440733D01*
X184422170Y-123423625D01*
X184482871Y-123368738D01*
X184552824Y-123270728D01*
X184635408Y-123124248D01*
X184733999Y-122923955D01*
X184838140Y-122695667D01*
X184949370Y-122448984D01*
X185038939Y-122260006D01*
X185110821Y-122123746D01*
X185168992Y-122035213D01*
X185217427Y-121989419D01*
X185260102Y-121981376D01*
X185300992Y-122006094D01*
X185344072Y-122058584D01*
X185344880Y-122059735D01*
X185364985Y-122100686D01*
X185379473Y-122164017D01*
X185389151Y-122259736D01*
X185394827Y-122397851D01*
X185397306Y-122588372D01*
X185397600Y-122713662D01*
X185398693Y-122943420D01*
X185403512Y-123114799D01*
X185414369Y-123237138D01*
X185433576Y-123319778D01*
X185463444Y-123372058D01*
X185506284Y-123403318D01*
X185564408Y-123422898D01*
X185573696Y-123425190D01*
X185653758Y-123427766D01*
X185727388Y-123383674D01*
X185751496Y-123360850D01*
X185837867Y-123274479D01*
X185837867Y-121804306D01*
X185837780Y-121450244D01*
X185837331Y-121157611D01*
X185836235Y-120920103D01*
X185834210Y-120731416D01*
X185830970Y-120585247D01*
X185826233Y-120475291D01*
X185819714Y-120395244D01*
X185811131Y-120338802D01*
X185800199Y-120299661D01*
X185786634Y-120271517D01*
X185770152Y-120248067D01*
X185767675Y-120244900D01*
X185677662Y-120174395D01*
X185573837Y-120157221D01*
X185477693Y-120195247D01*
G37*
X185477693Y-120195247D02*
X185453649Y-120217600D01*
X185432931Y-120249413D01*
X185417910Y-120298828D01*
X185407727Y-120375882D01*
X185401521Y-120490610D01*
X185398432Y-120653052D01*
X185397600Y-120871527D01*
X185396128Y-121111943D01*
X185390432Y-121292534D01*
X185378590Y-121421167D01*
X185358681Y-121505710D01*
X185328784Y-121554033D01*
X185286979Y-121574003D01*
X185231342Y-121573488D01*
X185226369Y-121572816D01*
X185195841Y-121562166D01*
X185163632Y-121533987D01*
X185125481Y-121480763D01*
X185077128Y-121394978D01*
X185014315Y-121269117D01*
X184932780Y-121095662D01*
X184835850Y-120883800D01*
X184731367Y-120655945D01*
X184649282Y-120482767D01*
X184585345Y-120356672D01*
X184535309Y-120270063D01*
X184494922Y-120215348D01*
X184459937Y-120184930D01*
X184439281Y-120175009D01*
X184326878Y-120164589D01*
X184228178Y-120205840D01*
X184164753Y-120288452D01*
X184158110Y-120309382D01*
X184157061Y-120354848D01*
X184173116Y-120426485D01*
X184208914Y-120531393D01*
X184267096Y-120676673D01*
X184350302Y-120869426D01*
X184445043Y-121081137D01*
X184534835Y-121280768D01*
X184614372Y-121459669D01*
X184679644Y-121608649D01*
X184726641Y-121718517D01*
X184751352Y-121780080D01*
X184754133Y-121789573D01*
X184740789Y-121826465D01*
X184703439Y-121915764D01*
X184646107Y-122048218D01*
X184572814Y-122214572D01*
X184487586Y-122405573D01*
X184449333Y-122490619D01*
X184359814Y-122692141D01*
X184280690Y-122875925D01*
X184216054Y-123031995D01*
X184170000Y-123150371D01*
X184146621Y-123221078D01*
X184144533Y-123233524D01*
X184171349Y-123299483D01*
X184235632Y-123370806D01*
X184313134Y-123424943D01*
X184367346Y-123440733D01*
X184422170Y-123423625D01*
X184482871Y-123368738D01*
X184552824Y-123270728D01*
X184635408Y-123124248D01*
X184733999Y-122923955D01*
X184838140Y-122695667D01*
X184949370Y-122448984D01*
X185038939Y-122260006D01*
X185110821Y-122123746D01*
X185168992Y-122035213D01*
X185217427Y-121989419D01*
X185260102Y-121981376D01*
X185300992Y-122006094D01*
X185344072Y-122058584D01*
X185344880Y-122059735D01*
X185364985Y-122100686D01*
X185379473Y-122164017D01*
X185389151Y-122259736D01*
X185394827Y-122397851D01*
X185397306Y-122588372D01*
X185397600Y-122713662D01*
X185398693Y-122943420D01*
X185403512Y-123114799D01*
X185414369Y-123237138D01*
X185433576Y-123319778D01*
X185463444Y-123372058D01*
X185506284Y-123403318D01*
X185564408Y-123422898D01*
X185573696Y-123425190D01*
X185653758Y-123427766D01*
X185727388Y-123383674D01*
X185751496Y-123360850D01*
X185837867Y-123274479D01*
X185837867Y-121804306D01*
X185837780Y-121450244D01*
X185837331Y-121157611D01*
X185836235Y-120920103D01*
X185834210Y-120731416D01*
X185830970Y-120585247D01*
X185826233Y-120475291D01*
X185819714Y-120395244D01*
X185811131Y-120338802D01*
X185800199Y-120299661D01*
X185786634Y-120271517D01*
X185770152Y-120248067D01*
X185767675Y-120244900D01*
X185677662Y-120174395D01*
X185573837Y-120157221D01*
X185477693Y-120195247D01*
G36*
X182709943Y-120156211D02*
G01*
X182541533Y-120158415D01*
X182421452Y-120163139D01*
X182340002Y-120171239D01*
X182287484Y-120183573D01*
X182254197Y-120201001D01*
X182236316Y-120217600D01*
X182187243Y-120317316D01*
X182191583Y-120430047D01*
X182248000Y-120528200D01*
X182280930Y-120555326D01*
X182324135Y-120574113D01*
X182389630Y-120586063D01*
X182489427Y-120592678D01*
X182635538Y-120595459D01*
X182789867Y-120595933D01*
X183264000Y-120595933D01*
X183264000Y-121066443D01*
X183262941Y-121257761D01*
X183259009Y-121391742D01*
X183251072Y-121478759D01*
X183238000Y-121529187D01*
X183218659Y-121553398D01*
X183210430Y-121557510D01*
X183154848Y-121566339D01*
X183049228Y-121573269D01*
X182911259Y-121577362D01*
X182822884Y-121578067D01*
X182667963Y-121579294D01*
X182566203Y-121584866D01*
X182503051Y-121597615D01*
X182463952Y-121620373D01*
X182436187Y-121653335D01*
X182388560Y-121758542D01*
X182405243Y-121855272D01*
X182466594Y-121935206D01*
X182508484Y-121972491D01*
X182554571Y-121996590D01*
X182619969Y-122010356D01*
X182719794Y-122016643D01*
X182869161Y-122018305D01*
X182906861Y-122018333D01*
X183264000Y-122018333D01*
X183264000Y-122961480D01*
X182793313Y-122972507D01*
X182600386Y-122978145D01*
X182463188Y-122985643D01*
X182369718Y-122996673D01*
X182307972Y-123012911D01*
X182265947Y-123036028D01*
X182251447Y-123048049D01*
X182197956Y-123127006D01*
X182180785Y-123200449D01*
X182187893Y-123278626D01*
X182213471Y-123338013D01*
X182265464Y-123381083D01*
X182351817Y-123410315D01*
X182480476Y-123428183D01*
X182659387Y-123437164D01*
X182896496Y-123439735D01*
X182948507Y-123439703D01*
X183187698Y-123436839D01*
X183376661Y-123429426D01*
X183509810Y-123417811D01*
X183581561Y-123402337D01*
X183585733Y-123400264D01*
X183650773Y-123354023D01*
X183678348Y-123325094D01*
X183683522Y-123284558D01*
X183688354Y-123183300D01*
X183692730Y-123028333D01*
X183696535Y-122826667D01*
X183699653Y-122585316D01*
X183701970Y-122311290D01*
X183703370Y-122011601D01*
X183703748Y-121778049D01*
X183703738Y-121417909D01*
X183703279Y-121119447D01*
X183702134Y-120876604D01*
X183700066Y-120683327D01*
X183696836Y-120533557D01*
X183692208Y-120421239D01*
X183685944Y-120340316D01*
X183677806Y-120284733D01*
X183667558Y-120248432D01*
X183654962Y-120225359D01*
X183642333Y-120211715D01*
X183611930Y-120191794D01*
X183564724Y-120177123D01*
X183491141Y-120166941D01*
X183381606Y-120160489D01*
X183226544Y-120157006D01*
X183016382Y-120155732D01*
X182936382Y-120155667D01*
X182709943Y-120156211D01*
G37*
X182709943Y-120156211D02*
X182541533Y-120158415D01*
X182421452Y-120163139D01*
X182340002Y-120171239D01*
X182287484Y-120183573D01*
X182254197Y-120201001D01*
X182236316Y-120217600D01*
X182187243Y-120317316D01*
X182191583Y-120430047D01*
X182248000Y-120528200D01*
X182280930Y-120555326D01*
X182324135Y-120574113D01*
X182389630Y-120586063D01*
X182489427Y-120592678D01*
X182635538Y-120595459D01*
X182789867Y-120595933D01*
X183264000Y-120595933D01*
X183264000Y-121066443D01*
X183262941Y-121257761D01*
X183259009Y-121391742D01*
X183251072Y-121478759D01*
X183238000Y-121529187D01*
X183218659Y-121553398D01*
X183210430Y-121557510D01*
X183154848Y-121566339D01*
X183049228Y-121573269D01*
X182911259Y-121577362D01*
X182822884Y-121578067D01*
X182667963Y-121579294D01*
X182566203Y-121584866D01*
X182503051Y-121597615D01*
X182463952Y-121620373D01*
X182436187Y-121653335D01*
X182388560Y-121758542D01*
X182405243Y-121855272D01*
X182466594Y-121935206D01*
X182508484Y-121972491D01*
X182554571Y-121996590D01*
X182619969Y-122010356D01*
X182719794Y-122016643D01*
X182869161Y-122018305D01*
X182906861Y-122018333D01*
X183264000Y-122018333D01*
X183264000Y-122961480D01*
X182793313Y-122972507D01*
X182600386Y-122978145D01*
X182463188Y-122985643D01*
X182369718Y-122996673D01*
X182307972Y-123012911D01*
X182265947Y-123036028D01*
X182251447Y-123048049D01*
X182197956Y-123127006D01*
X182180785Y-123200449D01*
X182187893Y-123278626D01*
X182213471Y-123338013D01*
X182265464Y-123381083D01*
X182351817Y-123410315D01*
X182480476Y-123428183D01*
X182659387Y-123437164D01*
X182896496Y-123439735D01*
X182948507Y-123439703D01*
X183187698Y-123436839D01*
X183376661Y-123429426D01*
X183509810Y-123417811D01*
X183581561Y-123402337D01*
X183585733Y-123400264D01*
X183650773Y-123354023D01*
X183678348Y-123325094D01*
X183683522Y-123284558D01*
X183688354Y-123183300D01*
X183692730Y-123028333D01*
X183696535Y-122826667D01*
X183699653Y-122585316D01*
X183701970Y-122311290D01*
X183703370Y-122011601D01*
X183703748Y-121778049D01*
X183703738Y-121417909D01*
X183703279Y-121119447D01*
X183702134Y-120876604D01*
X183700066Y-120683327D01*
X183696836Y-120533557D01*
X183692208Y-120421239D01*
X183685944Y-120340316D01*
X183677806Y-120284733D01*
X183667558Y-120248432D01*
X183654962Y-120225359D01*
X183642333Y-120211715D01*
X183611930Y-120191794D01*
X183564724Y-120177123D01*
X183491141Y-120166941D01*
X183381606Y-120160489D01*
X183226544Y-120157006D01*
X183016382Y-120155732D01*
X182936382Y-120155667D01*
X182709943Y-120156211D01*
G36*
X190265159Y-109565655D02*
G01*
X190115767Y-109600310D01*
X189898993Y-109713917D01*
X189724305Y-109873707D01*
X189596212Y-110069509D01*
X189519222Y-110291150D01*
X189497843Y-110528461D01*
X189536585Y-110771269D01*
X189562461Y-110848587D01*
X189599361Y-110955698D01*
X189609170Y-111021373D01*
X189593778Y-111065395D01*
X189584346Y-111077550D01*
X189554663Y-111112381D01*
X189485124Y-111194076D01*
X189379754Y-111317904D01*
X189242580Y-111479134D01*
X189077626Y-111673033D01*
X188888919Y-111894870D01*
X188680484Y-112139913D01*
X188456346Y-112403429D01*
X188257460Y-112637267D01*
X187997090Y-112943273D01*
X187728162Y-113259106D01*
X187457819Y-113576388D01*
X187193208Y-113886745D01*
X186941471Y-114181800D01*
X186709754Y-114453177D01*
X186505201Y-114692500D01*
X186334957Y-114891395D01*
X186286697Y-114947693D01*
X185597712Y-115751054D01*
X183631450Y-113457560D01*
X183339839Y-113117254D01*
X183060261Y-112790672D01*
X182795945Y-112481603D01*
X182550118Y-112193835D01*
X182326010Y-111931160D01*
X182126847Y-111697366D01*
X181955859Y-111496242D01*
X181816274Y-111331578D01*
X181711319Y-111207163D01*
X181644224Y-111126787D01*
X181618557Y-111094772D01*
X181594499Y-111045464D01*
X181594346Y-110988062D01*
X181619934Y-110900533D01*
X181639030Y-110848876D01*
X181698046Y-110606356D01*
X181696576Y-110467545D01*
X181101207Y-110467545D01*
X181091424Y-110598462D01*
X181026607Y-110713729D01*
X180951298Y-110775763D01*
X180813315Y-110833776D01*
X180681773Y-110829207D01*
X180593445Y-110794073D01*
X180492779Y-110709050D01*
X180436382Y-110592918D01*
X180423334Y-110463102D01*
X180452718Y-110337028D01*
X180523614Y-110232119D01*
X180626425Y-110168672D01*
X180748931Y-110136360D01*
X180841333Y-110144235D01*
X180930725Y-110196206D01*
X180955265Y-110216115D01*
X181055855Y-110335317D01*
X181101207Y-110467545D01*
X181696576Y-110467545D01*
X181695501Y-110366116D01*
X181635895Y-110138315D01*
X181523730Y-109933109D01*
X181363505Y-109760658D01*
X181159721Y-109631118D01*
X181085834Y-109600310D01*
X180914458Y-109563044D01*
X180714772Y-109558834D01*
X180516741Y-109586212D01*
X180367110Y-109635515D01*
X180177563Y-109757424D01*
X180017146Y-109925818D01*
X179896092Y-110125070D01*
X179824636Y-110339552D01*
X179809600Y-110486733D01*
X179840458Y-110704110D01*
X179926186Y-110920286D01*
X180056511Y-111115500D01*
X180214014Y-111264818D01*
X180282454Y-111320463D01*
X180315863Y-111373643D01*
X180325121Y-111450579D01*
X180323246Y-111528060D01*
X180313440Y-111752759D01*
X180300982Y-112016225D01*
X180286243Y-112312087D01*
X180269595Y-112633977D01*
X180251408Y-112975527D01*
X180232053Y-113330367D01*
X180211902Y-113692128D01*
X180191325Y-114054442D01*
X180170694Y-114410940D01*
X180150379Y-114755253D01*
X180130753Y-115081011D01*
X180112184Y-115381847D01*
X180095046Y-115651391D01*
X180079709Y-115883275D01*
X180066544Y-116071129D01*
X180055921Y-116208585D01*
X180048213Y-116289274D01*
X180044723Y-116308599D01*
X180005114Y-116305558D01*
X179911957Y-116276628D01*
X179773016Y-116224701D01*
X179596054Y-116152673D01*
X179398671Y-116067769D01*
X178781527Y-115796273D01*
X178775583Y-115774558D01*
X178150108Y-115774558D01*
X178129573Y-115898844D01*
X178060218Y-116011748D01*
X177963867Y-116086225D01*
X177829995Y-116123742D01*
X177689232Y-116102743D01*
X177578150Y-116038825D01*
X177483515Y-115920761D01*
X177448892Y-115784054D01*
X177477390Y-115642912D01*
X177487087Y-115622651D01*
X177560013Y-115520793D01*
X177657805Y-115465883D01*
X177798399Y-115448284D01*
X177811846Y-115448200D01*
X177952690Y-115475712D01*
X178058275Y-115548763D01*
X178125211Y-115653121D01*
X178150108Y-115774558D01*
X178775583Y-115774558D01*
X178724819Y-115589107D01*
X178626906Y-115340476D01*
X178486125Y-115137266D01*
X178310073Y-114983096D01*
X178106348Y-114881587D01*
X177882548Y-114836359D01*
X177646270Y-114851032D01*
X177405113Y-114929228D01*
X177372656Y-114944819D01*
X177162828Y-115082016D01*
X177009292Y-115256308D01*
X176911359Y-115468844D01*
X176868336Y-115720772D01*
X176866108Y-115786866D01*
X176895662Y-116029723D01*
X176984672Y-116250794D01*
X177125992Y-116440616D01*
X177312475Y-116589725D01*
X177536974Y-116688656D01*
X177549878Y-116692341D01*
X177664481Y-116728251D01*
X177735463Y-116767397D01*
X177785477Y-116826988D01*
X177826285Y-116902278D01*
X177852455Y-116960769D01*
X177901324Y-117076266D01*
X177970485Y-117242870D01*
X178057528Y-117454678D01*
X178160047Y-117705790D01*
X178275632Y-117990306D01*
X178401874Y-118302323D01*
X178536367Y-118635942D01*
X178676700Y-118985261D01*
X178691399Y-119021920D01*
X179479183Y-120986973D01*
X179374981Y-121151282D01*
X179266620Y-121378925D01*
X179219995Y-121612763D01*
X179231630Y-121843270D01*
X179298048Y-122060922D01*
X179415771Y-122256194D01*
X179581322Y-122419561D01*
X179791224Y-122541498D01*
X179896355Y-122579456D01*
X180143616Y-122621946D01*
X180379405Y-122597825D01*
X180601776Y-122507542D01*
X180783844Y-122374595D01*
X180943407Y-122200697D01*
X181042944Y-122014009D01*
X181087995Y-121800725D01*
X181089265Y-121613413D01*
X181089110Y-121611943D01*
X180500145Y-121611943D01*
X180498726Y-121742179D01*
X180485633Y-121784406D01*
X180403014Y-121908706D01*
X180285957Y-121988808D01*
X180151149Y-122018905D01*
X180015278Y-121993187D01*
X179964233Y-121965882D01*
X179872234Y-121869445D01*
X179824980Y-121743186D01*
X179823587Y-121607596D01*
X179869172Y-121483167D01*
X179933960Y-121410201D01*
X180044189Y-121358496D01*
X180179742Y-121341537D01*
X180309742Y-121360602D01*
X180375206Y-121391905D01*
X180456291Y-121485656D01*
X180500145Y-121611943D01*
X181089110Y-121611943D01*
X181073944Y-121468754D01*
X181048447Y-121338840D01*
X181018420Y-121251163D01*
X180940509Y-121134367D01*
X180830238Y-121007426D01*
X180711995Y-120897175D01*
X180663666Y-120860825D01*
X180586398Y-120808194D01*
X180655401Y-119562087D01*
X180670786Y-119278803D01*
X180684396Y-119017524D01*
X180695881Y-118785797D01*
X180704894Y-118591163D01*
X180711085Y-118441168D01*
X180714106Y-118343353D01*
X180713608Y-118305264D01*
X180713493Y-118305071D01*
X180677151Y-118285276D01*
X180595288Y-118247289D01*
X180482991Y-118197537D01*
X180355344Y-118142452D01*
X180227432Y-118088464D01*
X180114341Y-118042001D01*
X180031155Y-118009495D01*
X179992960Y-117997374D01*
X179992121Y-117997590D01*
X179987672Y-118032629D01*
X179980119Y-118126446D01*
X179970056Y-118270184D01*
X179958075Y-118454991D01*
X179944772Y-118672010D01*
X179930739Y-118912388D01*
X179930464Y-118917202D01*
X179916295Y-119158166D01*
X179902625Y-119376139D01*
X179890080Y-119562223D01*
X179879287Y-119707518D01*
X179870875Y-119803125D01*
X179865469Y-119840144D01*
X179865408Y-119840214D01*
X179848112Y-119814291D01*
X179807350Y-119727875D01*
X179744216Y-119583601D01*
X179659799Y-119384100D01*
X179555192Y-119132006D01*
X179431486Y-118829952D01*
X179289773Y-118480570D01*
X179131143Y-118086495D01*
X178956688Y-117650359D01*
X178930871Y-117585610D01*
X178832648Y-117337694D01*
X178743723Y-117110391D01*
X178666936Y-116911183D01*
X178605127Y-116747557D01*
X178561134Y-116626996D01*
X178537797Y-116556986D01*
X178535014Y-116542164D01*
X178566986Y-116553173D01*
X178654220Y-116588398D01*
X178789924Y-116644908D01*
X178967306Y-116719773D01*
X179179573Y-116810060D01*
X179419932Y-116912838D01*
X179681591Y-117025177D01*
X179957758Y-117144144D01*
X180241640Y-117266810D01*
X180526444Y-117390241D01*
X180805379Y-117511508D01*
X181071651Y-117627678D01*
X181318469Y-117735821D01*
X181539039Y-117833005D01*
X181726570Y-117916300D01*
X181874268Y-117982773D01*
X181892400Y-117991035D01*
X181960034Y-118021301D01*
X182082245Y-118075349D01*
X182251521Y-118149890D01*
X182460350Y-118241636D01*
X182701220Y-118347300D01*
X182966620Y-118463593D01*
X183249037Y-118587227D01*
X183540959Y-118714915D01*
X183834875Y-118843368D01*
X184123272Y-118969297D01*
X184398639Y-119089416D01*
X184653464Y-119200436D01*
X184880234Y-119299069D01*
X184949126Y-119328988D01*
X185601318Y-119612097D01*
X186727126Y-119117835D01*
X187011728Y-118992981D01*
X187299495Y-118866911D01*
X187578900Y-118744664D01*
X187838416Y-118631276D01*
X188066517Y-118531785D01*
X188251676Y-118451228D01*
X188344000Y-118411208D01*
X188471740Y-118355753D01*
X188653414Y-118276574D01*
X188880948Y-118177204D01*
X189146268Y-118061177D01*
X189441300Y-117932026D01*
X189757971Y-117793283D01*
X190088207Y-117648482D01*
X190423934Y-117501156D01*
X190511467Y-117462724D01*
X190930038Y-117278991D01*
X191290893Y-117120767D01*
X191598293Y-116986240D01*
X191856499Y-116873598D01*
X192069772Y-116781027D01*
X192242375Y-116706714D01*
X192378568Y-116648847D01*
X192482612Y-116605612D01*
X192558770Y-116575196D01*
X192611302Y-116555787D01*
X192644470Y-116545572D01*
X192662535Y-116542737D01*
X192669172Y-116544749D01*
X192659628Y-116577872D01*
X192627107Y-116667687D01*
X192573987Y-116808079D01*
X192502644Y-116992933D01*
X192415456Y-117216132D01*
X192314799Y-117471560D01*
X192203051Y-117753101D01*
X192082590Y-118054640D01*
X192073425Y-118077504D01*
X191921216Y-118457141D01*
X191792240Y-118778678D01*
X191684515Y-119046881D01*
X191596057Y-119266515D01*
X191524885Y-119442346D01*
X191469016Y-119579139D01*
X191426467Y-119681659D01*
X191395256Y-119754672D01*
X191373400Y-119802943D01*
X191358916Y-119831236D01*
X191349822Y-119844319D01*
X191344135Y-119846955D01*
X191339873Y-119843911D01*
X191338925Y-119842947D01*
X191333043Y-119806435D01*
X191324190Y-119711212D01*
X191313014Y-119566203D01*
X191300162Y-119380332D01*
X191286282Y-119162524D01*
X191272021Y-118921705D01*
X191271802Y-118917868D01*
X191257731Y-118677098D01*
X191244361Y-118459497D01*
X191232289Y-118273924D01*
X191222112Y-118129237D01*
X191214427Y-118034295D01*
X191209832Y-117997954D01*
X191209777Y-117997888D01*
X191177838Y-118007083D01*
X191099120Y-118037429D01*
X190988714Y-118082501D01*
X190861708Y-118135876D01*
X190733191Y-118191132D01*
X190618252Y-118241845D01*
X190531981Y-118281591D01*
X190489466Y-118303948D01*
X190488064Y-118305114D01*
X190486571Y-118337411D01*
X190488641Y-118428572D01*
X190494329Y-118579765D01*
X190503689Y-118792160D01*
X190516775Y-119066926D01*
X190533644Y-119405232D01*
X190554349Y-119808247D01*
X190578946Y-120277141D01*
X190592333Y-120529376D01*
X190607724Y-120818418D01*
X190493307Y-120896817D01*
X190318535Y-121054613D01*
X190194854Y-121246236D01*
X190122765Y-121460473D01*
X190102770Y-121686113D01*
X190135368Y-121911944D01*
X190221061Y-122126755D01*
X190360350Y-122319333D01*
X190426864Y-122383847D01*
X190636505Y-122527461D01*
X190862983Y-122605917D01*
X191102204Y-122618406D01*
X191345305Y-122565775D01*
X191567911Y-122456186D01*
X191746370Y-122302280D01*
X191877367Y-122113781D01*
X191957586Y-121900414D01*
X191983712Y-121671904D01*
X191981875Y-121658162D01*
X191384980Y-121658162D01*
X191362959Y-121799817D01*
X191275895Y-121928865D01*
X191224221Y-121974923D01*
X191137652Y-122008822D01*
X191019599Y-122014530D01*
X190900352Y-121991633D01*
X190870292Y-121979774D01*
X190799126Y-121923513D01*
X190736374Y-121836575D01*
X190730081Y-121824081D01*
X190692218Y-121683957D01*
X190708891Y-121558442D01*
X190768458Y-121453538D01*
X190859281Y-121375249D01*
X190969720Y-121329576D01*
X191088134Y-121322523D01*
X191202885Y-121360091D01*
X191302332Y-121448285D01*
X191340627Y-121509225D01*
X191384980Y-121658162D01*
X191981875Y-121658162D01*
X191952432Y-121437974D01*
X191860430Y-121208349D01*
X191827173Y-121152155D01*
X191723526Y-120988720D01*
X192068542Y-120123460D01*
X192308118Y-119523617D01*
X192523779Y-118985754D01*
X192716023Y-118508670D01*
X192885347Y-118091165D01*
X193032249Y-117732036D01*
X193157227Y-117430083D01*
X193260779Y-117184105D01*
X193343402Y-116992902D01*
X193405593Y-116855272D01*
X193447852Y-116770014D01*
X193470674Y-116735927D01*
X193472742Y-116735133D01*
X193598188Y-116713880D01*
X193748469Y-116657509D01*
X193898886Y-116577105D01*
X193955714Y-116535560D01*
X190376025Y-116535560D01*
X190376000Y-116691586D01*
X188725000Y-117413950D01*
X188381397Y-117564355D01*
X188032958Y-117717004D01*
X187689160Y-117867735D01*
X187359481Y-118012389D01*
X187053398Y-118146805D01*
X186780388Y-118266823D01*
X186549930Y-118368283D01*
X186371500Y-118447025D01*
X186362800Y-118450872D01*
X186157386Y-118540944D01*
X185971373Y-118621025D01*
X185814112Y-118687211D01*
X185694953Y-118735596D01*
X185623246Y-118762276D01*
X185607608Y-118766282D01*
X185569532Y-118753173D01*
X185474930Y-118715096D01*
X185329260Y-118654384D01*
X185137982Y-118573375D01*
X184906556Y-118474403D01*
X184640439Y-118359803D01*
X184345092Y-118231912D01*
X184025974Y-118093064D01*
X183688544Y-117945595D01*
X183660275Y-117933212D01*
X183178042Y-117721935D01*
X182754082Y-117536211D01*
X182384635Y-117374400D01*
X182065939Y-117234865D01*
X181794230Y-117115966D01*
X181565749Y-117016066D01*
X181376732Y-116933525D01*
X181223417Y-116866705D01*
X181102043Y-116813967D01*
X181008849Y-116773673D01*
X180940071Y-116744184D01*
X180891949Y-116723862D01*
X180860720Y-116711069D01*
X180842622Y-116704164D01*
X180833893Y-116701511D01*
X180831913Y-116701266D01*
X180828201Y-116669660D01*
X180828331Y-116583634D01*
X180832064Y-116456380D01*
X180839047Y-116303333D01*
X180844620Y-116196524D01*
X180853273Y-116029493D01*
X180864626Y-115809663D01*
X180878296Y-115544458D01*
X180893901Y-115241300D01*
X180911058Y-114907613D01*
X180929386Y-114550820D01*
X180948503Y-114178343D01*
X180965009Y-113856467D01*
X180984301Y-113489885D01*
X181003516Y-113143219D01*
X181022260Y-112822417D01*
X181040138Y-112533428D01*
X181056756Y-112282199D01*
X181071722Y-112074678D01*
X181084641Y-111916814D01*
X181095119Y-111814556D01*
X181102762Y-111773850D01*
X181102919Y-111773667D01*
X181108325Y-111766477D01*
X181113196Y-111760159D01*
X181119983Y-111757529D01*
X181131136Y-111761409D01*
X181149107Y-111774616D01*
X181176345Y-111799969D01*
X181215302Y-111840288D01*
X181268428Y-111898392D01*
X181338174Y-111977099D01*
X181426991Y-112079230D01*
X181537328Y-112207602D01*
X181671638Y-112365035D01*
X181832370Y-112554348D01*
X182021976Y-112778359D01*
X182242905Y-113039889D01*
X182497609Y-113341756D01*
X182788538Y-113686778D01*
X183118144Y-114077776D01*
X183488875Y-114517568D01*
X183508259Y-114540561D01*
X183805467Y-114892903D01*
X184090298Y-115230168D01*
X184359727Y-115548796D01*
X184610729Y-115845228D01*
X184840280Y-116115907D01*
X185045353Y-116357271D01*
X185222925Y-116565764D01*
X185369971Y-116737826D01*
X185483466Y-116869897D01*
X185560384Y-116958420D01*
X185597702Y-116999835D01*
X185600800Y-117002558D01*
X185624686Y-116977248D01*
X185688904Y-116903890D01*
X185790217Y-116786295D01*
X185925387Y-116628272D01*
X186091175Y-116433634D01*
X186284343Y-116206190D01*
X186501653Y-115949752D01*
X186739867Y-115668130D01*
X186995746Y-115365135D01*
X187266053Y-115044577D01*
X187429600Y-114850405D01*
X187826412Y-114379141D01*
X188181905Y-113957084D01*
X188498336Y-113581590D01*
X188777966Y-113250013D01*
X189023053Y-112959709D01*
X189235857Y-112708032D01*
X189418638Y-112492339D01*
X189573653Y-112309984D01*
X189703163Y-112158322D01*
X189809427Y-112034709D01*
X189894704Y-111936499D01*
X189961254Y-111861048D01*
X190011334Y-111805711D01*
X190047206Y-111767842D01*
X190071127Y-111744798D01*
X190085357Y-111733933D01*
X190092156Y-111732603D01*
X190092543Y-111732920D01*
X190101021Y-111770875D01*
X190112634Y-111862901D01*
X190125897Y-111995495D01*
X190139329Y-112155155D01*
X190140285Y-112167615D01*
X190148586Y-112286725D01*
X190159582Y-112459977D01*
X190172871Y-112679955D01*
X190188054Y-112939245D01*
X190204731Y-113230434D01*
X190222500Y-113546108D01*
X190240963Y-113878852D01*
X190259719Y-114221252D01*
X190278368Y-114565894D01*
X190296510Y-114905365D01*
X190313744Y-115232249D01*
X190329671Y-115539133D01*
X190343890Y-115818604D01*
X190356001Y-116063246D01*
X190365604Y-116265645D01*
X190372299Y-116418388D01*
X190375686Y-116514061D01*
X190376025Y-116535560D01*
X193955714Y-116535560D01*
X194016603Y-116491047D01*
X194184831Y-116304930D01*
X194289836Y-116096434D01*
X194333828Y-115860677D01*
X194335493Y-115786866D01*
X194331417Y-115712901D01*
X193736925Y-115712901D01*
X193734876Y-115850078D01*
X193728549Y-115872293D01*
X193652703Y-116009284D01*
X193538507Y-116094494D01*
X193396238Y-116123294D01*
X193239757Y-116092436D01*
X193143944Y-116023245D01*
X193084280Y-115914354D01*
X193063202Y-115784808D01*
X193083147Y-115653653D01*
X193146551Y-115539937D01*
X193166434Y-115519283D01*
X193270232Y-115462054D01*
X193402056Y-115441686D01*
X193531639Y-115460551D01*
X193587538Y-115486307D01*
X193684850Y-115583534D01*
X193736925Y-115712901D01*
X194331417Y-115712901D01*
X194328066Y-115652094D01*
X194311123Y-115528460D01*
X194293490Y-115458900D01*
X194179783Y-115241994D01*
X194019636Y-115067161D01*
X193823025Y-114938988D01*
X193599923Y-114862059D01*
X193360305Y-114840961D01*
X193114145Y-114880281D01*
X193067158Y-114895062D01*
X192896246Y-114983114D01*
X192735254Y-115118948D01*
X192603520Y-115283270D01*
X192528398Y-115432592D01*
X192485854Y-115551033D01*
X192446498Y-115659456D01*
X192432380Y-115697874D01*
X192414591Y-115734806D01*
X192385215Y-115770191D01*
X192336827Y-115808123D01*
X192262002Y-115852694D01*
X192153316Y-115907998D01*
X192003343Y-115978128D01*
X191804659Y-116067175D01*
X191595200Y-116159365D01*
X191423399Y-116234533D01*
X191303838Y-116284540D01*
X191226444Y-116310772D01*
X191181145Y-116314617D01*
X191157867Y-116297461D01*
X191146537Y-116260692D01*
X191139987Y-116222049D01*
X191134156Y-116164766D01*
X191125250Y-116046282D01*
X191113633Y-115873040D01*
X191099672Y-115651484D01*
X191083732Y-115388058D01*
X191066179Y-115089207D01*
X191047379Y-114761374D01*
X191027697Y-114411004D01*
X191007499Y-114044540D01*
X190987151Y-113668427D01*
X190967019Y-113289108D01*
X190947469Y-112913028D01*
X190928865Y-112546631D01*
X190911992Y-112204949D01*
X190870407Y-111349298D01*
X190953403Y-111292136D01*
X191138813Y-111128022D01*
X191270996Y-110934741D01*
X191350672Y-110722314D01*
X191378560Y-110500758D01*
X191378224Y-110497553D01*
X190782400Y-110497553D01*
X190772888Y-110591953D01*
X190734459Y-110665172D01*
X190658439Y-110740956D01*
X190572157Y-110808243D01*
X190500167Y-110835436D01*
X190412055Y-110833325D01*
X190401810Y-110832001D01*
X190298011Y-110805702D01*
X190214743Y-110764107D01*
X190205313Y-110756441D01*
X190119000Y-110638267D01*
X190089355Y-110504028D01*
X190113872Y-110370621D01*
X190190046Y-110254943D01*
X190290037Y-110184818D01*
X190425906Y-110144552D01*
X190547696Y-110165156D01*
X190668153Y-110249239D01*
X190685140Y-110265729D01*
X190757030Y-110360550D01*
X190781722Y-110468711D01*
X190782400Y-110497553D01*
X191378224Y-110497553D01*
X191355379Y-110280093D01*
X191281848Y-110070338D01*
X191158687Y-109881511D01*
X190986615Y-109723633D01*
X190834491Y-109635515D01*
X190662855Y-109581447D01*
X190463090Y-109557672D01*
X190265159Y-109565655D01*
G37*
X190265159Y-109565655D02*
X190115767Y-109600310D01*
X189898993Y-109713917D01*
X189724305Y-109873707D01*
X189596212Y-110069509D01*
X189519222Y-110291150D01*
X189497843Y-110528461D01*
X189536585Y-110771269D01*
X189562461Y-110848587D01*
X189599361Y-110955698D01*
X189609170Y-111021373D01*
X189593778Y-111065395D01*
X189584346Y-111077550D01*
X189554663Y-111112381D01*
X189485124Y-111194076D01*
X189379754Y-111317904D01*
X189242580Y-111479134D01*
X189077626Y-111673033D01*
X188888919Y-111894870D01*
X188680484Y-112139913D01*
X188456346Y-112403429D01*
X188257460Y-112637267D01*
X187997090Y-112943273D01*
X187728162Y-113259106D01*
X187457819Y-113576388D01*
X187193208Y-113886745D01*
X186941471Y-114181800D01*
X186709754Y-114453177D01*
X186505201Y-114692500D01*
X186334957Y-114891395D01*
X186286697Y-114947693D01*
X185597712Y-115751054D01*
X183631450Y-113457560D01*
X183339839Y-113117254D01*
X183060261Y-112790672D01*
X182795945Y-112481603D01*
X182550118Y-112193835D01*
X182326010Y-111931160D01*
X182126847Y-111697366D01*
X181955859Y-111496242D01*
X181816274Y-111331578D01*
X181711319Y-111207163D01*
X181644224Y-111126787D01*
X181618557Y-111094772D01*
X181594499Y-111045464D01*
X181594346Y-110988062D01*
X181619934Y-110900533D01*
X181639030Y-110848876D01*
X181698046Y-110606356D01*
X181696576Y-110467545D01*
X181101207Y-110467545D01*
X181091424Y-110598462D01*
X181026607Y-110713729D01*
X180951298Y-110775763D01*
X180813315Y-110833776D01*
X180681773Y-110829207D01*
X180593445Y-110794073D01*
X180492779Y-110709050D01*
X180436382Y-110592918D01*
X180423334Y-110463102D01*
X180452718Y-110337028D01*
X180523614Y-110232119D01*
X180626425Y-110168672D01*
X180748931Y-110136360D01*
X180841333Y-110144235D01*
X180930725Y-110196206D01*
X180955265Y-110216115D01*
X181055855Y-110335317D01*
X181101207Y-110467545D01*
X181696576Y-110467545D01*
X181695501Y-110366116D01*
X181635895Y-110138315D01*
X181523730Y-109933109D01*
X181363505Y-109760658D01*
X181159721Y-109631118D01*
X181085834Y-109600310D01*
X180914458Y-109563044D01*
X180714772Y-109558834D01*
X180516741Y-109586212D01*
X180367110Y-109635515D01*
X180177563Y-109757424D01*
X180017146Y-109925818D01*
X179896092Y-110125070D01*
X179824636Y-110339552D01*
X179809600Y-110486733D01*
X179840458Y-110704110D01*
X179926186Y-110920286D01*
X180056511Y-111115500D01*
X180214014Y-111264818D01*
X180282454Y-111320463D01*
X180315863Y-111373643D01*
X180325121Y-111450579D01*
X180323246Y-111528060D01*
X180313440Y-111752759D01*
X180300982Y-112016225D01*
X180286243Y-112312087D01*
X180269595Y-112633977D01*
X180251408Y-112975527D01*
X180232053Y-113330367D01*
X180211902Y-113692128D01*
X180191325Y-114054442D01*
X180170694Y-114410940D01*
X180150379Y-114755253D01*
X180130753Y-115081011D01*
X180112184Y-115381847D01*
X180095046Y-115651391D01*
X180079709Y-115883275D01*
X180066544Y-116071129D01*
X180055921Y-116208585D01*
X180048213Y-116289274D01*
X180044723Y-116308599D01*
X180005114Y-116305558D01*
X179911957Y-116276628D01*
X179773016Y-116224701D01*
X179596054Y-116152673D01*
X179398671Y-116067769D01*
X178781527Y-115796273D01*
X178775583Y-115774558D01*
X178150108Y-115774558D01*
X178129573Y-115898844D01*
X178060218Y-116011748D01*
X177963867Y-116086225D01*
X177829995Y-116123742D01*
X177689232Y-116102743D01*
X177578150Y-116038825D01*
X177483515Y-115920761D01*
X177448892Y-115784054D01*
X177477390Y-115642912D01*
X177487087Y-115622651D01*
X177560013Y-115520793D01*
X177657805Y-115465883D01*
X177798399Y-115448284D01*
X177811846Y-115448200D01*
X177952690Y-115475712D01*
X178058275Y-115548763D01*
X178125211Y-115653121D01*
X178150108Y-115774558D01*
X178775583Y-115774558D01*
X178724819Y-115589107D01*
X178626906Y-115340476D01*
X178486125Y-115137266D01*
X178310073Y-114983096D01*
X178106348Y-114881587D01*
X177882548Y-114836359D01*
X177646270Y-114851032D01*
X177405113Y-114929228D01*
X177372656Y-114944819D01*
X177162828Y-115082016D01*
X177009292Y-115256308D01*
X176911359Y-115468844D01*
X176868336Y-115720772D01*
X176866108Y-115786866D01*
X176895662Y-116029723D01*
X176984672Y-116250794D01*
X177125992Y-116440616D01*
X177312475Y-116589725D01*
X177536974Y-116688656D01*
X177549878Y-116692341D01*
X177664481Y-116728251D01*
X177735463Y-116767397D01*
X177785477Y-116826988D01*
X177826285Y-116902278D01*
X177852455Y-116960769D01*
X177901324Y-117076266D01*
X177970485Y-117242870D01*
X178057528Y-117454678D01*
X178160047Y-117705790D01*
X178275632Y-117990306D01*
X178401874Y-118302323D01*
X178536367Y-118635942D01*
X178676700Y-118985261D01*
X178691399Y-119021920D01*
X179479183Y-120986973D01*
X179374981Y-121151282D01*
X179266620Y-121378925D01*
X179219995Y-121612763D01*
X179231630Y-121843270D01*
X179298048Y-122060922D01*
X179415771Y-122256194D01*
X179581322Y-122419561D01*
X179791224Y-122541498D01*
X179896355Y-122579456D01*
X180143616Y-122621946D01*
X180379405Y-122597825D01*
X180601776Y-122507542D01*
X180783844Y-122374595D01*
X180943407Y-122200697D01*
X181042944Y-122014009D01*
X181087995Y-121800725D01*
X181089265Y-121613413D01*
X181089110Y-121611943D01*
X180500145Y-121611943D01*
X180498726Y-121742179D01*
X180485633Y-121784406D01*
X180403014Y-121908706D01*
X180285957Y-121988808D01*
X180151149Y-122018905D01*
X180015278Y-121993187D01*
X179964233Y-121965882D01*
X179872234Y-121869445D01*
X179824980Y-121743186D01*
X179823587Y-121607596D01*
X179869172Y-121483167D01*
X179933960Y-121410201D01*
X180044189Y-121358496D01*
X180179742Y-121341537D01*
X180309742Y-121360602D01*
X180375206Y-121391905D01*
X180456291Y-121485656D01*
X180500145Y-121611943D01*
X181089110Y-121611943D01*
X181073944Y-121468754D01*
X181048447Y-121338840D01*
X181018420Y-121251163D01*
X180940509Y-121134367D01*
X180830238Y-121007426D01*
X180711995Y-120897175D01*
X180663666Y-120860825D01*
X180586398Y-120808194D01*
X180655401Y-119562087D01*
X180670786Y-119278803D01*
X180684396Y-119017524D01*
X180695881Y-118785797D01*
X180704894Y-118591163D01*
X180711085Y-118441168D01*
X180714106Y-118343353D01*
X180713608Y-118305264D01*
X180713493Y-118305071D01*
X180677151Y-118285276D01*
X180595288Y-118247289D01*
X180482991Y-118197537D01*
X180355344Y-118142452D01*
X180227432Y-118088464D01*
X180114341Y-118042001D01*
X180031155Y-118009495D01*
X179992960Y-117997374D01*
X179992121Y-117997590D01*
X179987672Y-118032629D01*
X179980119Y-118126446D01*
X179970056Y-118270184D01*
X179958075Y-118454991D01*
X179944772Y-118672010D01*
X179930739Y-118912388D01*
X179930464Y-118917202D01*
X179916295Y-119158166D01*
X179902625Y-119376139D01*
X179890080Y-119562223D01*
X179879287Y-119707518D01*
X179870875Y-119803125D01*
X179865469Y-119840144D01*
X179865408Y-119840214D01*
X179848112Y-119814291D01*
X179807350Y-119727875D01*
X179744216Y-119583601D01*
X179659799Y-119384100D01*
X179555192Y-119132006D01*
X179431486Y-118829952D01*
X179289773Y-118480570D01*
X179131143Y-118086495D01*
X178956688Y-117650359D01*
X178930871Y-117585610D01*
X178832648Y-117337694D01*
X178743723Y-117110391D01*
X178666936Y-116911183D01*
X178605127Y-116747557D01*
X178561134Y-116626996D01*
X178537797Y-116556986D01*
X178535014Y-116542164D01*
X178566986Y-116553173D01*
X178654220Y-116588398D01*
X178789924Y-116644908D01*
X178967306Y-116719773D01*
X179179573Y-116810060D01*
X179419932Y-116912838D01*
X179681591Y-117025177D01*
X179957758Y-117144144D01*
X180241640Y-117266810D01*
X180526444Y-117390241D01*
X180805379Y-117511508D01*
X181071651Y-117627678D01*
X181318469Y-117735821D01*
X181539039Y-117833005D01*
X181726570Y-117916300D01*
X181874268Y-117982773D01*
X181892400Y-117991035D01*
X181960034Y-118021301D01*
X182082245Y-118075349D01*
X182251521Y-118149890D01*
X182460350Y-118241636D01*
X182701220Y-118347300D01*
X182966620Y-118463593D01*
X183249037Y-118587227D01*
X183540959Y-118714915D01*
X183834875Y-118843368D01*
X184123272Y-118969297D01*
X184398639Y-119089416D01*
X184653464Y-119200436D01*
X184880234Y-119299069D01*
X184949126Y-119328988D01*
X185601318Y-119612097D01*
X186727126Y-119117835D01*
X187011728Y-118992981D01*
X187299495Y-118866911D01*
X187578900Y-118744664D01*
X187838416Y-118631276D01*
X188066517Y-118531785D01*
X188251676Y-118451228D01*
X188344000Y-118411208D01*
X188471740Y-118355753D01*
X188653414Y-118276574D01*
X188880948Y-118177204D01*
X189146268Y-118061177D01*
X189441300Y-117932026D01*
X189757971Y-117793283D01*
X190088207Y-117648482D01*
X190423934Y-117501156D01*
X190511467Y-117462724D01*
X190930038Y-117278991D01*
X191290893Y-117120767D01*
X191598293Y-116986240D01*
X191856499Y-116873598D01*
X192069772Y-116781027D01*
X192242375Y-116706714D01*
X192378568Y-116648847D01*
X192482612Y-116605612D01*
X192558770Y-116575196D01*
X192611302Y-116555787D01*
X192644470Y-116545572D01*
X192662535Y-116542737D01*
X192669172Y-116544749D01*
X192659628Y-116577872D01*
X192627107Y-116667687D01*
X192573987Y-116808079D01*
X192502644Y-116992933D01*
X192415456Y-117216132D01*
X192314799Y-117471560D01*
X192203051Y-117753101D01*
X192082590Y-118054640D01*
X192073425Y-118077504D01*
X191921216Y-118457141D01*
X191792240Y-118778678D01*
X191684515Y-119046881D01*
X191596057Y-119266515D01*
X191524885Y-119442346D01*
X191469016Y-119579139D01*
X191426467Y-119681659D01*
X191395256Y-119754672D01*
X191373400Y-119802943D01*
X191358916Y-119831236D01*
X191349822Y-119844319D01*
X191344135Y-119846955D01*
X191339873Y-119843911D01*
X191338925Y-119842947D01*
X191333043Y-119806435D01*
X191324190Y-119711212D01*
X191313014Y-119566203D01*
X191300162Y-119380332D01*
X191286282Y-119162524D01*
X191272021Y-118921705D01*
X191271802Y-118917868D01*
X191257731Y-118677098D01*
X191244361Y-118459497D01*
X191232289Y-118273924D01*
X191222112Y-118129237D01*
X191214427Y-118034295D01*
X191209832Y-117997954D01*
X191209777Y-117997888D01*
X191177838Y-118007083D01*
X191099120Y-118037429D01*
X190988714Y-118082501D01*
X190861708Y-118135876D01*
X190733191Y-118191132D01*
X190618252Y-118241845D01*
X190531981Y-118281591D01*
X190489466Y-118303948D01*
X190488064Y-118305114D01*
X190486571Y-118337411D01*
X190488641Y-118428572D01*
X190494329Y-118579765D01*
X190503689Y-118792160D01*
X190516775Y-119066926D01*
X190533644Y-119405232D01*
X190554349Y-119808247D01*
X190578946Y-120277141D01*
X190592333Y-120529376D01*
X190607724Y-120818418D01*
X190493307Y-120896817D01*
X190318535Y-121054613D01*
X190194854Y-121246236D01*
X190122765Y-121460473D01*
X190102770Y-121686113D01*
X190135368Y-121911944D01*
X190221061Y-122126755D01*
X190360350Y-122319333D01*
X190426864Y-122383847D01*
X190636505Y-122527461D01*
X190862983Y-122605917D01*
X191102204Y-122618406D01*
X191345305Y-122565775D01*
X191567911Y-122456186D01*
X191746370Y-122302280D01*
X191877367Y-122113781D01*
X191957586Y-121900414D01*
X191983712Y-121671904D01*
X191981875Y-121658162D01*
X191384980Y-121658162D01*
X191362959Y-121799817D01*
X191275895Y-121928865D01*
X191224221Y-121974923D01*
X191137652Y-122008822D01*
X191019599Y-122014530D01*
X190900352Y-121991633D01*
X190870292Y-121979774D01*
X190799126Y-121923513D01*
X190736374Y-121836575D01*
X190730081Y-121824081D01*
X190692218Y-121683957D01*
X190708891Y-121558442D01*
X190768458Y-121453538D01*
X190859281Y-121375249D01*
X190969720Y-121329576D01*
X191088134Y-121322523D01*
X191202885Y-121360091D01*
X191302332Y-121448285D01*
X191340627Y-121509225D01*
X191384980Y-121658162D01*
X191981875Y-121658162D01*
X191952432Y-121437974D01*
X191860430Y-121208349D01*
X191827173Y-121152155D01*
X191723526Y-120988720D01*
X192068542Y-120123460D01*
X192308118Y-119523617D01*
X192523779Y-118985754D01*
X192716023Y-118508670D01*
X192885347Y-118091165D01*
X193032249Y-117732036D01*
X193157227Y-117430083D01*
X193260779Y-117184105D01*
X193343402Y-116992902D01*
X193405593Y-116855272D01*
X193447852Y-116770014D01*
X193470674Y-116735927D01*
X193472742Y-116735133D01*
X193598188Y-116713880D01*
X193748469Y-116657509D01*
X193898886Y-116577105D01*
X193955714Y-116535560D01*
X190376025Y-116535560D01*
X190376000Y-116691586D01*
X188725000Y-117413950D01*
X188381397Y-117564355D01*
X188032958Y-117717004D01*
X187689160Y-117867735D01*
X187359481Y-118012389D01*
X187053398Y-118146805D01*
X186780388Y-118266823D01*
X186549930Y-118368283D01*
X186371500Y-118447025D01*
X186362800Y-118450872D01*
X186157386Y-118540944D01*
X185971373Y-118621025D01*
X185814112Y-118687211D01*
X185694953Y-118735596D01*
X185623246Y-118762276D01*
X185607608Y-118766282D01*
X185569532Y-118753173D01*
X185474930Y-118715096D01*
X185329260Y-118654384D01*
X185137982Y-118573375D01*
X184906556Y-118474403D01*
X184640439Y-118359803D01*
X184345092Y-118231912D01*
X184025974Y-118093064D01*
X183688544Y-117945595D01*
X183660275Y-117933212D01*
X183178042Y-117721935D01*
X182754082Y-117536211D01*
X182384635Y-117374400D01*
X182065939Y-117234865D01*
X181794230Y-117115966D01*
X181565749Y-117016066D01*
X181376732Y-116933525D01*
X181223417Y-116866705D01*
X181102043Y-116813967D01*
X181008849Y-116773673D01*
X180940071Y-116744184D01*
X180891949Y-116723862D01*
X180860720Y-116711069D01*
X180842622Y-116704164D01*
X180833893Y-116701511D01*
X180831913Y-116701266D01*
X180828201Y-116669660D01*
X180828331Y-116583634D01*
X180832064Y-116456380D01*
X180839047Y-116303333D01*
X180844620Y-116196524D01*
X180853273Y-116029493D01*
X180864626Y-115809663D01*
X180878296Y-115544458D01*
X180893901Y-115241300D01*
X180911058Y-114907613D01*
X180929386Y-114550820D01*
X180948503Y-114178343D01*
X180965009Y-113856467D01*
X180984301Y-113489885D01*
X181003516Y-113143219D01*
X181022260Y-112822417D01*
X181040138Y-112533428D01*
X181056756Y-112282199D01*
X181071722Y-112074678D01*
X181084641Y-111916814D01*
X181095119Y-111814556D01*
X181102762Y-111773850D01*
X181102919Y-111773667D01*
X181108325Y-111766477D01*
X181113196Y-111760159D01*
X181119983Y-111757529D01*
X181131136Y-111761409D01*
X181149107Y-111774616D01*
X181176345Y-111799969D01*
X181215302Y-111840288D01*
X181268428Y-111898392D01*
X181338174Y-111977099D01*
X181426991Y-112079230D01*
X181537328Y-112207602D01*
X181671638Y-112365035D01*
X181832370Y-112554348D01*
X182021976Y-112778359D01*
X182242905Y-113039889D01*
X182497609Y-113341756D01*
X182788538Y-113686778D01*
X183118144Y-114077776D01*
X183488875Y-114517568D01*
X183508259Y-114540561D01*
X183805467Y-114892903D01*
X184090298Y-115230168D01*
X184359727Y-115548796D01*
X184610729Y-115845228D01*
X184840280Y-116115907D01*
X185045353Y-116357271D01*
X185222925Y-116565764D01*
X185369971Y-116737826D01*
X185483466Y-116869897D01*
X185560384Y-116958420D01*
X185597702Y-116999835D01*
X185600800Y-117002558D01*
X185624686Y-116977248D01*
X185688904Y-116903890D01*
X185790217Y-116786295D01*
X185925387Y-116628272D01*
X186091175Y-116433634D01*
X186284343Y-116206190D01*
X186501653Y-115949752D01*
X186739867Y-115668130D01*
X186995746Y-115365135D01*
X187266053Y-115044577D01*
X187429600Y-114850405D01*
X187826412Y-114379141D01*
X188181905Y-113957084D01*
X188498336Y-113581590D01*
X188777966Y-113250013D01*
X189023053Y-112959709D01*
X189235857Y-112708032D01*
X189418638Y-112492339D01*
X189573653Y-112309984D01*
X189703163Y-112158322D01*
X189809427Y-112034709D01*
X189894704Y-111936499D01*
X189961254Y-111861048D01*
X190011334Y-111805711D01*
X190047206Y-111767842D01*
X190071127Y-111744798D01*
X190085357Y-111733933D01*
X190092156Y-111732603D01*
X190092543Y-111732920D01*
X190101021Y-111770875D01*
X190112634Y-111862901D01*
X190125897Y-111995495D01*
X190139329Y-112155155D01*
X190140285Y-112167615D01*
X190148586Y-112286725D01*
X190159582Y-112459977D01*
X190172871Y-112679955D01*
X190188054Y-112939245D01*
X190204731Y-113230434D01*
X190222500Y-113546108D01*
X190240963Y-113878852D01*
X190259719Y-114221252D01*
X190278368Y-114565894D01*
X190296510Y-114905365D01*
X190313744Y-115232249D01*
X190329671Y-115539133D01*
X190343890Y-115818604D01*
X190356001Y-116063246D01*
X190365604Y-116265645D01*
X190372299Y-116418388D01*
X190375686Y-116514061D01*
X190376025Y-116535560D01*
X193955714Y-116535560D01*
X194016603Y-116491047D01*
X194184831Y-116304930D01*
X194289836Y-116096434D01*
X194333828Y-115860677D01*
X194335493Y-115786866D01*
X194331417Y-115712901D01*
X193736925Y-115712901D01*
X193734876Y-115850078D01*
X193728549Y-115872293D01*
X193652703Y-116009284D01*
X193538507Y-116094494D01*
X193396238Y-116123294D01*
X193239757Y-116092436D01*
X193143944Y-116023245D01*
X193084280Y-115914354D01*
X193063202Y-115784808D01*
X193083147Y-115653653D01*
X193146551Y-115539937D01*
X193166434Y-115519283D01*
X193270232Y-115462054D01*
X193402056Y-115441686D01*
X193531639Y-115460551D01*
X193587538Y-115486307D01*
X193684850Y-115583534D01*
X193736925Y-115712901D01*
X194331417Y-115712901D01*
X194328066Y-115652094D01*
X194311123Y-115528460D01*
X194293490Y-115458900D01*
X194179783Y-115241994D01*
X194019636Y-115067161D01*
X193823025Y-114938988D01*
X193599923Y-114862059D01*
X193360305Y-114840961D01*
X193114145Y-114880281D01*
X193067158Y-114895062D01*
X192896246Y-114983114D01*
X192735254Y-115118948D01*
X192603520Y-115283270D01*
X192528398Y-115432592D01*
X192485854Y-115551033D01*
X192446498Y-115659456D01*
X192432380Y-115697874D01*
X192414591Y-115734806D01*
X192385215Y-115770191D01*
X192336827Y-115808123D01*
X192262002Y-115852694D01*
X192153316Y-115907998D01*
X192003343Y-115978128D01*
X191804659Y-116067175D01*
X191595200Y-116159365D01*
X191423399Y-116234533D01*
X191303838Y-116284540D01*
X191226444Y-116310772D01*
X191181145Y-116314617D01*
X191157867Y-116297461D01*
X191146537Y-116260692D01*
X191139987Y-116222049D01*
X191134156Y-116164766D01*
X191125250Y-116046282D01*
X191113633Y-115873040D01*
X191099672Y-115651484D01*
X191083732Y-115388058D01*
X191066179Y-115089207D01*
X191047379Y-114761374D01*
X191027697Y-114411004D01*
X191007499Y-114044540D01*
X190987151Y-113668427D01*
X190967019Y-113289108D01*
X190947469Y-112913028D01*
X190928865Y-112546631D01*
X190911992Y-112204949D01*
X190870407Y-111349298D01*
X190953403Y-111292136D01*
X191138813Y-111128022D01*
X191270996Y-110934741D01*
X191350672Y-110722314D01*
X191378560Y-110500758D01*
X191378224Y-110497553D01*
X190782400Y-110497553D01*
X190772888Y-110591953D01*
X190734459Y-110665172D01*
X190658439Y-110740956D01*
X190572157Y-110808243D01*
X190500167Y-110835436D01*
X190412055Y-110833325D01*
X190401810Y-110832001D01*
X190298011Y-110805702D01*
X190214743Y-110764107D01*
X190205313Y-110756441D01*
X190119000Y-110638267D01*
X190089355Y-110504028D01*
X190113872Y-110370621D01*
X190190046Y-110254943D01*
X190290037Y-110184818D01*
X190425906Y-110144552D01*
X190547696Y-110165156D01*
X190668153Y-110249239D01*
X190685140Y-110265729D01*
X190757030Y-110360550D01*
X190781722Y-110468711D01*
X190782400Y-110497553D01*
X191378224Y-110497553D01*
X191355379Y-110280093D01*
X191281848Y-110070338D01*
X191158687Y-109881511D01*
X190986615Y-109723633D01*
X190834491Y-109635515D01*
X190662855Y-109581447D01*
X190463090Y-109557672D01*
X190265159Y-109565655D01*
D14*
G04 #@! TO.C,J1*
X199590000Y-129830000D02*
X199590000Y-128500000D01*
X198260000Y-129830000D02*
X199590000Y-129830000D01*
X196990000Y-129830000D02*
X196990000Y-127170000D01*
X196990000Y-127170000D02*
X100410000Y-127170000D01*
X196990000Y-129830000D02*
X100410000Y-129830000D01*
X100410000Y-129830000D02*
X100410000Y-127170000D01*
G04 #@! TD*
M02*
