G04 #@! TF.GenerationSoftware,KiCad,Pcbnew,(5.1.5)-3*
G04 #@! TF.CreationDate,2020-05-28T15:24:42-05:00*
G04 #@! TF.ProjectId,TFT Breakout 39P,54465420-4272-4656-916b-6f7574203339,rev?*
G04 #@! TF.SameCoordinates,Original*
G04 #@! TF.FileFunction,Copper,L1,Top*
G04 #@! TF.FilePolarity,Positive*
%FSLAX46Y46*%
G04 Gerber Fmt 4.6, Leading zero omitted, Abs format (unit mm)*
G04 Created by KiCad (PCBNEW (5.1.5)-3) date 2020-05-28 15:24:42*
%MOMM*%
%LPD*%
G04 APERTURE LIST*
G04 #@! TA.AperFunction,Profile*
%ADD10C,0.050000*%
G04 #@! TD*
G04 #@! TA.AperFunction,ComponentPad*
%ADD11O,1.700000X1.700000*%
G04 #@! TD*
G04 #@! TA.AperFunction,ComponentPad*
%ADD12R,1.700000X1.700000*%
G04 #@! TD*
G04 #@! TA.AperFunction,SMDPad,CuDef*
%ADD13R,4.000000X0.400000*%
G04 #@! TD*
G04 #@! TA.AperFunction,Conductor*
%ADD14C,0.381000*%
G04 #@! TD*
G04 #@! TA.AperFunction,NonConductor*
%ADD15C,0.254000*%
G04 #@! TD*
G04 APERTURE END LIST*
D10*
X200000000Y-60000000D02*
X100000000Y-60000000D01*
X200000000Y-130000000D02*
X200000000Y-60000000D01*
X100000000Y-130000000D02*
X100000000Y-60000000D01*
X100000000Y-130000000D02*
X200000000Y-130000000D01*
D11*
G04 #@! TO.P,J1,39*
G04 #@! TO.N,BL_K1*
X101740000Y-128500000D03*
G04 #@! TO.P,J1,38*
G04 #@! TO.N,BL_K2*
X104280000Y-128500000D03*
G04 #@! TO.P,J1,37*
G04 #@! TO.N,BL_K3*
X106820000Y-128500000D03*
G04 #@! TO.P,J1,36*
G04 #@! TO.N,BL_K4*
X109360000Y-128500000D03*
G04 #@! TO.P,J1,35*
G04 #@! TO.N,BL_K5*
X111900000Y-128500000D03*
G04 #@! TO.P,J1,34*
G04 #@! TO.N,BL_K6*
X114440000Y-128500000D03*
G04 #@! TO.P,J1,33*
G04 #@! TO.N,TE*
X116980000Y-128500000D03*
G04 #@! TO.P,J1,32*
G04 #@! TO.N,BL_K7*
X119520000Y-128500000D03*
G04 #@! TO.P,J1,31*
G04 #@! TO.N,BL_K8*
X122060000Y-128500000D03*
G04 #@! TO.P,J1,30*
G04 #@! TO.N,BL_A*
X124600000Y-128500000D03*
G04 #@! TO.P,J1,29*
G04 #@! TO.N,GND2*
X127140000Y-128500000D03*
G04 #@! TO.P,J1,28*
G04 #@! TO.N,RESET*
X129680000Y-128500000D03*
G04 #@! TO.P,J1,27*
G04 #@! TO.N,VCC*
X132220000Y-128500000D03*
G04 #@! TO.P,J1,26*
G04 #@! TO.N,CS*
X134760000Y-128500000D03*
G04 #@! TO.P,J1,25*
G04 #@! TO.N,DC*
X137300000Y-128500000D03*
G04 #@! TO.P,J1,24*
G04 #@! TO.N,WR*
X139840000Y-128500000D03*
G04 #@! TO.P,J1,23*
G04 #@! TO.N,RD*
X142380000Y-128500000D03*
G04 #@! TO.P,J1,22*
G04 #@! TO.N,D0*
X144920000Y-128500000D03*
G04 #@! TO.P,J1,21*
G04 #@! TO.N,D1*
X147460000Y-128500000D03*
G04 #@! TO.P,J1,20*
G04 #@! TO.N,D2*
X150000000Y-128500000D03*
G04 #@! TO.P,J1,19*
G04 #@! TO.N,D3*
X152540000Y-128500000D03*
G04 #@! TO.P,J1,18*
G04 #@! TO.N,D4*
X155080000Y-128500000D03*
G04 #@! TO.P,J1,17*
G04 #@! TO.N,D5*
X157620000Y-128500000D03*
G04 #@! TO.P,J1,16*
G04 #@! TO.N,D6*
X160160000Y-128500000D03*
G04 #@! TO.P,J1,15*
G04 #@! TO.N,D7*
X162700000Y-128500000D03*
G04 #@! TO.P,J1,14*
G04 #@! TO.N,D8*
X165240000Y-128500000D03*
G04 #@! TO.P,J1,13*
G04 #@! TO.N,D9*
X167780000Y-128500000D03*
G04 #@! TO.P,J1,12*
G04 #@! TO.N,D10*
X170320000Y-128500000D03*
G04 #@! TO.P,J1,11*
G04 #@! TO.N,D11*
X172860000Y-128500000D03*
G04 #@! TO.P,J1,10*
G04 #@! TO.N,D12*
X175400000Y-128500000D03*
G04 #@! TO.P,J1,9*
G04 #@! TO.N,D13*
X177940000Y-128500000D03*
G04 #@! TO.P,J1,8*
G04 #@! TO.N,D14*
X180480000Y-128500000D03*
G04 #@! TO.P,J1,7*
G04 #@! TO.N,D15*
X183020000Y-128500000D03*
G04 #@! TO.P,J1,6*
G04 #@! TO.N,NC*
X185560000Y-128500000D03*
G04 #@! TO.P,J1,5*
G04 #@! TO.N,GND1*
X188100000Y-128500000D03*
G04 #@! TO.P,J1,4*
G04 #@! TO.N,TS_Y-*
X190640000Y-128500000D03*
G04 #@! TO.P,J1,3*
G04 #@! TO.N,TS_X-*
X193180000Y-128500000D03*
G04 #@! TO.P,J1,2*
G04 #@! TO.N,TS_Y+*
X195720000Y-128500000D03*
D12*
G04 #@! TO.P,J1,1*
G04 #@! TO.N,TS_X+*
X198260000Y-128500000D03*
G04 #@! TD*
D13*
G04 #@! TO.P,DS1,1*
G04 #@! TO.N,TS_X+*
X122490000Y-80560000D03*
G04 #@! TO.P,DS1,2*
G04 #@! TO.N,TS_Y+*
X122490000Y-81360000D03*
G04 #@! TO.P,DS1,3*
G04 #@! TO.N,TS_X-*
X122490000Y-82160000D03*
G04 #@! TO.P,DS1,4*
G04 #@! TO.N,TS_Y-*
X122490000Y-82960000D03*
G04 #@! TO.P,DS1,5*
G04 #@! TO.N,GND1*
X122490000Y-83760000D03*
G04 #@! TO.P,DS1,6*
G04 #@! TO.N,NC*
X122490000Y-84560000D03*
G04 #@! TO.P,DS1,7*
G04 #@! TO.N,D15*
X122490000Y-85360000D03*
G04 #@! TO.P,DS1,8*
G04 #@! TO.N,D14*
X122490000Y-86160000D03*
G04 #@! TO.P,DS1,9*
G04 #@! TO.N,D13*
X122490000Y-86960000D03*
G04 #@! TO.P,DS1,10*
G04 #@! TO.N,D12*
X122490000Y-87760000D03*
G04 #@! TO.P,DS1,11*
G04 #@! TO.N,D11*
X122490000Y-88560000D03*
G04 #@! TO.P,DS1,12*
G04 #@! TO.N,D10*
X122490000Y-89360000D03*
G04 #@! TO.P,DS1,13*
G04 #@! TO.N,D9*
X122490000Y-90160000D03*
G04 #@! TO.P,DS1,14*
G04 #@! TO.N,D8*
X122490000Y-90960000D03*
G04 #@! TO.P,DS1,15*
G04 #@! TO.N,D7*
X122490000Y-91760000D03*
G04 #@! TO.P,DS1,16*
G04 #@! TO.N,D6*
X122490000Y-92560000D03*
G04 #@! TO.P,DS1,17*
G04 #@! TO.N,D5*
X122490000Y-93360000D03*
G04 #@! TO.P,DS1,18*
G04 #@! TO.N,D4*
X122490000Y-94160000D03*
G04 #@! TO.P,DS1,19*
G04 #@! TO.N,D3*
X122490000Y-94960000D03*
G04 #@! TO.P,DS1,20*
G04 #@! TO.N,D2*
X122490000Y-95760000D03*
G04 #@! TO.P,DS1,21*
G04 #@! TO.N,D1*
X122490000Y-96560000D03*
G04 #@! TO.P,DS1,22*
G04 #@! TO.N,D0*
X122490000Y-97360000D03*
G04 #@! TO.P,DS1,23*
G04 #@! TO.N,RD*
X122490000Y-98160000D03*
G04 #@! TO.P,DS1,24*
G04 #@! TO.N,WR*
X122490000Y-98960000D03*
G04 #@! TO.P,DS1,25*
G04 #@! TO.N,DC*
X122490000Y-99760000D03*
G04 #@! TO.P,DS1,26*
G04 #@! TO.N,CS*
X122490000Y-100560000D03*
G04 #@! TO.P,DS1,27*
G04 #@! TO.N,VCC*
X122490000Y-101360000D03*
G04 #@! TO.P,DS1,28*
G04 #@! TO.N,RESET*
X122490000Y-102160000D03*
G04 #@! TO.P,DS1,29*
G04 #@! TO.N,GND2*
X122490000Y-102960000D03*
G04 #@! TO.P,DS1,30*
G04 #@! TO.N,BL_A*
X122490000Y-103760000D03*
G04 #@! TO.P,DS1,31*
G04 #@! TO.N,BL_K1*
X122490000Y-104560000D03*
G04 #@! TO.P,DS1,32*
G04 #@! TO.N,BL_K2*
X122490000Y-105360000D03*
G04 #@! TO.P,DS1,33*
G04 #@! TO.N,BL_K3*
X122490000Y-106160000D03*
G04 #@! TO.P,DS1,34*
G04 #@! TO.N,BL_K4*
X122490000Y-106960000D03*
G04 #@! TO.P,DS1,35*
G04 #@! TO.N,BL_K5*
X122490000Y-107760000D03*
G04 #@! TO.P,DS1,36*
G04 #@! TO.N,BL_K6*
X122490000Y-108560000D03*
G04 #@! TO.P,DS1,37*
G04 #@! TO.N,TE*
X122490000Y-109360000D03*
G04 #@! TO.P,DS1,38*
G04 #@! TO.N,BL_K7*
X122490000Y-110160000D03*
G04 #@! TO.P,DS1,39*
G04 #@! TO.N,BL_K8*
X122490000Y-110960000D03*
G04 #@! TD*
D14*
G04 #@! TO.N,TS_X+*
X198260000Y-80560000D02*
X198260000Y-128500000D01*
X122490000Y-80560000D02*
X198260000Y-80560000D01*
G04 #@! TO.N,TS_Y+*
X195720000Y-81360000D02*
X195720000Y-128500000D01*
X122490000Y-81360000D02*
X195720000Y-81360000D01*
G04 #@! TO.N,TS_X-*
X193180000Y-82160000D02*
X122490000Y-82160000D01*
X193180000Y-128500000D02*
X193180000Y-82160000D01*
G04 #@! TO.N,TS_Y-*
X124871000Y-82960000D02*
X122490000Y-82960000D01*
X190640000Y-128500000D02*
X190640000Y-82960000D01*
X190640000Y-82960000D02*
X124871000Y-82960000D01*
G04 #@! TO.N,GND1*
X188100000Y-83760000D02*
X188100000Y-128500000D01*
X122490000Y-83760000D02*
X188100000Y-83760000D01*
G04 #@! TO.N,NC*
X185560000Y-84560000D02*
X185560000Y-128500000D01*
X122490000Y-84560000D02*
X185560000Y-84560000D01*
G04 #@! TO.N,D15*
X183020000Y-85360000D02*
X183020000Y-128500000D01*
X122490000Y-85360000D02*
X183020000Y-85360000D01*
G04 #@! TO.N,D14*
X180480000Y-86160000D02*
X180480000Y-128500000D01*
X122490000Y-86160000D02*
X180480000Y-86160000D01*
G04 #@! TO.N,D13*
X177940000Y-86960000D02*
X177940000Y-128500000D01*
X122490000Y-86960000D02*
X177940000Y-86960000D01*
G04 #@! TO.N,D12*
X175400000Y-87760000D02*
X175400000Y-128500000D01*
X122490000Y-87760000D02*
X175400000Y-87760000D01*
G04 #@! TO.N,D11*
X172860000Y-88560000D02*
X172860000Y-128500000D01*
X122490000Y-88560000D02*
X172860000Y-88560000D01*
G04 #@! TO.N,D10*
X170320000Y-89360000D02*
X170320000Y-128500000D01*
X122490000Y-89360000D02*
X170320000Y-89360000D01*
G04 #@! TO.N,D9*
X167780000Y-90160000D02*
X167780000Y-128500000D01*
X122490000Y-90160000D02*
X167780000Y-90160000D01*
G04 #@! TO.N,D8*
X165240000Y-90960000D02*
X165240000Y-128500000D01*
X122490000Y-90960000D02*
X165240000Y-90960000D01*
G04 #@! TO.N,D7*
X162700000Y-91760000D02*
X162700000Y-128500000D01*
X122490000Y-91760000D02*
X162700000Y-91760000D01*
G04 #@! TO.N,D6*
X160160000Y-92560000D02*
X160160000Y-128500000D01*
X122490000Y-92560000D02*
X160160000Y-92560000D01*
G04 #@! TO.N,D5*
X157620000Y-127297919D02*
X157620000Y-128500000D01*
X122490000Y-93360000D02*
X157620000Y-93360000D01*
X157620000Y-93360000D02*
X157620000Y-127297919D01*
G04 #@! TO.N,D4*
X155080000Y-127297919D02*
X155080000Y-128500000D01*
X122490000Y-94160000D02*
X155080000Y-94160000D01*
X155080000Y-94160000D02*
X155080000Y-127297919D01*
G04 #@! TO.N,D3*
X152540000Y-127297919D02*
X152540000Y-128500000D01*
X122490000Y-94960000D02*
X152540000Y-94960000D01*
X152540000Y-94960000D02*
X152540000Y-127297919D01*
G04 #@! TO.N,D2*
X150000000Y-127297919D02*
X150000000Y-128500000D01*
X122490000Y-95760000D02*
X150000000Y-95760000D01*
X150000000Y-95760000D02*
X150000000Y-127297919D01*
G04 #@! TO.N,D1*
X147460000Y-127297919D02*
X147460000Y-128500000D01*
X122490000Y-96560000D02*
X147460000Y-96560000D01*
X147460000Y-96560000D02*
X147460000Y-127297919D01*
G04 #@! TO.N,D0*
X144920000Y-127297919D02*
X144920000Y-128500000D01*
X122490000Y-97360000D02*
X144920000Y-97360000D01*
X144920000Y-97360000D02*
X144920000Y-127297919D01*
G04 #@! TO.N,RD*
X142380000Y-127297919D02*
X142380000Y-128500000D01*
X122490000Y-98160000D02*
X142380000Y-98160000D01*
X142380000Y-98160000D02*
X142380000Y-127297919D01*
G04 #@! TO.N,WR*
X139840000Y-127297919D02*
X139840000Y-128500000D01*
X122490000Y-98960000D02*
X139840000Y-98960000D01*
X139840000Y-98960000D02*
X139840000Y-127297919D01*
G04 #@! TO.N,DC*
X137300000Y-127297919D02*
X137300000Y-128500000D01*
X122490000Y-99760000D02*
X137300000Y-99760000D01*
X137300000Y-99760000D02*
X137300000Y-127297919D01*
G04 #@! TO.N,CS*
X122490000Y-100560000D02*
X134760000Y-100560000D01*
X134760000Y-127297919D02*
X134760000Y-128500000D01*
X134760000Y-100560000D02*
X134760000Y-127297919D01*
G04 #@! TO.N,VCC*
X132220000Y-127297919D02*
X132220000Y-128500000D01*
X122490000Y-101360000D02*
X132220000Y-101360000D01*
X132220000Y-101360000D02*
X132220000Y-127297919D01*
G04 #@! TO.N,RESET*
X129680000Y-127297919D02*
X129680000Y-128500000D01*
X122490000Y-102160000D02*
X129680000Y-102160000D01*
X129680000Y-102160000D02*
X129680000Y-127297919D01*
G04 #@! TO.N,GND2*
X127140000Y-127297919D02*
X127140000Y-128500000D01*
X122490000Y-102960000D02*
X127140000Y-102960000D01*
X127140000Y-102960000D02*
X127140000Y-127297919D01*
G04 #@! TO.N,BL_A*
X124880501Y-103769501D02*
X124871000Y-103760000D01*
X124600000Y-128500000D02*
X124880501Y-128219499D01*
X124871000Y-103760000D02*
X122490000Y-103760000D01*
X124880501Y-128219499D02*
X124880501Y-103769501D01*
G04 #@! TO.N,BL_K1*
X101740000Y-127297919D02*
X101740000Y-128500000D01*
X122490000Y-104560000D02*
X101740000Y-104560000D01*
X101740000Y-104560000D02*
X101740000Y-127297919D01*
G04 #@! TO.N,BL_K2*
X104280000Y-127297919D02*
X104280000Y-128500000D01*
X122490000Y-105360000D02*
X104280000Y-105360000D01*
X104280000Y-105360000D02*
X104280000Y-127297919D01*
G04 #@! TO.N,BL_K3*
X106820000Y-127297919D02*
X106820000Y-128500000D01*
X122490000Y-106160000D02*
X106820000Y-106160000D01*
X106820000Y-106160000D02*
X106820000Y-127297919D01*
G04 #@! TO.N,BL_K4*
X109360000Y-127297919D02*
X109360000Y-128500000D01*
X122490000Y-106960000D02*
X109360000Y-106960000D01*
X109360000Y-106960000D02*
X109360000Y-127297919D01*
G04 #@! TO.N,BL_K5*
X120109000Y-107760000D02*
X122490000Y-107760000D01*
X111900000Y-128500000D02*
X111900000Y-107760000D01*
X111900000Y-107760000D02*
X120109000Y-107760000D01*
G04 #@! TO.N,BL_K6*
X120109000Y-108560000D02*
X122490000Y-108560000D01*
X114440000Y-128500000D02*
X114440000Y-108560000D01*
X114440000Y-108560000D02*
X120109000Y-108560000D01*
G04 #@! TO.N,TE*
X120109000Y-109360000D02*
X122490000Y-109360000D01*
X116980000Y-128500000D02*
X116980000Y-109360000D01*
X116980000Y-109360000D02*
X120109000Y-109360000D01*
G04 #@! TO.N,BL_K7*
X120109000Y-110160000D02*
X122490000Y-110160000D01*
X119520000Y-128500000D02*
X119520000Y-110160000D01*
X119520000Y-110160000D02*
X120109000Y-110160000D01*
G04 #@! TO.N,BL_K8*
X122060000Y-110960000D02*
X122490000Y-110960000D01*
X122060000Y-128500000D02*
X122060000Y-110960000D01*
G04 #@! TD*
D15*
G36*
X118989448Y-109940238D02*
G01*
X118956769Y-110047966D01*
X118945735Y-110160000D01*
X118948501Y-110188085D01*
X118948500Y-127404298D01*
X118936903Y-127409102D01*
X118735283Y-127543820D01*
X118563820Y-127715283D01*
X118429102Y-127916903D01*
X118336307Y-128140931D01*
X118289000Y-128378757D01*
X118289000Y-128621243D01*
X118336307Y-128859069D01*
X118429102Y-129083097D01*
X118563820Y-129284717D01*
X118735283Y-129456180D01*
X118936903Y-129590898D01*
X118944392Y-129594000D01*
X117555608Y-129594000D01*
X117563097Y-129590898D01*
X117764717Y-129456180D01*
X117936180Y-129284717D01*
X118070898Y-129083097D01*
X118163693Y-128859069D01*
X118211000Y-128621243D01*
X118211000Y-128378757D01*
X118163693Y-128140931D01*
X118070898Y-127916903D01*
X117936180Y-127715283D01*
X117764717Y-127543820D01*
X117563097Y-127409102D01*
X117551500Y-127404298D01*
X117551500Y-109931500D01*
X118994119Y-109931500D01*
X118989448Y-109940238D01*
G37*
X118989448Y-109940238D02*
X118956769Y-110047966D01*
X118945735Y-110160000D01*
X118948501Y-110188085D01*
X118948500Y-127404298D01*
X118936903Y-127409102D01*
X118735283Y-127543820D01*
X118563820Y-127715283D01*
X118429102Y-127916903D01*
X118336307Y-128140931D01*
X118289000Y-128378757D01*
X118289000Y-128621243D01*
X118336307Y-128859069D01*
X118429102Y-129083097D01*
X118563820Y-129284717D01*
X118735283Y-129456180D01*
X118936903Y-129590898D01*
X118944392Y-129594000D01*
X117555608Y-129594000D01*
X117563097Y-129590898D01*
X117764717Y-129456180D01*
X117936180Y-129284717D01*
X118070898Y-129083097D01*
X118163693Y-128859069D01*
X118211000Y-128621243D01*
X118211000Y-128378757D01*
X118163693Y-128140931D01*
X118070898Y-127916903D01*
X117936180Y-127715283D01*
X117764717Y-127543820D01*
X117563097Y-127409102D01*
X117551500Y-127404298D01*
X117551500Y-109931500D01*
X118994119Y-109931500D01*
X118989448Y-109940238D01*
G36*
X172288501Y-127404298D02*
G01*
X172276903Y-127409102D01*
X172075283Y-127543820D01*
X171903820Y-127715283D01*
X171769102Y-127916903D01*
X171676307Y-128140931D01*
X171629000Y-128378757D01*
X171629000Y-128621243D01*
X171676307Y-128859069D01*
X171769102Y-129083097D01*
X171903820Y-129284717D01*
X172075283Y-129456180D01*
X172276903Y-129590898D01*
X172284392Y-129594000D01*
X170895608Y-129594000D01*
X170903097Y-129590898D01*
X171104717Y-129456180D01*
X171276180Y-129284717D01*
X171410898Y-129083097D01*
X171503693Y-128859069D01*
X171551000Y-128621243D01*
X171551000Y-128378757D01*
X171503693Y-128140931D01*
X171410898Y-127916903D01*
X171276180Y-127715283D01*
X171104717Y-127543820D01*
X170903097Y-127409102D01*
X170891500Y-127404298D01*
X170891500Y-89388074D01*
X170894265Y-89360000D01*
X170883231Y-89247966D01*
X170850552Y-89140238D01*
X170845881Y-89131500D01*
X172288500Y-89131500D01*
X172288501Y-127404298D01*
G37*
X172288501Y-127404298D02*
X172276903Y-127409102D01*
X172075283Y-127543820D01*
X171903820Y-127715283D01*
X171769102Y-127916903D01*
X171676307Y-128140931D01*
X171629000Y-128378757D01*
X171629000Y-128621243D01*
X171676307Y-128859069D01*
X171769102Y-129083097D01*
X171903820Y-129284717D01*
X172075283Y-129456180D01*
X172276903Y-129590898D01*
X172284392Y-129594000D01*
X170895608Y-129594000D01*
X170903097Y-129590898D01*
X171104717Y-129456180D01*
X171276180Y-129284717D01*
X171410898Y-129083097D01*
X171503693Y-128859069D01*
X171551000Y-128621243D01*
X171551000Y-128378757D01*
X171503693Y-128140931D01*
X171410898Y-127916903D01*
X171276180Y-127715283D01*
X171104717Y-127543820D01*
X170903097Y-127409102D01*
X170891500Y-127404298D01*
X170891500Y-89388074D01*
X170894265Y-89360000D01*
X170883231Y-89247966D01*
X170850552Y-89140238D01*
X170845881Y-89131500D01*
X172288500Y-89131500D01*
X172288501Y-127404298D01*
G36*
X146888501Y-127269836D02*
G01*
X146888500Y-127269846D01*
X146888500Y-127404298D01*
X146876903Y-127409102D01*
X146675283Y-127543820D01*
X146503820Y-127715283D01*
X146369102Y-127916903D01*
X146276307Y-128140931D01*
X146229000Y-128378757D01*
X146229000Y-128621243D01*
X146276307Y-128859069D01*
X146369102Y-129083097D01*
X146503820Y-129284717D01*
X146675283Y-129456180D01*
X146876903Y-129590898D01*
X146884392Y-129594000D01*
X145495608Y-129594000D01*
X145503097Y-129590898D01*
X145704717Y-129456180D01*
X145876180Y-129284717D01*
X146010898Y-129083097D01*
X146103693Y-128859069D01*
X146151000Y-128621243D01*
X146151000Y-128378757D01*
X146103693Y-128140931D01*
X146010898Y-127916903D01*
X145876180Y-127715283D01*
X145704717Y-127543820D01*
X145503097Y-127409102D01*
X145491500Y-127404298D01*
X145491500Y-97388074D01*
X145494265Y-97360000D01*
X145483231Y-97247966D01*
X145450552Y-97140238D01*
X145445881Y-97131500D01*
X146888500Y-97131500D01*
X146888501Y-127269836D01*
G37*
X146888501Y-127269836D02*
X146888500Y-127269846D01*
X146888500Y-127404298D01*
X146876903Y-127409102D01*
X146675283Y-127543820D01*
X146503820Y-127715283D01*
X146369102Y-127916903D01*
X146276307Y-128140931D01*
X146229000Y-128378757D01*
X146229000Y-128621243D01*
X146276307Y-128859069D01*
X146369102Y-129083097D01*
X146503820Y-129284717D01*
X146675283Y-129456180D01*
X146876903Y-129590898D01*
X146884392Y-129594000D01*
X145495608Y-129594000D01*
X145503097Y-129590898D01*
X145704717Y-129456180D01*
X145876180Y-129284717D01*
X146010898Y-129083097D01*
X146103693Y-128859069D01*
X146151000Y-128621243D01*
X146151000Y-128378757D01*
X146103693Y-128140931D01*
X146010898Y-127916903D01*
X145876180Y-127715283D01*
X145704717Y-127543820D01*
X145503097Y-127409102D01*
X145491500Y-127404298D01*
X145491500Y-97388074D01*
X145494265Y-97360000D01*
X145483231Y-97247966D01*
X145450552Y-97140238D01*
X145445881Y-97131500D01*
X146888500Y-97131500D01*
X146888501Y-127269836D01*
G36*
X199594000Y-129594000D02*
G01*
X199402632Y-129594000D01*
X199428322Y-129562696D01*
X199463701Y-129496508D01*
X199485487Y-129424689D01*
X199492843Y-129350000D01*
X199492843Y-127650000D01*
X199485487Y-127575311D01*
X199463701Y-127503492D01*
X199428322Y-127437304D01*
X199380711Y-127379289D01*
X199322696Y-127331678D01*
X199256508Y-127296299D01*
X199184689Y-127274513D01*
X199110000Y-127267157D01*
X198831500Y-127267157D01*
X198831500Y-80588074D01*
X198834265Y-80560000D01*
X198823231Y-80447966D01*
X198790552Y-80340238D01*
X198737484Y-80240955D01*
X198666067Y-80153933D01*
X198579045Y-80082516D01*
X198479762Y-80029448D01*
X198372034Y-79996769D01*
X198288074Y-79988500D01*
X198260000Y-79985735D01*
X198231926Y-79988500D01*
X124577832Y-79988500D01*
X124564689Y-79984513D01*
X124490000Y-79977157D01*
X120490000Y-79977157D01*
X120415311Y-79984513D01*
X120343492Y-80006299D01*
X120277304Y-80041678D01*
X120219289Y-80089289D01*
X120171678Y-80147304D01*
X120136299Y-80213492D01*
X120114513Y-80285311D01*
X120107157Y-80360000D01*
X120107157Y-80760000D01*
X120114513Y-80834689D01*
X120136299Y-80906508D01*
X120164892Y-80960000D01*
X120136299Y-81013492D01*
X120114513Y-81085311D01*
X120107157Y-81160000D01*
X120107157Y-81560000D01*
X120114513Y-81634689D01*
X120136299Y-81706508D01*
X120164892Y-81760000D01*
X120136299Y-81813492D01*
X120114513Y-81885311D01*
X120107157Y-81960000D01*
X120107157Y-82360000D01*
X120114513Y-82434689D01*
X120136299Y-82506508D01*
X120164892Y-82560000D01*
X120136299Y-82613492D01*
X120114513Y-82685311D01*
X120107157Y-82760000D01*
X120107157Y-83160000D01*
X120114513Y-83234689D01*
X120136299Y-83306508D01*
X120164892Y-83360000D01*
X120136299Y-83413492D01*
X120114513Y-83485311D01*
X120107157Y-83560000D01*
X120107157Y-83960000D01*
X120114513Y-84034689D01*
X120136299Y-84106508D01*
X120164892Y-84160000D01*
X120136299Y-84213492D01*
X120114513Y-84285311D01*
X120107157Y-84360000D01*
X120107157Y-84760000D01*
X120114513Y-84834689D01*
X120136299Y-84906508D01*
X120164892Y-84960000D01*
X120136299Y-85013492D01*
X120114513Y-85085311D01*
X120107157Y-85160000D01*
X120107157Y-85560000D01*
X120114513Y-85634689D01*
X120136299Y-85706508D01*
X120164892Y-85760000D01*
X120136299Y-85813492D01*
X120114513Y-85885311D01*
X120107157Y-85960000D01*
X120107157Y-86360000D01*
X120114513Y-86434689D01*
X120136299Y-86506508D01*
X120164892Y-86560000D01*
X120136299Y-86613492D01*
X120114513Y-86685311D01*
X120107157Y-86760000D01*
X120107157Y-87160000D01*
X120114513Y-87234689D01*
X120136299Y-87306508D01*
X120164892Y-87360000D01*
X120136299Y-87413492D01*
X120114513Y-87485311D01*
X120107157Y-87560000D01*
X120107157Y-87960000D01*
X120114513Y-88034689D01*
X120136299Y-88106508D01*
X120164892Y-88160000D01*
X120136299Y-88213492D01*
X120114513Y-88285311D01*
X120107157Y-88360000D01*
X120107157Y-88760000D01*
X120114513Y-88834689D01*
X120136299Y-88906508D01*
X120164892Y-88960000D01*
X120136299Y-89013492D01*
X120114513Y-89085311D01*
X120107157Y-89160000D01*
X120107157Y-89560000D01*
X120114513Y-89634689D01*
X120136299Y-89706508D01*
X120164892Y-89760000D01*
X120136299Y-89813492D01*
X120114513Y-89885311D01*
X120107157Y-89960000D01*
X120107157Y-90360000D01*
X120114513Y-90434689D01*
X120136299Y-90506508D01*
X120164892Y-90560000D01*
X120136299Y-90613492D01*
X120114513Y-90685311D01*
X120107157Y-90760000D01*
X120107157Y-91160000D01*
X120114513Y-91234689D01*
X120136299Y-91306508D01*
X120164892Y-91360000D01*
X120136299Y-91413492D01*
X120114513Y-91485311D01*
X120107157Y-91560000D01*
X120107157Y-91960000D01*
X120114513Y-92034689D01*
X120136299Y-92106508D01*
X120164892Y-92160000D01*
X120136299Y-92213492D01*
X120114513Y-92285311D01*
X120107157Y-92360000D01*
X120107157Y-92760000D01*
X120114513Y-92834689D01*
X120136299Y-92906508D01*
X120164892Y-92960000D01*
X120136299Y-93013492D01*
X120114513Y-93085311D01*
X120107157Y-93160000D01*
X120107157Y-93560000D01*
X120114513Y-93634689D01*
X120136299Y-93706508D01*
X120164892Y-93760000D01*
X120136299Y-93813492D01*
X120114513Y-93885311D01*
X120107157Y-93960000D01*
X120107157Y-94360000D01*
X120114513Y-94434689D01*
X120136299Y-94506508D01*
X120164892Y-94560000D01*
X120136299Y-94613492D01*
X120114513Y-94685311D01*
X120107157Y-94760000D01*
X120107157Y-95160000D01*
X120114513Y-95234689D01*
X120136299Y-95306508D01*
X120164892Y-95360000D01*
X120136299Y-95413492D01*
X120114513Y-95485311D01*
X120107157Y-95560000D01*
X120107157Y-95960000D01*
X120114513Y-96034689D01*
X120136299Y-96106508D01*
X120164892Y-96160000D01*
X120136299Y-96213492D01*
X120114513Y-96285311D01*
X120107157Y-96360000D01*
X120107157Y-96760000D01*
X120114513Y-96834689D01*
X120136299Y-96906508D01*
X120164892Y-96960000D01*
X120136299Y-97013492D01*
X120114513Y-97085311D01*
X120107157Y-97160000D01*
X120107157Y-97560000D01*
X120114513Y-97634689D01*
X120136299Y-97706508D01*
X120164892Y-97760000D01*
X120136299Y-97813492D01*
X120114513Y-97885311D01*
X120107157Y-97960000D01*
X120107157Y-98360000D01*
X120114513Y-98434689D01*
X120136299Y-98506508D01*
X120164892Y-98560000D01*
X120136299Y-98613492D01*
X120114513Y-98685311D01*
X120107157Y-98760000D01*
X120107157Y-99160000D01*
X120114513Y-99234689D01*
X120136299Y-99306508D01*
X120164892Y-99360000D01*
X120136299Y-99413492D01*
X120114513Y-99485311D01*
X120107157Y-99560000D01*
X120107157Y-99960000D01*
X120114513Y-100034689D01*
X120136299Y-100106508D01*
X120164892Y-100160000D01*
X120136299Y-100213492D01*
X120114513Y-100285311D01*
X120107157Y-100360000D01*
X120107157Y-100760000D01*
X120114513Y-100834689D01*
X120136299Y-100906508D01*
X120164892Y-100960000D01*
X120136299Y-101013492D01*
X120114513Y-101085311D01*
X120107157Y-101160000D01*
X120107157Y-101560000D01*
X120114513Y-101634689D01*
X120136299Y-101706508D01*
X120164892Y-101760000D01*
X120136299Y-101813492D01*
X120114513Y-101885311D01*
X120107157Y-101960000D01*
X120107157Y-102360000D01*
X120114513Y-102434689D01*
X120136299Y-102506508D01*
X120164892Y-102560000D01*
X120136299Y-102613492D01*
X120114513Y-102685311D01*
X120107157Y-102760000D01*
X120107157Y-103160000D01*
X120114513Y-103234689D01*
X120136299Y-103306508D01*
X120164892Y-103360000D01*
X120136299Y-103413492D01*
X120114513Y-103485311D01*
X120107157Y-103560000D01*
X120107157Y-103960000D01*
X120109964Y-103988500D01*
X101768074Y-103988500D01*
X101740000Y-103985735D01*
X101711926Y-103988500D01*
X101627966Y-103996769D01*
X101520238Y-104029448D01*
X101420955Y-104082516D01*
X101333933Y-104153933D01*
X101262516Y-104240955D01*
X101209448Y-104340238D01*
X101176769Y-104447966D01*
X101165735Y-104560000D01*
X101168500Y-104588075D01*
X101168501Y-127269836D01*
X101168500Y-127269846D01*
X101168500Y-127404298D01*
X101156903Y-127409102D01*
X100955283Y-127543820D01*
X100783820Y-127715283D01*
X100649102Y-127916903D01*
X100556307Y-128140931D01*
X100509000Y-128378757D01*
X100509000Y-128621243D01*
X100556307Y-128859069D01*
X100649102Y-129083097D01*
X100783820Y-129284717D01*
X100955283Y-129456180D01*
X101156903Y-129590898D01*
X101164392Y-129594000D01*
X100406000Y-129594000D01*
X100406000Y-60406000D01*
X199594001Y-60406000D01*
X199594000Y-129594000D01*
G37*
X199594000Y-129594000D02*
X199402632Y-129594000D01*
X199428322Y-129562696D01*
X199463701Y-129496508D01*
X199485487Y-129424689D01*
X199492843Y-129350000D01*
X199492843Y-127650000D01*
X199485487Y-127575311D01*
X199463701Y-127503492D01*
X199428322Y-127437304D01*
X199380711Y-127379289D01*
X199322696Y-127331678D01*
X199256508Y-127296299D01*
X199184689Y-127274513D01*
X199110000Y-127267157D01*
X198831500Y-127267157D01*
X198831500Y-80588074D01*
X198834265Y-80560000D01*
X198823231Y-80447966D01*
X198790552Y-80340238D01*
X198737484Y-80240955D01*
X198666067Y-80153933D01*
X198579045Y-80082516D01*
X198479762Y-80029448D01*
X198372034Y-79996769D01*
X198288074Y-79988500D01*
X198260000Y-79985735D01*
X198231926Y-79988500D01*
X124577832Y-79988500D01*
X124564689Y-79984513D01*
X124490000Y-79977157D01*
X120490000Y-79977157D01*
X120415311Y-79984513D01*
X120343492Y-80006299D01*
X120277304Y-80041678D01*
X120219289Y-80089289D01*
X120171678Y-80147304D01*
X120136299Y-80213492D01*
X120114513Y-80285311D01*
X120107157Y-80360000D01*
X120107157Y-80760000D01*
X120114513Y-80834689D01*
X120136299Y-80906508D01*
X120164892Y-80960000D01*
X120136299Y-81013492D01*
X120114513Y-81085311D01*
X120107157Y-81160000D01*
X120107157Y-81560000D01*
X120114513Y-81634689D01*
X120136299Y-81706508D01*
X120164892Y-81760000D01*
X120136299Y-81813492D01*
X120114513Y-81885311D01*
X120107157Y-81960000D01*
X120107157Y-82360000D01*
X120114513Y-82434689D01*
X120136299Y-82506508D01*
X120164892Y-82560000D01*
X120136299Y-82613492D01*
X120114513Y-82685311D01*
X120107157Y-82760000D01*
X120107157Y-83160000D01*
X120114513Y-83234689D01*
X120136299Y-83306508D01*
X120164892Y-83360000D01*
X120136299Y-83413492D01*
X120114513Y-83485311D01*
X120107157Y-83560000D01*
X120107157Y-83960000D01*
X120114513Y-84034689D01*
X120136299Y-84106508D01*
X120164892Y-84160000D01*
X120136299Y-84213492D01*
X120114513Y-84285311D01*
X120107157Y-84360000D01*
X120107157Y-84760000D01*
X120114513Y-84834689D01*
X120136299Y-84906508D01*
X120164892Y-84960000D01*
X120136299Y-85013492D01*
X120114513Y-85085311D01*
X120107157Y-85160000D01*
X120107157Y-85560000D01*
X120114513Y-85634689D01*
X120136299Y-85706508D01*
X120164892Y-85760000D01*
X120136299Y-85813492D01*
X120114513Y-85885311D01*
X120107157Y-85960000D01*
X120107157Y-86360000D01*
X120114513Y-86434689D01*
X120136299Y-86506508D01*
X120164892Y-86560000D01*
X120136299Y-86613492D01*
X120114513Y-86685311D01*
X120107157Y-86760000D01*
X120107157Y-87160000D01*
X120114513Y-87234689D01*
X120136299Y-87306508D01*
X120164892Y-87360000D01*
X120136299Y-87413492D01*
X120114513Y-87485311D01*
X120107157Y-87560000D01*
X120107157Y-87960000D01*
X120114513Y-88034689D01*
X120136299Y-88106508D01*
X120164892Y-88160000D01*
X120136299Y-88213492D01*
X120114513Y-88285311D01*
X120107157Y-88360000D01*
X120107157Y-88760000D01*
X120114513Y-88834689D01*
X120136299Y-88906508D01*
X120164892Y-88960000D01*
X120136299Y-89013492D01*
X120114513Y-89085311D01*
X120107157Y-89160000D01*
X120107157Y-89560000D01*
X120114513Y-89634689D01*
X120136299Y-89706508D01*
X120164892Y-89760000D01*
X120136299Y-89813492D01*
X120114513Y-89885311D01*
X120107157Y-89960000D01*
X120107157Y-90360000D01*
X120114513Y-90434689D01*
X120136299Y-90506508D01*
X120164892Y-90560000D01*
X120136299Y-90613492D01*
X120114513Y-90685311D01*
X120107157Y-90760000D01*
X120107157Y-91160000D01*
X120114513Y-91234689D01*
X120136299Y-91306508D01*
X120164892Y-91360000D01*
X120136299Y-91413492D01*
X120114513Y-91485311D01*
X120107157Y-91560000D01*
X120107157Y-91960000D01*
X120114513Y-92034689D01*
X120136299Y-92106508D01*
X120164892Y-92160000D01*
X120136299Y-92213492D01*
X120114513Y-92285311D01*
X120107157Y-92360000D01*
X120107157Y-92760000D01*
X120114513Y-92834689D01*
X120136299Y-92906508D01*
X120164892Y-92960000D01*
X120136299Y-93013492D01*
X120114513Y-93085311D01*
X120107157Y-93160000D01*
X120107157Y-93560000D01*
X120114513Y-93634689D01*
X120136299Y-93706508D01*
X120164892Y-93760000D01*
X120136299Y-93813492D01*
X120114513Y-93885311D01*
X120107157Y-93960000D01*
X120107157Y-94360000D01*
X120114513Y-94434689D01*
X120136299Y-94506508D01*
X120164892Y-94560000D01*
X120136299Y-94613492D01*
X120114513Y-94685311D01*
X120107157Y-94760000D01*
X120107157Y-95160000D01*
X120114513Y-95234689D01*
X120136299Y-95306508D01*
X120164892Y-95360000D01*
X120136299Y-95413492D01*
X120114513Y-95485311D01*
X120107157Y-95560000D01*
X120107157Y-95960000D01*
X120114513Y-96034689D01*
X120136299Y-96106508D01*
X120164892Y-96160000D01*
X120136299Y-96213492D01*
X120114513Y-96285311D01*
X120107157Y-96360000D01*
X120107157Y-96760000D01*
X120114513Y-96834689D01*
X120136299Y-96906508D01*
X120164892Y-96960000D01*
X120136299Y-97013492D01*
X120114513Y-97085311D01*
X120107157Y-97160000D01*
X120107157Y-97560000D01*
X120114513Y-97634689D01*
X120136299Y-97706508D01*
X120164892Y-97760000D01*
X120136299Y-97813492D01*
X120114513Y-97885311D01*
X120107157Y-97960000D01*
X120107157Y-98360000D01*
X120114513Y-98434689D01*
X120136299Y-98506508D01*
X120164892Y-98560000D01*
X120136299Y-98613492D01*
X120114513Y-98685311D01*
X120107157Y-98760000D01*
X120107157Y-99160000D01*
X120114513Y-99234689D01*
X120136299Y-99306508D01*
X120164892Y-99360000D01*
X120136299Y-99413492D01*
X120114513Y-99485311D01*
X120107157Y-99560000D01*
X120107157Y-99960000D01*
X120114513Y-100034689D01*
X120136299Y-100106508D01*
X120164892Y-100160000D01*
X120136299Y-100213492D01*
X120114513Y-100285311D01*
X120107157Y-100360000D01*
X120107157Y-100760000D01*
X120114513Y-100834689D01*
X120136299Y-100906508D01*
X120164892Y-100960000D01*
X120136299Y-101013492D01*
X120114513Y-101085311D01*
X120107157Y-101160000D01*
X120107157Y-101560000D01*
X120114513Y-101634689D01*
X120136299Y-101706508D01*
X120164892Y-101760000D01*
X120136299Y-101813492D01*
X120114513Y-101885311D01*
X120107157Y-101960000D01*
X120107157Y-102360000D01*
X120114513Y-102434689D01*
X120136299Y-102506508D01*
X120164892Y-102560000D01*
X120136299Y-102613492D01*
X120114513Y-102685311D01*
X120107157Y-102760000D01*
X120107157Y-103160000D01*
X120114513Y-103234689D01*
X120136299Y-103306508D01*
X120164892Y-103360000D01*
X120136299Y-103413492D01*
X120114513Y-103485311D01*
X120107157Y-103560000D01*
X120107157Y-103960000D01*
X120109964Y-103988500D01*
X101768074Y-103988500D01*
X101740000Y-103985735D01*
X101711926Y-103988500D01*
X101627966Y-103996769D01*
X101520238Y-104029448D01*
X101420955Y-104082516D01*
X101333933Y-104153933D01*
X101262516Y-104240955D01*
X101209448Y-104340238D01*
X101176769Y-104447966D01*
X101165735Y-104560000D01*
X101168500Y-104588075D01*
X101168501Y-127269836D01*
X101168500Y-127269846D01*
X101168500Y-127404298D01*
X101156903Y-127409102D01*
X100955283Y-127543820D01*
X100783820Y-127715283D01*
X100649102Y-127916903D01*
X100556307Y-128140931D01*
X100509000Y-128378757D01*
X100509000Y-128621243D01*
X100556307Y-128859069D01*
X100649102Y-129083097D01*
X100783820Y-129284717D01*
X100955283Y-129456180D01*
X101156903Y-129590898D01*
X101164392Y-129594000D01*
X100406000Y-129594000D01*
X100406000Y-60406000D01*
X199594001Y-60406000D01*
X199594000Y-129594000D01*
G36*
X103749448Y-105140238D02*
G01*
X103716769Y-105247966D01*
X103705735Y-105360000D01*
X103708500Y-105388075D01*
X103708501Y-127269836D01*
X103708500Y-127269846D01*
X103708500Y-127404298D01*
X103696903Y-127409102D01*
X103495283Y-127543820D01*
X103323820Y-127715283D01*
X103189102Y-127916903D01*
X103096307Y-128140931D01*
X103049000Y-128378757D01*
X103049000Y-128621243D01*
X103096307Y-128859069D01*
X103189102Y-129083097D01*
X103323820Y-129284717D01*
X103495283Y-129456180D01*
X103696903Y-129590898D01*
X103704392Y-129594000D01*
X102315608Y-129594000D01*
X102323097Y-129590898D01*
X102524717Y-129456180D01*
X102696180Y-129284717D01*
X102830898Y-129083097D01*
X102923693Y-128859069D01*
X102971000Y-128621243D01*
X102971000Y-128378757D01*
X102923693Y-128140931D01*
X102830898Y-127916903D01*
X102696180Y-127715283D01*
X102524717Y-127543820D01*
X102323097Y-127409102D01*
X102311500Y-127404298D01*
X102311500Y-105131500D01*
X103754119Y-105131500D01*
X103749448Y-105140238D01*
G37*
X103749448Y-105140238D02*
X103716769Y-105247966D01*
X103705735Y-105360000D01*
X103708500Y-105388075D01*
X103708501Y-127269836D01*
X103708500Y-127269846D01*
X103708500Y-127404298D01*
X103696903Y-127409102D01*
X103495283Y-127543820D01*
X103323820Y-127715283D01*
X103189102Y-127916903D01*
X103096307Y-128140931D01*
X103049000Y-128378757D01*
X103049000Y-128621243D01*
X103096307Y-128859069D01*
X103189102Y-129083097D01*
X103323820Y-129284717D01*
X103495283Y-129456180D01*
X103696903Y-129590898D01*
X103704392Y-129594000D01*
X102315608Y-129594000D01*
X102323097Y-129590898D01*
X102524717Y-129456180D01*
X102696180Y-129284717D01*
X102830898Y-129083097D01*
X102923693Y-128859069D01*
X102971000Y-128621243D01*
X102971000Y-128378757D01*
X102923693Y-128140931D01*
X102830898Y-127916903D01*
X102696180Y-127715283D01*
X102524717Y-127543820D01*
X102323097Y-127409102D01*
X102311500Y-127404298D01*
X102311500Y-105131500D01*
X103754119Y-105131500D01*
X103749448Y-105140238D01*
G36*
X106289448Y-105940238D02*
G01*
X106256769Y-106047966D01*
X106245735Y-106160000D01*
X106248500Y-106188075D01*
X106248501Y-127269836D01*
X106248500Y-127269846D01*
X106248500Y-127404298D01*
X106236903Y-127409102D01*
X106035283Y-127543820D01*
X105863820Y-127715283D01*
X105729102Y-127916903D01*
X105636307Y-128140931D01*
X105589000Y-128378757D01*
X105589000Y-128621243D01*
X105636307Y-128859069D01*
X105729102Y-129083097D01*
X105863820Y-129284717D01*
X106035283Y-129456180D01*
X106236903Y-129590898D01*
X106244392Y-129594000D01*
X104855608Y-129594000D01*
X104863097Y-129590898D01*
X105064717Y-129456180D01*
X105236180Y-129284717D01*
X105370898Y-129083097D01*
X105463693Y-128859069D01*
X105511000Y-128621243D01*
X105511000Y-128378757D01*
X105463693Y-128140931D01*
X105370898Y-127916903D01*
X105236180Y-127715283D01*
X105064717Y-127543820D01*
X104863097Y-127409102D01*
X104851500Y-127404298D01*
X104851500Y-105931500D01*
X106294119Y-105931500D01*
X106289448Y-105940238D01*
G37*
X106289448Y-105940238D02*
X106256769Y-106047966D01*
X106245735Y-106160000D01*
X106248500Y-106188075D01*
X106248501Y-127269836D01*
X106248500Y-127269846D01*
X106248500Y-127404298D01*
X106236903Y-127409102D01*
X106035283Y-127543820D01*
X105863820Y-127715283D01*
X105729102Y-127916903D01*
X105636307Y-128140931D01*
X105589000Y-128378757D01*
X105589000Y-128621243D01*
X105636307Y-128859069D01*
X105729102Y-129083097D01*
X105863820Y-129284717D01*
X106035283Y-129456180D01*
X106236903Y-129590898D01*
X106244392Y-129594000D01*
X104855608Y-129594000D01*
X104863097Y-129590898D01*
X105064717Y-129456180D01*
X105236180Y-129284717D01*
X105370898Y-129083097D01*
X105463693Y-128859069D01*
X105511000Y-128621243D01*
X105511000Y-128378757D01*
X105463693Y-128140931D01*
X105370898Y-127916903D01*
X105236180Y-127715283D01*
X105064717Y-127543820D01*
X104863097Y-127409102D01*
X104851500Y-127404298D01*
X104851500Y-105931500D01*
X106294119Y-105931500D01*
X106289448Y-105940238D01*
G36*
X108829448Y-106740238D02*
G01*
X108796769Y-106847966D01*
X108785735Y-106960000D01*
X108788500Y-106988075D01*
X108788501Y-127269836D01*
X108788500Y-127269846D01*
X108788500Y-127404298D01*
X108776903Y-127409102D01*
X108575283Y-127543820D01*
X108403820Y-127715283D01*
X108269102Y-127916903D01*
X108176307Y-128140931D01*
X108129000Y-128378757D01*
X108129000Y-128621243D01*
X108176307Y-128859069D01*
X108269102Y-129083097D01*
X108403820Y-129284717D01*
X108575283Y-129456180D01*
X108776903Y-129590898D01*
X108784392Y-129594000D01*
X107395608Y-129594000D01*
X107403097Y-129590898D01*
X107604717Y-129456180D01*
X107776180Y-129284717D01*
X107910898Y-129083097D01*
X108003693Y-128859069D01*
X108051000Y-128621243D01*
X108051000Y-128378757D01*
X108003693Y-128140931D01*
X107910898Y-127916903D01*
X107776180Y-127715283D01*
X107604717Y-127543820D01*
X107403097Y-127409102D01*
X107391500Y-127404298D01*
X107391500Y-106731500D01*
X108834119Y-106731500D01*
X108829448Y-106740238D01*
G37*
X108829448Y-106740238D02*
X108796769Y-106847966D01*
X108785735Y-106960000D01*
X108788500Y-106988075D01*
X108788501Y-127269836D01*
X108788500Y-127269846D01*
X108788500Y-127404298D01*
X108776903Y-127409102D01*
X108575283Y-127543820D01*
X108403820Y-127715283D01*
X108269102Y-127916903D01*
X108176307Y-128140931D01*
X108129000Y-128378757D01*
X108129000Y-128621243D01*
X108176307Y-128859069D01*
X108269102Y-129083097D01*
X108403820Y-129284717D01*
X108575283Y-129456180D01*
X108776903Y-129590898D01*
X108784392Y-129594000D01*
X107395608Y-129594000D01*
X107403097Y-129590898D01*
X107604717Y-129456180D01*
X107776180Y-129284717D01*
X107910898Y-129083097D01*
X108003693Y-128859069D01*
X108051000Y-128621243D01*
X108051000Y-128378757D01*
X108003693Y-128140931D01*
X107910898Y-127916903D01*
X107776180Y-127715283D01*
X107604717Y-127543820D01*
X107403097Y-127409102D01*
X107391500Y-127404298D01*
X107391500Y-106731500D01*
X108834119Y-106731500D01*
X108829448Y-106740238D01*
G36*
X111369448Y-107540238D02*
G01*
X111336769Y-107647966D01*
X111325735Y-107760000D01*
X111328501Y-107788085D01*
X111328500Y-127404298D01*
X111316903Y-127409102D01*
X111115283Y-127543820D01*
X110943820Y-127715283D01*
X110809102Y-127916903D01*
X110716307Y-128140931D01*
X110669000Y-128378757D01*
X110669000Y-128621243D01*
X110716307Y-128859069D01*
X110809102Y-129083097D01*
X110943820Y-129284717D01*
X111115283Y-129456180D01*
X111316903Y-129590898D01*
X111324392Y-129594000D01*
X109935608Y-129594000D01*
X109943097Y-129590898D01*
X110144717Y-129456180D01*
X110316180Y-129284717D01*
X110450898Y-129083097D01*
X110543693Y-128859069D01*
X110591000Y-128621243D01*
X110591000Y-128378757D01*
X110543693Y-128140931D01*
X110450898Y-127916903D01*
X110316180Y-127715283D01*
X110144717Y-127543820D01*
X109943097Y-127409102D01*
X109931500Y-127404298D01*
X109931500Y-107531500D01*
X111374119Y-107531500D01*
X111369448Y-107540238D01*
G37*
X111369448Y-107540238D02*
X111336769Y-107647966D01*
X111325735Y-107760000D01*
X111328501Y-107788085D01*
X111328500Y-127404298D01*
X111316903Y-127409102D01*
X111115283Y-127543820D01*
X110943820Y-127715283D01*
X110809102Y-127916903D01*
X110716307Y-128140931D01*
X110669000Y-128378757D01*
X110669000Y-128621243D01*
X110716307Y-128859069D01*
X110809102Y-129083097D01*
X110943820Y-129284717D01*
X111115283Y-129456180D01*
X111316903Y-129590898D01*
X111324392Y-129594000D01*
X109935608Y-129594000D01*
X109943097Y-129590898D01*
X110144717Y-129456180D01*
X110316180Y-129284717D01*
X110450898Y-129083097D01*
X110543693Y-128859069D01*
X110591000Y-128621243D01*
X110591000Y-128378757D01*
X110543693Y-128140931D01*
X110450898Y-127916903D01*
X110316180Y-127715283D01*
X110144717Y-127543820D01*
X109943097Y-127409102D01*
X109931500Y-127404298D01*
X109931500Y-107531500D01*
X111374119Y-107531500D01*
X111369448Y-107540238D01*
G36*
X113909448Y-108340238D02*
G01*
X113876769Y-108447966D01*
X113865735Y-108560000D01*
X113868501Y-108588085D01*
X113868500Y-127404298D01*
X113856903Y-127409102D01*
X113655283Y-127543820D01*
X113483820Y-127715283D01*
X113349102Y-127916903D01*
X113256307Y-128140931D01*
X113209000Y-128378757D01*
X113209000Y-128621243D01*
X113256307Y-128859069D01*
X113349102Y-129083097D01*
X113483820Y-129284717D01*
X113655283Y-129456180D01*
X113856903Y-129590898D01*
X113864392Y-129594000D01*
X112475608Y-129594000D01*
X112483097Y-129590898D01*
X112684717Y-129456180D01*
X112856180Y-129284717D01*
X112990898Y-129083097D01*
X113083693Y-128859069D01*
X113131000Y-128621243D01*
X113131000Y-128378757D01*
X113083693Y-128140931D01*
X112990898Y-127916903D01*
X112856180Y-127715283D01*
X112684717Y-127543820D01*
X112483097Y-127409102D01*
X112471500Y-127404298D01*
X112471500Y-108331500D01*
X113914119Y-108331500D01*
X113909448Y-108340238D01*
G37*
X113909448Y-108340238D02*
X113876769Y-108447966D01*
X113865735Y-108560000D01*
X113868501Y-108588085D01*
X113868500Y-127404298D01*
X113856903Y-127409102D01*
X113655283Y-127543820D01*
X113483820Y-127715283D01*
X113349102Y-127916903D01*
X113256307Y-128140931D01*
X113209000Y-128378757D01*
X113209000Y-128621243D01*
X113256307Y-128859069D01*
X113349102Y-129083097D01*
X113483820Y-129284717D01*
X113655283Y-129456180D01*
X113856903Y-129590898D01*
X113864392Y-129594000D01*
X112475608Y-129594000D01*
X112483097Y-129590898D01*
X112684717Y-129456180D01*
X112856180Y-129284717D01*
X112990898Y-129083097D01*
X113083693Y-128859069D01*
X113131000Y-128621243D01*
X113131000Y-128378757D01*
X113083693Y-128140931D01*
X112990898Y-127916903D01*
X112856180Y-127715283D01*
X112684717Y-127543820D01*
X112483097Y-127409102D01*
X112471500Y-127404298D01*
X112471500Y-108331500D01*
X113914119Y-108331500D01*
X113909448Y-108340238D01*
G36*
X116449448Y-109140238D02*
G01*
X116416769Y-109247966D01*
X116405735Y-109360000D01*
X116408501Y-109388085D01*
X116408500Y-127404298D01*
X116396903Y-127409102D01*
X116195283Y-127543820D01*
X116023820Y-127715283D01*
X115889102Y-127916903D01*
X115796307Y-128140931D01*
X115749000Y-128378757D01*
X115749000Y-128621243D01*
X115796307Y-128859069D01*
X115889102Y-129083097D01*
X116023820Y-129284717D01*
X116195283Y-129456180D01*
X116396903Y-129590898D01*
X116404392Y-129594000D01*
X115015608Y-129594000D01*
X115023097Y-129590898D01*
X115224717Y-129456180D01*
X115396180Y-129284717D01*
X115530898Y-129083097D01*
X115623693Y-128859069D01*
X115671000Y-128621243D01*
X115671000Y-128378757D01*
X115623693Y-128140931D01*
X115530898Y-127916903D01*
X115396180Y-127715283D01*
X115224717Y-127543820D01*
X115023097Y-127409102D01*
X115011500Y-127404298D01*
X115011500Y-109131500D01*
X116454119Y-109131500D01*
X116449448Y-109140238D01*
G37*
X116449448Y-109140238D02*
X116416769Y-109247966D01*
X116405735Y-109360000D01*
X116408501Y-109388085D01*
X116408500Y-127404298D01*
X116396903Y-127409102D01*
X116195283Y-127543820D01*
X116023820Y-127715283D01*
X115889102Y-127916903D01*
X115796307Y-128140931D01*
X115749000Y-128378757D01*
X115749000Y-128621243D01*
X115796307Y-128859069D01*
X115889102Y-129083097D01*
X116023820Y-129284717D01*
X116195283Y-129456180D01*
X116396903Y-129590898D01*
X116404392Y-129594000D01*
X115015608Y-129594000D01*
X115023097Y-129590898D01*
X115224717Y-129456180D01*
X115396180Y-129284717D01*
X115530898Y-129083097D01*
X115623693Y-128859069D01*
X115671000Y-128621243D01*
X115671000Y-128378757D01*
X115623693Y-128140931D01*
X115530898Y-127916903D01*
X115396180Y-127715283D01*
X115224717Y-127543820D01*
X115023097Y-127409102D01*
X115011500Y-127404298D01*
X115011500Y-109131500D01*
X116454119Y-109131500D01*
X116449448Y-109140238D01*
G36*
X141808501Y-127269836D02*
G01*
X141808500Y-127269846D01*
X141808500Y-127404298D01*
X141796903Y-127409102D01*
X141595283Y-127543820D01*
X141423820Y-127715283D01*
X141289102Y-127916903D01*
X141196307Y-128140931D01*
X141149000Y-128378757D01*
X141149000Y-128621243D01*
X141196307Y-128859069D01*
X141289102Y-129083097D01*
X141423820Y-129284717D01*
X141595283Y-129456180D01*
X141796903Y-129590898D01*
X141804392Y-129594000D01*
X140415608Y-129594000D01*
X140423097Y-129590898D01*
X140624717Y-129456180D01*
X140796180Y-129284717D01*
X140930898Y-129083097D01*
X141023693Y-128859069D01*
X141071000Y-128621243D01*
X141071000Y-128378757D01*
X141023693Y-128140931D01*
X140930898Y-127916903D01*
X140796180Y-127715283D01*
X140624717Y-127543820D01*
X140423097Y-127409102D01*
X140411500Y-127404298D01*
X140411500Y-98988074D01*
X140414265Y-98960000D01*
X140403231Y-98847966D01*
X140370552Y-98740238D01*
X140365881Y-98731500D01*
X141808500Y-98731500D01*
X141808501Y-127269836D01*
G37*
X141808501Y-127269836D02*
X141808500Y-127269846D01*
X141808500Y-127404298D01*
X141796903Y-127409102D01*
X141595283Y-127543820D01*
X141423820Y-127715283D01*
X141289102Y-127916903D01*
X141196307Y-128140931D01*
X141149000Y-128378757D01*
X141149000Y-128621243D01*
X141196307Y-128859069D01*
X141289102Y-129083097D01*
X141423820Y-129284717D01*
X141595283Y-129456180D01*
X141796903Y-129590898D01*
X141804392Y-129594000D01*
X140415608Y-129594000D01*
X140423097Y-129590898D01*
X140624717Y-129456180D01*
X140796180Y-129284717D01*
X140930898Y-129083097D01*
X141023693Y-128859069D01*
X141071000Y-128621243D01*
X141071000Y-128378757D01*
X141023693Y-128140931D01*
X140930898Y-127916903D01*
X140796180Y-127715283D01*
X140624717Y-127543820D01*
X140423097Y-127409102D01*
X140411500Y-127404298D01*
X140411500Y-98988074D01*
X140414265Y-98960000D01*
X140403231Y-98847966D01*
X140370552Y-98740238D01*
X140365881Y-98731500D01*
X141808500Y-98731500D01*
X141808501Y-127269836D01*
G36*
X120107157Y-110760000D02*
G01*
X120107157Y-111160000D01*
X120114513Y-111234689D01*
X120136299Y-111306508D01*
X120171678Y-111372696D01*
X120219289Y-111430711D01*
X120277304Y-111478322D01*
X120343492Y-111513701D01*
X120415311Y-111535487D01*
X120490000Y-111542843D01*
X121488501Y-111542843D01*
X121488500Y-127404298D01*
X121476903Y-127409102D01*
X121275283Y-127543820D01*
X121103820Y-127715283D01*
X120969102Y-127916903D01*
X120876307Y-128140931D01*
X120829000Y-128378757D01*
X120829000Y-128621243D01*
X120876307Y-128859069D01*
X120969102Y-129083097D01*
X121103820Y-129284717D01*
X121275283Y-129456180D01*
X121476903Y-129590898D01*
X121484392Y-129594000D01*
X120095608Y-129594000D01*
X120103097Y-129590898D01*
X120304717Y-129456180D01*
X120476180Y-129284717D01*
X120610898Y-129083097D01*
X120703693Y-128859069D01*
X120751000Y-128621243D01*
X120751000Y-128378757D01*
X120703693Y-128140931D01*
X120610898Y-127916903D01*
X120476180Y-127715283D01*
X120304717Y-127543820D01*
X120103097Y-127409102D01*
X120091500Y-127404298D01*
X120091500Y-110731500D01*
X120109964Y-110731500D01*
X120107157Y-110760000D01*
G37*
X120107157Y-110760000D02*
X120107157Y-111160000D01*
X120114513Y-111234689D01*
X120136299Y-111306508D01*
X120171678Y-111372696D01*
X120219289Y-111430711D01*
X120277304Y-111478322D01*
X120343492Y-111513701D01*
X120415311Y-111535487D01*
X120490000Y-111542843D01*
X121488501Y-111542843D01*
X121488500Y-127404298D01*
X121476903Y-127409102D01*
X121275283Y-127543820D01*
X121103820Y-127715283D01*
X120969102Y-127916903D01*
X120876307Y-128140931D01*
X120829000Y-128378757D01*
X120829000Y-128621243D01*
X120876307Y-128859069D01*
X120969102Y-129083097D01*
X121103820Y-129284717D01*
X121275283Y-129456180D01*
X121476903Y-129590898D01*
X121484392Y-129594000D01*
X120095608Y-129594000D01*
X120103097Y-129590898D01*
X120304717Y-129456180D01*
X120476180Y-129284717D01*
X120610898Y-129083097D01*
X120703693Y-128859069D01*
X120751000Y-128621243D01*
X120751000Y-128378757D01*
X120703693Y-128140931D01*
X120610898Y-127916903D01*
X120476180Y-127715283D01*
X120304717Y-127543820D01*
X120103097Y-127409102D01*
X120091500Y-127404298D01*
X120091500Y-110731500D01*
X120109964Y-110731500D01*
X120107157Y-110760000D01*
G36*
X124309001Y-127302767D02*
G01*
X124240931Y-127316307D01*
X124016903Y-127409102D01*
X123815283Y-127543820D01*
X123643820Y-127715283D01*
X123509102Y-127916903D01*
X123416307Y-128140931D01*
X123369000Y-128378757D01*
X123369000Y-128621243D01*
X123416307Y-128859069D01*
X123509102Y-129083097D01*
X123643820Y-129284717D01*
X123815283Y-129456180D01*
X124016903Y-129590898D01*
X124024392Y-129594000D01*
X122635608Y-129594000D01*
X122643097Y-129590898D01*
X122844717Y-129456180D01*
X123016180Y-129284717D01*
X123150898Y-129083097D01*
X123243693Y-128859069D01*
X123291000Y-128621243D01*
X123291000Y-128378757D01*
X123243693Y-128140931D01*
X123150898Y-127916903D01*
X123016180Y-127715283D01*
X122844717Y-127543820D01*
X122643097Y-127409102D01*
X122631500Y-127404298D01*
X122631500Y-111542843D01*
X124309002Y-111542843D01*
X124309001Y-127302767D01*
G37*
X124309001Y-127302767D02*
X124240931Y-127316307D01*
X124016903Y-127409102D01*
X123815283Y-127543820D01*
X123643820Y-127715283D01*
X123509102Y-127916903D01*
X123416307Y-128140931D01*
X123369000Y-128378757D01*
X123369000Y-128621243D01*
X123416307Y-128859069D01*
X123509102Y-129083097D01*
X123643820Y-129284717D01*
X123815283Y-129456180D01*
X124016903Y-129590898D01*
X124024392Y-129594000D01*
X122635608Y-129594000D01*
X122643097Y-129590898D01*
X122844717Y-129456180D01*
X123016180Y-129284717D01*
X123150898Y-129083097D01*
X123243693Y-128859069D01*
X123291000Y-128621243D01*
X123291000Y-128378757D01*
X123243693Y-128140931D01*
X123150898Y-127916903D01*
X123016180Y-127715283D01*
X122844717Y-127543820D01*
X122643097Y-127409102D01*
X122631500Y-127404298D01*
X122631500Y-111542843D01*
X124309002Y-111542843D01*
X124309001Y-127302767D01*
G36*
X126568501Y-127269836D02*
G01*
X126568500Y-127269846D01*
X126568500Y-127404298D01*
X126556903Y-127409102D01*
X126355283Y-127543820D01*
X126183820Y-127715283D01*
X126049102Y-127916903D01*
X125956307Y-128140931D01*
X125909000Y-128378757D01*
X125909000Y-128621243D01*
X125956307Y-128859069D01*
X126049102Y-129083097D01*
X126183820Y-129284717D01*
X126355283Y-129456180D01*
X126556903Y-129590898D01*
X126564392Y-129594000D01*
X125175608Y-129594000D01*
X125183097Y-129590898D01*
X125384717Y-129456180D01*
X125556180Y-129284717D01*
X125690898Y-129083097D01*
X125783693Y-128859069D01*
X125831000Y-128621243D01*
X125831000Y-128378757D01*
X125783693Y-128140931D01*
X125690898Y-127916903D01*
X125556180Y-127715283D01*
X125452001Y-127611104D01*
X125452001Y-103797572D01*
X125454766Y-103769500D01*
X125452001Y-103741427D01*
X125443732Y-103657467D01*
X125411053Y-103549739D01*
X125401304Y-103531500D01*
X126568500Y-103531500D01*
X126568501Y-127269836D01*
G37*
X126568501Y-127269836D02*
X126568500Y-127269846D01*
X126568500Y-127404298D01*
X126556903Y-127409102D01*
X126355283Y-127543820D01*
X126183820Y-127715283D01*
X126049102Y-127916903D01*
X125956307Y-128140931D01*
X125909000Y-128378757D01*
X125909000Y-128621243D01*
X125956307Y-128859069D01*
X126049102Y-129083097D01*
X126183820Y-129284717D01*
X126355283Y-129456180D01*
X126556903Y-129590898D01*
X126564392Y-129594000D01*
X125175608Y-129594000D01*
X125183097Y-129590898D01*
X125384717Y-129456180D01*
X125556180Y-129284717D01*
X125690898Y-129083097D01*
X125783693Y-128859069D01*
X125831000Y-128621243D01*
X125831000Y-128378757D01*
X125783693Y-128140931D01*
X125690898Y-127916903D01*
X125556180Y-127715283D01*
X125452001Y-127611104D01*
X125452001Y-103797572D01*
X125454766Y-103769500D01*
X125452001Y-103741427D01*
X125443732Y-103657467D01*
X125411053Y-103549739D01*
X125401304Y-103531500D01*
X126568500Y-103531500D01*
X126568501Y-127269836D01*
G36*
X129108501Y-127269836D02*
G01*
X129108500Y-127269846D01*
X129108500Y-127404298D01*
X129096903Y-127409102D01*
X128895283Y-127543820D01*
X128723820Y-127715283D01*
X128589102Y-127916903D01*
X128496307Y-128140931D01*
X128449000Y-128378757D01*
X128449000Y-128621243D01*
X128496307Y-128859069D01*
X128589102Y-129083097D01*
X128723820Y-129284717D01*
X128895283Y-129456180D01*
X129096903Y-129590898D01*
X129104392Y-129594000D01*
X127715608Y-129594000D01*
X127723097Y-129590898D01*
X127924717Y-129456180D01*
X128096180Y-129284717D01*
X128230898Y-129083097D01*
X128323693Y-128859069D01*
X128371000Y-128621243D01*
X128371000Y-128378757D01*
X128323693Y-128140931D01*
X128230898Y-127916903D01*
X128096180Y-127715283D01*
X127924717Y-127543820D01*
X127723097Y-127409102D01*
X127711500Y-127404298D01*
X127711500Y-102988074D01*
X127714265Y-102960000D01*
X127703231Y-102847966D01*
X127670552Y-102740238D01*
X127665881Y-102731500D01*
X129108500Y-102731500D01*
X129108501Y-127269836D01*
G37*
X129108501Y-127269836D02*
X129108500Y-127269846D01*
X129108500Y-127404298D01*
X129096903Y-127409102D01*
X128895283Y-127543820D01*
X128723820Y-127715283D01*
X128589102Y-127916903D01*
X128496307Y-128140931D01*
X128449000Y-128378757D01*
X128449000Y-128621243D01*
X128496307Y-128859069D01*
X128589102Y-129083097D01*
X128723820Y-129284717D01*
X128895283Y-129456180D01*
X129096903Y-129590898D01*
X129104392Y-129594000D01*
X127715608Y-129594000D01*
X127723097Y-129590898D01*
X127924717Y-129456180D01*
X128096180Y-129284717D01*
X128230898Y-129083097D01*
X128323693Y-128859069D01*
X128371000Y-128621243D01*
X128371000Y-128378757D01*
X128323693Y-128140931D01*
X128230898Y-127916903D01*
X128096180Y-127715283D01*
X127924717Y-127543820D01*
X127723097Y-127409102D01*
X127711500Y-127404298D01*
X127711500Y-102988074D01*
X127714265Y-102960000D01*
X127703231Y-102847966D01*
X127670552Y-102740238D01*
X127665881Y-102731500D01*
X129108500Y-102731500D01*
X129108501Y-127269836D01*
G36*
X131648501Y-127269836D02*
G01*
X131648500Y-127269846D01*
X131648500Y-127404298D01*
X131636903Y-127409102D01*
X131435283Y-127543820D01*
X131263820Y-127715283D01*
X131129102Y-127916903D01*
X131036307Y-128140931D01*
X130989000Y-128378757D01*
X130989000Y-128621243D01*
X131036307Y-128859069D01*
X131129102Y-129083097D01*
X131263820Y-129284717D01*
X131435283Y-129456180D01*
X131636903Y-129590898D01*
X131644392Y-129594000D01*
X130255608Y-129594000D01*
X130263097Y-129590898D01*
X130464717Y-129456180D01*
X130636180Y-129284717D01*
X130770898Y-129083097D01*
X130863693Y-128859069D01*
X130911000Y-128621243D01*
X130911000Y-128378757D01*
X130863693Y-128140931D01*
X130770898Y-127916903D01*
X130636180Y-127715283D01*
X130464717Y-127543820D01*
X130263097Y-127409102D01*
X130251500Y-127404298D01*
X130251500Y-102188074D01*
X130254265Y-102160000D01*
X130243231Y-102047966D01*
X130210552Y-101940238D01*
X130205881Y-101931500D01*
X131648500Y-101931500D01*
X131648501Y-127269836D01*
G37*
X131648501Y-127269836D02*
X131648500Y-127269846D01*
X131648500Y-127404298D01*
X131636903Y-127409102D01*
X131435283Y-127543820D01*
X131263820Y-127715283D01*
X131129102Y-127916903D01*
X131036307Y-128140931D01*
X130989000Y-128378757D01*
X130989000Y-128621243D01*
X131036307Y-128859069D01*
X131129102Y-129083097D01*
X131263820Y-129284717D01*
X131435283Y-129456180D01*
X131636903Y-129590898D01*
X131644392Y-129594000D01*
X130255608Y-129594000D01*
X130263097Y-129590898D01*
X130464717Y-129456180D01*
X130636180Y-129284717D01*
X130770898Y-129083097D01*
X130863693Y-128859069D01*
X130911000Y-128621243D01*
X130911000Y-128378757D01*
X130863693Y-128140931D01*
X130770898Y-127916903D01*
X130636180Y-127715283D01*
X130464717Y-127543820D01*
X130263097Y-127409102D01*
X130251500Y-127404298D01*
X130251500Y-102188074D01*
X130254265Y-102160000D01*
X130243231Y-102047966D01*
X130210552Y-101940238D01*
X130205881Y-101931500D01*
X131648500Y-101931500D01*
X131648501Y-127269836D01*
G36*
X134188501Y-127269836D02*
G01*
X134188500Y-127269846D01*
X134188500Y-127404298D01*
X134176903Y-127409102D01*
X133975283Y-127543820D01*
X133803820Y-127715283D01*
X133669102Y-127916903D01*
X133576307Y-128140931D01*
X133529000Y-128378757D01*
X133529000Y-128621243D01*
X133576307Y-128859069D01*
X133669102Y-129083097D01*
X133803820Y-129284717D01*
X133975283Y-129456180D01*
X134176903Y-129590898D01*
X134184392Y-129594000D01*
X132795608Y-129594000D01*
X132803097Y-129590898D01*
X133004717Y-129456180D01*
X133176180Y-129284717D01*
X133310898Y-129083097D01*
X133403693Y-128859069D01*
X133451000Y-128621243D01*
X133451000Y-128378757D01*
X133403693Y-128140931D01*
X133310898Y-127916903D01*
X133176180Y-127715283D01*
X133004717Y-127543820D01*
X132803097Y-127409102D01*
X132791500Y-127404298D01*
X132791500Y-101388074D01*
X132794265Y-101360000D01*
X132783231Y-101247966D01*
X132750552Y-101140238D01*
X132745881Y-101131500D01*
X134188500Y-101131500D01*
X134188501Y-127269836D01*
G37*
X134188501Y-127269836D02*
X134188500Y-127269846D01*
X134188500Y-127404298D01*
X134176903Y-127409102D01*
X133975283Y-127543820D01*
X133803820Y-127715283D01*
X133669102Y-127916903D01*
X133576307Y-128140931D01*
X133529000Y-128378757D01*
X133529000Y-128621243D01*
X133576307Y-128859069D01*
X133669102Y-129083097D01*
X133803820Y-129284717D01*
X133975283Y-129456180D01*
X134176903Y-129590898D01*
X134184392Y-129594000D01*
X132795608Y-129594000D01*
X132803097Y-129590898D01*
X133004717Y-129456180D01*
X133176180Y-129284717D01*
X133310898Y-129083097D01*
X133403693Y-128859069D01*
X133451000Y-128621243D01*
X133451000Y-128378757D01*
X133403693Y-128140931D01*
X133310898Y-127916903D01*
X133176180Y-127715283D01*
X133004717Y-127543820D01*
X132803097Y-127409102D01*
X132791500Y-127404298D01*
X132791500Y-101388074D01*
X132794265Y-101360000D01*
X132783231Y-101247966D01*
X132750552Y-101140238D01*
X132745881Y-101131500D01*
X134188500Y-101131500D01*
X134188501Y-127269836D01*
G36*
X136728501Y-127269836D02*
G01*
X136728500Y-127269846D01*
X136728500Y-127404298D01*
X136716903Y-127409102D01*
X136515283Y-127543820D01*
X136343820Y-127715283D01*
X136209102Y-127916903D01*
X136116307Y-128140931D01*
X136069000Y-128378757D01*
X136069000Y-128621243D01*
X136116307Y-128859069D01*
X136209102Y-129083097D01*
X136343820Y-129284717D01*
X136515283Y-129456180D01*
X136716903Y-129590898D01*
X136724392Y-129594000D01*
X135335608Y-129594000D01*
X135343097Y-129590898D01*
X135544717Y-129456180D01*
X135716180Y-129284717D01*
X135850898Y-129083097D01*
X135943693Y-128859069D01*
X135991000Y-128621243D01*
X135991000Y-128378757D01*
X135943693Y-128140931D01*
X135850898Y-127916903D01*
X135716180Y-127715283D01*
X135544717Y-127543820D01*
X135343097Y-127409102D01*
X135331500Y-127404298D01*
X135331500Y-100588074D01*
X135334265Y-100560000D01*
X135323231Y-100447966D01*
X135290552Y-100340238D01*
X135285881Y-100331500D01*
X136728500Y-100331500D01*
X136728501Y-127269836D01*
G37*
X136728501Y-127269836D02*
X136728500Y-127269846D01*
X136728500Y-127404298D01*
X136716903Y-127409102D01*
X136515283Y-127543820D01*
X136343820Y-127715283D01*
X136209102Y-127916903D01*
X136116307Y-128140931D01*
X136069000Y-128378757D01*
X136069000Y-128621243D01*
X136116307Y-128859069D01*
X136209102Y-129083097D01*
X136343820Y-129284717D01*
X136515283Y-129456180D01*
X136716903Y-129590898D01*
X136724392Y-129594000D01*
X135335608Y-129594000D01*
X135343097Y-129590898D01*
X135544717Y-129456180D01*
X135716180Y-129284717D01*
X135850898Y-129083097D01*
X135943693Y-128859069D01*
X135991000Y-128621243D01*
X135991000Y-128378757D01*
X135943693Y-128140931D01*
X135850898Y-127916903D01*
X135716180Y-127715283D01*
X135544717Y-127543820D01*
X135343097Y-127409102D01*
X135331500Y-127404298D01*
X135331500Y-100588074D01*
X135334265Y-100560000D01*
X135323231Y-100447966D01*
X135290552Y-100340238D01*
X135285881Y-100331500D01*
X136728500Y-100331500D01*
X136728501Y-127269836D01*
G36*
X139268501Y-127269836D02*
G01*
X139268500Y-127269846D01*
X139268500Y-127404298D01*
X139256903Y-127409102D01*
X139055283Y-127543820D01*
X138883820Y-127715283D01*
X138749102Y-127916903D01*
X138656307Y-128140931D01*
X138609000Y-128378757D01*
X138609000Y-128621243D01*
X138656307Y-128859069D01*
X138749102Y-129083097D01*
X138883820Y-129284717D01*
X139055283Y-129456180D01*
X139256903Y-129590898D01*
X139264392Y-129594000D01*
X137875608Y-129594000D01*
X137883097Y-129590898D01*
X138084717Y-129456180D01*
X138256180Y-129284717D01*
X138390898Y-129083097D01*
X138483693Y-128859069D01*
X138531000Y-128621243D01*
X138531000Y-128378757D01*
X138483693Y-128140931D01*
X138390898Y-127916903D01*
X138256180Y-127715283D01*
X138084717Y-127543820D01*
X137883097Y-127409102D01*
X137871500Y-127404298D01*
X137871500Y-99788074D01*
X137874265Y-99760000D01*
X137863231Y-99647966D01*
X137830552Y-99540238D01*
X137825881Y-99531500D01*
X139268500Y-99531500D01*
X139268501Y-127269836D01*
G37*
X139268501Y-127269836D02*
X139268500Y-127269846D01*
X139268500Y-127404298D01*
X139256903Y-127409102D01*
X139055283Y-127543820D01*
X138883820Y-127715283D01*
X138749102Y-127916903D01*
X138656307Y-128140931D01*
X138609000Y-128378757D01*
X138609000Y-128621243D01*
X138656307Y-128859069D01*
X138749102Y-129083097D01*
X138883820Y-129284717D01*
X139055283Y-129456180D01*
X139256903Y-129590898D01*
X139264392Y-129594000D01*
X137875608Y-129594000D01*
X137883097Y-129590898D01*
X138084717Y-129456180D01*
X138256180Y-129284717D01*
X138390898Y-129083097D01*
X138483693Y-128859069D01*
X138531000Y-128621243D01*
X138531000Y-128378757D01*
X138483693Y-128140931D01*
X138390898Y-127916903D01*
X138256180Y-127715283D01*
X138084717Y-127543820D01*
X137883097Y-127409102D01*
X137871500Y-127404298D01*
X137871500Y-99788074D01*
X137874265Y-99760000D01*
X137863231Y-99647966D01*
X137830552Y-99540238D01*
X137825881Y-99531500D01*
X139268500Y-99531500D01*
X139268501Y-127269836D01*
G36*
X169748501Y-127404298D02*
G01*
X169736903Y-127409102D01*
X169535283Y-127543820D01*
X169363820Y-127715283D01*
X169229102Y-127916903D01*
X169136307Y-128140931D01*
X169089000Y-128378757D01*
X169089000Y-128621243D01*
X169136307Y-128859069D01*
X169229102Y-129083097D01*
X169363820Y-129284717D01*
X169535283Y-129456180D01*
X169736903Y-129590898D01*
X169744392Y-129594000D01*
X168355608Y-129594000D01*
X168363097Y-129590898D01*
X168564717Y-129456180D01*
X168736180Y-129284717D01*
X168870898Y-129083097D01*
X168963693Y-128859069D01*
X169011000Y-128621243D01*
X169011000Y-128378757D01*
X168963693Y-128140931D01*
X168870898Y-127916903D01*
X168736180Y-127715283D01*
X168564717Y-127543820D01*
X168363097Y-127409102D01*
X168351500Y-127404298D01*
X168351500Y-90188074D01*
X168354265Y-90160000D01*
X168343231Y-90047966D01*
X168310552Y-89940238D01*
X168305881Y-89931500D01*
X169748500Y-89931500D01*
X169748501Y-127404298D01*
G37*
X169748501Y-127404298D02*
X169736903Y-127409102D01*
X169535283Y-127543820D01*
X169363820Y-127715283D01*
X169229102Y-127916903D01*
X169136307Y-128140931D01*
X169089000Y-128378757D01*
X169089000Y-128621243D01*
X169136307Y-128859069D01*
X169229102Y-129083097D01*
X169363820Y-129284717D01*
X169535283Y-129456180D01*
X169736903Y-129590898D01*
X169744392Y-129594000D01*
X168355608Y-129594000D01*
X168363097Y-129590898D01*
X168564717Y-129456180D01*
X168736180Y-129284717D01*
X168870898Y-129083097D01*
X168963693Y-128859069D01*
X169011000Y-128621243D01*
X169011000Y-128378757D01*
X168963693Y-128140931D01*
X168870898Y-127916903D01*
X168736180Y-127715283D01*
X168564717Y-127543820D01*
X168363097Y-127409102D01*
X168351500Y-127404298D01*
X168351500Y-90188074D01*
X168354265Y-90160000D01*
X168343231Y-90047966D01*
X168310552Y-89940238D01*
X168305881Y-89931500D01*
X169748500Y-89931500D01*
X169748501Y-127404298D01*
G36*
X144348501Y-127269836D02*
G01*
X144348500Y-127269846D01*
X144348500Y-127404298D01*
X144336903Y-127409102D01*
X144135283Y-127543820D01*
X143963820Y-127715283D01*
X143829102Y-127916903D01*
X143736307Y-128140931D01*
X143689000Y-128378757D01*
X143689000Y-128621243D01*
X143736307Y-128859069D01*
X143829102Y-129083097D01*
X143963820Y-129284717D01*
X144135283Y-129456180D01*
X144336903Y-129590898D01*
X144344392Y-129594000D01*
X142955608Y-129594000D01*
X142963097Y-129590898D01*
X143164717Y-129456180D01*
X143336180Y-129284717D01*
X143470898Y-129083097D01*
X143563693Y-128859069D01*
X143611000Y-128621243D01*
X143611000Y-128378757D01*
X143563693Y-128140931D01*
X143470898Y-127916903D01*
X143336180Y-127715283D01*
X143164717Y-127543820D01*
X142963097Y-127409102D01*
X142951500Y-127404298D01*
X142951500Y-98188074D01*
X142954265Y-98160000D01*
X142943231Y-98047966D01*
X142910552Y-97940238D01*
X142905881Y-97931500D01*
X144348500Y-97931500D01*
X144348501Y-127269836D01*
G37*
X144348501Y-127269836D02*
X144348500Y-127269846D01*
X144348500Y-127404298D01*
X144336903Y-127409102D01*
X144135283Y-127543820D01*
X143963820Y-127715283D01*
X143829102Y-127916903D01*
X143736307Y-128140931D01*
X143689000Y-128378757D01*
X143689000Y-128621243D01*
X143736307Y-128859069D01*
X143829102Y-129083097D01*
X143963820Y-129284717D01*
X144135283Y-129456180D01*
X144336903Y-129590898D01*
X144344392Y-129594000D01*
X142955608Y-129594000D01*
X142963097Y-129590898D01*
X143164717Y-129456180D01*
X143336180Y-129284717D01*
X143470898Y-129083097D01*
X143563693Y-128859069D01*
X143611000Y-128621243D01*
X143611000Y-128378757D01*
X143563693Y-128140931D01*
X143470898Y-127916903D01*
X143336180Y-127715283D01*
X143164717Y-127543820D01*
X142963097Y-127409102D01*
X142951500Y-127404298D01*
X142951500Y-98188074D01*
X142954265Y-98160000D01*
X142943231Y-98047966D01*
X142910552Y-97940238D01*
X142905881Y-97931500D01*
X144348500Y-97931500D01*
X144348501Y-127269836D01*
G36*
X197688501Y-127267157D02*
G01*
X197410000Y-127267157D01*
X197335311Y-127274513D01*
X197263492Y-127296299D01*
X197197304Y-127331678D01*
X197139289Y-127379289D01*
X197091678Y-127437304D01*
X197056299Y-127503492D01*
X197034513Y-127575311D01*
X197027157Y-127650000D01*
X197027157Y-129350000D01*
X197034513Y-129424689D01*
X197056299Y-129496508D01*
X197091678Y-129562696D01*
X197117368Y-129594000D01*
X196295608Y-129594000D01*
X196303097Y-129590898D01*
X196504717Y-129456180D01*
X196676180Y-129284717D01*
X196810898Y-129083097D01*
X196903693Y-128859069D01*
X196951000Y-128621243D01*
X196951000Y-128378757D01*
X196903693Y-128140931D01*
X196810898Y-127916903D01*
X196676180Y-127715283D01*
X196504717Y-127543820D01*
X196303097Y-127409102D01*
X196291500Y-127404298D01*
X196291500Y-81388074D01*
X196294265Y-81360000D01*
X196283231Y-81247966D01*
X196250552Y-81140238D01*
X196245881Y-81131500D01*
X197688500Y-81131500D01*
X197688501Y-127267157D01*
G37*
X197688501Y-127267157D02*
X197410000Y-127267157D01*
X197335311Y-127274513D01*
X197263492Y-127296299D01*
X197197304Y-127331678D01*
X197139289Y-127379289D01*
X197091678Y-127437304D01*
X197056299Y-127503492D01*
X197034513Y-127575311D01*
X197027157Y-127650000D01*
X197027157Y-129350000D01*
X197034513Y-129424689D01*
X197056299Y-129496508D01*
X197091678Y-129562696D01*
X197117368Y-129594000D01*
X196295608Y-129594000D01*
X196303097Y-129590898D01*
X196504717Y-129456180D01*
X196676180Y-129284717D01*
X196810898Y-129083097D01*
X196903693Y-128859069D01*
X196951000Y-128621243D01*
X196951000Y-128378757D01*
X196903693Y-128140931D01*
X196810898Y-127916903D01*
X196676180Y-127715283D01*
X196504717Y-127543820D01*
X196303097Y-127409102D01*
X196291500Y-127404298D01*
X196291500Y-81388074D01*
X196294265Y-81360000D01*
X196283231Y-81247966D01*
X196250552Y-81140238D01*
X196245881Y-81131500D01*
X197688500Y-81131500D01*
X197688501Y-127267157D01*
G36*
X149428501Y-127269836D02*
G01*
X149428500Y-127269846D01*
X149428500Y-127404298D01*
X149416903Y-127409102D01*
X149215283Y-127543820D01*
X149043820Y-127715283D01*
X148909102Y-127916903D01*
X148816307Y-128140931D01*
X148769000Y-128378757D01*
X148769000Y-128621243D01*
X148816307Y-128859069D01*
X148909102Y-129083097D01*
X149043820Y-129284717D01*
X149215283Y-129456180D01*
X149416903Y-129590898D01*
X149424392Y-129594000D01*
X148035608Y-129594000D01*
X148043097Y-129590898D01*
X148244717Y-129456180D01*
X148416180Y-129284717D01*
X148550898Y-129083097D01*
X148643693Y-128859069D01*
X148691000Y-128621243D01*
X148691000Y-128378757D01*
X148643693Y-128140931D01*
X148550898Y-127916903D01*
X148416180Y-127715283D01*
X148244717Y-127543820D01*
X148043097Y-127409102D01*
X148031500Y-127404298D01*
X148031500Y-96588074D01*
X148034265Y-96560000D01*
X148023231Y-96447966D01*
X147990552Y-96340238D01*
X147985881Y-96331500D01*
X149428500Y-96331500D01*
X149428501Y-127269836D01*
G37*
X149428501Y-127269836D02*
X149428500Y-127269846D01*
X149428500Y-127404298D01*
X149416903Y-127409102D01*
X149215283Y-127543820D01*
X149043820Y-127715283D01*
X148909102Y-127916903D01*
X148816307Y-128140931D01*
X148769000Y-128378757D01*
X148769000Y-128621243D01*
X148816307Y-128859069D01*
X148909102Y-129083097D01*
X149043820Y-129284717D01*
X149215283Y-129456180D01*
X149416903Y-129590898D01*
X149424392Y-129594000D01*
X148035608Y-129594000D01*
X148043097Y-129590898D01*
X148244717Y-129456180D01*
X148416180Y-129284717D01*
X148550898Y-129083097D01*
X148643693Y-128859069D01*
X148691000Y-128621243D01*
X148691000Y-128378757D01*
X148643693Y-128140931D01*
X148550898Y-127916903D01*
X148416180Y-127715283D01*
X148244717Y-127543820D01*
X148043097Y-127409102D01*
X148031500Y-127404298D01*
X148031500Y-96588074D01*
X148034265Y-96560000D01*
X148023231Y-96447966D01*
X147990552Y-96340238D01*
X147985881Y-96331500D01*
X149428500Y-96331500D01*
X149428501Y-127269836D01*
G36*
X151968501Y-127269836D02*
G01*
X151968500Y-127269846D01*
X151968500Y-127404298D01*
X151956903Y-127409102D01*
X151755283Y-127543820D01*
X151583820Y-127715283D01*
X151449102Y-127916903D01*
X151356307Y-128140931D01*
X151309000Y-128378757D01*
X151309000Y-128621243D01*
X151356307Y-128859069D01*
X151449102Y-129083097D01*
X151583820Y-129284717D01*
X151755283Y-129456180D01*
X151956903Y-129590898D01*
X151964392Y-129594000D01*
X150575608Y-129594000D01*
X150583097Y-129590898D01*
X150784717Y-129456180D01*
X150956180Y-129284717D01*
X151090898Y-129083097D01*
X151183693Y-128859069D01*
X151231000Y-128621243D01*
X151231000Y-128378757D01*
X151183693Y-128140931D01*
X151090898Y-127916903D01*
X150956180Y-127715283D01*
X150784717Y-127543820D01*
X150583097Y-127409102D01*
X150571500Y-127404298D01*
X150571500Y-95788074D01*
X150574265Y-95760000D01*
X150563231Y-95647966D01*
X150530552Y-95540238D01*
X150525881Y-95531500D01*
X151968500Y-95531500D01*
X151968501Y-127269836D01*
G37*
X151968501Y-127269836D02*
X151968500Y-127269846D01*
X151968500Y-127404298D01*
X151956903Y-127409102D01*
X151755283Y-127543820D01*
X151583820Y-127715283D01*
X151449102Y-127916903D01*
X151356307Y-128140931D01*
X151309000Y-128378757D01*
X151309000Y-128621243D01*
X151356307Y-128859069D01*
X151449102Y-129083097D01*
X151583820Y-129284717D01*
X151755283Y-129456180D01*
X151956903Y-129590898D01*
X151964392Y-129594000D01*
X150575608Y-129594000D01*
X150583097Y-129590898D01*
X150784717Y-129456180D01*
X150956180Y-129284717D01*
X151090898Y-129083097D01*
X151183693Y-128859069D01*
X151231000Y-128621243D01*
X151231000Y-128378757D01*
X151183693Y-128140931D01*
X151090898Y-127916903D01*
X150956180Y-127715283D01*
X150784717Y-127543820D01*
X150583097Y-127409102D01*
X150571500Y-127404298D01*
X150571500Y-95788074D01*
X150574265Y-95760000D01*
X150563231Y-95647966D01*
X150530552Y-95540238D01*
X150525881Y-95531500D01*
X151968500Y-95531500D01*
X151968501Y-127269836D01*
G36*
X154508501Y-127269836D02*
G01*
X154508500Y-127269846D01*
X154508500Y-127404298D01*
X154496903Y-127409102D01*
X154295283Y-127543820D01*
X154123820Y-127715283D01*
X153989102Y-127916903D01*
X153896307Y-128140931D01*
X153849000Y-128378757D01*
X153849000Y-128621243D01*
X153896307Y-128859069D01*
X153989102Y-129083097D01*
X154123820Y-129284717D01*
X154295283Y-129456180D01*
X154496903Y-129590898D01*
X154504392Y-129594000D01*
X153115608Y-129594000D01*
X153123097Y-129590898D01*
X153324717Y-129456180D01*
X153496180Y-129284717D01*
X153630898Y-129083097D01*
X153723693Y-128859069D01*
X153771000Y-128621243D01*
X153771000Y-128378757D01*
X153723693Y-128140931D01*
X153630898Y-127916903D01*
X153496180Y-127715283D01*
X153324717Y-127543820D01*
X153123097Y-127409102D01*
X153111500Y-127404298D01*
X153111500Y-94988074D01*
X153114265Y-94960000D01*
X153103231Y-94847966D01*
X153070552Y-94740238D01*
X153065881Y-94731500D01*
X154508500Y-94731500D01*
X154508501Y-127269836D01*
G37*
X154508501Y-127269836D02*
X154508500Y-127269846D01*
X154508500Y-127404298D01*
X154496903Y-127409102D01*
X154295283Y-127543820D01*
X154123820Y-127715283D01*
X153989102Y-127916903D01*
X153896307Y-128140931D01*
X153849000Y-128378757D01*
X153849000Y-128621243D01*
X153896307Y-128859069D01*
X153989102Y-129083097D01*
X154123820Y-129284717D01*
X154295283Y-129456180D01*
X154496903Y-129590898D01*
X154504392Y-129594000D01*
X153115608Y-129594000D01*
X153123097Y-129590898D01*
X153324717Y-129456180D01*
X153496180Y-129284717D01*
X153630898Y-129083097D01*
X153723693Y-128859069D01*
X153771000Y-128621243D01*
X153771000Y-128378757D01*
X153723693Y-128140931D01*
X153630898Y-127916903D01*
X153496180Y-127715283D01*
X153324717Y-127543820D01*
X153123097Y-127409102D01*
X153111500Y-127404298D01*
X153111500Y-94988074D01*
X153114265Y-94960000D01*
X153103231Y-94847966D01*
X153070552Y-94740238D01*
X153065881Y-94731500D01*
X154508500Y-94731500D01*
X154508501Y-127269836D01*
G36*
X157048501Y-127269836D02*
G01*
X157048500Y-127269846D01*
X157048500Y-127404298D01*
X157036903Y-127409102D01*
X156835283Y-127543820D01*
X156663820Y-127715283D01*
X156529102Y-127916903D01*
X156436307Y-128140931D01*
X156389000Y-128378757D01*
X156389000Y-128621243D01*
X156436307Y-128859069D01*
X156529102Y-129083097D01*
X156663820Y-129284717D01*
X156835283Y-129456180D01*
X157036903Y-129590898D01*
X157044392Y-129594000D01*
X155655608Y-129594000D01*
X155663097Y-129590898D01*
X155864717Y-129456180D01*
X156036180Y-129284717D01*
X156170898Y-129083097D01*
X156263693Y-128859069D01*
X156311000Y-128621243D01*
X156311000Y-128378757D01*
X156263693Y-128140931D01*
X156170898Y-127916903D01*
X156036180Y-127715283D01*
X155864717Y-127543820D01*
X155663097Y-127409102D01*
X155651500Y-127404298D01*
X155651500Y-94188074D01*
X155654265Y-94160000D01*
X155643231Y-94047966D01*
X155610552Y-93940238D01*
X155605881Y-93931500D01*
X157048500Y-93931500D01*
X157048501Y-127269836D01*
G37*
X157048501Y-127269836D02*
X157048500Y-127269846D01*
X157048500Y-127404298D01*
X157036903Y-127409102D01*
X156835283Y-127543820D01*
X156663820Y-127715283D01*
X156529102Y-127916903D01*
X156436307Y-128140931D01*
X156389000Y-128378757D01*
X156389000Y-128621243D01*
X156436307Y-128859069D01*
X156529102Y-129083097D01*
X156663820Y-129284717D01*
X156835283Y-129456180D01*
X157036903Y-129590898D01*
X157044392Y-129594000D01*
X155655608Y-129594000D01*
X155663097Y-129590898D01*
X155864717Y-129456180D01*
X156036180Y-129284717D01*
X156170898Y-129083097D01*
X156263693Y-128859069D01*
X156311000Y-128621243D01*
X156311000Y-128378757D01*
X156263693Y-128140931D01*
X156170898Y-127916903D01*
X156036180Y-127715283D01*
X155864717Y-127543820D01*
X155663097Y-127409102D01*
X155651500Y-127404298D01*
X155651500Y-94188074D01*
X155654265Y-94160000D01*
X155643231Y-94047966D01*
X155610552Y-93940238D01*
X155605881Y-93931500D01*
X157048500Y-93931500D01*
X157048501Y-127269836D01*
G36*
X159588501Y-127404298D02*
G01*
X159576903Y-127409102D01*
X159375283Y-127543820D01*
X159203820Y-127715283D01*
X159069102Y-127916903D01*
X158976307Y-128140931D01*
X158929000Y-128378757D01*
X158929000Y-128621243D01*
X158976307Y-128859069D01*
X159069102Y-129083097D01*
X159203820Y-129284717D01*
X159375283Y-129456180D01*
X159576903Y-129590898D01*
X159584392Y-129594000D01*
X158195608Y-129594000D01*
X158203097Y-129590898D01*
X158404717Y-129456180D01*
X158576180Y-129284717D01*
X158710898Y-129083097D01*
X158803693Y-128859069D01*
X158851000Y-128621243D01*
X158851000Y-128378757D01*
X158803693Y-128140931D01*
X158710898Y-127916903D01*
X158576180Y-127715283D01*
X158404717Y-127543820D01*
X158203097Y-127409102D01*
X158191500Y-127404298D01*
X158191500Y-93388074D01*
X158194265Y-93360000D01*
X158183231Y-93247966D01*
X158150552Y-93140238D01*
X158145881Y-93131500D01*
X159588500Y-93131500D01*
X159588501Y-127404298D01*
G37*
X159588501Y-127404298D02*
X159576903Y-127409102D01*
X159375283Y-127543820D01*
X159203820Y-127715283D01*
X159069102Y-127916903D01*
X158976307Y-128140931D01*
X158929000Y-128378757D01*
X158929000Y-128621243D01*
X158976307Y-128859069D01*
X159069102Y-129083097D01*
X159203820Y-129284717D01*
X159375283Y-129456180D01*
X159576903Y-129590898D01*
X159584392Y-129594000D01*
X158195608Y-129594000D01*
X158203097Y-129590898D01*
X158404717Y-129456180D01*
X158576180Y-129284717D01*
X158710898Y-129083097D01*
X158803693Y-128859069D01*
X158851000Y-128621243D01*
X158851000Y-128378757D01*
X158803693Y-128140931D01*
X158710898Y-127916903D01*
X158576180Y-127715283D01*
X158404717Y-127543820D01*
X158203097Y-127409102D01*
X158191500Y-127404298D01*
X158191500Y-93388074D01*
X158194265Y-93360000D01*
X158183231Y-93247966D01*
X158150552Y-93140238D01*
X158145881Y-93131500D01*
X159588500Y-93131500D01*
X159588501Y-127404298D01*
G36*
X162128501Y-127404298D02*
G01*
X162116903Y-127409102D01*
X161915283Y-127543820D01*
X161743820Y-127715283D01*
X161609102Y-127916903D01*
X161516307Y-128140931D01*
X161469000Y-128378757D01*
X161469000Y-128621243D01*
X161516307Y-128859069D01*
X161609102Y-129083097D01*
X161743820Y-129284717D01*
X161915283Y-129456180D01*
X162116903Y-129590898D01*
X162124392Y-129594000D01*
X160735608Y-129594000D01*
X160743097Y-129590898D01*
X160944717Y-129456180D01*
X161116180Y-129284717D01*
X161250898Y-129083097D01*
X161343693Y-128859069D01*
X161391000Y-128621243D01*
X161391000Y-128378757D01*
X161343693Y-128140931D01*
X161250898Y-127916903D01*
X161116180Y-127715283D01*
X160944717Y-127543820D01*
X160743097Y-127409102D01*
X160731500Y-127404298D01*
X160731500Y-92588074D01*
X160734265Y-92560000D01*
X160723231Y-92447966D01*
X160690552Y-92340238D01*
X160685881Y-92331500D01*
X162128500Y-92331500D01*
X162128501Y-127404298D01*
G37*
X162128501Y-127404298D02*
X162116903Y-127409102D01*
X161915283Y-127543820D01*
X161743820Y-127715283D01*
X161609102Y-127916903D01*
X161516307Y-128140931D01*
X161469000Y-128378757D01*
X161469000Y-128621243D01*
X161516307Y-128859069D01*
X161609102Y-129083097D01*
X161743820Y-129284717D01*
X161915283Y-129456180D01*
X162116903Y-129590898D01*
X162124392Y-129594000D01*
X160735608Y-129594000D01*
X160743097Y-129590898D01*
X160944717Y-129456180D01*
X161116180Y-129284717D01*
X161250898Y-129083097D01*
X161343693Y-128859069D01*
X161391000Y-128621243D01*
X161391000Y-128378757D01*
X161343693Y-128140931D01*
X161250898Y-127916903D01*
X161116180Y-127715283D01*
X160944717Y-127543820D01*
X160743097Y-127409102D01*
X160731500Y-127404298D01*
X160731500Y-92588074D01*
X160734265Y-92560000D01*
X160723231Y-92447966D01*
X160690552Y-92340238D01*
X160685881Y-92331500D01*
X162128500Y-92331500D01*
X162128501Y-127404298D01*
G36*
X164668501Y-127404298D02*
G01*
X164656903Y-127409102D01*
X164455283Y-127543820D01*
X164283820Y-127715283D01*
X164149102Y-127916903D01*
X164056307Y-128140931D01*
X164009000Y-128378757D01*
X164009000Y-128621243D01*
X164056307Y-128859069D01*
X164149102Y-129083097D01*
X164283820Y-129284717D01*
X164455283Y-129456180D01*
X164656903Y-129590898D01*
X164664392Y-129594000D01*
X163275608Y-129594000D01*
X163283097Y-129590898D01*
X163484717Y-129456180D01*
X163656180Y-129284717D01*
X163790898Y-129083097D01*
X163883693Y-128859069D01*
X163931000Y-128621243D01*
X163931000Y-128378757D01*
X163883693Y-128140931D01*
X163790898Y-127916903D01*
X163656180Y-127715283D01*
X163484717Y-127543820D01*
X163283097Y-127409102D01*
X163271500Y-127404298D01*
X163271500Y-91788074D01*
X163274265Y-91760000D01*
X163263231Y-91647966D01*
X163230552Y-91540238D01*
X163225881Y-91531500D01*
X164668500Y-91531500D01*
X164668501Y-127404298D01*
G37*
X164668501Y-127404298D02*
X164656903Y-127409102D01*
X164455283Y-127543820D01*
X164283820Y-127715283D01*
X164149102Y-127916903D01*
X164056307Y-128140931D01*
X164009000Y-128378757D01*
X164009000Y-128621243D01*
X164056307Y-128859069D01*
X164149102Y-129083097D01*
X164283820Y-129284717D01*
X164455283Y-129456180D01*
X164656903Y-129590898D01*
X164664392Y-129594000D01*
X163275608Y-129594000D01*
X163283097Y-129590898D01*
X163484717Y-129456180D01*
X163656180Y-129284717D01*
X163790898Y-129083097D01*
X163883693Y-128859069D01*
X163931000Y-128621243D01*
X163931000Y-128378757D01*
X163883693Y-128140931D01*
X163790898Y-127916903D01*
X163656180Y-127715283D01*
X163484717Y-127543820D01*
X163283097Y-127409102D01*
X163271500Y-127404298D01*
X163271500Y-91788074D01*
X163274265Y-91760000D01*
X163263231Y-91647966D01*
X163230552Y-91540238D01*
X163225881Y-91531500D01*
X164668500Y-91531500D01*
X164668501Y-127404298D01*
G36*
X167208501Y-127404298D02*
G01*
X167196903Y-127409102D01*
X166995283Y-127543820D01*
X166823820Y-127715283D01*
X166689102Y-127916903D01*
X166596307Y-128140931D01*
X166549000Y-128378757D01*
X166549000Y-128621243D01*
X166596307Y-128859069D01*
X166689102Y-129083097D01*
X166823820Y-129284717D01*
X166995283Y-129456180D01*
X167196903Y-129590898D01*
X167204392Y-129594000D01*
X165815608Y-129594000D01*
X165823097Y-129590898D01*
X166024717Y-129456180D01*
X166196180Y-129284717D01*
X166330898Y-129083097D01*
X166423693Y-128859069D01*
X166471000Y-128621243D01*
X166471000Y-128378757D01*
X166423693Y-128140931D01*
X166330898Y-127916903D01*
X166196180Y-127715283D01*
X166024717Y-127543820D01*
X165823097Y-127409102D01*
X165811500Y-127404298D01*
X165811500Y-90988074D01*
X165814265Y-90960000D01*
X165803231Y-90847966D01*
X165770552Y-90740238D01*
X165765881Y-90731500D01*
X167208500Y-90731500D01*
X167208501Y-127404298D01*
G37*
X167208501Y-127404298D02*
X167196903Y-127409102D01*
X166995283Y-127543820D01*
X166823820Y-127715283D01*
X166689102Y-127916903D01*
X166596307Y-128140931D01*
X166549000Y-128378757D01*
X166549000Y-128621243D01*
X166596307Y-128859069D01*
X166689102Y-129083097D01*
X166823820Y-129284717D01*
X166995283Y-129456180D01*
X167196903Y-129590898D01*
X167204392Y-129594000D01*
X165815608Y-129594000D01*
X165823097Y-129590898D01*
X166024717Y-129456180D01*
X166196180Y-129284717D01*
X166330898Y-129083097D01*
X166423693Y-128859069D01*
X166471000Y-128621243D01*
X166471000Y-128378757D01*
X166423693Y-128140931D01*
X166330898Y-127916903D01*
X166196180Y-127715283D01*
X166024717Y-127543820D01*
X165823097Y-127409102D01*
X165811500Y-127404298D01*
X165811500Y-90988074D01*
X165814265Y-90960000D01*
X165803231Y-90847966D01*
X165770552Y-90740238D01*
X165765881Y-90731500D01*
X167208500Y-90731500D01*
X167208501Y-127404298D01*
G36*
X192608500Y-127404298D02*
G01*
X192596903Y-127409102D01*
X192395283Y-127543820D01*
X192223820Y-127715283D01*
X192089102Y-127916903D01*
X191996307Y-128140931D01*
X191949000Y-128378757D01*
X191949000Y-128621243D01*
X191996307Y-128859069D01*
X192089102Y-129083097D01*
X192223820Y-129284717D01*
X192395283Y-129456180D01*
X192596903Y-129590898D01*
X192604392Y-129594000D01*
X191215608Y-129594000D01*
X191223097Y-129590898D01*
X191424717Y-129456180D01*
X191596180Y-129284717D01*
X191730898Y-129083097D01*
X191823693Y-128859069D01*
X191871000Y-128621243D01*
X191871000Y-128378757D01*
X191823693Y-128140931D01*
X191730898Y-127916903D01*
X191596180Y-127715283D01*
X191424717Y-127543820D01*
X191223097Y-127409102D01*
X191211500Y-127404298D01*
X191211500Y-82988074D01*
X191214265Y-82960000D01*
X191203231Y-82847966D01*
X191170552Y-82740238D01*
X191165881Y-82731500D01*
X192608501Y-82731500D01*
X192608500Y-127404298D01*
G37*
X192608500Y-127404298D02*
X192596903Y-127409102D01*
X192395283Y-127543820D01*
X192223820Y-127715283D01*
X192089102Y-127916903D01*
X191996307Y-128140931D01*
X191949000Y-128378757D01*
X191949000Y-128621243D01*
X191996307Y-128859069D01*
X192089102Y-129083097D01*
X192223820Y-129284717D01*
X192395283Y-129456180D01*
X192596903Y-129590898D01*
X192604392Y-129594000D01*
X191215608Y-129594000D01*
X191223097Y-129590898D01*
X191424717Y-129456180D01*
X191596180Y-129284717D01*
X191730898Y-129083097D01*
X191823693Y-128859069D01*
X191871000Y-128621243D01*
X191871000Y-128378757D01*
X191823693Y-128140931D01*
X191730898Y-127916903D01*
X191596180Y-127715283D01*
X191424717Y-127543820D01*
X191223097Y-127409102D01*
X191211500Y-127404298D01*
X191211500Y-82988074D01*
X191214265Y-82960000D01*
X191203231Y-82847966D01*
X191170552Y-82740238D01*
X191165881Y-82731500D01*
X192608501Y-82731500D01*
X192608500Y-127404298D01*
G36*
X195148501Y-127404298D02*
G01*
X195136903Y-127409102D01*
X194935283Y-127543820D01*
X194763820Y-127715283D01*
X194629102Y-127916903D01*
X194536307Y-128140931D01*
X194489000Y-128378757D01*
X194489000Y-128621243D01*
X194536307Y-128859069D01*
X194629102Y-129083097D01*
X194763820Y-129284717D01*
X194935283Y-129456180D01*
X195136903Y-129590898D01*
X195144392Y-129594000D01*
X193755608Y-129594000D01*
X193763097Y-129590898D01*
X193964717Y-129456180D01*
X194136180Y-129284717D01*
X194270898Y-129083097D01*
X194363693Y-128859069D01*
X194411000Y-128621243D01*
X194411000Y-128378757D01*
X194363693Y-128140931D01*
X194270898Y-127916903D01*
X194136180Y-127715283D01*
X193964717Y-127543820D01*
X193763097Y-127409102D01*
X193751500Y-127404298D01*
X193751500Y-82188074D01*
X193754265Y-82160000D01*
X193743231Y-82047966D01*
X193710552Y-81940238D01*
X193705881Y-81931500D01*
X195148500Y-81931500D01*
X195148501Y-127404298D01*
G37*
X195148501Y-127404298D02*
X195136903Y-127409102D01*
X194935283Y-127543820D01*
X194763820Y-127715283D01*
X194629102Y-127916903D01*
X194536307Y-128140931D01*
X194489000Y-128378757D01*
X194489000Y-128621243D01*
X194536307Y-128859069D01*
X194629102Y-129083097D01*
X194763820Y-129284717D01*
X194935283Y-129456180D01*
X195136903Y-129590898D01*
X195144392Y-129594000D01*
X193755608Y-129594000D01*
X193763097Y-129590898D01*
X193964717Y-129456180D01*
X194136180Y-129284717D01*
X194270898Y-129083097D01*
X194363693Y-128859069D01*
X194411000Y-128621243D01*
X194411000Y-128378757D01*
X194363693Y-128140931D01*
X194270898Y-127916903D01*
X194136180Y-127715283D01*
X193964717Y-127543820D01*
X193763097Y-127409102D01*
X193751500Y-127404298D01*
X193751500Y-82188074D01*
X193754265Y-82160000D01*
X193743231Y-82047966D01*
X193710552Y-81940238D01*
X193705881Y-81931500D01*
X195148500Y-81931500D01*
X195148501Y-127404298D01*
G36*
X174828501Y-127404298D02*
G01*
X174816903Y-127409102D01*
X174615283Y-127543820D01*
X174443820Y-127715283D01*
X174309102Y-127916903D01*
X174216307Y-128140931D01*
X174169000Y-128378757D01*
X174169000Y-128621243D01*
X174216307Y-128859069D01*
X174309102Y-129083097D01*
X174443820Y-129284717D01*
X174615283Y-129456180D01*
X174816903Y-129590898D01*
X174824392Y-129594000D01*
X173435608Y-129594000D01*
X173443097Y-129590898D01*
X173644717Y-129456180D01*
X173816180Y-129284717D01*
X173950898Y-129083097D01*
X174043693Y-128859069D01*
X174091000Y-128621243D01*
X174091000Y-128378757D01*
X174043693Y-128140931D01*
X173950898Y-127916903D01*
X173816180Y-127715283D01*
X173644717Y-127543820D01*
X173443097Y-127409102D01*
X173431500Y-127404298D01*
X173431500Y-88588074D01*
X173434265Y-88560000D01*
X173423231Y-88447966D01*
X173390552Y-88340238D01*
X173385881Y-88331500D01*
X174828500Y-88331500D01*
X174828501Y-127404298D01*
G37*
X174828501Y-127404298D02*
X174816903Y-127409102D01*
X174615283Y-127543820D01*
X174443820Y-127715283D01*
X174309102Y-127916903D01*
X174216307Y-128140931D01*
X174169000Y-128378757D01*
X174169000Y-128621243D01*
X174216307Y-128859069D01*
X174309102Y-129083097D01*
X174443820Y-129284717D01*
X174615283Y-129456180D01*
X174816903Y-129590898D01*
X174824392Y-129594000D01*
X173435608Y-129594000D01*
X173443097Y-129590898D01*
X173644717Y-129456180D01*
X173816180Y-129284717D01*
X173950898Y-129083097D01*
X174043693Y-128859069D01*
X174091000Y-128621243D01*
X174091000Y-128378757D01*
X174043693Y-128140931D01*
X173950898Y-127916903D01*
X173816180Y-127715283D01*
X173644717Y-127543820D01*
X173443097Y-127409102D01*
X173431500Y-127404298D01*
X173431500Y-88588074D01*
X173434265Y-88560000D01*
X173423231Y-88447966D01*
X173390552Y-88340238D01*
X173385881Y-88331500D01*
X174828500Y-88331500D01*
X174828501Y-127404298D01*
G36*
X177368501Y-127404298D02*
G01*
X177356903Y-127409102D01*
X177155283Y-127543820D01*
X176983820Y-127715283D01*
X176849102Y-127916903D01*
X176756307Y-128140931D01*
X176709000Y-128378757D01*
X176709000Y-128621243D01*
X176756307Y-128859069D01*
X176849102Y-129083097D01*
X176983820Y-129284717D01*
X177155283Y-129456180D01*
X177356903Y-129590898D01*
X177364392Y-129594000D01*
X175975608Y-129594000D01*
X175983097Y-129590898D01*
X176184717Y-129456180D01*
X176356180Y-129284717D01*
X176490898Y-129083097D01*
X176583693Y-128859069D01*
X176631000Y-128621243D01*
X176631000Y-128378757D01*
X176583693Y-128140931D01*
X176490898Y-127916903D01*
X176356180Y-127715283D01*
X176184717Y-127543820D01*
X175983097Y-127409102D01*
X175971500Y-127404298D01*
X175971500Y-87788074D01*
X175974265Y-87760000D01*
X175963231Y-87647966D01*
X175930552Y-87540238D01*
X175925881Y-87531500D01*
X177368500Y-87531500D01*
X177368501Y-127404298D01*
G37*
X177368501Y-127404298D02*
X177356903Y-127409102D01*
X177155283Y-127543820D01*
X176983820Y-127715283D01*
X176849102Y-127916903D01*
X176756307Y-128140931D01*
X176709000Y-128378757D01*
X176709000Y-128621243D01*
X176756307Y-128859069D01*
X176849102Y-129083097D01*
X176983820Y-129284717D01*
X177155283Y-129456180D01*
X177356903Y-129590898D01*
X177364392Y-129594000D01*
X175975608Y-129594000D01*
X175983097Y-129590898D01*
X176184717Y-129456180D01*
X176356180Y-129284717D01*
X176490898Y-129083097D01*
X176583693Y-128859069D01*
X176631000Y-128621243D01*
X176631000Y-128378757D01*
X176583693Y-128140931D01*
X176490898Y-127916903D01*
X176356180Y-127715283D01*
X176184717Y-127543820D01*
X175983097Y-127409102D01*
X175971500Y-127404298D01*
X175971500Y-87788074D01*
X175974265Y-87760000D01*
X175963231Y-87647966D01*
X175930552Y-87540238D01*
X175925881Y-87531500D01*
X177368500Y-87531500D01*
X177368501Y-127404298D01*
G36*
X179908501Y-127404298D02*
G01*
X179896903Y-127409102D01*
X179695283Y-127543820D01*
X179523820Y-127715283D01*
X179389102Y-127916903D01*
X179296307Y-128140931D01*
X179249000Y-128378757D01*
X179249000Y-128621243D01*
X179296307Y-128859069D01*
X179389102Y-129083097D01*
X179523820Y-129284717D01*
X179695283Y-129456180D01*
X179896903Y-129590898D01*
X179904392Y-129594000D01*
X178515608Y-129594000D01*
X178523097Y-129590898D01*
X178724717Y-129456180D01*
X178896180Y-129284717D01*
X179030898Y-129083097D01*
X179123693Y-128859069D01*
X179171000Y-128621243D01*
X179171000Y-128378757D01*
X179123693Y-128140931D01*
X179030898Y-127916903D01*
X178896180Y-127715283D01*
X178724717Y-127543820D01*
X178523097Y-127409102D01*
X178511500Y-127404298D01*
X178511500Y-86988074D01*
X178514265Y-86960000D01*
X178503231Y-86847966D01*
X178470552Y-86740238D01*
X178465881Y-86731500D01*
X179908500Y-86731500D01*
X179908501Y-127404298D01*
G37*
X179908501Y-127404298D02*
X179896903Y-127409102D01*
X179695283Y-127543820D01*
X179523820Y-127715283D01*
X179389102Y-127916903D01*
X179296307Y-128140931D01*
X179249000Y-128378757D01*
X179249000Y-128621243D01*
X179296307Y-128859069D01*
X179389102Y-129083097D01*
X179523820Y-129284717D01*
X179695283Y-129456180D01*
X179896903Y-129590898D01*
X179904392Y-129594000D01*
X178515608Y-129594000D01*
X178523097Y-129590898D01*
X178724717Y-129456180D01*
X178896180Y-129284717D01*
X179030898Y-129083097D01*
X179123693Y-128859069D01*
X179171000Y-128621243D01*
X179171000Y-128378757D01*
X179123693Y-128140931D01*
X179030898Y-127916903D01*
X178896180Y-127715283D01*
X178724717Y-127543820D01*
X178523097Y-127409102D01*
X178511500Y-127404298D01*
X178511500Y-86988074D01*
X178514265Y-86960000D01*
X178503231Y-86847966D01*
X178470552Y-86740238D01*
X178465881Y-86731500D01*
X179908500Y-86731500D01*
X179908501Y-127404298D01*
G36*
X182448501Y-127404298D02*
G01*
X182436903Y-127409102D01*
X182235283Y-127543820D01*
X182063820Y-127715283D01*
X181929102Y-127916903D01*
X181836307Y-128140931D01*
X181789000Y-128378757D01*
X181789000Y-128621243D01*
X181836307Y-128859069D01*
X181929102Y-129083097D01*
X182063820Y-129284717D01*
X182235283Y-129456180D01*
X182436903Y-129590898D01*
X182444392Y-129594000D01*
X181055608Y-129594000D01*
X181063097Y-129590898D01*
X181264717Y-129456180D01*
X181436180Y-129284717D01*
X181570898Y-129083097D01*
X181663693Y-128859069D01*
X181711000Y-128621243D01*
X181711000Y-128378757D01*
X181663693Y-128140931D01*
X181570898Y-127916903D01*
X181436180Y-127715283D01*
X181264717Y-127543820D01*
X181063097Y-127409102D01*
X181051500Y-127404298D01*
X181051500Y-86188074D01*
X181054265Y-86160000D01*
X181043231Y-86047966D01*
X181010552Y-85940238D01*
X181005881Y-85931500D01*
X182448500Y-85931500D01*
X182448501Y-127404298D01*
G37*
X182448501Y-127404298D02*
X182436903Y-127409102D01*
X182235283Y-127543820D01*
X182063820Y-127715283D01*
X181929102Y-127916903D01*
X181836307Y-128140931D01*
X181789000Y-128378757D01*
X181789000Y-128621243D01*
X181836307Y-128859069D01*
X181929102Y-129083097D01*
X182063820Y-129284717D01*
X182235283Y-129456180D01*
X182436903Y-129590898D01*
X182444392Y-129594000D01*
X181055608Y-129594000D01*
X181063097Y-129590898D01*
X181264717Y-129456180D01*
X181436180Y-129284717D01*
X181570898Y-129083097D01*
X181663693Y-128859069D01*
X181711000Y-128621243D01*
X181711000Y-128378757D01*
X181663693Y-128140931D01*
X181570898Y-127916903D01*
X181436180Y-127715283D01*
X181264717Y-127543820D01*
X181063097Y-127409102D01*
X181051500Y-127404298D01*
X181051500Y-86188074D01*
X181054265Y-86160000D01*
X181043231Y-86047966D01*
X181010552Y-85940238D01*
X181005881Y-85931500D01*
X182448500Y-85931500D01*
X182448501Y-127404298D01*
G36*
X184988501Y-127404298D02*
G01*
X184976903Y-127409102D01*
X184775283Y-127543820D01*
X184603820Y-127715283D01*
X184469102Y-127916903D01*
X184376307Y-128140931D01*
X184329000Y-128378757D01*
X184329000Y-128621243D01*
X184376307Y-128859069D01*
X184469102Y-129083097D01*
X184603820Y-129284717D01*
X184775283Y-129456180D01*
X184976903Y-129590898D01*
X184984392Y-129594000D01*
X183595608Y-129594000D01*
X183603097Y-129590898D01*
X183804717Y-129456180D01*
X183976180Y-129284717D01*
X184110898Y-129083097D01*
X184203693Y-128859069D01*
X184251000Y-128621243D01*
X184251000Y-128378757D01*
X184203693Y-128140931D01*
X184110898Y-127916903D01*
X183976180Y-127715283D01*
X183804717Y-127543820D01*
X183603097Y-127409102D01*
X183591500Y-127404298D01*
X183591500Y-85388074D01*
X183594265Y-85360000D01*
X183583231Y-85247966D01*
X183550552Y-85140238D01*
X183545881Y-85131500D01*
X184988500Y-85131500D01*
X184988501Y-127404298D01*
G37*
X184988501Y-127404298D02*
X184976903Y-127409102D01*
X184775283Y-127543820D01*
X184603820Y-127715283D01*
X184469102Y-127916903D01*
X184376307Y-128140931D01*
X184329000Y-128378757D01*
X184329000Y-128621243D01*
X184376307Y-128859069D01*
X184469102Y-129083097D01*
X184603820Y-129284717D01*
X184775283Y-129456180D01*
X184976903Y-129590898D01*
X184984392Y-129594000D01*
X183595608Y-129594000D01*
X183603097Y-129590898D01*
X183804717Y-129456180D01*
X183976180Y-129284717D01*
X184110898Y-129083097D01*
X184203693Y-128859069D01*
X184251000Y-128621243D01*
X184251000Y-128378757D01*
X184203693Y-128140931D01*
X184110898Y-127916903D01*
X183976180Y-127715283D01*
X183804717Y-127543820D01*
X183603097Y-127409102D01*
X183591500Y-127404298D01*
X183591500Y-85388074D01*
X183594265Y-85360000D01*
X183583231Y-85247966D01*
X183550552Y-85140238D01*
X183545881Y-85131500D01*
X184988500Y-85131500D01*
X184988501Y-127404298D01*
G36*
X187528501Y-127404298D02*
G01*
X187516903Y-127409102D01*
X187315283Y-127543820D01*
X187143820Y-127715283D01*
X187009102Y-127916903D01*
X186916307Y-128140931D01*
X186869000Y-128378757D01*
X186869000Y-128621243D01*
X186916307Y-128859069D01*
X187009102Y-129083097D01*
X187143820Y-129284717D01*
X187315283Y-129456180D01*
X187516903Y-129590898D01*
X187524392Y-129594000D01*
X186135608Y-129594000D01*
X186143097Y-129590898D01*
X186344717Y-129456180D01*
X186516180Y-129284717D01*
X186650898Y-129083097D01*
X186743693Y-128859069D01*
X186791000Y-128621243D01*
X186791000Y-128378757D01*
X186743693Y-128140931D01*
X186650898Y-127916903D01*
X186516180Y-127715283D01*
X186344717Y-127543820D01*
X186143097Y-127409102D01*
X186131500Y-127404298D01*
X186131500Y-84588074D01*
X186134265Y-84560000D01*
X186123231Y-84447966D01*
X186090552Y-84340238D01*
X186085881Y-84331500D01*
X187528500Y-84331500D01*
X187528501Y-127404298D01*
G37*
X187528501Y-127404298D02*
X187516903Y-127409102D01*
X187315283Y-127543820D01*
X187143820Y-127715283D01*
X187009102Y-127916903D01*
X186916307Y-128140931D01*
X186869000Y-128378757D01*
X186869000Y-128621243D01*
X186916307Y-128859069D01*
X187009102Y-129083097D01*
X187143820Y-129284717D01*
X187315283Y-129456180D01*
X187516903Y-129590898D01*
X187524392Y-129594000D01*
X186135608Y-129594000D01*
X186143097Y-129590898D01*
X186344717Y-129456180D01*
X186516180Y-129284717D01*
X186650898Y-129083097D01*
X186743693Y-128859069D01*
X186791000Y-128621243D01*
X186791000Y-128378757D01*
X186743693Y-128140931D01*
X186650898Y-127916903D01*
X186516180Y-127715283D01*
X186344717Y-127543820D01*
X186143097Y-127409102D01*
X186131500Y-127404298D01*
X186131500Y-84588074D01*
X186134265Y-84560000D01*
X186123231Y-84447966D01*
X186090552Y-84340238D01*
X186085881Y-84331500D01*
X187528500Y-84331500D01*
X187528501Y-127404298D01*
G36*
X190068500Y-127404298D02*
G01*
X190056903Y-127409102D01*
X189855283Y-127543820D01*
X189683820Y-127715283D01*
X189549102Y-127916903D01*
X189456307Y-128140931D01*
X189409000Y-128378757D01*
X189409000Y-128621243D01*
X189456307Y-128859069D01*
X189549102Y-129083097D01*
X189683820Y-129284717D01*
X189855283Y-129456180D01*
X190056903Y-129590898D01*
X190064392Y-129594000D01*
X188675608Y-129594000D01*
X188683097Y-129590898D01*
X188884717Y-129456180D01*
X189056180Y-129284717D01*
X189190898Y-129083097D01*
X189283693Y-128859069D01*
X189331000Y-128621243D01*
X189331000Y-128378757D01*
X189283693Y-128140931D01*
X189190898Y-127916903D01*
X189056180Y-127715283D01*
X188884717Y-127543820D01*
X188683097Y-127409102D01*
X188671500Y-127404298D01*
X188671500Y-83788074D01*
X188674265Y-83760000D01*
X188663231Y-83647966D01*
X188630552Y-83540238D01*
X188625881Y-83531500D01*
X190068501Y-83531500D01*
X190068500Y-127404298D01*
G37*
X190068500Y-127404298D02*
X190056903Y-127409102D01*
X189855283Y-127543820D01*
X189683820Y-127715283D01*
X189549102Y-127916903D01*
X189456307Y-128140931D01*
X189409000Y-128378757D01*
X189409000Y-128621243D01*
X189456307Y-128859069D01*
X189549102Y-129083097D01*
X189683820Y-129284717D01*
X189855283Y-129456180D01*
X190056903Y-129590898D01*
X190064392Y-129594000D01*
X188675608Y-129594000D01*
X188683097Y-129590898D01*
X188884717Y-129456180D01*
X189056180Y-129284717D01*
X189190898Y-129083097D01*
X189283693Y-128859069D01*
X189331000Y-128621243D01*
X189331000Y-128378757D01*
X189283693Y-128140931D01*
X189190898Y-127916903D01*
X189056180Y-127715283D01*
X188884717Y-127543820D01*
X188683097Y-127409102D01*
X188671500Y-127404298D01*
X188671500Y-83788074D01*
X188674265Y-83760000D01*
X188663231Y-83647966D01*
X188630552Y-83540238D01*
X188625881Y-83531500D01*
X190068501Y-83531500D01*
X190068500Y-127404298D01*
M02*
